<?xml version="1.0" encoding="UTF-8" standalone="no"?>
<!DOCTYPE svg  PUBLIC '-//W3C//DTD SVG 1.1//EN'  'http://www.w3.org/Graphics/SVG/1.1/DTD/svg11.dtd'>
<svg xmlns="http://www.w3.org/2000/svg">
<defs>
<font id="ArialMT-Regular" horiz-adv-x="1139">
<font-face underline-position="-142" font-weight="400" descent="-410" panose-1="2 11 6 4 2 2 2 2 2 4" units-per-em="2048" unicode-range="U+0020-A78C" bbox="-909.017 -579 2679 2060" x-height="1062" underline-thickness="150" font-family="ArialMT" ascent="1638" cap-height="1466"/>
<missing-glyph horiz-adv-x="2048"/>
<glyph glyph-name=".notdef" horiz-adv-x="2048"/>
<glyph glyph-name=".null" horiz-adv-x="0"/>
<glyph glyph-name="nonmarkingreturn" horiz-adv-x="2048"/>
<glyph glyph-name="space" horiz-adv-x="569" unicode=" "/>
<glyph glyph-name="space" horiz-adv-x="569" unicode=" "/>
<glyph glyph-name="exclam" horiz-adv-x="569" unicode="!" d="M184 0v205h207v-205h-207zM231 364l-55 777v325h223v-325l-52 -777h-116z"/>
<glyph glyph-name="quotedbl" horiz-adv-x="727" unicode='&quot;' d="M475 947l-49 279v240h205v-240l-48 -279h-108zM144 947l-50 279v240h205v-240l-45 -279h-110z"/>
<glyph glyph-name="numbersign" d="M370 550h314l75 363h-315zM103 -25l87 426h-169v149h199l74 363h-273v149h303l87 429h150l-87 -429h315l87 429h151l-87 -429h173v-149h-203l-75 -363h278v-149h-308l-87 -426h-150l86 426h-314l-87 -426h-150z" unicode="#"/>
<glyph glyph-name="dollar" d="M616 121q105 13 173.5 91t68.5 193q0 98 -48.5 157.5t-193.5 106.5v-548zM510 1365q-105 -16 -165.5 -84t-60.5 -161q0 -92 51.5 -154t174.5 -99v498zM510 -211v180q-135 17 -219.5 60.5t-146 140.5t-71.5 237l181 34q21 -145 74 -213q76 -96 182 -107v573 q-111 21 -227 86q-86 48 -132.5 133t-46.5 193q0 192 136 311q91 80 270 98v86h106v-86q157 -15 249 -92q118 -98 142 -269l-186 -28q-16 106 -66.5 162.5t-138.5 74.5v-519q136 -34 180 -53q84 -37 137 -90t81.5 -126t28.5 -158q0 -187 -119 -312t-308 -134v-182h-106z" unicode="$"/>
<glyph glyph-name="percent" horiz-adv-x="1821" unicode="%" d="M1381 597q-68 0 -112.5 -58t-44.5 -213q0 -140 45 -198t111 -58q69 0 113.5 58t44.5 212q0 142 -45 199.5t-112 57.5zM1067 344q0 158 79 267.5t230 109.5q138 0 228.5 -98.5t90.5 -289.5q0 -186 -91.5 -286.5t-226.5 -100.5q-133 0 -221.5 99.5t-88.5 298.5zM433 -54 l802 1545h146l-799 -1545h-149zM432 1367q-67 0 -111.5 -58t-44.5 -213q0 -141 45 -198.5t111 -57.5q68 0 112.5 58t44.5 212q0 142 -45 199.5t-112 57.5zM119 1114q0 157 79 267t229 110q138 0 228.5 -98.5t90.5 -289.5q0 -186 -91.5 -286.5t-225.5 -100.5 q-133 0 -221.5 99t-88.5 299z"/>
<glyph glyph-name="ampersand" horiz-adv-x="1366" unicode="&amp;" d="M860 315l-330 409q-146 -87 -197 -161.5t-51 -147.5q0 -89 71 -185t201 -96q81 0 167.5 50.5t138.5 130.5zM607 937q117 69 151.5 121t34.5 115q0 75 -47.5 122.5t-118.5 47.5q-73 0 -121.5 -47t-48.5 -115q0 -34 17.5 -71.5t52.5 -79.5zM973 173q-89 -99 -194 -148.5 t-227 -49.5q-225 0 -357 152q-107 124 -107 277q0 136 87.5 245.5t261.5 192.5q-99 114 -132 185t-33 137q0 132 103.5 229.5t260.5 97.5q150 0 245.5 -92t95.5 -221q0 -209 -277 -357l263 -335q45 88 70 204l187 -40q-48 -192 -130 -316q101 -134 229 -225l-121 -143 q-109 70 -225 207z"/>
<glyph glyph-name="quotesingle" horiz-adv-x="391" unicode="&apos;" d="M136 947l-46 274v245h205v-245l-48 -274h-111z"/>
<glyph glyph-name="parenleft" horiz-adv-x="682" unicode="(" d="M479 -431q-149 188 -252 440t-103 522q0 238 77 456q90 253 278 504h129q-121 -208 -160 -297q-61 -138 -96 -288q-43 -187 -43 -376q0 -481 299 -961h-129z"/>
<glyph glyph-name="parenright" horiz-adv-x="682" unicode=")" d="M253 -431h-129q299 480 299 961q0 188 -43 373q-34 150 -95 288q-39 90 -161 300h129q188 -251 278 -504q77 -218 77 -456q0 -270 -103.5 -522t-251.5 -440z"/>
<glyph glyph-name="asterisk" horiz-adv-x="797" unicode="*" d="M64 1197l46 142q159 -56 231 -97q-19 181 -20 249h145q-3 -99 -23 -248q103 52 236 96l46 -142q-127 -42 -249 -56q61 -53 172 -189l-120 -85q-58 79 -137 215q-74 -141 -130 -215l-118 85q116 143 166 189q-129 25 -245 56z"/>
<glyph glyph-name="plus" horiz-adv-x="1196" unicode="+" d="M513 237v402h-399v168h399v399h170v-399h399v-168h-399v-402h-170z"/>
<glyph glyph-name="comma" horiz-adv-x="569" unicode="," d="M182 0v205h205v-205q0 -113 -40 -182.5t-127 -107.5l-50 77q57 25 84 73.5t30 139.5h-102z"/>
<glyph glyph-name="hyphen" horiz-adv-x="682" unicode="-" d="M65 440v181h553v-181h-553z"/>
<glyph glyph-name="hyphen" horiz-adv-x="682" unicode="­" d="M65 440v181h553v-181h-553z"/>
<glyph glyph-name="period" horiz-adv-x="569" unicode="." d="M186 0v205h205v-205h-205z"/>
<glyph glyph-name="slash" horiz-adv-x="569" unicode="/" d="M0 -25l425 1516h144l-424 -1516h-145z"/>
<glyph glyph-name="zero" d="M270 723q0 -361 84.5 -480.5t208.5 -119.5t208.5 120t84.5 480q0 362 -84.5 481t-210.5 119q-124 0 -198 -105q-93 -134 -93 -495zM85 723q0 260 53.5 418.5t159 244.5t265.5 86q118 0 207 -47.5t147 -137t91 -218t33 -346.5q0 -258 -53 -416.5t-158.5 -245t-266.5 -86.5 q-212 0 -333 152q-145 183 -145 596z" unicode="0"/>
<glyph glyph-name="one" d="M763 0h-180v1147q-65 -62 -170.5 -124t-189.5 -93v174q151 71 264 172t160 196h116v-1472z" unicode="1"/>
<glyph glyph-name="two" d="M1031 173v-173h-969v10q0 59 21 115q37 99 118.5 195t235.5 222q239 196 323 310.5t84 216.5q0 107 -76.5 180.5t-199.5 73.5q-130 0 -208 -78t-79 -216l-185 19q19 207 143 315.5t333 108.5q211 0 334 -117t123 -290q0 -88 -36 -173t-119.5 -179t-277.5 -258 q-162 -136 -208 -184.5t-76 -97.5h719z" unicode="2"/>
<glyph glyph-name="three" d="M86 387l180 24q31 -153 105.5 -220.5t181.5 -67.5q127 0 214.5 88t87.5 218q0 124 -81 204.5t-206 80.5q-51 0 -127 -20l20 158q18 -2 29 -2q115 0 207 60t92 185q0 99 -67 164t-173 65q-105 0 -175 -66t-90 -198l-180 32q33 181 150 280.5t291 99.5q120 0 221 -51.5 t154.5 -140.5t53.5 -189q0 -95 -51 -173t-151 -124q130 -30 202 -124.5t72 -236.5q0 -192 -140 -325.5t-354 -133.5q-193 0 -320.5 115t-145.5 298z" unicode="3"/>
<glyph glyph-name="four" d="M662 516v661l-459 -661h459zM662 0v351h-636v165l669 950h147v-950h198v-165h-198v-351h-180z" unicode="4"/>
<glyph glyph-name="five" d="M85 384l189 16q21 -138 97.5 -207.5t184.5 -69.5q130 0 220 98t90 260q0 154 -86.5 243t-226.5 89q-87 0 -157 -39.5t-110 -102.5l-169 22l142 753h729v-172h-585l-79 -394q132 92 277 92q192 0 324 -133t132 -342q0 -199 -116 -344q-141 -178 -385 -178 q-200 0 -326.5 112t-144.5 297z" unicode="5"/>
<glyph glyph-name="six" d="M284 475q0 -93 39.5 -178t110.5 -129.5t149 -44.5q114 0 196 92t82 250q0 152 -81 239.5t-204 87.5q-122 0 -207 -87.5t-85 -229.5zM1019 1107l-179 -14q-24 106 -68 154q-73 77 -180 77q-86 0 -151 -48q-85 -62 -134 -181t-51 -339q65 99 159 147t197 48 q180 0 306.5 -132.5t126.5 -342.5q0 -138 -59.5 -256.5t-163.5 -181.5t-236 -63q-225 0 -367 165.5t-142 545.5q0 425 157 618q137 168 369 168q173 0 283.5 -97t132.5 -268z" unicode="6"/>
<glyph glyph-name="seven" d="M97 1274v173h949v-140q-140 -149 -277.5 -396t-212.5 -508q-54 -184 -69 -403h-185q3 173 68 418t186.5 472.5t258.5 383.5h-718z" unicode="7"/>
<glyph glyph-name="eight" d="M268 423q0 -77 36.5 -149t108.5 -111.5t155 -39.5q129 0 213 83t84 211q0 130 -86.5 215t-216.5 85q-127 0 -210.5 -84t-83.5 -210zM326 1100q0 -104 67 -170t174 -66q104 0 170.5 65.5t66.5 160.5q0 99 -68.5 166.5t-170.5 67.5q-103 0 -171 -66t-68 -158zM362 795 q-112 41 -166 117t-54 182q0 160 115 269t306 109q192 0 309 -111.5t117 -271.5q0 -102 -53.5 -177.5t-162.5 -116.5q135 -44 205.5 -142t70.5 -234q0 -188 -133 -316t-350 -128t-350 128.5t-133 320.5q0 143 72.5 239.5t206.5 131.5z" unicode="8"/>
<glyph glyph-name="nine" d="M849 986q0 155 -82.5 246t-198.5 91q-120 0 -209 -98t-89 -254q0 -140 84.5 -227.5t208.5 -87.5q125 0 205.5 87.5t80.5 242.5zM112 339l173 16q22 -122 84 -177t159 -55q83 0 145.5 38t102.5 101.5t67 171.5t27 220q0 12 -1 36q-54 -86 -147.5 -139.5t-202.5 -53.5 q-182 0 -308 132t-126 348q0 223 131.5 359t329.5 136q143 0 261.5 -77t180 -219.5t61.5 -412.5q0 -281 -61 -447.5t-181.5 -253.5t-282.5 -87q-172 0 -281 95.5t-131 268.5z" unicode="9"/>
<glyph glyph-name="colon" horiz-adv-x="569" unicode=":" d="M185 0v205h205v-205h-205zM185 857v205h205v-205h-205z"/>
<glyph glyph-name="less" horiz-adv-x="1196" unicode="&lt;" d="M112 641v168l971 410v-179l-770 -316l770 -319v-179z"/>
<glyph glyph-name="equal" horiz-adv-x="1196" unicode="=" d="M1082 417h-968v168h968v-168zM1082 862h-968v168h968v-168z"/>
<glyph glyph-name="greater" horiz-adv-x="1196" unicode="&gt;" d="M1083 641l-971 -415v179l769 319l-769 316v179l971 -410v-168z"/>
<glyph glyph-name="question" d="M461 0v205h205v-205h-205zM472 361q-1 36 -1 54q0 106 30 183q22 58 71 117q36 43 129.5 125.5t121.5 131.5t28 107q0 105 -82 184.5t-201 79.5q-115 0 -192 -72t-101 -225l-185 22q25 205 148.5 314t326.5 109q215 0 343 -117t128 -283q0 -96 -45 -177t-176 -197 q-88 -78 -115 -115t-40 -85t-15 -156h-173z" unicode="?"/>
<glyph glyph-name="at" horiz-adv-x="2079" unicode="@" d="M677 434q0 -137 65 -213t149 -76q56 0 118 33.5t118.5 99.5t92.5 167.5t36 203.5q0 136 -67.5 211t-164.5 75q-64 0 -120.5 -32.5t-109.5 -104.5t-85 -175t-32 -189zM1161 163q-65 -75 -145.5 -120.5t-161.5 -45.5q-89 0 -173 52t-136.5 160t-52.5 237q0 159 81.5 318.5 t202.5 239.5t235 80q87 0 166 -45.5t136 -138.5l34 155h179l-144 -671q-30 -140 -30 -155q0 -27 20.5 -46.5t49.5 -19.5q53 0 139 61q114 80 180.5 214.5t66.5 277.5q0 167 -85.5 312t-255 232t-374.5 87q-234 0 -427.5 -109.5t-300 -314t-106.5 -438.5q0 -245 106.5 -422 t308 -261.5t446.5 -84.5q262 0 439 88t265 214h181q-51 -105 -175 -214t-295 -172.5t-412 -63.5q-222 0 -409.5 57t-319.5 171.5t-199 263.5q-84 189 -84 408q0 244 100 465q122 271 346.5 415t544.5 144q248 0 445.5 -101.5t311.5 -302.5q97 -173 97 -376q0 -290 -204 -515 q-182 -202 -398 -202q-69 0 -111.5 21t-62.5 60q-13 25 -19 86z"/>
<glyph glyph-name="A" horiz-adv-x="1366" unicode="A" d="M420 602h497l-153 406q-70 185 -104 304q-28 -141 -79 -280zM-3 0l563 1466h209l600 -1466h-221l-171 444h-613l-161 -444h-206z"/>
<glyph glyph-name="B" horiz-adv-x="1366" unicode="B" d="M344 173h365q94 0 132 7q67 12 112 40t74 81.5t29 123.5q0 82 -42 142.5t-116.5 85t-214.5 24.5h-339v-504zM344 850h317q129 0 185 17q74 22 111.5 73t37.5 128q0 73 -35 128.5t-100 76t-223 20.5h-293v-443zM150 0v1466h550q168 0 269.5 -44.5t159 -137t57.5 -193.5 q0 -94 -51 -177t-154 -134q133 -39 204.5 -133t71.5 -222q0 -103 -43.5 -191.5t-107.5 -136.5t-160.5 -72.5t-236.5 -24.5h-559z"/>
<glyph glyph-name="C" horiz-adv-x="1479" unicode="C" d="M1204 514l194 -49q-61 -239 -219.5 -364.5t-387.5 -125.5q-237 0 -385.5 96.5t-226 279.5t-77.5 393q0 229 87.5 399.5t249 259t355.5 88.5q220 0 370 -112t209 -315l-191 -45q-51 160 -148 233t-244 73q-169 0 -282.5 -81t-159.5 -217.5t-46 -281.5q0 -187 54.5 -326.5 t169.5 -208.5t249 -69q163 0 276 94t153 279z"/>
<glyph glyph-name="D" horiz-adv-x="1479" unicode="D" d="M352 173h313q145 0 227.5 27t131.5 76q69 69 107.5 185.5t38.5 282.5q0 230 -75.5 353.5t-183.5 165.5q-78 30 -251 30h-308v-1120zM158 0v1466h505q171 0 261 -21q126 -29 215 -105q116 -98 173.5 -250.5t57.5 -348.5q0 -167 -39 -296t-100 -213.5t-133.5 -133 t-175 -73.5t-235.5 -25h-529z"/>
<glyph glyph-name="E" horiz-adv-x="1366" unicode="E" d="M162 0v1466h1060v-173h-866v-449h811v-172h-811v-499h900v-173h-1094z"/>
<glyph glyph-name="F" horiz-adv-x="1251" unicode="F" d="M168 0v1466h989v-173h-795v-454h688v-173h-688v-666h-194z"/>
<glyph glyph-name="G" horiz-adv-x="1593" unicode="G" d="M844 575v172l621 1v-544q-143 -114 -295 -171.5t-312 -57.5q-216 0 -392.5 92.5t-266.5 267.5t-90 391q0 214 89.5 399.5t257.5 275.5t387 90q159 0 287.5 -51.5t201.5 -143.5t111 -240l-175 -48q-33 112 -82 176t-140 102.5t-202 38.5q-133 0 -230 -40.5t-156.5 -106.5 t-92.5 -145q-56 -136 -56 -295q0 -196 67.5 -328t196.5 -196t274 -64q126 0 246 48.5t182 103.5v273h-431z"/>
<glyph glyph-name="H" horiz-adv-x="1479" unicode="H" d="M164 0v1466h194v-602h762v602h194v-1466h-194v691h-762v-691h-194z"/>
<glyph glyph-name="I" horiz-adv-x="569" unicode="I" d="M191 0v1466h194v-1466h-194z"/>
<glyph glyph-name="J" horiz-adv-x="1024" unicode="J" d="M59 416l175 24q7 -168 63 -230t155 -62q73 0 126 33.5t73 91t20 183.5v1010h194v-999q0 -184 -44.5 -285t-141 -154t-226.5 -53q-193 0 -295 111q-99 107 -99 314v16z"/>
<glyph glyph-name="K" horiz-adv-x="1366" unicode="K" d="M150 0v1466h194v-727l728 727h263l-615 -594l642 -872h-256l-522 742l-240 -234v-508h-194z"/>
<glyph glyph-name="L" d="M150 0v1466h194v-1293h722v-173h-916z" unicode="L"/>
<glyph glyph-name="M" horiz-adv-x="1706" unicode="M" d="M152 0v1466h292l347 -1038q48 -145 70 -217q25 80 78 235l351 1020h261v-1466h-187v1227l-426 -1227h-175l-424 1248v-1248h-187z"/>
<glyph glyph-name="N" horiz-adv-x="1479" unicode="N" d="M156 0v1466h199l770 -1151v1151h186v-1466h-199l-770 1152v-1152h-186z"/>
<glyph glyph-name="O" horiz-adv-x="1593" unicode="O" d="M299 711q0 -265 142.5 -417.5t357.5 -152.5q219 0 360.5 154t141.5 437q0 179 -60.5 312.5t-177 207t-261.5 73.5q-206 0 -354.5 -141.5t-148.5 -472.5zM99 714q0 365 196 571.5t506 206.5q203 0 366 -97t248.5 -270.5t85.5 -393.5q0 -223 -90 -399t-255 -266.5 t-356 -90.5q-207 0 -370 100t-247 273t-84 366z"/>
<glyph glyph-name="P" horiz-adv-x="1366" unicode="P" d="M352 769h379q188 0 267 70t79 197q0 92 -46.5 157.5t-122.5 86.5q-49 13 -181 13h-375v-524zM158 0v1466h553q146 0 223 -14q108 -18 181 -68.5t117.5 -141.5t44.5 -200q0 -187 -119 -316.5t-430 -129.5h-376v-596h-194z"/>
<glyph glyph-name="Q" horiz-adv-x="1593" unicode="Q" d="M842 405q168 -47 277 -140q171 156 171 469q0 178 -60.5 311t-177 206.5t-261.5 73.5q-217 0 -360 -148.5t-143 -443.5q0 -286 141.5 -439t361.5 -153q104 0 196 39q-91 59 -192 84zM1269 157q135 -93 249 -136l-57 -135q-158 57 -315 180q-163 -91 -360 -91 q-199 0 -361 96t-249.5 270t-87.5 392q0 217 88 395t250.5 271t363.5 93q203 0 366 -96.5t248.5 -270t85.5 -391.5q0 -181 -55 -325.5t-166 -251.5z"/>
<glyph glyph-name="R" horiz-adv-x="1479" unicode="R" d="M355 819h417q133 0 208 27.5t114 88t39 131.5q0 104 -75.5 171t-238.5 67h-464v-485zM161 0v1466h650q196 0 298 -39.5t163 -139.5t61 -221q0 -156 -101 -263t-312 -136q77 -37 117 -73q85 -78 161 -195l255 -399h-244l-194 305q-85 132 -140 202t-98.5 98t-88.5 39 q-33 7 -108 7h-225v-651h-194z"/>
<glyph glyph-name="S" horiz-adv-x="1366" unicode="S" d="M92 471l183 16q13 -110 60.5 -180.5t147.5 -114t225 -43.5q111 0 196 33t126.5 90.5t41.5 125.5q0 69 -40 120.5t-132 86.5q-59 23 -261 71.5t-283 91.5q-105 55 -156.5 136.5t-51.5 182.5q0 111 63 207.5t184 146.5t269 50q163 0 287.5 -52.5t191.5 -154.5t72 -231 l-186 -14q-15 139 -101.5 210t-255.5 71q-176 0 -256.5 -64.5t-80.5 -155.5q0 -79 57 -130q56 -51 292.5 -104.5t324.5 -93.5q128 -59 189 -149.5t61 -208.5q0 -117 -67 -220.5t-192.5 -161t-282.5 -57.5q-199 0 -333.5 58t-211 174.5t-80.5 263.5z"/>
<glyph glyph-name="T" horiz-adv-x="1251" unicode="T" d="M531 0v1293h-483v173h1162v-173h-485v-1293h-194z"/>
<glyph glyph-name="U" horiz-adv-x="1479" unicode="U" d="M1120 1466h194v-847q0 -221 -50 -351t-180.5 -211.5t-342.5 -81.5q-206 0 -337 71t-187 205.5t-56 367.5v847h194v-846q0 -191 35.5 -281.5t122 -139.5t211.5 -49q214 0 305 97t91 373v846z"/>
<glyph glyph-name="V" horiz-adv-x="1366" unicode="V" d="M577 0l-568 1466h210l381 -1065q46 -128 77 -240q34 120 79 240l396 1065h198l-574 -1466h-199z"/>
<glyph glyph-name="W" horiz-adv-x="1933" unicode="W" d="M414 0l-389 1466h199l223 -961q36 -151 62 -300q56 235 66 271l279 990h234l210 -742q79 -276 114 -519q28 139 73 319l230 942h195l-402 -1466h-187l-309 1117q-39 140 -46 172q-23 -101 -43 -172l-311 -1117h-198z"/>
<glyph glyph-name="X" horiz-adv-x="1366" unicode="X" d="M9 0l567 764l-500 702h231l266 -376q83 -117 118 -180q49 80 116 167l295 389h211l-515 -691l555 -775h-240l-369 523q-31 45 -64 98q-49 -80 -70 -110l-368 -511h-233z"/>
<glyph glyph-name="Y" horiz-adv-x="1366" unicode="Y" d="M571 0v621l-565 845h236l289 -442q80 -124 149 -248q66 115 160 259l284 431h226l-585 -845v-621h-194z"/>
<glyph glyph-name="Z" horiz-adv-x="1251" unicode="Z" d="M41 0v180l751 939q80 100 152 174h-818v173h1050v-173l-823 -1017l-89 -103h936v-173h-1159z"/>
<glyph glyph-name="bracketleft" horiz-adv-x="569" unicode="[" d="M139 -407v1873h397v-149h-217v-1575h217v-149h-397z"/>
<glyph glyph-name="backslash" horiz-adv-x="569" unicode="\" d="M425 -25l-425 1516h145l424 -1516h-144z"/>
<glyph glyph-name="bracketright" horiz-adv-x="569" unicode="]" d="M436 -407h-397v149h217v1575h-217v149h397v-1873z"/>
<glyph glyph-name="asciicircum" horiz-adv-x="961" unicode="^" d="M239 690h-185l353 801h145l355 -801h-181l-247 597z"/>
<glyph glyph-name="underscore" d="M-31 -407v130h1193v-130h-1193z" unicode="_"/>
<glyph glyph-name="grave" horiz-adv-x="682" unicode="`" d="M465 1194h-145l-231 280h241z"/>
<glyph glyph-name="a" d="M813 533q-98 -40 -294 -68q-111 -16 -157 -36t-71 -58.5t-25 -85.5q0 -72 54.5 -120t159.5 -48q104 0 185 45.5t119 124.5q29 61 29 180v66zM828 131q-100 -85 -192.5 -120t-198.5 -35q-175 0 -269 85.5t-94 218.5q0 78 35.5 142.5t93 103.5t129.5 59q53 14 160 27 q218 26 321 62q1 37 1 47q0 110 -51 155q-69 61 -205 61q-127 0 -187.5 -44.5t-89.5 -157.5l-176 24q24 113 79 182.5t159 107t241 37.5q136 0 221 -32t125 -80.5t56 -122.5q9 -46 9 -166v-240q0 -251 11.5 -317.5t45.5 -127.5h-188q-28 56 -36 131z" unicode="a"/>
<glyph glyph-name="b" d="M299 539q0 -191 52 -276q85 -139 230 -139q118 0 204 102.5t86 305.5q0 208 -82.5 307t-199.5 99q-118 0 -204 -102.5t-86 -296.5zM301 0h-167v1466h180v-523q114 143 291 143q98 0 185.5 -39.5t144 -111t88.5 -172.5t32 -216q0 -273 -135 -422t-324 -149 q-188 0 -295 157v-133z" unicode="b"/>
<glyph glyph-name="c" horiz-adv-x="1024" unicode="c" d="M828 389l177 -23q-29 -183 -148.5 -286.5t-293.5 -103.5q-218 0 -350.5 142.5t-132.5 408.5q0 172 57 301t173.5 193.5t253.5 64.5q173 0 283 -87.5t141 -248.5l-175 -27q-25 107 -88.5 161t-153.5 54q-136 0 -221 -97.5t-85 -308.5q0 -214 82 -311t214 -97q106 0 177 65 t90 200z"/>
<glyph glyph-name="d" d="M255 530q0 -204 86 -305t203 -101q118 0 200.5 96.5t82.5 294.5q0 218 -84 320t-207 102q-120 0 -200.5 -98t-80.5 -309zM824 0v134q-101 -158 -297 -158q-127 0 -233.5 70t-165 195.5t-58.5 288.5q0 159 53 288.5t159 198.5t237 69q96 0 171 -40.5t122 -105.5v526h179 v-1466h-167z" unicode="d"/>
<glyph glyph-name="e" d="M271 633h593q-12 134 -68 201q-86 104 -223 104q-124 0 -208.5 -83t-93.5 -222zM862 342l186 -23q-44 -163 -163 -253t-304 -90q-233 0 -369.5 143.5t-136.5 402.5q0 268 138 416t358 148q213 0 348 -145t135 -408q0 -16 -1 -48h-792q10 -175 99 -268t222 -93 q99 0 169 52t111 166z" unicode="e"/>
<glyph glyph-name="f" horiz-adv-x="569" unicode="f" d="M178 0v922h-159v140h159v113q0 107 19 159q26 70 91.5 113.5t183.5 43.5q76 0 168 -18l-27 -157q-56 10 -106 10q-82 0 -116 -35t-34 -131v-98h207v-140h-207v-922h-179z"/>
<glyph glyph-name="g" d="M251 550q0 -209 83 -305t208 -96q124 0 208 95.5t84 299.5q0 195 -86.5 294t-208.5 99q-120 0 -204 -97.5t-84 -289.5zM102 -88l175 -26q11 -81 61 -118q67 -50 183 -50q125 0 193 50t92 140q13 51 13 208v23q-118 -139 -294 -139q-219 0 -339 158t-120 379 q0 152 55 280.5t159.5 198.5t245.5 70q188 0 310 -152v128h166v-918q0 -248 -50.5 -351.5t-160 -163.5t-269.5 -60q-190 -1 -307 85q-113 83 -113 247v11z" unicode="g"/>
<glyph glyph-name="h" d="M135 0v1466h180v-526q126 146 318 146q118 0 205 -46.5t124.5 -128.5t37.5 -238v-673h-180v673q0 135 -58.5 196.5t-165.5 61.5q-80 0 -150.5 -41.5t-100.5 -112.5t-30 -196v-581h-180z" unicode="h"/>
<glyph glyph-name="i" horiz-adv-x="455" unicode="i" d="M136 0v1062h180v-1062h-180zM136 1259v207h180v-207h-180z"/>
<glyph glyph-name="j" horiz-adv-x="455" unicode="j" d="M-94 -412l34 153q54 -14 85 -14q55 0 82 36.5t27 182.5v1116h180v-1120q0 -196 -51 -273q-65 -100 -216 -100q-73 0 -141 19zM134 1257v209h180v-209h-180z"/>
<glyph glyph-name="k" horiz-adv-x="1024" unicode="k" d="M136 0v1466h180v-836l426 432h233l-406 -394l447 -668h-222l-351 543l-127 -122v-421h-180z"/>
<glyph glyph-name="l" horiz-adv-x="455" unicode="l" d="M131 0v1466h180v-1466h-180z"/>
<glyph glyph-name="m" horiz-adv-x="1706" unicode="m" d="M135 0v1062h161v-149q50 78 133 125.5t189 47.5q118 0 193.5 -49t106.5 -137q126 186 328 186q158 0 243 -87.5t85 -269.5v-729h-179v669q0 108 -17.5 155.5t-63.5 76.5t-108 29q-112 0 -186 -74.5t-74 -238.5v-617h-180v690q0 120 -44 180t-144 60q-76 0 -140.5 -40 t-93.5 -117t-29 -222v-551h-180z"/>
<glyph glyph-name="n" d="M135 0v1062h162v-151q117 175 338 175q96 0 176.5 -34.5t120.5 -90.5t56 -133q10 -50 10 -175v-653h-180v646q0 110 -21 164.5t-74.5 87t-125.5 32.5q-115 0 -198.5 -73t-83.5 -277v-580h-180z" unicode="n"/>
<glyph glyph-name="o" d="M253 531q0 -204 89 -305.5t224 -101.5q134 0 223 102t89 311q0 197 -89.5 298.5t-222.5 101.5q-135 0 -224 -101t-89 -305zM68 531q0 295 164 437q137 118 334 118q219 0 358 -143.5t139 -396.5q0 -205 -61.5 -322.5t-179 -182.5t-256.5 -65q-223 0 -360.5 143 t-137.5 412z" unicode="o"/>
<glyph glyph-name="p" d="M298 525q0 -205 83 -303t201 -98q120 0 205.5 101.5t85.5 314.5q0 203 -83.5 304t-199.5 101q-115 0 -203.5 -107.5t-88.5 -312.5zM135 -407v1469h164v-138q58 81 131 121.5t177 40.5q136 0 240 -70t157 -197.5t53 -279.5q0 -163 -58.5 -293.5t-170 -200t-234.5 -69.5 q-90 0 -161.5 38t-117.5 96v-517h-180z" unicode="p"/>
<glyph glyph-name="q" d="M257 534q0 -205 86 -307.5t206 -102.5q115 0 198 97.5t83 296.5q0 212 -87.5 319t-205.5 107q-117 0 -198.5 -99.5t-81.5 -310.5zM812 -407v520q-42 -59 -117.5 -98t-160.5 -39q-189 0 -325.5 151t-136.5 414q0 160 55.5 287t161 192.5t231.5 65.5q197 0 310 -166v142 h162v-1469h-180z" unicode="q"/>
<glyph glyph-name="r" horiz-adv-x="682" unicode="r" d="M133 0v1062h162v-161q62 113 114.5 149t115.5 36q91 0 185 -58l-62 -167q-66 39 -132 39q-59 0 -106 -35.5t-67 -98.5q-30 -96 -30 -210v-556h-180z"/>
<glyph glyph-name="s" horiz-adv-x="1024" unicode="s" d="M63 317l178 28q15 -107 83.5 -164t191.5 -57q124 0 184 50.5t60 118.5q0 61 -53 96q-37 24 -184 61q-198 50 -274.5 86.5t-116 101t-39.5 142.5q0 71 32.5 131.5t88.5 100.5q42 31 114.5 52.5t155.5 21.5q125 0 219.5 -36t139.5 -97.5t62 -164.5l-176 -24 q-12 82 -69.5 128t-162.5 46q-124 0 -177 -41t-53 -96q0 -35 22 -63q22 -29 69 -48q27 -10 159 -46q191 -51 266.5 -83.5t118.5 -94.5t43 -154q0 -90 -52.5 -169.5t-151.5 -123t-224 -43.5q-207 0 -315.5 86t-138.5 255z"/>
<glyph glyph-name="t" horiz-adv-x="569" unicode="t" d="M528 161l26 -159q-76 -16 -136 -16q-98 0 -152 31t-76 81.5t-22 212.5v611h-132v140h132v263l179 108v-371h181v-140h-181v-621q0 -77 9.5 -99t31 -35t61.5 -13q30 0 79 7z"/>
<glyph glyph-name="u" d="M831 0v156q-124 -180 -337 -180q-94 0 -175.5 36t-121 90.5t-55.5 133.5q-11 53 -11 168v658h180v-589q0 -141 11 -190q17 -71 72 -111.5t136 -40.5t152 41.5t100.5 113t29.5 207.5v569h180v-1062h-161z" unicode="u"/>
<glyph glyph-name="v" horiz-adv-x="1024" unicode="v" d="M430 0l-404 1062h190l228 -636q37 -103 68 -214q24 84 67 202l236 648h185l-402 -1062h-168z"/>
<glyph glyph-name="w" horiz-adv-x="1479" unicode="w" d="M331 0l-325 1062h186l169 -613l63 -228q4 17 55 219l169 622h185l159 -616l53 -203l61 205l182 614h175l-332 -1062h-187l-169 636l-41 181l-215 -817h-188z"/>
<glyph glyph-name="x" horiz-adv-x="1024" unicode="x" d="M15 0l388 552l-359 510h225l163 -249q46 -71 74 -119q44 66 81 117l179 251h215l-367 -500l395 -562h-221l-218 330l-58 89l-279 -419h-218z"/>
<glyph glyph-name="y" horiz-adv-x="1024" unicode="y" d="M127 -409l-20 169q59 -16 103 -16q60 0 96 20t59 56q17 27 55 134q5 15 16 44l-403 1064h194l221 -615q43 -117 77 -246q31 124 74 242l227 619h180l-404 -1080q-65 -175 -101 -241q-48 -89 -110 -130.5t-148 -41.5q-52 0 -116 22z"/>
<glyph glyph-name="z" horiz-adv-x="1024" unicode="z" d="M40 0v146l676 776q-115 -6 -203 -6h-433v146h868v-119l-575 -674l-111 -123q121 9 227 9h491v-155h-940z"/>
<glyph glyph-name="braceleft" horiz-adv-x="684" unicode="{" d="M57 612q77 2 125.5 41.5t64.5 108.5t17 236t6 220q9 84 33.5 135t60.5 81.5t92 46.5q38 10 124 10h56v-157h-31q-104 0 -138 -37.5t-34 -167.5q0 -262 -11 -331q-18 -107 -61.5 -165t-136.5 -103q110 -46 159.5 -140.5t49.5 -309.5q0 -195 4 -232q8 -68 40.5 -95 t127.5 -27h31v-157h-56q-98 0 -142 16q-64 23 -106 74.5t-54.5 130.5t-13.5 259t-17 249t-64.5 109t-125.5 42v163z"/>
<glyph glyph-name="bar" horiz-adv-x="532" unicode="|" d="M188 -431v1922h157v-1922h-157z"/>
<glyph glyph-name="braceright" horiz-adv-x="684" unicode="}" d="M626 612v-163q-77 -2 -125.5 -42t-64.5 -108.5t-17 -235.5t-6 -220q-9 -85 -33.5 -135.5t-60.5 -81t-92 -46.5q-38 -11 -124 -11h-56v157h31q104 0 138 37.5t34 168.5q0 250 9 317q16 111 64 177.5t136 103.5q-115 55 -162 145.5t-47 305.5q0 195 -5 233 q-7 67 -39.5 93.5t-127.5 26.5h-31v157h56q98 0 142 -16q64 -22 106 -74t54.5 -131t13.5 -259t17 -248.5t64.5 -108.5t125.5 -42z"/>
<glyph glyph-name="asciitilde" horiz-adv-x="1196" unicode="~" d="M87 557v205q106 120 278 120q60 0 126 -17.5t188 -69.5q69 -29 103.5 -38t69.5 -9q65 0 134.5 39t123.5 98v-212q-64 -60 -129.5 -87t-147.5 -27q-60 0 -114.5 14t-173 67t-197.5 53q-64 0 -120.5 -27.5t-140.5 -108.5z"/>
<glyph glyph-name="exclamdown" horiz-adv-x="682" unicode="¡" d="M400 697l55 -776v-325h-223v325l52 776h116zM447 1062v-205h-207v205h207z"/>
<glyph glyph-name="cent" d="M638 940q-32 3 -50 3q-82 0 -153.5 -45.5t-107 -141t-35.5 -221.5q0 -132 32 -223t91 -135zM744 894l-222 -766q33 -9 61 -9q104 0 179.5 71t92.5 199l179 -20q-33 -185 -156.5 -291t-291.5 -106q-49 0 -103 14l-118 -395l-112 32l115 398q-115 55 -188 183.5t-73 321.5 q0 178 58.5 305.5t175 191.5t237.5 64q36 0 100 -8l113 387l110 -32l-112 -387q99 -43 152 -115.5t74 -181.5l-175 -27q-26 112 -96 171z" unicode="¢"/>
<glyph glyph-name="sterling" d="M396 809h315v-148h-284q19 -44 19 -88q0 -87 -41.5 -184t-136.5 -198q79 22 144 22q83 0 187 -25q172 -41 233 -41q74 0 192 56l58 -165q-92 -39 -142.5 -51t-100.5 -12q-42 0 -85 8q-27 5 -129.5 36.5t-132.5 37.5q-47 8 -94 8q-72 0 -153.5 -25t-148.5 -68l-69 173 q96 53 163 151.5t67 240.5q0 61 -17 124h-196v148h154q-33 112 -42 163.5t-9 100.5q0 208 154 325q124 93 300 93q181 0 298.5 -99.5t144.5 -279.5l-179 -27q-15 120 -89.5 189t-178.5 69q-111 0 -184.5 -71.5t-73.5 -172.5q0 -111 57 -290z" unicode="£"/>
<glyph glyph-name="currency" d="M305 726q0 -108 76 -184t183 -76t183 76t76 184q0 107 -75.5 183t-183.5 76q-107 0 -183 -76t-76 -183zM213 961l-139 136l115 119l139 -139q106 72 237 72q132 0 237 -72l139 139l116 -119l-139 -136q71 -110 71 -235q0 -126 -71 -236l139 -136l-116 -119l-139 140 q-105 -73 -237 -73q-131 0 -237 73l-139 -140l-115 119l139 136q-71 110 -71 236q0 125 71 235z" unicode="¤"/>
<glyph glyph-name="yen" d="M477 0v325h-415v139h415v143h-415v148h341l-406 711h200l290 -516q49 -88 76 -154q23 53 82 163l274 507h214l-405 -711h341v-148h-412v-143h412v-139h-412v-325h-180z" unicode="¥"/>
<glyph glyph-name="brokenbar" horiz-adv-x="532" unicode="¦" d="M345 360v-791h-157v791h157zM345 1491v-790h-157v790h157z"/>
<glyph glyph-name="section" d="M728 244q74 38 110.5 88.5t36.5 98.5q0 57 -52 120q-53 63 -225 169q-137 84 -204 138q-81 -46 -115.5 -92t-34.5 -102q0 -63 46 -120t207 -152q134 -79 231 -148zM143 -70l181 26q28 -130 89 -182.5t166 -52.5q102 0 159.5 52t57.5 122q0 51 -36 94q-62 75 -340 245 q-148 91 -206.5 142.5t-95.5 121.5t-37 146q0 96 60 174t165 109q-71 68 -100 125.5t-29 122.5q0 128 100 222t265 94q187 0 292 -89t126 -258l-187 -19q-21 122 -73.5 170t-141.5 48q-92 0 -148.5 -49.5t-56.5 -109.5q0 -52 36 -96q56 -68 306 -220q157 -96 212 -141 q71 -60 104.5 -124t33.5 -139q0 -113 -73 -193q-42 -46 -154 -93q80 -61 119.5 -131t39.5 -150q0 -88 -50 -166.5t-144 -120t-203 -41.5q-191 0 -303 95.5t-134 265.5z" unicode="§"/>
<glyph glyph-name="dieresis" horiz-adv-x="682" unicode="¨" d="M434 1270v205h188v-205h-188zM61 1270v205h188v-205h-188z"/>
<glyph glyph-name="copyright" horiz-adv-x="1509" unicode="©" d="M1000 614l123 -36q-30 -125 -127.5 -199.5t-236.5 -74.5q-176 0 -286 114t-110 316q0 132 50 229.5t142.5 147t211.5 49.5q133 0 221 -63.5t120 -172.5l-119 -29q-30 74 -88.5 113.5t-137.5 39.5q-115 0 -189.5 -82t-74.5 -235t70.5 -231.5t182.5 -78.5q90 0 158 52 t90 141zM758 1366q-159 0 -309.5 -81.5t-235.5 -233t-85 -315.5q0 -163 83.5 -312.5t233.5 -233t313 -83.5t313 83.5t233 233t83 312.5q0 164 -84.5 315.5t-235.5 233t-309 81.5zM758 1491q190 0 371 -97.5t282 -279t101 -378.5q0 -195 -99.5 -375t-279 -279.5t-375.5 -99.5 t-375.5 99.5t-279.5 279.5t-100 375q0 197 101.5 378.5t282.5 279t371 97.5z"/>
<glyph glyph-name="ordfeminine" horiz-adv-x="758" unicode="ª" d="M533 1104q-53 -14 -192 -36q-90 -14 -117 -39q-28 -26 -28 -64q0 -41 34 -70t96 -29q73 0 127 39t72 96q7 20 8 103zM548 853q-122 -107 -256 -107q-113 0 -179 61.5t-66 157.5q0 48 16 84t47.5 64t81.5 45q35 11 99 21l147 22q72 14 96 20q-1 70 -14 94t-48.5 41.5 t-94.5 17.5q-79 0 -118 -32.5t-48 -92.5l-137 34q12 89 88 148.5t217 59.5q164 0 232 -61q67 -62 67 -181v-240l-1 -61q0 -134 41 -184h-148q-20 40 -22 89z"/>
<glyph glyph-name="guillemotleft" d="M727 528l264 -456h-152l-313 456l313 456h152zM340 528l259 -456h-146l-319 456l319 456h148z" unicode="«"/>
<glyph glyph-name="logicalnot" horiz-adv-x="1196" unicode="¬" d="M1082 424h-170v438h-798v168h968v-606z"/>
<glyph glyph-name="registered" horiz-adv-x="1509" unicode="®" d="M558 776h159q114 0 155.5 34t41.5 90q0 36 -20 64.5t-55.5 42.5t-131.5 14h-149v-245zM427 319v812h279q143 0 207 -22.5t102 -78.5t38 -119q0 -89 -63.5 -155t-168.5 -74q43 -18 69 -43q49 -48 120 -161l99 -159h-160l-72 128q-85 151 -137 189q-36 28 -105 28h-77v-345 h-131zM758 1366q-159 0 -309.5 -81.5t-235.5 -233t-85 -315.5q0 -163 83.5 -312.5t233.5 -233t313 -83.5t313 83.5t233 233t83 312.5q0 164 -84.5 315.5t-235.5 233t-309 81.5zM758 1491q190 0 371 -97.5t282 -279t101 -378.5q0 -195 -99.5 -375t-279 -279.5t-375.5 -99.5 t-375.5 99.5t-279.5 279.5t-100 375q0 197 101.5 378.5t282.5 279t371 97.5z"/>
<glyph glyph-name="overscore" horiz-adv-x="1131" unicode="¯" d="M-31 1566v129h1193v-129h-1193z"/>
<glyph glyph-name="degree" horiz-adv-x="819" unicode="°" d="M237 1214q0 -70 49.5 -119.5t119.5 -49.5q69 0 118.5 49.5t49.5 119.5t-49.5 119.5t-118.5 49.5q-70 0 -119.5 -49.5t-49.5 -119.5zM128 1214q0 115 81.5 196t195.5 81q116 0 197 -81t81 -196t-81.5 -196.5t-196.5 -81.5q-114 0 -195.5 81t-81.5 197z"/>
<glyph glyph-name="plusminus" horiz-adv-x="1124" unicode="±" d="M1046 0h-968v168h968v-168zM477 260v403h-399v167h399v399h170v-399h399v-167h-399v-403h-170z"/>
<glyph glyph-name="twosuperior" horiz-adv-x="682" unicode="²" d="M25 733q6 57 47 114q63 86 207 190.5t171 134.5q37 41 37 84q0 48 -35 79t-103 31q-66 0 -98.5 -23.5t-53.5 -90.5l-151 16q29 111 100.5 163.5t205.5 52.5q151 0 221.5 -59t70.5 -144q0 -84 -59 -159q-45 -56 -205 -171q-83 -61 -118 -97h386v-121h-623z"/>
<glyph glyph-name="threesuperior" horiz-adv-x="682" unicode="³" d="M33 929l146 15q20 -60 52 -82q43 -30 102 -30q71 0 114 39t43 94q0 50 -36 80t-123 30q-12 0 -33 -2q-14 -1 -22 -1l22 110h5q77 0 114 29.5t37 72.5q0 37 -30 63t-89 26q-56 0 -87.5 -22t-54.5 -80l-143 23q41 106 103.5 148t182.5 42q144 0 209.5 -53.5t65.5 -133.5 q0 -55 -35.5 -98t-102.5 -62q89 -22 131 -72.5t42 -118.5q0 -93 -79 -162t-225 -69q-140 0 -214 55.5t-95 158.5z"/>
<glyph glyph-name="acute" horiz-adv-x="682" unicode="´" d="M222 1194l133 280h236l-220 -280h-149z"/>
<glyph glyph-name="mu1" horiz-adv-x="1180" unicode="µ" d="M1018 1062v-1062h-161v126q-52 -80 -103 -110q-70 -41 -163 -41q-83 0 -147 33q-48 25 -106 99v-514h-178v1469h178v-450q0 -245 26 -317.5t84.5 -114.5t134.5 -42q80 0 143 44t89 113.5t26 313.5v453h177z"/>
<glyph glyph-name="paragraph" horiz-adv-x="1100" unicode="¶" d="M405 -407v1045q-187 10 -295.5 121.5t-108.5 284.5q0 193 120.5 307.5t352.5 114.5h633v-173h-144v-1700h-170v1700h-223v-1700h-165z"/>
<glyph glyph-name="middot" horiz-adv-x="682" unicode="·" d="M238 637v205h205v-205h-205z"/>
<glyph glyph-name="cedilla" horiz-adv-x="682" unicode="¸" d="M216 -154l52 177h134l-33 -107q85 -10 128 -52.5t43 -94.5q0 -75 -72 -132.5t-217 -57.5q-82 0 -144 12l11 117q64 -4 94 -4q94 0 132 26q29 20 29 49q0 18 -11.5 32t-42.5 24t-103 11z"/>
<glyph glyph-name="onesuperior" horiz-adv-x="682" unicode="¹" d="M331 733v554q-102 -81 -224 -113v123q62 20 138 73t123 114h108v-751h-145z"/>
<glyph glyph-name="ordmasculine" horiz-adv-x="748" unicode="º" d="M373 1358q-81 0 -130.5 -57t-49.5 -186q0 -126 50.5 -184.5t129.5 -58.5q80 0 130 58.5t50 189.5q0 122 -50.5 180t-129.5 58zM373 1491q145 0 236.5 -100t91.5 -276q0 -175 -92 -275t-235 -100q-145 0 -237 98t-92 273q0 180 91.5 280t236.5 100z"/>
<glyph glyph-name="guillemotright" d="M404 528l-264 456h151l314 -456l-314 -456h-151zM791 528l-261 456h148l319 -456l-319 -456h-147z" unicode="»"/>
<glyph glyph-name="onequarter" horiz-adv-x="1708" unicode="¼" d="M1430 231v263l-230 -263h230zM1430 -31v154h-383v123l405 474h122v-489h104v-108h-104v-154h-144zM331 733v554q-102 -81 -224 -113v123q62 20 138 73t123 114h108v-751h-145zM252 -57l1102 1548h156l-1101 -1548h-157z"/>
<glyph glyph-name="onehalf" horiz-adv-x="1708" unicode="½" d="M1049 -31q6 56 48 113q62 87 206 191t171 135q37 41 37 84q0 48 -34.5 78.5t-103.5 30.5q-66 0 -98.5 -23.5t-53.5 -89.5l-151 15q29 112 101 164.5t205 52.5q151 0 221.5 -59t70.5 -144q0 -84 -59 -159q-45 -56 -204 -172q-84 -61 -119 -96h386v-121h-623zM331 733v554 q-102 -81 -224 -113v123q62 20 138 73t123 114h108v-751h-145zM228 -57l1101 1548h157l-1101 -1548h-157z"/>
<glyph glyph-name="threequarters" horiz-adv-x="1708" unicode="¾" d="M1429 231v263l-229 -263h229zM1429 -31v154h-382v123l404 474h123v-489h104v-108h-104v-154h-145zM33 929l146 15q20 -60 52 -82q43 -30 102 -30q71 0 114 39t43 94q0 50 -36 80t-120 30q-50 -3 -58 -3l22 110h5q77 0 114 29.5t37 72.5q0 37 -30 63t-89 26 q-56 0 -87.5 -22t-54.5 -80l-143 23q41 106 103.5 148t182.5 42q144 0 209.5 -53.5t65.5 -133.5q0 -55 -35.5 -98t-102.5 -62q89 -22 131 -72.5t42 -118.5q0 -93 -79 -162t-225 -69q-140 0 -214 55.5t-95 158.5zM252 -57l1101 1548h157l-1101 -1548h-157z"/>
<glyph glyph-name="questiondown" horiz-adv-x="1251" unicode="¿" d="M721 701q1 -34 1 -51q0 -110 -30 -187q-22 -58 -71 -117q-36 -43 -129.5 -125t-121 -131t-27.5 -107q0 -106 82 -185t201 -79q114 0 191.5 72t101.5 224l184 -21q-25 -203 -148.5 -313t-325.5 -110q-216 0 -343.5 117t-127.5 283q0 97 44.5 177t175.5 196q89 79 116 116 t39.5 85t14.5 156h173zM733 1062v-205h-205v205h205z"/>
<glyph glyph-name="Agrave" horiz-adv-x="1366" unicode="À" d="M420 602h497l-153 406q-70 185 -104 304q-28 -141 -79 -280zM-3 0l563 1466h209l600 -1466h-221l-171 444h-613l-161 -444h-206zM824 1556h-145l-231 280h241z"/>
<glyph glyph-name="Aacute" horiz-adv-x="1366" unicode="Á" d="M420 602h497l-153 406q-70 185 -104 304q-28 -141 -79 -280zM-3 0l563 1466h209l600 -1466h-221l-171 444h-613l-161 -444h-206zM541 1556l133 280h236l-220 -280h-149z"/>
<glyph glyph-name="Acircumflex" horiz-adv-x="1366" unicode="Â" d="M420 602h497l-153 406q-70 185 -104 304q-28 -141 -79 -280zM-3 0l563 1466h209l600 -1466h-221l-171 444h-613l-161 -444h-206zM664 1726l-113 -170h-206l216 280h192l225 -280h-204z"/>
<glyph glyph-name="Atilde" horiz-adv-x="1366" unicode="Ã" d="M420 602h497l-153 406q-70 185 -104 304q-28 -141 -79 -280zM-3 0l563 1466h209l600 -1466h-221l-171 444h-613l-161 -444h-206zM349 1556q-1 104 57 166q57 62 146 62q62 0 169 -54q59 -30 94 -30q32 0 49 17.5t24 69.5h130q-3 -114 -57.5 -171t-138.5 -57 q-63 0 -166 56q-67 36 -98 36q-34 0 -55 -24q-22 -24 -21 -71h-133z"/>
<glyph glyph-name="Adieresis" horiz-adv-x="1366" unicode="Ä" d="M420 602h497l-153 406q-70 185 -104 304q-28 -141 -79 -280zM-3 0l563 1466h209l600 -1466h-221l-171 444h-613l-161 -444h-206zM752 1556v205h188v-205h-188zM379 1556v205h188v-205h-188z"/>
<glyph glyph-name="Aring" horiz-adv-x="1366" unicode="Å" d="M420 602h497l-153 406q-70 185 -104 304q-28 -141 -79 -280zM-3 0l563 1466h209l600 -1466h-221l-171 444h-613l-161 -444h-206zM557 1600q0 -47 31.5 -79t74.5 -32t74.5 32t31.5 77t-31 77t-75 32q-43 0 -74.5 -31.5t-31.5 -75.5zM481 1601q0 73 53.5 126t126.5 53 q74 0 127 -53.5t53 -129.5q0 -77 -53 -130t-126 -53q-75 0 -128 53.5t-53 133.5z"/>
<glyph glyph-name="AE" horiz-adv-x="2048" unicode="Æ" d="M493 595h484v698h-145zM1 0l705 1466h1203v-173h-737v-451h685v-172h-685v-497h764v-173h-959v423h-566l-200 -423h-210z"/>
<glyph glyph-name="Ccedilla" horiz-adv-x="1479" unicode="Ç" d="M1204 514l194 -49q-61 -239 -219.5 -364.5t-387.5 -125.5q-237 0 -385.5 96.5t-226 279.5t-77.5 393q0 229 87.5 399.5t249 259t355.5 88.5q220 0 370 -112t209 -315l-191 -45q-51 160 -148 233t-244 73q-169 0 -282.5 -81t-159.5 -217.5t-46 -281.5q0 -187 54.5 -326.5 t169.5 -208.5t249 -69q163 0 276 94t153 279zM620 -154l52 177h134l-33 -107q85 -10 128 -52.5t43 -94.5q0 -75 -72 -132.5t-217 -57.5q-82 0 -144 12l11 117q64 -4 94 -4q94 0 132 26q29 20 29 49q0 18 -11.5 32t-42.5 24t-103 11z"/>
<glyph glyph-name="Egrave" horiz-adv-x="1366" unicode="È" d="M162 0v1466h1060v-173h-866v-449h811v-172h-811v-499h900v-173h-1094zM850 1556h-145l-231 280h241z"/>
<glyph glyph-name="Eacute" horiz-adv-x="1366" unicode="É" d="M162 0v1466h1060v-173h-866v-449h811v-172h-811v-499h900v-173h-1094zM562 1556l133 280h236l-220 -280h-149z"/>
<glyph glyph-name="Ecircumflex" horiz-adv-x="1366" unicode="Ê" d="M162 0v1466h1060v-173h-866v-449h811v-172h-811v-499h900v-173h-1094zM707 1726l-113 -170h-206l216 280h192l225 -280h-204z"/>
<glyph glyph-name="Edieresis" horiz-adv-x="1366" unicode="Ë" d="M162 0v1466h1060v-173h-866v-449h811v-172h-811v-499h900v-173h-1094zM798 1556v205h188v-205h-188zM425 1556v205h188v-205h-188z"/>
<glyph glyph-name="Igrave" horiz-adv-x="569" unicode="Ì" d="M191 0v1466h194v-1466h-194zM430 1556h-145l-231 280h241z"/>
<glyph glyph-name="Iacute" horiz-adv-x="569" unicode="Í" d="M191 0v1466h194v-1466h-194zM141 1556l133 280h236l-220 -280h-149z"/>
<glyph glyph-name="Icircumflex" horiz-adv-x="569" unicode="Î" d="M191 0v1466h194v-1466h-194zM287 1726l-113 -170h-206l216 280h192l225 -280h-204z"/>
<glyph glyph-name="Idieresis" horiz-adv-x="569" unicode="Ï" d="M191 0v1466h194v-1466h-194zM377 1556v205h188v-205h-188zM4 1556v205h188v-205h-188z"/>
<glyph glyph-name="Eth" horiz-adv-x="1479" unicode="Ð" d="M352 173h313q146 0 228 27t130 75q69 69 108 185t39 283q0 172 -38.5 275t-100.5 165t-138 86t-233 24h-308v-494h404v-132h-404v-494zM158 0v667h-161v132h161v667h506q170 0 260 -21q126 -29 215 -105q116 -98 173.5 -250.5t57.5 -348.5q0 -224 -71 -385.5t-170 -234.5 t-228 -104q-71 -17 -214 -17h-529z"/>
<glyph glyph-name="Ntilde" horiz-adv-x="1479" unicode="Ñ" d="M156 0v1466h199l770 -1151v1151h186v-1466h-199l-770 1152v-1152h-186zM430 1556q-1 104 57 166q57 62 146 62q62 0 169 -54q59 -30 94 -30q32 0 49 17.5t24 69.5h130q-3 -114 -57.5 -171t-138.5 -57q-63 0 -166 56q-67 36 -98 36q-34 0 -55 -24q-22 -24 -21 -71h-133z "/>
<glyph glyph-name="Ograve" horiz-adv-x="1593" unicode="Ò" d="M299 711q0 -265 142.5 -417.5t357.5 -152.5q219 0 360.5 154t141.5 437q0 179 -60.5 312.5t-177 207t-261.5 73.5q-206 0 -354.5 -141.5t-148.5 -472.5zM99 714q0 365 196 571.5t506 206.5q203 0 366 -97t248.5 -270.5t85.5 -393.5q0 -223 -90 -399t-255 -266.5 t-356 -90.5q-207 0 -370 100t-247 273t-84 366zM916 1556h-145l-231 280h241z"/>
<glyph glyph-name="Oacute" horiz-adv-x="1593" unicode="Ó" d="M299 711q0 -265 142.5 -417.5t357.5 -152.5q219 0 360.5 154t141.5 437q0 179 -60.5 312.5t-177 207t-261.5 73.5q-206 0 -354.5 -141.5t-148.5 -472.5zM99 714q0 365 196 571.5t506 206.5q203 0 366 -97t248.5 -270.5t85.5 -393.5q0 -223 -90 -399t-255 -266.5 t-356 -90.5q-207 0 -370 100t-247 273t-84 366zM677 1556l133 280h236l-220 -280h-149z"/>
<glyph glyph-name="Ocircumflex" horiz-adv-x="1593" unicode="Ô" d="M299 711q0 -265 142.5 -417.5t357.5 -152.5q219 0 360.5 154t141.5 437q0 179 -60.5 312.5t-177 207t-261.5 73.5q-206 0 -354.5 -141.5t-148.5 -472.5zM99 714q0 365 196 571.5t506 206.5q203 0 366 -97t248.5 -270.5t85.5 -393.5q0 -223 -90 -399t-255 -266.5 t-356 -90.5q-207 0 -370 100t-247 273t-84 366zM798 1726l-113 -170h-206l216 280h192l225 -280h-204z"/>
<glyph glyph-name="Otilde" horiz-adv-x="1593" unicode="Õ" d="M299 711q0 -265 142.5 -417.5t357.5 -152.5q219 0 360.5 154t141.5 437q0 179 -60.5 312.5t-177 207t-261.5 73.5q-206 0 -354.5 -141.5t-148.5 -472.5zM99 714q0 365 196 571.5t506 206.5q203 0 366 -97t248.5 -270.5t85.5 -393.5q0 -223 -90 -399t-255 -266.5 t-356 -90.5q-207 0 -370 100t-247 273t-84 366zM466 1556q-1 104 57 166q57 62 146 62q62 0 169 -54q59 -30 94 -30q32 0 49 17.5t24 69.5h130q-3 -114 -57.5 -171t-138.5 -57q-63 0 -166 56q-67 36 -98 36q-34 0 -55 -24q-22 -24 -21 -71h-133z"/>
<glyph glyph-name="Odieresis" horiz-adv-x="1593" unicode="Ö" d="M299 711q0 -265 142.5 -417.5t357.5 -152.5q219 0 360.5 154t141.5 437q0 179 -60.5 312.5t-177 207t-261.5 73.5q-206 0 -354.5 -141.5t-148.5 -472.5zM99 714q0 365 196 571.5t506 206.5q203 0 366 -97t248.5 -270.5t85.5 -393.5q0 -223 -90 -399t-255 -266.5 t-356 -90.5q-207 0 -370 100t-247 273t-84 366zM889 1556v205h188v-205h-188zM516 1556v205h188v-205h-188z"/>
<glyph glyph-name="multiply" horiz-adv-x="1196" unicode="×" d="M161 409l315 315l-314 314l122 122l314 -314l313 313l120 -121l-312 -313l314 -314l-122 -122l-314 314l-315 -315z"/>
<glyph glyph-name="Oslash" horiz-adv-x="1593" unicode="Ø" d="M1212 1094l-743 -832q77 -63 142 -88q85 -33 184 -33q218 0 360 154t142 432q0 208 -85 367zM1130 1197q-94 74 -164.5 101t-165.5 27q-219 0 -362 -148.5t-143 -443.5q0 -116 22 -206q16 -67 67 -165zM1250 1332l168 188l99 -84l-176 -198q86 -128 116 -224 q40 -126 40 -282q0 -225 -91 -401t-255.5 -266t-349.5 -90q-138 0 -250 39q-86 30 -201 115l-168 -188l-99 84l176 197q-98 149 -131 254.5t-33 253.5q0 226 90 402.5t252.5 267.5t361.5 91q134 0 234.5 -35.5t216.5 -123.5z"/>
<glyph glyph-name="Ugrave" horiz-adv-x="1479" unicode="Ù" d="M1120 1466h194v-847q0 -221 -50 -351t-180.5 -211.5t-342.5 -81.5q-206 0 -337 71t-187 205.5t-56 367.5v847h194v-846q0 -191 35.5 -281.5t122 -139.5t211.5 -49q214 0 305 97t91 373v846zM854 1556h-145l-231 280h241z"/>
<glyph glyph-name="Uacute" horiz-adv-x="1479" unicode="Ú" d="M1120 1466h194v-847q0 -221 -50 -351t-180.5 -211.5t-342.5 -81.5q-206 0 -337 71t-187 205.5t-56 367.5v847h194v-846q0 -191 35.5 -281.5t122 -139.5t211.5 -49q214 0 305 97t91 373v846zM614 1556l133 280h236l-220 -280h-149z"/>
<glyph glyph-name="Ucircumflex" horiz-adv-x="1479" unicode="Û" d="M1120 1466h194v-847q0 -221 -50 -351t-180.5 -211.5t-342.5 -81.5q-206 0 -337 71t-187 205.5t-56 367.5v847h194v-846q0 -191 35.5 -281.5t122 -139.5t211.5 -49q214 0 305 97t91 373v846zM736 1726l-113 -170h-206l216 280h192l225 -280h-204z"/>
<glyph glyph-name="Udieresis" horiz-adv-x="1479" unicode="Ü" d="M1120 1466h194v-847q0 -221 -50 -351t-180.5 -211.5t-342.5 -81.5q-206 0 -337 71t-187 205.5t-56 367.5v847h194v-846q0 -191 35.5 -281.5t122 -139.5t211.5 -49q214 0 305 97t91 373v846zM827 1556v205h188v-205h-188zM454 1556v205h188v-205h-188z"/>
<glyph glyph-name="Yacute" horiz-adv-x="1366" unicode="Ý" d="M571 0v621l-565 845h236l289 -442q80 -124 149 -248q66 115 160 259l284 431h226l-585 -845v-621h-194zM555 1556l133 280h236l-220 -280h-149z"/>
<glyph glyph-name="Thorn" horiz-adv-x="1366" unicode="Þ" d="M352 471h379q188 0 267 70t79 196q0 91 -46 157t-122 87q-49 14 -182 14h-375v-524zM158 0v1466h194v-298h359q146 0 224 -14q108 -19 181 -69.5t117 -141.5t44 -200q0 -186 -119 -315.5t-430 -129.5h-376v-298h-194z"/>
<glyph glyph-name="germandbls" horiz-adv-x="1251" unicode="ß" d="M153 0v999q0 183 44.5 281.5t148.5 154.5t234 56q173 0 272 -86.5t99 -200.5q0 -51 -18 -105t-64 -134.5t-58 -112t-12 -55.5q0 -32 22 -63q21 -32 121 -97q136 -89 181 -143q64 -77 64 -182q0 -139 -102.5 -238t-262.5 -99q-126 0 -221 67.5t-142 173.5l155 72 q50 -93 100 -129t105 -36q76 0 130 52t54 122q0 56 -32 96q-21 26 -112 88q-166 114 -205 171q-40 57 -40 117q0 39 13.5 79t65 128t67.5 132t16 78q0 62 -54.5 109.5t-145.5 47.5q-107 0 -175 -66t-68 -286v-991h-180z"/>
<glyph glyph-name="agrave" d="M813 533q-98 -40 -294 -68q-111 -16 -157 -36t-71 -58.5t-25 -85.5q0 -72 54.5 -120t159.5 -48q104 0 185 45.5t119 124.5q29 61 29 180v66zM828 131q-100 -85 -192.5 -120t-198.5 -35q-175 0 -269 85.5t-94 218.5q0 78 35.5 142.5t93 103.5t129.5 59q53 14 160 27 q218 26 321 62q1 37 1 47q0 110 -51 155q-69 61 -205 61q-127 0 -187.5 -44.5t-89.5 -157.5l-176 24q24 113 79 182.5t159 107t241 37.5q136 0 221 -32t125 -80.5t56 -122.5q9 -46 9 -166v-240q0 -251 11.5 -317.5t45.5 -127.5h-188q-28 56 -36 131zM715 1194h-145l-231 280 h241z" unicode="à"/>
<glyph glyph-name="aacute" d="M813 533q-98 -40 -294 -68q-111 -16 -157 -36t-71 -58.5t-25 -85.5q0 -72 54.5 -120t159.5 -48q104 0 185 45.5t119 124.5q29 61 29 180v66zM828 131q-100 -85 -192.5 -120t-198.5 -35q-175 0 -269 85.5t-94 218.5q0 78 35.5 142.5t93 103.5t129.5 59q53 14 160 27 q218 26 321 62q1 37 1 47q0 110 -51 155q-69 61 -205 61q-127 0 -187.5 -44.5t-89.5 -157.5l-176 24q24 113 79 182.5t159 107t241 37.5q136 0 221 -32t125 -80.5t56 -122.5q9 -46 9 -166v-240q0 -251 11.5 -317.5t45.5 -127.5h-188q-28 56 -36 131zM463 1194l133 280h236 l-220 -280h-149z" unicode="á"/>
<glyph glyph-name="acircumflex" d="M813 533q-98 -40 -294 -68q-111 -16 -157 -36t-71 -58.5t-25 -85.5q0 -72 54.5 -120t159.5 -48q104 0 185 45.5t119 124.5q29 61 29 180v66zM828 131q-100 -85 -192.5 -120t-198.5 -35q-175 0 -269 85.5t-94 218.5q0 78 35.5 142.5t93 103.5t129.5 59q53 14 160 27 q218 26 321 62q1 37 1 47q0 110 -51 155q-69 61 -205 61q-127 0 -187.5 -44.5t-89.5 -157.5l-176 24q24 113 79 182.5t159 107t241 37.5q136 0 221 -32t125 -80.5t56 -122.5q9 -46 9 -166v-240q0 -251 11.5 -317.5t45.5 -127.5h-188q-28 56 -36 131zM566 1364l-113 -170 h-206l216 280h192l225 -280h-204z" unicode="â"/>
<glyph glyph-name="atilde" d="M813 533q-98 -40 -294 -68q-111 -16 -157 -36t-71 -58.5t-25 -85.5q0 -72 54.5 -120t159.5 -48q104 0 185 45.5t119 124.5q29 61 29 180v66zM828 131q-100 -85 -192.5 -120t-198.5 -35q-175 0 -269 85.5t-94 218.5q0 78 35.5 142.5t93 103.5t129.5 59q53 14 160 27 q218 26 321 62q1 37 1 47q0 110 -51 155q-69 61 -205 61q-127 0 -187.5 -44.5t-89.5 -157.5l-176 24q24 113 79 182.5t159 107t241 37.5q136 0 221 -32t125 -80.5t56 -122.5q9 -46 9 -166v-240q0 -251 11.5 -317.5t45.5 -127.5h-188q-28 56 -36 131zM229 1219q-1 104 57 166 q57 62 146 62q62 0 169 -54q59 -30 94 -30q32 0 49 17.5t24 69.5h130q-3 -114 -57.5 -171t-138.5 -57q-63 0 -166 56q-67 36 -98 36q-34 0 -55 -24q-22 -24 -21 -71h-133z" unicode="ã"/>
<glyph glyph-name="adieresis" d="M813 533q-98 -40 -294 -68q-111 -16 -157 -36t-71 -58.5t-25 -85.5q0 -72 54.5 -120t159.5 -48q104 0 185 45.5t119 124.5q29 61 29 180v66zM828 131q-100 -85 -192.5 -120t-198.5 -35q-175 0 -269 85.5t-94 218.5q0 78 35.5 142.5t93 103.5t129.5 59q53 14 160 27 q218 26 321 62q1 37 1 47q0 110 -51 155q-69 61 -205 61q-127 0 -187.5 -44.5t-89.5 -157.5l-176 24q24 113 79 182.5t159 107t241 37.5q136 0 221 -32t125 -80.5t56 -122.5q9 -46 9 -166v-240q0 -251 11.5 -317.5t45.5 -127.5h-188q-28 56 -36 131zM656 1270v205h188v-205 h-188zM283 1270v205h188v-205h-188z" unicode="ä"/>
<glyph glyph-name="aring" d="M813 533q-98 -40 -294 -68q-111 -16 -157 -36t-71 -58.5t-25 -85.5q0 -72 54.5 -120t159.5 -48q104 0 185 45.5t119 124.5q29 61 29 180v66zM828 131q-100 -85 -192.5 -120t-198.5 -35q-175 0 -269 85.5t-94 218.5q0 78 35.5 142.5t93 103.5t129.5 59q53 14 160 27 q218 26 321 62q1 37 1 47q0 110 -51 155q-69 61 -205 61q-127 0 -187.5 -44.5t-89.5 -157.5l-176 24q24 113 79 182.5t159 107t241 37.5q136 0 221 -32t125 -80.5t56 -122.5q9 -46 9 -166v-240q0 -251 11.5 -317.5t45.5 -127.5h-188q-28 56 -36 131zM459 1337 q0 -47 31.5 -79t74.5 -32t74.5 32t31.5 77t-31 77t-75 32q-43 0 -74.5 -31.5t-31.5 -75.5zM383 1338q0 73 53.5 126t126.5 53q74 0 127 -53.5t53 -129.5q0 -77 -53 -130t-126 -53q-75 0 -128 53.5t-53 133.5z" unicode="å"/>
<glyph glyph-name="ae" horiz-adv-x="1821" unicode="æ" d="M793 533q-79 -34 -322 -73q-109 -17 -153 -51q-59 -47 -59 -123q0 -71 53 -119.5t154 -48.5q115 0 200.5 57t111.5 142q15 52 15 216zM969 633h584q-14 158 -90 231t-198 73q-126 0 -206.5 -80t-89.5 -224zM1734 325q-50 -167 -170 -258t-298 -91q-127 0 -222.5 48 t-172.5 150q-104 -102 -210.5 -150t-229.5 -48q-172 0 -267.5 88.5t-95.5 215.5q0 86 49.5 161.5t138 114.5t282.5 64q150 20 252 49q1 25 1 41q0 126 -52.5 176.5t-183.5 50.5q-87 0 -147 -21t-88.5 -59.5t-47.5 -123.5l-175 21q28 117 80.5 185.5t150.5 107.5t229 39 q167 0 269 -50q59 -29 99 -93q64 70 145 106.5t196 36.5q162 0 268 -78.5t155 -207.5t49 -254q0 -19 -2 -61h-767q2 -144 35.5 -209t107 -108.5t161.5 -43.5q103 0 174.5 59t98.5 166z"/>
<glyph glyph-name="ccedilla" horiz-adv-x="1024" unicode="ç" d="M828 389l177 -23q-29 -183 -148.5 -286.5t-293.5 -103.5q-218 0 -350.5 142.5t-132.5 408.5q0 172 57 301t173.5 193.5t253.5 64.5q173 0 283 -87.5t141 -248.5l-175 -27q-25 107 -88.5 161t-153.5 54q-136 0 -221 -97.5t-85 -308.5q0 -214 82 -311t214 -97q106 0 177 65 t90 200zM411 -134l52 177h134l-33 -107q85 -10 128 -52.5t43 -94.5q0 -75 -72 -132.5t-217 -57.5q-82 0 -144 12l11 117q64 -4 94 -4q94 0 132 26q29 20 29 49q0 18 -11.5 32t-42.5 24t-103 11z"/>
<glyph glyph-name="egrave" d="M271 633h593q-12 134 -68 201q-86 104 -223 104q-124 0 -208.5 -83t-93.5 -222zM862 342l186 -23q-44 -163 -163 -253t-304 -90q-233 0 -369.5 143.5t-136.5 402.5q0 268 138 416t358 148q213 0 348 -145t135 -408q0 -16 -1 -48h-792q10 -175 99 -268t222 -93 q99 0 169 52t111 166zM686 1194h-145l-231 280h241z" unicode="è"/>
<glyph glyph-name="eacute" d="M271 633h593q-12 134 -68 201q-86 104 -223 104q-124 0 -208.5 -83t-93.5 -222zM862 342l186 -23q-44 -163 -163 -253t-304 -90q-233 0 -369.5 143.5t-136.5 402.5q0 268 138 416t358 148q213 0 348 -145t135 -408q0 -16 -1 -48h-792q10 -175 99 -268t222 -93 q99 0 169 52t111 166zM465 1194l133 280h236l-220 -280h-149z" unicode="é"/>
<glyph glyph-name="ecircumflex" d="M271 633h593q-12 134 -68 201q-86 104 -223 104q-124 0 -208.5 -83t-93.5 -222zM862 342l186 -23q-44 -163 -163 -253t-304 -90q-233 0 -369.5 143.5t-136.5 402.5q0 268 138 416t358 148q213 0 348 -145t135 -408q0 -16 -1 -48h-792q10 -175 99 -268t222 -93 q99 0 169 52t111 166zM567 1364l-113 -170h-206l216 280h192l225 -280h-204z" unicode="ê"/>
<glyph glyph-name="edieresis" d="M271 633h593q-12 134 -68 201q-86 104 -223 104q-124 0 -208.5 -83t-93.5 -222zM862 342l186 -23q-44 -163 -163 -253t-304 -90q-233 0 -369.5 143.5t-136.5 402.5q0 268 138 416t358 148q213 0 348 -145t135 -408q0 -16 -1 -48h-792q10 -175 99 -268t222 -93 q99 0 169 52t111 166zM657 1270v205h188v-205h-188zM284 1270v205h188v-205h-188z" unicode="ë"/>
<glyph glyph-name="igrave" horiz-adv-x="569" unicode="ì" d="M198 0v1062h180v-1062h-180zM411 1194h-145l-231 280h241z"/>
<glyph glyph-name="iacute" horiz-adv-x="569" unicode="í" d="M198 0v1062h180v-1062h-180zM189 1194l133 280h236l-220 -280h-149z"/>
<glyph glyph-name="icircumflex" horiz-adv-x="569" unicode="î" d="M198 0v1062h180v-1062h-180zM302 1364l-113 -170h-206l216 280h192l225 -280h-204z"/>
<glyph glyph-name="idieresis" horiz-adv-x="569" unicode="ï" d="M198 0v1062h180v-1062h-180zM382 1270v205h188v-205h-188zM9 1270v205h188v-205h-188z"/>
<glyph glyph-name="eth" d="M870 529q0 192 -90.5 293.5t-222.5 101.5q-130 0 -215 -101.5t-85 -310.5q0 -194 87.5 -292t218.5 -98q128 0 217.5 103.5t89.5 303.5zM308 1466h217q72 -54 125 -102l214 102l45 -102l-172 -83q320 -368 320 -760q0 -253 -139 -399.5t-354 -146.5q-255 0 -398 194 q-93 127 -93 348q0 261 129 403t323 142q58 0 102 -12t110 -47q-36 73 -63 113.5t-79 99.5l-275 -127l-44 103l239 109q-97 90 -207 165z" unicode="ð"/>
<glyph glyph-name="ntilde" d="M135 0v1062h162v-151q117 175 338 175q96 0 176.5 -34.5t120.5 -90.5t56 -133q10 -50 10 -175v-653h-180v646q0 110 -21 164.5t-74.5 87t-125.5 32.5q-115 0 -198.5 -73t-83.5 -277v-580h-180zM262 1219q-1 104 57 166q57 62 146 62q62 0 169 -54q59 -30 94 -30 q32 0 49 17.5t24 69.5h130q-3 -114 -57.5 -171t-138.5 -57q-63 0 -166 56q-67 36 -98 36q-34 0 -55 -24q-22 -24 -21 -71h-133z" unicode="ñ"/>
<glyph glyph-name="ograve" d="M253 531q0 -204 89 -305.5t224 -101.5q134 0 223 102t89 311q0 197 -89.5 298.5t-222.5 101.5q-135 0 -224 -101t-89 -305zM68 531q0 295 164 437q137 118 334 118q219 0 358 -143.5t139 -396.5q0 -205 -61.5 -322.5t-179 -182.5t-256.5 -65q-223 0 -360.5 143 t-137.5 412zM687 1194h-145l-231 280h241z" unicode="ò"/>
<glyph glyph-name="oacute" d="M253 531q0 -204 89 -305.5t224 -101.5q134 0 223 102t89 311q0 197 -89.5 298.5t-222.5 101.5q-135 0 -224 -101t-89 -305zM68 531q0 295 164 437q137 118 334 118q219 0 358 -143.5t139 -396.5q0 -205 -61.5 -322.5t-179 -182.5t-256.5 -65q-223 0 -360.5 143 t-137.5 412zM466 1194l133 280h236l-220 -280h-149z" unicode="ó"/>
<glyph glyph-name="ocircumflex" d="M253 531q0 -204 89 -305.5t224 -101.5q134 0 223 102t89 311q0 197 -89.5 298.5t-222.5 101.5q-135 0 -224 -101t-89 -305zM68 531q0 295 164 437q137 118 334 118q219 0 358 -143.5t139 -396.5q0 -205 -61.5 -322.5t-179 -182.5t-256.5 -65q-223 0 -360.5 143 t-137.5 412zM568 1364l-113 -170h-206l216 280h192l225 -280h-204z" unicode="ô"/>
<glyph glyph-name="otilde" d="M253 531q0 -204 89 -305.5t224 -101.5q134 0 223 102t89 311q0 197 -89.5 298.5t-222.5 101.5q-135 0 -224 -101t-89 -305zM68 531q0 295 164 437q137 118 334 118q219 0 358 -143.5t139 -396.5q0 -205 -61.5 -322.5t-179 -182.5t-256.5 -65q-223 0 -360.5 143 t-137.5 412zM231 1219q-1 104 57 166q57 62 146 62q62 0 169 -54q59 -30 94 -30q32 0 49 17.5t24 69.5h130q-3 -114 -57.5 -171t-138.5 -57q-63 0 -166 56q-67 36 -98 36q-34 0 -55 -24q-22 -24 -21 -71h-133z" unicode="õ"/>
<glyph glyph-name="odieresis" d="M253 531q0 -204 89 -305.5t224 -101.5q134 0 223 102t89 311q0 197 -89.5 298.5t-222.5 101.5q-135 0 -224 -101t-89 -305zM68 531q0 295 164 437q137 118 334 118q219 0 358 -143.5t139 -396.5q0 -205 -61.5 -322.5t-179 -182.5t-256.5 -65q-223 0 -360.5 143 t-137.5 412zM658 1270v205h188v-205h-188zM285 1270v205h188v-205h-188z" unicode="ö"/>
<glyph glyph-name="divide" horiz-adv-x="1124" unicode="÷" d="M459 319v205h205v-205h-205zM1046 639h-968v168h968v-168zM459 922v205h205v-205h-205z"/>
<glyph glyph-name="oslash" horiz-adv-x="1251" unicode="ø" d="M893 770l-449 -583q78 -63 176 -63q139 0 229.5 102t90.5 306q0 76 -12 133q-8 42 -35 105zM818 867q-91 70 -191 70q-133 0 -223 -102t-90 -304q0 -150 52 -251zM919 999l99 128l96 -70l-107 -138q63 -86 86 -156q31 -100 31 -233q0 -300 -169 -441q-137 -113 -330 -113 q-159 0 -281 80l-105 -135l-94 71l108 141q-59 68 -84 136q-40 109 -40 247q0 301 147 435.5t345 134.5q82 0 151 -21t147 -66z"/>
<glyph glyph-name="ugrave" d="M831 0v156q-124 -180 -337 -180q-94 0 -175.5 36t-121 90.5t-55.5 133.5q-11 53 -11 168v658h180v-589q0 -141 11 -190q17 -71 72 -111.5t136 -40.5t152 41.5t100.5 113t29.5 207.5v569h180v-1062h-161zM728 1194h-145l-231 280h241z" unicode="ù"/>
<glyph glyph-name="uacute" d="M831 0v156q-124 -180 -337 -180q-94 0 -175.5 36t-121 90.5t-55.5 133.5q-11 53 -11 168v658h180v-589q0 -141 11 -190q17 -71 72 -111.5t136 -40.5t152 41.5t100.5 113t29.5 207.5v569h180v-1062h-161zM453 1194l133 280h236l-220 -280h-149z" unicode="ú"/>
<glyph glyph-name="ucircumflex" d="M831 0v156q-124 -180 -337 -180q-94 0 -175.5 36t-121 90.5t-55.5 133.5q-11 53 -11 168v658h180v-589q0 -141 11 -190q17 -71 72 -111.5t136 -40.5t152 41.5t100.5 113t29.5 207.5v569h180v-1062h-161zM564 1364l-113 -170h-206l216 280h192l225 -280h-204z" unicode="û"/>
<glyph glyph-name="udieresis" d="M831 0v156q-124 -180 -337 -180q-94 0 -175.5 36t-121 90.5t-55.5 133.5q-11 53 -11 168v658h180v-589q0 -141 11 -190q17 -71 72 -111.5t136 -40.5t152 41.5t100.5 113t29.5 207.5v569h180v-1062h-161zM654 1270v205h188v-205h-188zM281 1270v205h188v-205h-188z" unicode="ü"/>
<glyph glyph-name="yacute" horiz-adv-x="1024" unicode="ý" d="M127 -409l-20 169q59 -16 103 -16q60 0 96 20t59 56q17 27 55 134q5 15 16 44l-403 1064h194l221 -615q43 -117 77 -246q31 124 74 242l227 619h180l-404 -1080q-65 -175 -101 -241q-48 -89 -110 -130.5t-148 -41.5q-52 0 -116 22zM420 1194l133 280h236l-220 -280h-149z "/>
<glyph glyph-name="thorn" d="M298 525q0 -205 83 -303t201 -98q120 0 205.5 101.5t85.5 314.5q0 203 -83.5 304t-199.5 101q-115 0 -203.5 -107.5t-88.5 -312.5zM135 -407v1873h180v-516q73 77 128 102q72 34 164 34q136 0 240 -70t157 -197.5t53 -279.5q0 -164 -58.5 -294t-170 -199.5t-233.5 -69.5 q-83 0 -154 33q-54 26 -126 101v-517h-180z" unicode="þ"/>
<glyph glyph-name="ydieresis" horiz-adv-x="1024" unicode="ÿ" d="M127 -409l-20 169q59 -16 103 -16q60 0 96 20t59 56q17 27 55 134q5 15 16 44l-403 1064h194l221 -615q43 -117 77 -246q31 124 74 242l227 619h180l-404 -1080q-65 -175 -101 -241q-48 -89 -110 -130.5t-148 -41.5q-52 0 -116 22zM616 1270v205h188v-205h-188zM243 1270 v205h188v-205h-188z"/>
<glyph glyph-name="Amacron" horiz-adv-x="1366" unicode="Ā" d="M420 602h497l-153 406q-70 185 -104 304q-28 -141 -79 -280zM-3 0l563 1466h209l600 -1466h-221l-171 444h-613l-161 -444h-206zM359 1578v148h624v-148h-624z"/>
<glyph glyph-name="amacron" d="M813 533q-98 -40 -294 -68q-111 -16 -157 -36t-71 -58.5t-25 -85.5q0 -72 54.5 -120t159.5 -48q104 0 185 45.5t119 124.5q29 61 29 180v66zM828 131q-100 -85 -192.5 -120t-198.5 -35q-175 0 -269 85.5t-94 218.5q0 78 35.5 142.5t93 103.5t129.5 59q53 14 160 27 q218 26 321 62q1 37 1 47q0 110 -51 155q-69 61 -205 61q-127 0 -187.5 -44.5t-89.5 -157.5l-176 24q24 113 79 182.5t159 107t241 37.5q136 0 221 -32t125 -80.5t56 -122.5q9 -46 9 -166v-240q0 -251 11.5 -317.5t45.5 -127.5h-188q-28 56 -36 131zM274 1227v148h624v-148 h-624z" unicode="ā"/>
<glyph glyph-name="Abreve" horiz-adv-x="1366" unicode="Ă" d="M420 602h497l-153 406q-70 185 -104 304q-28 -141 -79 -280zM-3 0l563 1466h209l600 -1466h-221l-171 444h-613l-161 -444h-206zM852 1815h123q-15 -125 -91.5 -192t-203.5 -67q-128 0 -204.5 66.5t-91.5 192.5h123q14 -68 55.5 -101.5t111.5 -33.5q81 0 122.5 32.5 t55.5 102.5z"/>
<glyph glyph-name="abreve" d="M813 533q-98 -40 -294 -68q-111 -16 -157 -36t-71 -58.5t-25 -85.5q0 -72 54.5 -120t159.5 -48q104 0 185 45.5t119 124.5q29 61 29 180v66zM828 131q-100 -85 -192.5 -120t-198.5 -35q-175 0 -269 85.5t-94 218.5q0 78 35.5 142.5t93 103.5t129.5 59q53 14 160 27 q218 26 321 62q1 37 1 47q0 110 -51 155q-69 61 -205 61q-127 0 -187.5 -44.5t-89.5 -157.5l-176 24q24 113 79 182.5t159 107t241 37.5q136 0 221 -32t125 -80.5t56 -122.5q9 -46 9 -166v-240q0 -251 11.5 -317.5t45.5 -127.5h-188q-28 56 -36 131zM759 1464h123 q-15 -125 -91.5 -192t-203.5 -67q-128 0 -204.5 66.5t-91.5 192.5h123q14 -68 55.5 -101.5t111.5 -33.5q81 0 122.5 32.5t55.5 102.5z" unicode="ă"/>
<glyph glyph-name="Aogonek" horiz-adv-x="1366" unicode="Ą" d="M420 602h497l-153 406q-70 185 -104 304q-28 -141 -79 -280zM-3 0l563 1466h209l600 -1466h-221l-171 444h-613l-161 -444h-206zM1305 0q-57 -35 -88.5 -86.5t-31.5 -104.5q0 -42 23 -71t75 -29q23 0 47 6.5t44 17.5v-128q-73 -35 -136 -35q-51 0 -89 14.5t-63.5 40 t-38 58.5t-12.5 71q0 64 36 128.5t102 117.5h132z"/>
<glyph glyph-name="aogonek" d="M813 533q-98 -40 -294 -68q-111 -16 -157 -36t-71 -58.5t-25 -85.5q0 -72 54.5 -120t159.5 -48q104 0 185 45.5t119 124.5q29 61 29 180v66zM828 131q-100 -85 -192.5 -120t-198.5 -35q-175 0 -269 85.5t-94 218.5q0 78 35.5 142.5t93 103.5t129.5 59q53 14 160 27 q218 26 321 62q1 37 1 47q0 110 -51 155q-69 61 -205 61q-127 0 -187.5 -44.5t-89.5 -157.5l-176 24q24 113 79 182.5t159 107t241 37.5q136 0 221 -32t125 -80.5t56 -122.5q9 -46 9 -166v-240q0 -251 11.5 -317.5t45.5 -127.5h-188q-28 56 -36 131zM1015 0 q-57 -35 -88.5 -86.5t-31.5 -104.5q0 -42 23 -71t75 -29q23 0 47 6.5t44 17.5v-128q-73 -35 -136 -35q-51 0 -89 14.5t-63.5 40t-38 58.5t-12.5 71q0 64 36 128.5t102 117.5h132z" unicode="ą"/>
<glyph glyph-name="Cacute" horiz-adv-x="1479" unicode="Ć" d="M1204 514l194 -49q-61 -239 -219.5 -364.5t-387.5 -125.5q-237 0 -385.5 96.5t-226 279.5t-77.5 393q0 229 87.5 399.5t249 259t355.5 88.5q220 0 370 -112t209 -315l-191 -45q-51 160 -148 233t-244 73q-169 0 -282.5 -81t-159.5 -217.5t-46 -281.5q0 -187 54.5 -326.5 t169.5 -208.5t249 -69q163 0 276 94t153 279zM663 1556l133 280h236l-220 -280h-149z"/>
<glyph glyph-name="cacute" horiz-adv-x="1024" unicode="ć" d="M828 389l177 -23q-29 -183 -148.5 -286.5t-293.5 -103.5q-218 0 -350.5 142.5t-132.5 408.5q0 172 57 301t173.5 193.5t253.5 64.5q173 0 283 -87.5t141 -248.5l-175 -27q-25 107 -88.5 161t-153.5 54q-136 0 -221 -97.5t-85 -308.5q0 -214 82 -311t214 -97q106 0 177 65 t90 200zM424 1194l133 280h236l-220 -280h-149z"/>
<glyph glyph-name="Ccircumflex" horiz-adv-x="1479" unicode="Ĉ" d="M1204 514l194 -49q-61 -239 -219.5 -364.5t-387.5 -125.5q-237 0 -385.5 96.5t-226 279.5t-77.5 393q0 229 87.5 399.5t249 259t355.5 88.5q220 0 370 -112t209 -315l-191 -45q-51 160 -148 233t-244 73q-169 0 -282.5 -81t-159.5 -217.5t-46 -281.5q0 -187 54.5 -326.5 t169.5 -208.5t249 -69q163 0 276 94t153 279zM776 1720l-113 -170h-206l216 280h192l225 -280h-204z"/>
<glyph glyph-name="ccircumflex" horiz-adv-x="1024" unicode="ĉ" d="M828 389l177 -23q-29 -183 -148.5 -286.5t-293.5 -103.5q-218 0 -350.5 142.5t-132.5 408.5q0 172 57 301t173.5 193.5t253.5 64.5q173 0 283 -87.5t141 -248.5l-175 -27q-25 107 -88.5 161t-153.5 54q-136 0 -221 -97.5t-85 -308.5q0 -214 82 -311t214 -97q106 0 177 65 t90 200zM594 1364l-113 -170h-206l216 280h192l225 -280h-204z"/>
<glyph glyph-name="Cdotaccent" horiz-adv-x="1479" unicode="Ċ" d="M1204 514l194 -49q-61 -239 -219.5 -364.5t-387.5 -125.5q-237 0 -385.5 96.5t-226 279.5t-77.5 393q0 229 87.5 399.5t249 259t355.5 88.5q220 0 370 -112t209 -315l-191 -45q-51 160 -148 233t-244 73q-169 0 -282.5 -81t-159.5 -217.5t-46 -281.5q0 -187 54.5 -326.5 t169.5 -208.5t249 -69q163 0 276 94t153 279zM661 1594v224h223v-224h-223z"/>
<glyph glyph-name="cdotaccent" horiz-adv-x="1024" unicode="ċ" d="M828 389l177 -23q-29 -183 -148.5 -286.5t-293.5 -103.5q-218 0 -350.5 142.5t-132.5 408.5q0 172 57 301t173.5 193.5t253.5 64.5q173 0 283 -87.5t141 -248.5l-175 -27q-25 107 -88.5 161t-153.5 54q-136 0 -221 -97.5t-85 -308.5q0 -214 82 -311t214 -97q106 0 177 65 t90 200zM469 1194v224h223v-224h-223z"/>
<glyph glyph-name="Ccaron" horiz-adv-x="1479" unicode="Č" d="M1204 514l194 -49q-61 -239 -219.5 -364.5t-387.5 -125.5q-237 0 -385.5 96.5t-226 279.5t-77.5 393q0 229 87.5 399.5t249 259t355.5 88.5q220 0 370 -112t209 -315l-191 -45q-51 160 -148 233t-244 73q-169 0 -282.5 -81t-159.5 -217.5t-46 -281.5q0 -187 54.5 -326.5 t169.5 -208.5t249 -69q163 0 276 94t153 279zM791 1660l110 170h204l-225 -280h-192l-216 280h206z"/>
<glyph glyph-name="ccaron" horiz-adv-x="1024" unicode="č" d="M828 389l177 -23q-29 -183 -148.5 -286.5t-293.5 -103.5q-218 0 -350.5 142.5t-132.5 408.5q0 172 57 301t173.5 193.5t253.5 64.5q173 0 283 -87.5t141 -248.5l-175 -27q-25 107 -88.5 161t-153.5 54q-136 0 -221 -97.5t-85 -308.5q0 -214 82 -311t214 -97q106 0 177 65 t90 200zM561 1304l110 170h204l-225 -280h-192l-216 280h206z"/>
<glyph glyph-name="Dcaron" horiz-adv-x="1479" unicode="Ď" d="M352 173h313q145 0 227.5 27t131.5 76q69 69 107.5 185.5t38.5 282.5q0 230 -75.5 353.5t-183.5 165.5q-78 30 -251 30h-308v-1120zM158 0v1466h505q171 0 261 -21q126 -29 215 -105q116 -98 173.5 -250.5t57.5 -348.5q0 -167 -39 -296t-100 -213.5t-133.5 -133 t-175 -73.5t-235.5 -25h-529zM600 1660l110 170h204l-225 -280h-192l-216 280h206z"/>
<glyph glyph-name="dcaron" horiz-adv-x="1259" unicode="ď" d="M256 530q0 -204 86 -305t203 -101q118 0 200.5 96.5t82.5 294.5q0 218 -84 320t-207 102q-120 0 -200.5 -98t-80.5 -309zM825 0v134q-101 -158 -297 -158q-127 0 -233.5 70t-165 195.5t-58.5 288.5q0 159 53 288.5t159 198.5t237 69q96 0 171 -40.5t122 -105.5v526h179 v-1466h-167zM1078 1281v185h184v-185q0 -101 -36 -163.5t-114 -96.5l-45 68q51 23 75.5 66.5t26.5 125.5h-91z"/>
<glyph glyph-name="Dcroat" horiz-adv-x="1479" unicode="Đ" d="M352 173h313q146 0 228 27t130 75q69 69 108 185t39 283q0 172 -38.5 275t-100.5 165t-138 86t-233 24h-308v-494h404v-132h-404v-494zM158 0v667h-161v132h161v667h506q170 0 260 -21q126 -29 215 -105q116 -98 173.5 -250.5t57.5 -348.5q0 -224 -71 -385.5t-170 -234.5 t-228 -104q-71 -17 -214 -17h-529z"/>
<glyph glyph-name="dcroat" d="M255 530q0 -204 86 -305t203 -101q118 0 200.5 96.5t82.5 294.5q0 218 -84 320t-207 102q-120 0 -200.5 -98t-80.5 -309zM812 1219h-346v132h346v115h179v-115h145v-132h-145v-1219h-167v134q-101 -158 -297 -158q-127 0 -233.5 70t-165 195.5t-58.5 288.5 q0 159 53 288.5t159 198.5t237 69q96 0 171 -40.5t122 -105.5v279z" unicode="đ"/>
<glyph glyph-name="Emacron" horiz-adv-x="1366" unicode="Ē" d="M162 0v1466h1060v-173h-866v-449h811v-172h-811v-499h900v-173h-1094zM414 1589v148h624v-148h-624z"/>
<glyph glyph-name="emacron" d="M271 633h593q-12 134 -68 201q-86 104 -223 104q-124 0 -208.5 -83t-93.5 -222zM862 342l186 -23q-44 -163 -163 -253t-304 -90q-233 0 -369.5 143.5t-136.5 402.5q0 268 138 416t358 148q213 0 348 -145t135 -408q0 -16 -1 -48h-792q10 -175 99 -268t222 -93 q99 0 169 52t111 166zM253 1227v148h624v-148h-624z" unicode="ē"/>
<glyph glyph-name="Ebreve" horiz-adv-x="1366" unicode="Ĕ" d="M162 0v1466h1060v-173h-866v-449h811v-172h-811v-499h900v-173h-1094zM877 1826h123q-15 -125 -91.5 -192t-203.5 -67q-128 0 -204.5 66.5t-91.5 192.5h123q14 -68 55.5 -101.5t111.5 -33.5q81 0 122.5 32.5t55.5 102.5z"/>
<glyph glyph-name="ebreve" d="M271 633h593q-12 134 -68 201q-86 104 -223 104q-124 0 -208.5 -83t-93.5 -222zM862 342l186 -23q-44 -163 -163 -253t-304 -90q-233 0 -369.5 143.5t-136.5 402.5q0 268 138 416t358 148q213 0 348 -145t135 -408q0 -16 -1 -48h-792q10 -175 99 -268t222 -93 q99 0 169 52t111 166zM758 1464h123q-15 -125 -91.5 -192t-203.5 -67q-128 0 -204.5 66.5t-91.5 192.5h123q14 -68 55.5 -101.5t111.5 -33.5q81 0 122.5 32.5t55.5 102.5z" unicode="ĕ"/>
<glyph glyph-name="Edotaccent" horiz-adv-x="1366" unicode="Ė" d="M162 0v1466h1060v-173h-866v-449h811v-172h-811v-499h900v-173h-1094zM614 1556v224h223v-224h-223z"/>
<glyph glyph-name="edotaccent" d="M271 633h593q-12 134 -68 201q-86 104 -223 104q-124 0 -208.5 -83t-93.5 -222zM862 342l186 -23q-44 -163 -163 -253t-304 -90q-233 0 -369.5 143.5t-136.5 402.5q0 268 138 416t358 148q213 0 348 -145t135 -408q0 -16 -1 -48h-792q10 -175 99 -268t222 -93 q99 0 169 52t111 166zM479 1194v224h223v-224h-223z" unicode="ė"/>
<glyph glyph-name="Eogonek" horiz-adv-x="1366" unicode="Ę" d="M162 0v1466h1060v-173h-866v-449h811v-172h-811v-499h900v-173h-1094zM1187 0q-57 -35 -88.5 -86.5t-31.5 -104.5q0 -42 23 -71t75 -29q23 0 47 6.5t44 17.5v-128q-73 -35 -136 -35q-51 0 -89 14.5t-63.5 40t-38 58.5t-12.5 71q0 64 36 128.5t102 117.5h132z"/>
<glyph glyph-name="eogonek" d="M271 633h593q-12 134 -68 201q-86 104 -223 104q-124 0 -208.5 -83t-93.5 -222zM862 342l186 -23q-44 -163 -163 -253t-304 -90q-233 0 -369.5 143.5t-136.5 402.5q0 268 138 416t358 148q213 0 348 -145t135 -408q0 -16 -1 -48h-792q10 -175 99 -268t222 -93 q99 0 169 52t111 166zM735 0q-57 -35 -88.5 -86.5t-31.5 -104.5q0 -42 23 -71t75 -29q23 0 47 6.5t44 17.5v-128q-73 -35 -136 -35q-51 0 -89 14.5t-63.5 40t-38 58.5t-12.5 71q0 64 36 128.5t102 117.5h132z" unicode="ę"/>
<glyph glyph-name="Ecaron" horiz-adv-x="1366" unicode="Ě" d="M162 0v1466h1060v-173h-866v-449h811v-172h-811v-499h900v-173h-1094zM666 1660l110 170h204l-225 -280h-192l-216 280h206z"/>
<glyph glyph-name="ecaron" d="M271 633h593q-12 134 -68 201q-86 104 -223 104q-124 0 -208.5 -83t-93.5 -222zM862 342l186 -23q-44 -163 -163 -253t-304 -90q-233 0 -369.5 143.5t-136.5 402.5q0 268 138 416t358 148q213 0 348 -145t135 -408q0 -16 -1 -48h-792q10 -175 99 -268t222 -93 q99 0 169 52t111 166zM583 1304l110 170h204l-225 -280h-192l-216 280h206z" unicode="ě"/>
<glyph glyph-name="Gcircumflex" horiz-adv-x="1593" unicode="Ĝ" d="M844 575v172l621 1v-544q-143 -114 -295 -171.5t-312 -57.5q-216 0 -392.5 92.5t-266.5 267.5t-90 391q0 214 89.5 399.5t257.5 275.5t387 90q159 0 287.5 -51.5t201.5 -143.5t111 -240l-175 -48q-33 112 -82 176t-140 102.5t-202 38.5q-133 0 -230 -40.5t-156.5 -106.5 t-92.5 -145q-56 -136 -56 -295q0 -196 67.5 -328t196.5 -196t274 -64q126 0 246 48.5t182 103.5v273h-431zM870 1715l-113 -170h-206l216 280h192l225 -280h-204z"/>
<glyph glyph-name="gcircumflex" d="M251 550q0 -209 83 -305t208 -96q124 0 208 95.5t84 299.5q0 195 -86.5 294t-208.5 99q-120 0 -204 -97.5t-84 -289.5zM102 -88l175 -26q11 -81 61 -118q67 -50 183 -50q125 0 193 50t92 140q13 51 13 208v23q-118 -139 -294 -139q-219 0 -339 158t-120 379 q0 152 55 280.5t159.5 198.5t245.5 70q188 0 310 -152v128h166v-918q0 -248 -50.5 -351.5t-160 -163.5t-269.5 -60q-190 -1 -307 85q-113 83 -113 247v11zM544 1364l-113 -170h-206l216 280h192l225 -280h-204z" unicode="ĝ"/>
<glyph glyph-name="Gbreve" horiz-adv-x="1593" unicode="Ğ" d="M844 575v172l621 1v-544q-143 -114 -295 -171.5t-312 -57.5q-216 0 -392.5 92.5t-266.5 267.5t-90 391q0 214 89.5 399.5t257.5 275.5t387 90q159 0 287.5 -51.5t201.5 -143.5t111 -240l-175 -48q-33 112 -82 176t-140 102.5t-202 38.5q-133 0 -230 -40.5t-156.5 -106.5 t-92.5 -145q-56 -136 -56 -295q0 -196 67.5 -328t196.5 -196t274 -64q126 0 246 48.5t182 103.5v273h-431zM1040 1815h123q-15 -125 -91.5 -192t-203.5 -67q-128 0 -204.5 66.5t-91.5 192.5h123q14 -68 55.5 -101.5t111.5 -33.5q81 0 122.5 32.5t55.5 102.5z"/>
<glyph glyph-name="gbreve" d="M251 550q0 -209 83 -305t208 -96q124 0 208 95.5t84 299.5q0 195 -86.5 294t-208.5 99q-120 0 -204 -97.5t-84 -289.5zM102 -88l175 -26q11 -81 61 -118q67 -50 183 -50q125 0 193 50t92 140q13 51 13 208v23q-118 -139 -294 -139q-219 0 -339 158t-120 379 q0 152 55 280.5t159.5 198.5t245.5 70q188 0 310 -152v128h166v-918q0 -248 -50.5 -351.5t-160 -163.5t-269.5 -60q-190 -1 -307 85q-113 83 -113 247v11zM742 1464h123q-15 -125 -91.5 -192t-203.5 -67q-128 0 -204.5 66.5t-91.5 192.5h123q14 -68 55.5 -101.5t111.5 -33.5 q81 0 122.5 32.5t55.5 102.5z" unicode="ğ"/>
<glyph glyph-name="Gdotaccent" horiz-adv-x="1593" unicode="Ġ" d="M844 575v172l621 1v-544q-143 -114 -295 -171.5t-312 -57.5q-216 0 -392.5 92.5t-266.5 267.5t-90 391q0 214 89.5 399.5t257.5 275.5t387 90q159 0 287.5 -51.5t201.5 -143.5t111 -240l-175 -48q-33 112 -82 176t-140 102.5t-202 38.5q-133 0 -230 -40.5t-156.5 -106.5 t-92.5 -145q-56 -136 -56 -295q0 -196 67.5 -328t196.5 -196t274 -64q126 0 246 48.5t182 103.5v273h-431zM755 1545v224h223v-224h-223z"/>
<glyph glyph-name="gdotaccent" d="M251 550q0 -209 83 -305t208 -96q124 0 208 95.5t84 299.5q0 195 -86.5 294t-208.5 99q-120 0 -204 -97.5t-84 -289.5zM102 -88l175 -26q11 -81 61 -118q67 -50 183 -50q125 0 193 50t92 140q13 51 13 208v23q-118 -139 -294 -139q-219 0 -339 158t-120 379 q0 152 55 280.5t159.5 198.5t245.5 70q188 0 310 -152v128h166v-918q0 -248 -50.5 -351.5t-160 -163.5t-269.5 -60q-190 -1 -307 85q-113 83 -113 247v11zM457 1194v224h223v-224h-223z" unicode="ġ"/>
<glyph glyph-name="Gcommaaccent" horiz-adv-x="1593" unicode="Ģ" d="M844 575v172l621 1v-544q-143 -114 -295 -171.5t-312 -57.5q-216 0 -392.5 92.5t-266.5 267.5t-90 391q0 214 89.5 399.5t257.5 275.5t387 90q159 0 287.5 -51.5t201.5 -143.5t111 -240l-175 -48q-33 112 -82 176t-140 102.5t-202 38.5q-133 0 -230 -40.5t-156.5 -106.5 t-92.5 -145q-56 -136 -56 -295q0 -196 67.5 -328t196.5 -196t274 -64q126 0 246 48.5t182 103.5v273h-431zM733 -50q35 4 66 4q137 0 199 -55t62 -127q0 -77 -70.5 -135t-222.5 -58q-63 0 -140 12l11 117q44 -4 87 -4q167 0 167 76q0 67 -127 67q-14 0 -32 -2v105z"/>
<glyph glyph-name="gcommaaccent" d="M251 550q0 -213 85 -307t206 -94q129 0 210.5 98.5t81.5 300.5q0 170 -77.5 279.5t-217.5 109.5q-130 0 -209 -103.5t-79 -283.5zM102 -88l175 -26q17 -168 244 -168q121 0 190.5 48t88.5 120t19 253q-117 -139 -291 -139q-220 0 -341 157.5t-121 377.5q0 241 121 396 t341 155q186 0 308 -152v128h166v-918q0 -231 -46 -340t-160.5 -172t-269.5 -63q-214 -1 -321 93q-103 90 -103 239v11zM632 1345v-175h-209v117q0 112 37 182t131 107l54 -83q-93 -39 -109 -148h96z" unicode="ģ"/>
<glyph glyph-name="Hcircumflex" horiz-adv-x="1479" unicode="Ĥ" d="M164 0v1466h194v-602h762v602h194v-1466h-194v691h-762v-691h-194zM774 1726l-113 -170h-206l216 280h192l225 -280h-204z"/>
<glyph glyph-name="hcircumflex" d="M135 0v1466h180v-526q126 146 318 146q118 0 205 -46.5t124.5 -128.5t37.5 -238v-673h-180v673q0 135 -58.5 196.5t-165.5 61.5q-80 0 -150.5 -41.5t-100.5 -112.5t-30 -196v-581h-180zM644 1726l-113 -170h-206l216 280h192l225 -280h-204z" unicode="ĥ"/>
<glyph glyph-name="Hbar" horiz-adv-x="1479" unicode="Ħ" d="M358 1099v-235h762v235h-762zM164 1099h-133v148h133v219h194v-219h762v219h194v-219h133v-148h-133v-1099h-194v691h-762v-691h-194v1099z"/>
<glyph glyph-name="hbar" d="M135 1199h-129v134h129v133h180v-133h367v-134h-367v-259q122 146 320 146q137 0 251 -76t114 -337v-673h-180v673q0 258 -225 258q-123 0 -201.5 -80.5t-78.5 -269.5v-581h-180v1199z" unicode="ħ"/>
<glyph glyph-name="Itilde" horiz-adv-x="569" unicode="Ĩ" d="M191 0v1466h194v-1466h-194zM-63 1581q-1 104 57 166q57 62 146 62q62 0 169 -54q59 -30 94 -30q32 0 49 17.5t24 69.5h130q-3 -114 -57.5 -171t-138.5 -57q-63 0 -166 56q-67 36 -98 36q-34 0 -55 -24q-22 -24 -21 -71h-133z"/>
<glyph glyph-name="itilde" horiz-adv-x="569" unicode="ĩ" d="M198 0v1062h180v-1062h-180zM-45 1219q-1 104 57 166q57 62 146 62q62 0 169 -54q59 -30 94 -30q32 0 49 17.5t24 69.5h130q-3 -114 -57.5 -171t-138.5 -57q-63 0 -166 56q-67 36 -98 36q-34 0 -55 -24q-22 -24 -21 -71h-133z"/>
<glyph glyph-name="Imacron" horiz-adv-x="569" unicode="Ī" d="M191 0v1466h194v-1466h-194zM-28 1563v148h624v-148h-624z"/>
<glyph glyph-name="imacron" horiz-adv-x="569" unicode="ī" d="M198 0v1062h180v-1062h-180zM-23 1227v148h624v-148h-624z"/>
<glyph glyph-name="Ibreve" horiz-adv-x="569" unicode="Ĭ" d="M191 0v1466h194v-1466h-194zM467 1800h123q-15 -125 -91.5 -192t-203.5 -67q-128 0 -204.5 66.5t-91.5 192.5h123q14 -68 55.5 -101.5t111.5 -33.5q81 0 122.5 32.5t55.5 102.5z"/>
<glyph glyph-name="ibreve" horiz-adv-x="569" unicode="ĭ" d="M198 0v1062h180v-1062h-180zM462 1464h123q-15 -125 -91.5 -192t-203.5 -67q-128 0 -204.5 66.5t-91.5 192.5h123q14 -68 55.5 -101.5t111.5 -33.5q81 0 122.5 32.5t55.5 102.5z"/>
<glyph glyph-name="Iogonek" horiz-adv-x="569" unicode="Į" d="M191 0v1466h194v-1466h-194zM345 0q-57 -35 -88.5 -86.5t-31.5 -104.5q0 -42 23 -71t75 -29q23 0 47 6.5t44 17.5v-128q-73 -35 -136 -35q-51 0 -89 14.5t-63.5 40t-38 58.5t-12.5 71q0 64 36 128.5t102 117.5h132z"/>
<glyph glyph-name="iogonek" horiz-adv-x="455" unicode="į" d="M136 0v1062h180v-1062h-180zM136 1259v207h180v-207h-180zM295 0q-57 -35 -88.5 -86.5t-31.5 -104.5q0 -42 23 -71t75 -29q23 0 47 6.5t44 17.5v-128q-73 -35 -136 -35q-51 0 -89 14.5t-63.5 40t-38 58.5t-12.5 71q0 64 36 128.5t102 117.5h132z"/>
<glyph glyph-name="Idotaccent" horiz-adv-x="569" unicode="İ" d="M191 0v1466h194v-1466h-194zM177 1556v224h223v-224h-223z"/>
<glyph glyph-name="dotlessi" horiz-adv-x="569" unicode="ı" d="M198 0v1062h180v-1062h-180z"/>
<glyph glyph-name="IJ" horiz-adv-x="1505" unicode="Ĳ" d="M191 0v1466h194v-1466h-194zM594 416l175 24q7 -168 63 -230t155 -62q73 0 126 33.5t73 91t20 183.5v1010h194v-999q0 -184 -44.5 -285t-141 -154t-226.5 -53q-193 0 -295 111q-99 107 -99 314v16z"/>
<glyph glyph-name="ij" horiz-adv-x="909" unicode="ĳ" d="M136 0v1062h180v-1062h-180zM136 1259v207h180v-207h-180zM384 -412l34 153q54 -14 85 -14q55 0 82 36.5t27 182.5v1116h180v-1120q0 -196 -51 -273q-65 -100 -216 -100q-73 0 -141 19zM612 1257v209h180v-209h-180z"/>
<glyph glyph-name="Jcircumflex" horiz-adv-x="1024" unicode="Ĵ" d="M59 416l175 24q7 -168 63 -230t155 -62q73 0 126 33.5t73 91t20 183.5v1010h194v-999q0 -184 -44.5 -285t-141 -154t-226.5 -53q-193 0 -295 111q-99 107 -99 314v16zM794 1726l-113 -170h-206l216 280h192l225 -280h-204z"/>
<glyph glyph-name="jcircumflex" horiz-adv-x="455" unicode="ĵ" d="M-94 -412l34 153q52 -14 85 -14q63 0 86 41.5t23 177.5v1116h180v-1120q0 -197 -58.5 -285t-208.5 -88q-73 0 -141 19zM230 1364l-113 -170h-205l216 280h192l224 -280h-203z"/>
<glyph glyph-name="Kcommaaccent" horiz-adv-x="1366" unicode="Ķ" d="M150 0v1466h194v-727l728 727h263l-615 -594l642 -872h-256l-522 742l-240 -234v-508h-194zM673 -50q35 4 66 4q137 0 199 -55t62 -127q0 -77 -70.5 -135t-222.5 -58q-63 0 -140 12l11 117q44 -4 87 -4q167 0 167 76q0 67 -127 67q-14 0 -32 -2v105z"/>
<glyph glyph-name="kcommaaccent" horiz-adv-x="1024" unicode="ķ" d="M136 0v1466h180v-836l426 432h233l-406 -394l447 -668h-222l-351 543l-127 -122v-421h-180zM502 -50q35 4 66 4q137 0 199 -55t62 -127q0 -77 -70.5 -135t-222.5 -58q-63 0 -140 12l11 117q44 -4 87 -4q167 0 167 76q0 67 -127 67q-14 0 -32 -2v105z"/>
<glyph glyph-name="kgreenlandic" horiz-adv-x="1024" unicode="ĸ" d="M134 0v1062h180v-432l426 432h233l-406 -394l447 -668h-222l-351 543l-127 -122v-421h-180z"/>
<glyph glyph-name="Lacute" d="M150 0v1466h194v-1293h722v-173h-916zM304 1556l133 280h236l-220 -280h-149z" unicode="Ĺ"/>
<glyph glyph-name="lacute" horiz-adv-x="455" unicode="ĺ" d="M131 0v1466h180v-1466h-180zM66 1541l133 280h236l-220 -280h-149z"/>
<glyph glyph-name="Lcommaaccent" d="M150 0v1466h194v-1293h722v-173h-916zM553 -50q35 4 66 4q137 0 199 -55t62 -127q0 -77 -70.5 -135t-222.5 -58q-63 0 -140 12l11 117q44 -4 87 -4q167 0 167 76q0 67 -127 67q-14 0 -32 -2v105z" unicode="Ļ"/>
<glyph glyph-name="lcommaaccent" horiz-adv-x="455" unicode="ļ" d="M131 0v1466h180v-1466h-180zM103 -50q35 4 66 4q137 0 199 -55t62 -127q0 -77 -70.5 -135t-222.5 -58q-63 0 -140 12l11 117q44 -4 87 -4q167 0 167 76q0 67 -127 67q-14 0 -32 -2v105z"/>
<glyph glyph-name="Lcaron" d="M150 0v1466h194v-1293h722v-173h-916zM712 1261v205h205v-205q0 -113 -40 -182.5t-127 -107.5l-50 77q57 25 84.5 73.5t29.5 139.5h-102z" unicode="Ľ"/>
<glyph glyph-name="lcaron" horiz-adv-x="597" unicode="ľ" d="M136 0v1466h180v-1466h-180zM412 1281v185h184v-185q0 -101 -36 -163.5t-114 -96.5l-45 68q51 23 75.5 66.5t26.5 125.5h-91z"/>
<glyph glyph-name="Ldot" d="M150 0v1466h194v-1293h722v-173h-916zM466 637v205h205v-205h-205z" unicode="Ŀ"/>
<glyph glyph-name="ldot" horiz-adv-x="684" unicode="ŀ" d="M131 0v1466h180v-1466h-180zM460 637v205h205v-205h-205z"/>
<glyph glyph-name="Lslash" d="M145 565l-145 -123v167l145 124v733h194v-568l332 281v-167l-332 -281v-558h728v-173h-922v565z" unicode="Ł"/>
<glyph glyph-name="lslash" horiz-adv-x="455" unicode="ł" d="M133 574l-130 -110v158l130 110v734h179v-582l135 115v-157l-135 -115v-727h-179v574z"/>
<glyph glyph-name="Nacute" horiz-adv-x="1479" unicode="Ń" d="M156 0v1466h199l770 -1151v1151h186v-1466h-199l-770 1152v-1152h-186zM570 1556l133 280h236l-220 -280h-149z"/>
<glyph glyph-name="nacute" d="M135 0v1062h162v-151q117 175 338 175q96 0 176.5 -34.5t120.5 -90.5t56 -133q10 -50 10 -175v-653h-180v646q0 110 -21 164.5t-74.5 87t-125.5 32.5q-115 0 -198.5 -73t-83.5 -277v-580h-180zM448 1194l133 280h236l-220 -280h-149z" unicode="ń"/>
<glyph glyph-name="Ncommaaccent" horiz-adv-x="1479" unicode="Ņ" d="M156 0v1466h199l770 -1151v1151h186v-1466h-199l-770 1152v-1152h-186zM699 -50q35 4 66 4q137 0 199 -55t62 -127q0 -77 -70.5 -135t-222.5 -58q-63 0 -140 12l11 117q44 -4 87 -4q167 0 167 76q0 67 -127 67q-14 0 -32 -2v105z"/>
<glyph glyph-name="ncommaaccent" d="M135 0v1062h162v-151q117 175 338 175q96 0 176.5 -34.5t120.5 -90.5t56 -133q10 -50 10 -175v-653h-180v646q0 110 -21 164.5t-74.5 87t-125.5 32.5q-115 0 -198.5 -73t-83.5 -277v-580h-180zM463 -50q35 4 66 4q137 0 199 -55t62 -127q0 -77 -70.5 -135t-222.5 -58 q-63 0 -140 12l11 117q44 -4 87 -4q167 0 167 76q0 67 -127 67q-14 0 -32 -2v105z" unicode="ņ"/>
<glyph glyph-name="Ncaron" horiz-adv-x="1479" unicode="Ň" d="M156 0v1466h199l770 -1151v1151h186v-1466h-199l-770 1152v-1152h-186zM734 1666l110 170h204l-225 -280h-192l-216 280h206z"/>
<glyph glyph-name="ncaron" d="M135 0v1062h162v-151q117 175 338 175q96 0 176.5 -34.5t120.5 -90.5t56 -133q10 -50 10 -175v-653h-180v646q0 110 -21 164.5t-74.5 87t-125.5 32.5q-115 0 -198.5 -73t-83.5 -277v-580h-180zM585 1304l110 170h204l-225 -280h-192l-216 280h206z" unicode="ň"/>
<glyph glyph-name="napostrophe" horiz-adv-x="1237" unicode="ŉ" d="M375 0v1062h162v-151q117 175 338 175q96 0 176.5 -34.5t120.5 -90.5t56 -133q10 -50 10 -175v-653h-180v646q0 110 -21 164.5t-74.5 87t-125.5 32.5q-115 0 -198.5 -73t-83.5 -277v-580h-180zM124 1272v209h193v-165q0 -134 -31 -193q-43 -81 -134 -122l-44 71 q54 22 80.5 69.5t29.5 130.5h-94z"/>
<glyph glyph-name="Eng" horiz-adv-x="1481" unicode="Ŋ" d="M165 1466h196v-182q115 132 228 169.5t238 37.5q181 0 295.5 -81t182.5 -233.5t68 -422.5q0 -394 -130 -586.5t-350 -192.5q-127 0 -248 72l87 153q96 -52 161 -52q77 0 142 64.5t103 196t38 340.5q0 579 -405 579q-133 0 -233.5 -62.5t-138.5 -159t-38 -305.5v-801h-196 v1466z"/>
<glyph glyph-name="eng" d="M1002 653v-711q0 -197 -58.5 -285t-208.5 -88q-73 0 -141 19l34 153q53 -14 85 -14q65 0 87 44t22 175v700q0 148 -52 216t-171 68q-117 0 -198.5 -75t-81.5 -275v-580h-180v1062h162v-151q117 175 338 175q130 0 218 -56t116.5 -138.5t28.5 -238.5z" unicode="ŋ"/>
<glyph glyph-name="Omacron" horiz-adv-x="1593" unicode="Ō" d="M299 711q0 -265 142.5 -417.5t357.5 -152.5q219 0 360.5 154t141.5 437q0 179 -60.5 312.5t-177 207t-261.5 73.5q-206 0 -354.5 -141.5t-148.5 -472.5zM99 714q0 365 196 571.5t506 206.5q203 0 366 -97t248.5 -270.5t85.5 -393.5q0 -223 -90 -399t-255 -266.5 t-356 -90.5q-207 0 -370 100t-247 273t-84 366zM504 1599v148h624v-148h-624z"/>
<glyph glyph-name="omacron" d="M253 531q0 -204 89 -305.5t224 -101.5q134 0 223 102t89 311q0 197 -89.5 298.5t-222.5 101.5q-135 0 -224 -101t-89 -305zM68 531q0 295 164 437q137 118 334 118q219 0 358 -143.5t139 -396.5q0 -205 -61.5 -322.5t-179 -182.5t-256.5 -65q-223 0 -360.5 143 t-137.5 412zM264 1227v148h624v-148h-624z" unicode="ō"/>
<glyph glyph-name="Obreve" horiz-adv-x="1593" unicode="Ŏ" d="M299 711q0 -265 142.5 -417.5t357.5 -152.5q219 0 360.5 154t141.5 437q0 179 -60.5 312.5t-177 207t-261.5 73.5q-206 0 -354.5 -141.5t-148.5 -472.5zM99 714q0 365 196 571.5t506 206.5q203 0 366 -97t248.5 -270.5t85.5 -393.5q0 -223 -90 -399t-255 -266.5 t-356 -90.5q-207 0 -370 100t-247 273t-84 366zM989 1826h123q-15 -125 -91.5 -192t-203.5 -67q-128 0 -204.5 66.5t-91.5 192.5h123q14 -68 55.5 -101.5t111.5 -33.5q81 0 122.5 32.5t55.5 102.5z"/>
<glyph glyph-name="obreve" d="M253 531q0 -204 89 -305.5t224 -101.5q134 0 223 102t89 311q0 197 -89.5 298.5t-222.5 101.5q-135 0 -224 -101t-89 -305zM68 531q0 295 164 437q137 118 334 118q219 0 358 -143.5t139 -396.5q0 -205 -61.5 -322.5t-179 -182.5t-256.5 -65q-223 0 -360.5 143 t-137.5 412zM749 1464h123q-15 -125 -91.5 -192t-203.5 -67q-128 0 -204.5 66.5t-91.5 192.5h123q14 -68 55.5 -101.5t111.5 -33.5q81 0 122.5 32.5t55.5 102.5z" unicode="ŏ"/>
<glyph glyph-name="Ohungarumlaut" horiz-adv-x="1593" unicode="Ő" d="M299 711q0 -265 142.5 -417.5t357.5 -152.5q219 0 360.5 154t141.5 437q0 179 -60.5 312.5t-177 207t-261.5 73.5q-206 0 -354.5 -141.5t-148.5 -472.5zM99 714q0 365 196 571.5t506 206.5q203 0 366 -97t248.5 -270.5t85.5 -393.5q0 -223 -90 -399t-255 -266.5 t-356 -90.5q-207 0 -370 100t-247 273t-84 366zM820 1556l127 280h231l-207 -280h-151zM473 1556l121 280h234l-211 -280h-144z"/>
<glyph glyph-name="ohungarumlaut" d="M253 531q0 -204 89 -305.5t224 -101.5q134 0 223 102t89 311q0 197 -89.5 298.5t-222.5 101.5q-135 0 -224 -101t-89 -305zM68 531q0 295 164 437q137 118 334 118q219 0 358 -143.5t139 -396.5q0 -205 -61.5 -322.5t-179 -182.5t-256.5 -65q-223 0 -360.5 143 t-137.5 412zM630 1194l127 280h231l-207 -280h-151zM283 1194l121 280h234l-211 -280h-144z" unicode="ő"/>
<glyph glyph-name="OE" horiz-adv-x="2048" unicode="Œ" d="M720 1334q-101 0 -197 -65t-145 -197.5t-49 -351.5q0 -303 115.5 -446t275.5 -143q161 0 275.5 142.5t114.5 471.5q0 306 -115.5 447.5t-274.5 141.5zM1983 173v-173h-862v212q-135 -237 -400 -237q-301 0 -456 232q-136 205 -136 528q0 322 142 539t450 217 q264 0 400 -223v198h831v-173h-650v-448h599v-172h-599v-500h681z"/>
<glyph glyph-name="oe" horiz-adv-x="1933" unicode="œ" d="M1080 631h587q-12 151 -91.5 229t-197.5 78q-120 0 -203.5 -82t-94.5 -225zM267 533q0 -186 71 -283q92 -126 239 -126q129 0 221 106t92 305q0 198 -90.5 300.5t-222.5 102.5q-87 0 -160 -49t-111.5 -145t-38.5 -211zM978 175q-76 -99 -175 -149t-221 -50 q-225 0 -362.5 143t-137.5 399q0 169 58.5 302.5t178 199.5t265.5 66q138 0 240.5 -57.5t153.5 -145.5q64 93 164.5 148t224.5 55q220 0 356 -151q134 -149 134 -443v-9h-784q3 -166 92.5 -262.5t223.5 -96.5q99 0 170.5 55.5t103.5 166.5l180 -26q-43 -165 -160.5 -254.5 t-296.5 -89.5q-134 0 -240 52.5t-168 146.5z"/>
<glyph glyph-name="Racute" horiz-adv-x="1479" unicode="Ŕ" d="M355 819h417q133 0 208 27.5t114 88t39 131.5q0 104 -75.5 171t-238.5 67h-464v-485zM161 0v1466h650q196 0 298 -39.5t163 -139.5t61 -221q0 -156 -101 -263t-312 -136q77 -37 117 -73q85 -78 161 -195l255 -399h-244l-194 305q-85 132 -140 202t-98.5 98t-88.5 39 q-33 7 -108 7h-225v-651h-194zM503 1556l133 280h236l-220 -280h-149z"/>
<glyph glyph-name="racute" horiz-adv-x="682" unicode="ŕ" d="M133 0v1062h162v-161q62 113 114.5 149t115.5 36q91 0 185 -58l-62 -167q-66 39 -132 39q-59 0 -106 -35.5t-67 -98.5q-30 -96 -30 -210v-556h-180zM242 1194l133 280h236l-220 -280h-149z"/>
<glyph glyph-name="Rcommaaccent" horiz-adv-x="1479" unicode="Ŗ" d="M355 819h417q133 0 208 27.5t114 88t39 131.5q0 104 -75.5 171t-238.5 67h-464v-485zM161 0v1466h650q196 0 298 -39.5t163 -139.5t61 -221q0 -156 -101 -263t-312 -136q77 -37 117 -73q85 -78 161 -195l255 -399h-244l-194 305q-85 132 -140 202t-98.5 98t-88.5 39 q-33 7 -108 7h-225v-651h-194zM699 -50q35 4 66 4q137 0 199 -55t62 -127q0 -77 -70.5 -135t-222.5 -58q-63 0 -140 12l11 117q44 -4 87 -4q167 0 167 76q0 67 -127 67q-14 0 -32 -2v105z"/>
<glyph glyph-name="rcommaaccent" horiz-adv-x="682" unicode="ŗ" d="M133 0v1062h162v-161q62 113 114.5 149t115.5 36q91 0 185 -58l-62 -167q-66 39 -132 39q-59 0 -106 -35.5t-67 -98.5q-30 -96 -30 -210v-556h-180zM250 -50q35 4 66 4q137 0 199 -55t62 -127q0 -77 -70.5 -135t-222.5 -58q-63 0 -140 12l11 117q44 -4 87 -4 q167 0 167 76q0 67 -127 67q-14 0 -32 -2v105z"/>
<glyph glyph-name="Rcaron" horiz-adv-x="1479" unicode="Ř" d="M355 819h417q133 0 208 27.5t114 88t39 131.5q0 104 -75.5 171t-238.5 67h-464v-485zM161 0v1466h650q196 0 298 -39.5t163 -139.5t61 -221q0 -156 -101 -263t-312 -136q77 -37 117 -73q85 -78 161 -195l255 -399h-244l-194 305q-85 132 -140 202t-98.5 98t-88.5 39 q-33 7 -108 7h-225v-651h-194zM649 1660l110 170h204l-225 -280h-192l-216 280h206z"/>
<glyph glyph-name="rcaron" horiz-adv-x="682" unicode="ř" d="M133 0v1062h162v-161q62 113 114.5 149t115.5 36q91 0 185 -58l-62 -167q-66 39 -132 39q-59 0 -106 -35.5t-67 -98.5q-30 -96 -30 -210v-556h-180zM379 1304l110 170h204l-225 -280h-192l-216 280h206z"/>
<glyph glyph-name="Sacute" horiz-adv-x="1366" unicode="Ś" d="M92 471l183 16q13 -110 60.5 -180.5t147.5 -114t225 -43.5q111 0 196 33t126.5 90.5t41.5 125.5q0 69 -40 120.5t-132 86.5q-59 23 -261 71.5t-283 91.5q-105 55 -156.5 136.5t-51.5 182.5q0 111 63 207.5t184 146.5t269 50q163 0 287.5 -52.5t191.5 -154.5t72 -231 l-186 -14q-15 139 -101.5 210t-255.5 71q-176 0 -256.5 -64.5t-80.5 -155.5q0 -79 57 -130q56 -51 292.5 -104.5t324.5 -93.5q128 -59 189 -149.5t61 -208.5q0 -117 -67 -220.5t-192.5 -161t-282.5 -57.5q-199 0 -333.5 58t-211 174.5t-80.5 263.5zM492 1556l133 280h236 l-220 -280h-149z"/>
<glyph glyph-name="sacute" horiz-adv-x="1024" unicode="ś" d="M63 317l178 28q15 -107 83.5 -164t191.5 -57q124 0 184 50.5t60 118.5q0 61 -53 96q-37 24 -184 61q-198 50 -274.5 86.5t-116 101t-39.5 142.5q0 71 32.5 131.5t88.5 100.5q42 31 114.5 52.5t155.5 21.5q125 0 219.5 -36t139.5 -97.5t62 -164.5l-176 -24 q-12 82 -69.5 128t-162.5 46q-124 0 -177 -41t-53 -96q0 -35 22 -63q22 -29 69 -48q27 -10 159 -46q191 -51 266.5 -83.5t118.5 -94.5t43 -154q0 -90 -52.5 -169.5t-151.5 -123t-224 -43.5q-207 0 -315.5 86t-138.5 255zM394 1194l133 280h236l-220 -280h-149z"/>
<glyph glyph-name="Scircumflex" horiz-adv-x="1366" unicode="Ŝ" d="M92 471l183 16q13 -110 60.5 -180.5t147.5 -114t225 -43.5q111 0 196 33t126.5 90.5t41.5 125.5q0 69 -40 120.5t-132 86.5q-59 23 -261 71.5t-283 91.5q-105 55 -156.5 136.5t-51.5 182.5q0 111 63 207.5t184 146.5t269 50q163 0 287.5 -52.5t191.5 -154.5t72 -231 l-186 -14q-15 139 -101.5 210t-255.5 71q-176 0 -256.5 -64.5t-80.5 -155.5q0 -79 57 -130q56 -51 292.5 -104.5t324.5 -93.5q128 -59 189 -149.5t61 -208.5q0 -117 -67 -220.5t-192.5 -161t-282.5 -57.5q-199 0 -333.5 58t-211 174.5t-80.5 263.5zM676 1720l-113 -170h-206 l216 280h192l225 -280h-204z"/>
<glyph glyph-name="scircumflex" horiz-adv-x="1024" unicode="ŝ" d="M63 317l178 28q15 -107 83.5 -164t191.5 -57q124 0 184 50.5t60 118.5q0 61 -53 96q-37 24 -184 61q-198 50 -274.5 86.5t-116 101t-39.5 142.5q0 71 32.5 131.5t88.5 100.5q42 31 114.5 52.5t155.5 21.5q125 0 219.5 -36t139.5 -97.5t62 -164.5l-176 -24 q-12 82 -69.5 128t-162.5 46q-124 0 -177 -41t-53 -96q0 -35 22 -63q22 -29 69 -48q27 -10 159 -46q191 -51 266.5 -83.5t118.5 -94.5t43 -154q0 -90 -52.5 -169.5t-151.5 -123t-224 -43.5q-207 0 -315.5 86t-138.5 255zM534 1364l-113 -170h-206l216 280h192l225 -280h-204 z"/>
<glyph glyph-name="Scedilla" horiz-adv-x="1366" unicode="Ş" d="M92 471l183 16q13 -110 60.5 -180.5t147.5 -114t225 -43.5q111 0 196 33t126.5 90.5t41.5 125.5q0 69 -40 120.5t-132 86.5q-59 23 -261 71.5t-283 91.5q-105 55 -156.5 136.5t-51.5 182.5q0 111 63 207.5t184 146.5t269 50q163 0 287.5 -52.5t191.5 -154.5t72 -231 l-186 -14q-15 139 -101.5 210t-255.5 71q-176 0 -256.5 -64.5t-80.5 -155.5q0 -79 57 -130q56 -51 292.5 -104.5t324.5 -93.5q128 -59 189 -149.5t61 -208.5q0 -117 -67 -220.5t-192.5 -161t-282.5 -57.5q-199 0 -333.5 58t-211 174.5t-80.5 263.5zM555 -144l52 177h134 l-33 -107q85 -10 128 -52.5t43 -94.5q0 -75 -72 -132.5t-217 -57.5q-82 0 -144 12l11 117q64 -4 94 -4q94 0 132 26q29 20 29 49q0 18 -11.5 32t-42.5 24t-103 11z"/>
<glyph glyph-name="scedilla" horiz-adv-x="1024" unicode="ş" d="M63 317l178 28q15 -107 83.5 -164t191.5 -57q124 0 184 50.5t60 118.5q0 61 -53 96q-37 24 -184 61q-198 50 -274.5 86.5t-116 101t-39.5 142.5q0 71 32.5 131.5t88.5 100.5q42 31 114.5 52.5t155.5 21.5q125 0 219.5 -36t139.5 -97.5t62 -164.5l-176 -24 q-12 82 -69.5 128t-162.5 46q-124 0 -177 -41t-53 -96q0 -35 22 -63q22 -29 69 -48q27 -10 159 -46q191 -51 266.5 -83.5t118.5 -94.5t43 -154q0 -90 -52.5 -169.5t-151.5 -123t-224 -43.5q-207 0 -315.5 86t-138.5 255zM375 -134l52 177h134l-33 -107q85 -10 128 -52.5 t43 -94.5q0 -75 -72 -132.5t-217 -57.5q-82 0 -144 12l11 117q64 -4 94 -4q94 0 132 26q29 20 29 49q0 18 -11.5 32t-42.5 24t-103 11z"/>
<glyph glyph-name="Scaron" horiz-adv-x="1366" unicode="Š" d="M92 471l183 16q13 -110 60.5 -180.5t147.5 -114t225 -43.5q111 0 196 33t126.5 90.5t41.5 125.5q0 69 -40 120.5t-132 86.5q-59 23 -261 71.5t-283 91.5q-105 55 -156.5 136.5t-51.5 182.5q0 111 63 207.5t184 146.5t269 50q163 0 287.5 -52.5t191.5 -154.5t72 -231 l-186 -14q-15 139 -101.5 210t-255.5 71q-176 0 -256.5 -64.5t-80.5 -155.5q0 -79 57 -130q56 -51 292.5 -104.5t324.5 -93.5q128 -59 189 -149.5t61 -208.5q0 -117 -67 -220.5t-192.5 -161t-282.5 -57.5q-199 0 -333.5 58t-211 174.5t-80.5 263.5zM655 1660l110 170h204 l-225 -280h-192l-216 280h206z"/>
<glyph glyph-name="scaron" horiz-adv-x="1024" unicode="š" d="M63 317l178 28q15 -107 83.5 -164t191.5 -57q124 0 184 50.5t60 118.5q0 61 -53 96q-37 24 -184 61q-198 50 -274.5 86.5t-116 101t-39.5 142.5q0 71 32.5 131.5t88.5 100.5q42 31 114.5 52.5t155.5 21.5q125 0 219.5 -36t139.5 -97.5t62 -164.5l-176 -24 q-12 82 -69.5 128t-162.5 46q-124 0 -177 -41t-53 -96q0 -35 22 -63q22 -29 69 -48q27 -10 159 -46q191 -51 266.5 -83.5t118.5 -94.5t43 -154q0 -90 -52.5 -169.5t-151.5 -123t-224 -43.5q-207 0 -315.5 86t-138.5 255zM507 1304l110 170h204l-225 -280h-192l-216 280h206z "/>
<glyph glyph-name="Tcommaaccent" horiz-adv-x="1251" unicode="Ţ" d="M531 0v1293h-483v173h1162v-173h-485v-1293h-194zM516 -154l52 177h134l-33 -107q85 -10 128 -52.5t43 -94.5q0 -75 -72 -132.5t-217 -57.5q-82 0 -144 12l11 117q64 -4 94 -4q94 0 132 26q29 20 29 49q0 18 -11.5 32t-42.5 24t-103 11z"/>
<glyph glyph-name="tcommaaccent" horiz-adv-x="569" unicode="ţ" d="M528 161l26 -159q-76 -16 -136 -16q-98 0 -152 31t-76 81.5t-22 212.5v611h-132v140h132v263l179 108v-371h181v-140h-181v-621q0 -77 9.5 -99t31 -35t61.5 -13q30 0 79 7zM276 -154l52 177h134l-33 -107q85 -10 128 -52.5t43 -94.5q0 -75 -72 -132.5t-217 -57.5 q-82 0 -144 12l11 117q64 -4 94 -4q94 0 132 26q29 20 29 49q0 18 -11.5 32t-42.5 24t-103 11z"/>
<glyph glyph-name="Tcaron" horiz-adv-x="1251" unicode="Ť" d="M531 0v1293h-483v173h1162v-173h-485v-1293h-194zM630 1660l110 170h204l-225 -280h-192l-216 280h206z"/>
<glyph glyph-name="tcaron" horiz-adv-x="768" unicode="ť" d="M527 161l26 -159q-76 -16 -136 -16q-98 0 -152 31t-76 81.5t-22 212.5v611h-132v140h132v263l179 108v-371h181v-140h-181v-621q0 -77 9.5 -99t31 -35t61.5 -13q30 0 79 7zM581 1281v185h184v-185q0 -101 -36 -163.5t-114 -96.5l-45 68q51 23 75.5 66.5t26.5 125.5h-91z "/>
<glyph glyph-name="Tbar" horiz-adv-x="1251" unicode="Ŧ" d="M531 629h-330v132h330v532h-483v173h1162v-173h-485v-532h328v-132h-328v-629h-194v629z"/>
<glyph glyph-name="tbar" horiz-adv-x="569" unicode="ŧ" d="M145 514h-133v132h133v276h-132v140h132v263l180 108v-371h180v-140h-180v-276h172v-132h-172v-213q0 -85 18.5 -116t82.5 -31q32 0 79 7l26 -159q-73 -16 -134 -16q-106 0 -163.5 36t-73 94.5t-15.5 194.5v203z"/>
<glyph glyph-name="Utilde" horiz-adv-x="1479" unicode="Ũ" d="M1120 1466h194v-847q0 -221 -50 -351t-180.5 -211.5t-342.5 -81.5q-206 0 -337 71t-187 205.5t-56 367.5v847h194v-846q0 -191 35.5 -281.5t122 -139.5t211.5 -49q214 0 305 97t91 373v846zM427 1575q-1 104 57 166q57 62 146 62q62 0 169 -54q59 -30 94 -30 q32 0 49 17.5t24 69.5h130q-3 -114 -57.5 -171t-138.5 -57q-63 0 -166 56q-67 36 -98 36q-34 0 -55 -24q-22 -24 -21 -71h-133z"/>
<glyph glyph-name="utilde" d="M831 0v156q-124 -180 -337 -180q-94 0 -175.5 36t-121 90.5t-55.5 133.5q-11 53 -11 168v658h180v-589q0 -141 11 -190q17 -71 72 -111.5t136 -40.5t152 41.5t100.5 113t29.5 207.5v569h180v-1062h-161zM243 1219q-1 104 57 166q57 62 146 62q62 0 169 -54q59 -30 94 -30 q32 0 49 17.5t24 69.5h130q-3 -114 -57.5 -171t-138.5 -57q-63 0 -166 56q-67 36 -98 36q-34 0 -55 -24q-22 -24 -21 -71h-133z" unicode="ũ"/>
<glyph glyph-name="Umacron" horiz-adv-x="1479" unicode="Ū" d="M1120 1466h194v-847q0 -221 -50 -351t-180.5 -211.5t-342.5 -81.5q-206 0 -337 71t-187 205.5t-56 367.5v847h194v-846q0 -191 35.5 -281.5t122 -139.5t211.5 -49q214 0 305 97t91 373v846zM449 1583v148h624v-148h-624z"/>
<glyph glyph-name="umacron" d="M831 0v156q-124 -180 -337 -180q-94 0 -175.5 36t-121 90.5t-55.5 133.5q-11 53 -11 168v658h180v-589q0 -141 11 -190q17 -71 72 -111.5t136 -40.5t152 41.5t100.5 113t29.5 207.5v569h180v-1062h-161zM265 1227v148h624v-148h-624z" unicode="ū"/>
<glyph glyph-name="Ubreve" horiz-adv-x="1479" unicode="Ŭ" d="M1120 1466h194v-847q0 -221 -50 -351t-180.5 -211.5t-342.5 -81.5q-206 0 -337 71t-187 205.5t-56 367.5v847h194v-846q0 -191 35.5 -281.5t122 -139.5t211.5 -49q214 0 305 97t91 373v846zM914 1820h123q-15 -125 -91.5 -192t-203.5 -67q-128 0 -204.5 66.5t-91.5 192.5 h123q14 -68 55.5 -101.5t111.5 -33.5q81 0 122.5 32.5t55.5 102.5z"/>
<glyph glyph-name="ubreve" d="M831 0v156q-124 -180 -337 -180q-94 0 -175.5 36t-121 90.5t-55.5 133.5q-11 53 -11 168v658h180v-589q0 -141 11 -190q17 -71 72 -111.5t136 -40.5t152 41.5t100.5 113t29.5 207.5v569h180v-1062h-161zM750 1464h123q-15 -125 -91.5 -192t-203.5 -67q-128 0 -204.5 66.5 t-91.5 192.5h123q14 -68 55.5 -101.5t111.5 -33.5q81 0 122.5 32.5t55.5 102.5z" unicode="ŭ"/>
<glyph glyph-name="Uring" horiz-adv-x="1479" unicode="Ů" d="M1120 1466h194v-847q0 -221 -50 -351t-180.5 -211.5t-342.5 -81.5q-206 0 -337 71t-187 205.5t-56 367.5v847h194v-846q0 -191 35.5 -281.5t122 -139.5t211.5 -49q214 0 305 97t91 373v846zM632 1655q0 -47 31.5 -79t74.5 -32t74.5 32t31.5 77t-31 77t-75 32 q-43 0 -74.5 -31.5t-31.5 -75.5zM556 1656q0 73 53.5 126t126.5 53q74 0 127 -53.5t53 -129.5q0 -77 -53 -130t-126 -53q-75 0 -128 53.5t-53 133.5z"/>
<glyph glyph-name="uring" d="M831 0v156q-124 -180 -337 -180q-94 0 -175.5 36t-121 90.5t-55.5 133.5q-11 53 -11 168v658h180v-589q0 -141 11 -190q17 -71 72 -111.5t136 -40.5t152 41.5t100.5 113t29.5 207.5v569h180v-1062h-161zM458 1337q0 -47 31.5 -79t74.5 -32t74.5 32t31.5 77t-31 77t-75 32 q-43 0 -74.5 -31.5t-31.5 -75.5zM382 1338q0 73 53.5 126t126.5 53q74 0 127 -53.5t53 -129.5q0 -77 -53 -130t-126 -53q-75 0 -128 53.5t-53 133.5z" unicode="ů"/>
<glyph glyph-name="Uhungarumlaut" horiz-adv-x="1479" unicode="Ű" d="M1120 1466h194v-847q0 -221 -50 -351t-180.5 -211.5t-342.5 -81.5q-206 0 -337 71t-187 205.5t-56 367.5v847h194v-846q0 -191 35.5 -281.5t122 -139.5t211.5 -49q214 0 305 97t91 373v846zM812 1556l127 280h231l-207 -280h-151zM465 1556l121 280h234l-211 -280h-144z "/>
<glyph glyph-name="uhungarumlaut" d="M831 0v156q-124 -180 -337 -180q-94 0 -175.5 36t-121 90.5t-55.5 133.5q-11 53 -11 168v658h180v-589q0 -141 11 -190q17 -71 72 -111.5t136 -40.5t152 41.5t100.5 113t29.5 207.5v569h180v-1062h-161zM585 1194l127 280h231l-207 -280h-151zM238 1194l121 280h234 l-211 -280h-144z" unicode="ű"/>
<glyph glyph-name="Uogonek" horiz-adv-x="1479" unicode="Ų" d="M1120 1466h194v-847q0 -221 -50 -351t-180.5 -211.5t-342.5 -81.5q-206 0 -337 71t-187 205.5t-56 367.5v847h194v-846q0 -191 35.5 -281.5t122 -139.5t211.5 -49q214 0 305 97t91 373v846zM921 0q-57 -35 -88.5 -86.5t-31.5 -104.5q0 -42 23 -71t75 -29q23 0 47 6.5 t44 17.5v-128q-73 -35 -136 -35q-51 0 -89 14.5t-63.5 40t-38 58.5t-12.5 71q0 64 36 128.5t102 117.5h132z"/>
<glyph glyph-name="uogonek" d="M831 0v156q-124 -180 -337 -180q-94 0 -175.5 36t-121 90.5t-55.5 133.5q-11 53 -11 168v658h180v-589q0 -141 11 -190q17 -71 72 -111.5t136 -40.5t152 41.5t100.5 113t29.5 207.5v569h180v-1062h-161zM976 0q-57 -35 -88.5 -86.5t-31.5 -104.5q0 -42 23 -71t75 -29 q23 0 47 6.5t44 17.5v-128q-73 -35 -136 -35q-51 0 -89 14.5t-63.5 40t-38 58.5t-12.5 71q0 64 36 128.5t102 117.5h132z" unicode="ų"/>
<glyph glyph-name="Wcircumflex" horiz-adv-x="1933" unicode="Ŵ" d="M414 0l-389 1466h199l223 -961q36 -151 62 -300q56 235 66 271l279 990h234l210 -742q79 -276 114 -519q28 139 73 319l230 942h195l-402 -1466h-187l-309 1117q-39 140 -46 172q-23 -101 -43 -172l-311 -1117h-198zM964 1726l-113 -170h-206l216 280h192l225 -280h-204z "/>
<glyph glyph-name="wcircumflex" horiz-adv-x="1479" unicode="ŵ" d="M331 0l-325 1062h186l169 -613l63 -228q4 17 55 219l169 622h185l159 -616l53 -203l61 205l182 614h175l-332 -1062h-187l-169 636l-41 181l-215 -817h-188zM754 1364l-113 -170h-206l216 280h192l225 -280h-204z"/>
<glyph glyph-name="Ycircumflex" horiz-adv-x="1366" unicode="Ŷ" d="M571 0v621l-565 845h236l289 -442q80 -124 149 -248q66 115 160 259l284 431h226l-585 -845v-621h-194zM709 1726l-113 -170h-206l216 280h192l225 -280h-204z"/>
<glyph glyph-name="ycircumflex" horiz-adv-x="1024" unicode="ŷ" d="M127 -409l-20 169q59 -16 103 -16q60 0 96 20t59 56q17 27 55 134q5 15 16 44l-403 1064h194l221 -615q43 -117 77 -246q31 124 74 242l227 619h180l-404 -1080q-65 -175 -101 -241q-48 -89 -110 -130.5t-148 -41.5q-52 0 -116 22zM559 1364l-113 -170h-206l216 280h192 l225 -280h-204z"/>
<glyph glyph-name="Ydieresis" horiz-adv-x="1366" unicode="Ÿ" d="M571 0v621l-565 845h236l289 -442q80 -124 149 -248q66 115 160 259l284 431h226l-585 -845v-621h-194zM770 1556v205h188v-205h-188zM397 1556v205h188v-205h-188z"/>
<glyph glyph-name="Zacute" horiz-adv-x="1251" unicode="Ź" d="M41 0v180l751 939q80 100 152 174h-818v173h1050v-173l-823 -1017l-89 -103h936v-173h-1159zM473 1556l133 280h236l-220 -280h-149z"/>
<glyph glyph-name="zacute" horiz-adv-x="1024" unicode="ź" d="M40 0v146l676 776q-115 -6 -203 -6h-433v146h868v-119l-575 -674l-111 -123q121 9 227 9h491v-155h-940zM391 1194l133 280h236l-220 -280h-149z"/>
<glyph glyph-name="Zdotaccent" horiz-adv-x="1251" unicode="Ż" d="M41 0v180l751 939q80 100 152 174h-818v173h1050v-173l-823 -1017l-89 -103h936v-173h-1159zM533 1556v224h223v-224h-223z"/>
<glyph glyph-name="zdotaccent" horiz-adv-x="1024" unicode="ż" d="M40 0v146l676 776q-115 -6 -203 -6h-433v146h868v-119l-575 -674l-111 -123q121 9 227 9h491v-155h-940zM398 1194v224h223v-224h-223z"/>
<glyph glyph-name="Zcaron" horiz-adv-x="1251" unicode="Ž" d="M41 0v180l751 939q80 100 152 174h-818v173h1050v-173l-823 -1017l-89 -103h936v-173h-1159zM635 1660l110 170h204l-225 -280h-192l-216 280h206z"/>
<glyph glyph-name="zcaron" horiz-adv-x="1024" unicode="ž" d="M40 0v146l676 776q-115 -6 -203 -6h-433v146h868v-119l-575 -674l-111 -123q121 9 227 9h491v-155h-940zM543 1304l110 170h204l-225 -280h-192l-216 280h206z"/>
<glyph glyph-name="longs" horiz-adv-x="455" unicode="ſ" d="M137 0v1175q0 115 27 178.5t94 100.5t173 37q79 0 167 -18l-26 -157q-54 10 -106 10q-90 0 -119.5 -39.5t-29.5 -126.5v-1160h-180z"/>
<glyph glyph-name="uni0180" d="M871 532q0 163 -58 270q-74 136 -224 136q-147 0 -225 -132q-65 -110 -65 -267q0 -191 52 -276q85 -139 230 -139q149 0 226 137q64 111 64 271zM1055 547q0 -233 -110 -391q-126 -180 -349 -180q-188 0 -295 157v-133h-167v1219h-114v132h114v115h180v-115h376v-132 h-376v-276q114 143 291 143q211 0 330.5 -151t119.5 -388z" unicode="ƀ"/>
<glyph glyph-name="uni0181" horiz-adv-x="1553" unicode="Ɓ" d="M1243 425q0 176 -158 228q-73 24 -215 24h-339v-504h365q93 0 132 7q133 24 186 122q29 53 29 123zM1182 1068q0 162 -135 205q-63 20 -223 20h-293v-443h317q128 0 185 17q149 45 149 201zM1444 425q0 -215 -151 -328q-129 -97 -397 -97h-559v1293q-73 0 -99 -10 q-60 -22 -60 -99q0 -31 14 -85l-153 -41q-19 68 -19 141q0 267 317 267h550q316 0 429 -181q57 -92 57 -194q0 -209 -205 -311q276 -81 276 -355z"/>
<glyph glyph-name="uni0182" horiz-adv-x="1344" unicode="Ƃ" d="M361 165h388q157 0 235.5 64t78.5 192q0 91 -45 152t-125 81t-273 20h-259v-509zM167 1466h951v-173h-757v-452h350q194 0 308.5 -37t183.5 -139.5t69 -238.5q0 -111 -49.5 -207.5t-147.5 -157.5t-334 -61h-574v1466z"/>
<glyph glyph-name="uni0183" d="M871 532q0 163 -58 270q-74 136 -224 136q-147 0 -225 -132q-65 -110 -65 -267q0 -191 52 -276q85 -139 230 -139q149 0 226 137q64 111 64 271zM1055 547q0 -233 -110 -391q-126 -180 -349 -180q-188 0 -295 157v-133h-167v1466h737v-149h-557v-374q114 143 291 143 q211 0 330.5 -151t119.5 -388z" unicode="ƃ"/>
<glyph glyph-name="uni0184" horiz-adv-x="1344" unicode="Ƅ" d="M1061 426q0 189 -174 229q-79 18 -268 18h-260v-508h355q164 0 244 49q103 61 103 212zM1270 426q0 -426 -548 -426h-557v996l-155 165v33l316 272h33v-626h350q185 0 292 -33q157 -49 221 -179q48 -98 48 -202z"/>
<glyph glyph-name="uni0185" d="M871 532q0 163 -58 270q-74 136 -224 136q-147 0 -225 -132q-65 -110 -65 -267q0 -191 52 -276q85 -139 230 -139q149 0 226 137q64 111 64 271zM1055 547q0 -233 -110 -391q-126 -180 -349 -180q-188 0 -295 157v-133h-167v1086l-124 155v33l271 192h33v-523 q114 143 291 143q211 0 330.5 -151t119.5 -388z" unicode="ƅ"/>
<glyph glyph-name="uni0186" horiz-adv-x="1479" unicode="Ɔ" d="M1377 722q0 -474 -336 -658q-162 -89 -356 -89q-217 0 -368 110t-211 317l191 45q98 -306 392 -306q341 0 442 299q46 137 46 281q0 401 -224 535q-115 69 -249 69q-348 0 -429 -373l-194 49q59 232 213 359q158 131 394 131q453 0 612 -376q77 -182 77 -393z"/>
<glyph glyph-name="uni0187" horiz-adv-x="1479" unicode="Ƈ" d="M1656 1648l-27 -157q-56 10 -106 10q-87 0 -120 -40q-30 -36 -30 -126v-271l-191 -45q-98 306 -392 306q-158 0 -272 -74q-121 -79 -170 -224q-46 -137 -46 -282q0 -401 224 -535q115 -69 249 -69q348 0 429 373l194 -49q-59 -232 -213 -359q-158 -131 -394 -131 q-452 0 -611 376q-78 184 -78 393q0 474 337 659q161 88 355 88q242 0 400 -136q0 104 19 154q58 157 275 157q76 0 168 -18z"/>
<glyph glyph-name="uni0188" horiz-adv-x="1024" unicode="ƈ" d="M1211 1233l-27 -157q-56 10 -86 10q-47 0 -80 -40q-30 -36 -30 -126v-170l-175 -27q-50 215 -242 215q-306 0 -306 -406q0 -408 296 -408q230 0 267 265l177 -23q-28 -179 -144 -283q-119 -107 -298 -107q-237 0 -365 160q-118 148 -118 391q0 367 231 495q116 64 253 64 q147 0 249 -64q5 44 15 72q58 157 235 157q56 0 148 -18z"/>
<glyph glyph-name="uni0189" horiz-adv-x="1479" unicode="Ɖ" d="M352 173h313q146 0 228 27t130 75q69 69 108 185t39 283q0 172 -38.5 275t-100.5 165t-138 86t-233 24h-308v-494h404v-132h-404v-494zM158 0v667h-161v132h161v667h506q170 0 260 -21q126 -29 215 -105q116 -98 173.5 -250.5t57.5 -348.5q0 -224 -71 -385.5t-170 -234.5 t-228 -104q-71 -17 -214 -17h-529z"/>
<glyph glyph-name="uni018A" horiz-adv-x="1658" unicode="Ɗ" d="M1349 744q0 419 -259 519q-78 30 -251 30h-308v-1120h313q256 0 359 103q146 146 146 468zM1549 741q0 -316 -139 -509q-116 -160 -308 -207q-103 -25 -236 -25h-529v1293q-73 0 -99 -10q-60 -22 -60 -99q0 -31 14 -85l-153 -41q-19 68 -19 141q0 267 317 267h507 q168 0 259 -21q126 -29 215 -105q231 -196 231 -599z"/>
<glyph glyph-name="uni018B" horiz-adv-x="1344" unicode="Ƌ" d="M985 165v508h-260q-163 0 -211 -7q-128 -18 -183 -90q-48 -62 -48 -150q0 -150 103 -212q82 -49 244 -49h355zM1179 0h-557q-548 0 -548 426q0 250 206 357q110 57 355 57h350v453h-722v173h916v-1466z"/>
<glyph glyph-name="uni018C" d="M827 515q0 171 -59 281q-76 141 -232 141q-151 0 -224 -136q-57 -106 -57 -271q0 -160 63 -271q77 -135 226 -135q148 0 222 128q61 105 61 263zM991 0h-167v134q-101 -158 -297 -158q-131 0 -238 73q-103 71 -160 193q-59 127 -59 288q0 349 212 487q106 69 237 69 q187 0 293 -146v377h-558v149h737v-1466z" unicode="ƌ"/>
<glyph glyph-name="uni018D" horiz-adv-x="1140" unicode="ƍ" d="M884 548q0 157 -79 267q-88 123 -239 123q-121 0 -215 -94.5t-94 -296.5q0 -163 73 -270q84 -124 240 -124q153 0 239 125q75 109 75 270zM1068 546q0 -220 -110 -365q-120 -159 -334 -167q93 -65 342 -288v-130h-801v146h560q-99 101 -313 249q-183 127 -253 228 q-87 127 -87 323q0 243 128 390q135 154 375 154q233 0 367 -156q126 -147 126 -384z"/>
<glyph glyph-name="uni018E" horiz-adv-x="1366" unicode="Ǝ" d="M1204 0h-1094v173h900v499h-811v172h811v449h-866v173h1060v-1466z"/>
<glyph glyph-name="uni0190" horiz-adv-x="1237" unicode="Ɛ" d="M1159 414q-125 -439 -541 -439q-217 0 -368 111q-167 124 -167 333q0 125 71.5 223.5t191.5 131.5q-194 113 -194 318q0 184 145 296q132 103 322 103q447 0 516 -467l-186 -42q0 78 -38.5 159.5t-99.5 124.5q-78 55 -190 55t-191 -62q-85 -67 -85 -176q0 -77 52.5 -142 t126.5 -81t206 -16v-169h-93q-144 0 -238 -58q-112 -70 -112 -206q0 -129 105 -204q93 -66 227 -66q132 0 233 96q96 91 122 225z"/>
<glyph glyph-name="uni0191" horiz-adv-x="1251" unicode="Ƒ" d="M1157 1293h-795v-454h688v-173h-688v-724q0 -173 -51 -260q-67 -113 -230 -113q-73 0 -141 19l34 153q54 -14 85 -14q77 0 99 77q10 36 10 142v1520h989v-173z"/>
<glyph glyph-name="florin" d="M46 -405l35 155q101 -22 152 -22q54 0 83 28t45 124l177 1042h-201l24 140h201l24 133q22 120 45 165q31 62 88.5 97t150.5 35q80 0 215 -38l-35 -153q-103 24 -154 24q-56 0 -84 -27.5t-47 -132.5l-19 -103h204l-25 -140h-204l-191 -1092q-26 -148 -87 -204.5 t-173 -56.5q-94 0 -224 26z" unicode="ƒ"/>
<glyph glyph-name="uni0193" horiz-adv-x="1593" unicode="Ɠ" d="M1726 1648l-27 -157q-56 10 -106 10q-87 0 -120 -40q-30 -36 -30 -126v-279l-175 -48q-62 211 -222 279q-90 38 -202 38q-253 0 -386 -147q-149 -165 -149 -440q0 -393 264 -524q129 -64 274 -64q106 0 226 41q126 44 202 111v273h-431v172l621 1v-544 q-287 -229 -607 -229q-211 0 -382 88q-186 95 -276.5 271t-90.5 392q0 211 83 387q93 196 264 288q168 90 387 90q261 0 421 -127q1 97 19 145q58 157 275 157q76 0 168 -18z"/>
<glyph glyph-name="uni0194" horiz-adv-x="1278" unicode="Ɣ" d="M707 -173q0 50 -25 106l-43 97l-42 -97q-26 -60 -26 -106q0 -92 68 -92t68 92zM1263 1466l-523 -1204l106 -250q45 -106 45 -180q0 -263 -252 -263t-252 263q0 74 45 180l106 250l-523 1204h212l412 -968l412 968h212z"/>
<glyph glyph-name="uni0195" horiz-adv-x="1804" unicode="ƕ" d="M1670 440q0 -216 -105 -337q-112 -127 -324 -127q-124 0 -225 54q-110 59 -157 166q-39 88 -39 237v240q0 258 -224 258q-81 0 -149 -40q-72 -42 -102 -113.5t-30 -196.5v-581h-180v1466h180v-526q126 146 318 146q250 0 330 -175q37 -81 37 -238v-240q0 -131 55 -213 q64 -96 189 -96q73 0 135.5 42t88.5 110q23 60 23 171v615h179v-622z"/>
<glyph glyph-name="uni0196" horiz-adv-x="455" unicode="Ɩ" d="M311 0h-180v1466h180v-1466z"/>
<glyph glyph-name="uni0197" horiz-adv-x="569" unicode="Ɨ" d="M545 667h-160v-667h-194v667h-160v132h160v667h194v-667h160v-132z"/>
<glyph glyph-name="uni0198" horiz-adv-x="1366" unicode="Ƙ" d="M1362 0h-256l-522 742l-240 -234v-508h-194v1175q0 165 66 237q71 79 243 79q76 0 168 -18l-27 -157q-56 10 -106 10q-87 0 -118.5 -38.5t-31.5 -128.5v-420l728 727h263l-615 -594z"/>
<glyph glyph-name="uni0199" horiz-adv-x="1024" unicode="ƙ" d="M1016 0h-222l-351 543l-127 -122v-421h-180v1176q0 161 69.5 238t225.5 77q76 0 168 -18l-27 -157q-56 10 -106 10q-87 0 -120 -40q-30 -36 -30 -126v-530l426 432h233l-406 -394z"/>
<glyph glyph-name="uni019A" horiz-adv-x="455" unicode="ƚ" d="M421 667h-110v-667h-180v667h-110v132h110v667h180v-667h110v-132z"/>
<glyph glyph-name="uni019B" horiz-adv-x="1024" unicode="ƛ" d="M998 0h-190l-297 794l-297 -794h-190l394 1042l-56 151l-222 -104l-44 103l227 106l-63 168h190l35 -93l199 93l45 -102l-205 -96z"/>
<glyph glyph-name="uni019C" horiz-adv-x="1824" unicode="Ɯ" d="M1659 0h-175v149q-111 -173 -322 -173q-248 0 -314 186q-126 -186 -328 -186q-171 0 -263.5 95t-92.5 262v1133h193v-1063q0 -261 203 -261q134 0 201 93q59 81 59 220v1011h194v-1084q0 -240 188 -240q263 0 263 379v945h194v-1466z"/>
<glyph glyph-name="uni019D" horiz-adv-x="1479" unicode="Ɲ" d="M1311 0h-199l-770 1152v-1209q0 -176 -47 -260q-64 -114 -226 -114q-73 0 -141 19l34 153q54 -14 85 -14q77 0 99 78q10 35 10 142v1519h199l770 -1151v1151h186v-1466z"/>
<glyph glyph-name="uni019E" d="M1002 -407h-180v1053q0 136 -43 203q-52 81 -180 81q-280 0 -280 -350v-580h-180v1062h162v-151q117 175 338 175q111 0 200 -46q102 -52 135 -148q28 -81 28 -239v-1060z" unicode="ƞ"/>
<glyph glyph-name="uni019F" horiz-adv-x="1593" unicode="Ɵ" d="M1294 647h-996q15 -206 134 -346q136 -160 364 -160q218 0 353 146q126 137 145 360zM1294 819q-19 219 -136 350q-140 156 -359 156q-215 0 -359 -147q-118 -120 -139 -359h993zM1498 731q0 -328 -184 -537q-194 -219 -517 -219q-207 0 -374 103q-174 106 -253 292 q-74 175 -74 344q0 341 177 552q190 226 525 226q326 0 518 -221q182 -209 182 -540z"/>
<glyph glyph-name="Ohorn" horiz-adv-x="1756" unicode="Ơ" d="M1515 1273v209h193v-165q0 -124 -38 -190q-52 -91 -195 -167q26 -108 26 -229q0 -224 -90.5 -399.5t-255 -266t-355.5 -90.5q-206 0 -369.5 99.5t-247.5 273t-84 366.5q0 360 196 572q191 206 506 206q227 0 402.5 -123.5t248.5 -331.5q91 49 128 105q29 44 29 125v6h-94 zM299 711q0 -260 143 -418q138 -152 357 -152q224 0 361 154q141 160 141 437q0 370 -237 520q-117 73 -262 73q-223 0 -354 -141q-149 -160 -149 -473z"/>
<glyph glyph-name="ohorn" horiz-adv-x="1343" unicode="ơ" d="M1087 879v209h193v-165q0 -124 -38 -190q-49 -86 -179 -158v-29q0 -372 -240 -505q-118 -65 -257 -65q-228 0 -361 143q-137 148 -137 412q0 295 164 437q137 118 334 118q219 0 358 -143q105 -109 131 -281q67 42 97 87q29 44 29 124v6h-94zM253 531q0 -197 89 -305 q84 -102 224 -102t223 102q89 109 89 311q0 191 -90 298q-84 102 -222 102q-141 0 -224 -101q-89 -108 -89 -305z"/>
<glyph glyph-name="uni01A2" horiz-adv-x="1778" unicode="Ƣ" d="M1031 194v1079q-108 52 -229 52q-259 0 -389 -184q-114 -160 -114 -430q0 -242 127 -400q137 -170 373 -170q131 0 232 53zM1613 -407h-194v1680h-194v-1163q-180 -135 -425 -135q-310 0 -507 213q-194 209 -194 526q0 341 178 552q190 226 524 226q196 0 385 -102 l397 102h30v-1899z"/>
<glyph glyph-name="uni01A3" horiz-adv-x="1367" unicode="ƣ" d="M680 145v769q-53 23 -114 23q-161 0 -244 -128q-69 -107 -69 -278q0 -170 70 -279q82 -128 243 -128q63 0 114 21zM1220 -407h-180v1344h-180v-874q-132 -87 -294 -87q-242 0 -375 159q-123 148 -123 396q0 295 164 437q137 118 334 118q146 0 294 -78l336 78h24v-1493z "/>
<glyph glyph-name="uni01A4" horiz-adv-x="1545" unicode="Ƥ" d="M1256 1036q0 88 -42 153q-45 69 -127 91q-48 13 -181 13h-375v-524h379q346 0 346 267zM1456 1042q0 -446 -549 -446h-376v-596h-194v1293q-74 0 -99 -9q-60 -21 -60 -98q0 -31 14 -85l-153 -41q-19 68 -19 141q0 265 317 265h551q144 0 225 -14q214 -37 299 -210 q44 -90 44 -200z"/>
<glyph glyph-name="uni01A5" d="M871 540q0 160 -60 269q-75 136 -221 136q-148 0 -228 -144q-65 -117 -65 -276q0 -162 60 -268q74 -133 225 -133q152 0 228 139q61 111 61 277zM1055 539q0 -351 -228 -493q-112 -70 -233 -70q-174 0 -280 134v-517h-180v1582q0 159 62 233q69 83 232 83q76 0 168 -18 l-27 -157q-56 10 -106 10q-88 0 -120 -41q-29 -36 -29 -127v-234q116 162 293 162q284 0 395 -267q53 -128 53 -280z" unicode="ƥ"/>
<glyph glyph-name="uni01A6" horiz-adv-x="1366" unicode="Ʀ" d="M1077 862q0 87 -42 152q-46 69 -126 92q-50 14 -182 14h-375v-524h379q346 0 346 266zM1362 -319h-256l-522 742h-232v-423h-194v1466h194v-173h359q145 0 224 -14q214 -38 298 -211q44 -91 44 -200q0 -185 -119 -315q-102 -111 -344 -127z"/>
<glyph glyph-name="uni01A7" horiz-adv-x="1366" unicode="Ƨ" d="M1274 471q-4 -148 -80.5 -264t-211 -174t-333.5 -58q-145 0 -266 51q-137 58 -209 168q-67 104 -67 220q0 243 250 358q58 27 330 93q235 58 287 105q57 51 57 130q0 120 -116 177q-87 43 -221 43q-327 0 -357 -281l-186 14q11 279 264 386q123 52 287 52q325 0 453 -196 q63 -97 63 -208q0 -209 -208 -319q-89 -47 -268 -89q-208 -48 -276 -74q-172 -66 -172 -207q0 -151 168 -216q85 -33 196 -33q109 0 206 36q114 43 167 122q47 70 60 180z"/>
<glyph glyph-name="uni01A8" horiz-adv-x="1024" unicode="ƨ" d="M961 317q-61 -341 -454 -341q-265 0 -375 167q-53 80 -53 169q0 179 162 249q70 30 266 83q133 36 159 46q91 36 91 111q0 137 -230 137q-207 0 -232 -174l-176 24q33 197 202 262q95 36 219 36q168 0 270 -74q121 -88 121 -232q0 -169 -155 -243q-78 -37 -275 -87 q-148 -37 -184 -61q-53 -35 -53 -96q0 -88 83 -133q66 -36 161 -36q244 0 275 221z"/>
<glyph glyph-name="uni01A9" horiz-adv-x="1266" unicode="Ʃ" d="M1145 1466v-173h-787l500 -532l-500 -588h828v-173h-1038v202l479 559l-479 510v195h997z"/>
<glyph glyph-name="uni01AA" horiz-adv-x="779" unicode="ƪ" d="M356 1306q0 46 -29 77.5t-77 31.5t-77 -31t-29 -76q0 -47 28.5 -79t77.5 -32q48 0 78 33q28 30 28 76zM764 -412q-68 -19 -141 -19q-150 0 -216 100q-51 78 -51 273v1216q-37 -37 -107 -37q-80 0 -130.5 54t-50.5 133q0 78 52 130.5t128 52.5q135 0 211.5 -85.5 t76.5 -240.5v-1219q0 -106 10 -142q22 -77 99 -77q31 0 85 14z"/>
<glyph glyph-name="uni01AB" horiz-adv-x="569" unicode="ƫ" d="M528 -58q0 -195 -51 -273q-66 -100 -216 -100q-73 0 -141 19l34 153q54 -14 85 -14q77 0 99 77q9 35 9 142v45q-118 18 -157 108q-22 51 -22 212v611h-132v140h132v263l179 108v-371h181v-140h-181v-621q0 -78 14 -105q21 -42 88 -42q30 0 79 7v-219z"/>
<glyph glyph-name="uni01AC" horiz-adv-x="1251" unicode="Ƭ" d="M1210 1293h-485v-1293h-194v1293h-194q-73 0 -99 -10q-60 -22 -60 -99q0 -31 14 -85l-153 -41q-19 68 -19 141q0 267 318 267h872v-173z"/>
<glyph glyph-name="uni01AD" horiz-adv-x="569" unicode="ƭ" d="M630 1473l-27 -157q-56 10 -106 10q-87 0 -120 -40q-30 -36 -30 -125v-99h181v-140h-181v-621q0 -78 14 -105q21 -42 88 -42q30 0 79 7l26 -159q-76 -16 -136 -16q-179 0 -228 113q-22 51 -22 212v611h-132v140h132v113q0 159 62 233q69 83 232 83q76 0 168 -18z"/>
<glyph glyph-name="uni01AE" horiz-adv-x="1251" unicode="Ʈ" d="M1210 1293h-485v-1346q0 -107 10 -142q22 -78 99 -78q31 0 85 14l34 -153q-68 -19 -141 -19q-163 0 -230 113q-51 87 -51 260v1351h-483v173h1162v-173z"/>
<glyph glyph-name="Uhorn" horiz-adv-x="1749" unicode="Ư" d="M1473 1257v209h193v-165q0 -157 -36 -219q-99 -173 -316 -183v-280q0 -225 -50 -351q-52 -131 -180 -211q-131 -82 -343 -82q-409 0 -524 277q-56 134 -56 367v847h194v-846q0 -189 36 -282q34 -89 121 -138.5t212 -49.5q219 0 305 97q91 102 91 373v846h194v-493 q156 16 226 124q27 42 27 160h-94z"/>
<glyph glyph-name="uhorn" horiz-adv-x="1371" unicode="ư" d="M1116 853v209h193v-165q0 -157 -36 -219q-92 -160 -281 -180v-498h-161v156q-124 -180 -337 -180q-93 0 -174.5 35.5t-121.5 90.5t-56 134q-11 54 -11 168v658h180v-589q0 -143 11 -190q35 -152 208 -152q83 0 153.5 42t99.5 113t29 207v569h180v-488q127 22 190 119 q28 42 28 160h-94z"/>
<glyph glyph-name="uni01B1" horiz-adv-x="1531" unicode="Ʊ" d="M1435 1293h-320q304 -254 304 -620q0 -308 -173 -500q-178 -198 -476 -198q-404 0 -577 341q-80 158 -80 357q0 366 304 620h-320v173h571v-162q-354 -170 -354 -611q0 -224 113 -379q126 -173 342 -173q217 0 342 178q110 157 110 384q0 435 -356 601v162h570v-173z"/>
<glyph glyph-name="uni01B2" horiz-adv-x="1479" unicode="Ʋ" d="M1314 1072q0 -499 -87 -736q-134 -361 -503 -361q-307 0 -442 172q-121 153 -121 472v847h194v-846q0 -470 369 -470q258 0 347 346q49 191 49 576q0 255 -150 255q-50 0 -106 -10l-27 157q92 18 168 18q144 0 225 -105q84 -110 84 -315z"/>
<glyph glyph-name="uni01B3" horiz-adv-x="1582" unicode="Ƴ" d="M1559 1374l-90 -140q-106 72 -164 72t-135 -112l-395 -573v-621h-194v621l-565 845h236l438 -690l328 512q131 204 262 204q111 0 279 -118z"/>
<glyph glyph-name="uni01B4" horiz-adv-x="1024" unicode="ƴ" d="M1435 1380l-84 -135q-116 67 -184 67q-69 0 -112 -116l-453 -1214q-65 -175 -101 -241q-93 -172 -258 -172q-52 0 -116 22l-20 169q59 -16 103 -16q107 0 155 76q17 28 55 134q4 10 13 35l3 9l-403 1064h194l221 -615q46 -127 77 -246q32 127 74 242l305 831 q40 108 86 156q61 62 163 62q110 0 282 -112z"/>
<glyph glyph-name="uni01B5" horiz-adv-x="1251" unicode="Ƶ" d="M1200 0h-1159v180l395 487h-395v132h502l401 494h-818v173h1050v-173l-402 -494h426v-132h-534l-402 -494h936v-173z"/>
<glyph glyph-name="uni01B6" horiz-adv-x="1024" unicode="ƶ" d="M980 0h-940v146l295 339h-295v132h410l266 305q-149 -6 -203 -6h-433v146h868v-119l-281 -326h313v-132h-426l-292 -339q161 9 227 9h491v-155z"/>
<glyph glyph-name="uni01B7" horiz-adv-x="1251" unicode="Ʒ" d="M1202 226q0 -282 -146 -459q-163 -198 -465 -198q-216 0 -360 111.5t-190 315.5l191 45q27 -140 128 -223t235 -83q217 0 322 159q85 128 85 331q0 415 -487 415v175l429 478h-818v173h1050v-173l-436 -492q176 -19 293 -125q169 -151 169 -450z"/>
<glyph glyph-name="uni01B8" horiz-adv-x="1251" unicode="Ƹ" d="M1210 -4q-46 -204 -190 -315.5t-360 -111.5q-302 0 -465 198q-146 177 -146 459q0 299 169 450q117 106 293 125l-436 492v173h1050v-173h-818l429 -478v-175q-487 0 -487 -415q0 -203 85 -331q105 -159 322 -159q134 0 235 83t128 223z"/>
<glyph glyph-name="uni01B9" horiz-adv-x="1116" unicode="ƹ" d="M1040 -16q-19 -192 -148 -303.5t-323 -111.5q-222 0 -363 154q-138 151 -138 374q0 206 128 337q119 121 300 134l-369 375v119h868v-146h-433q-54 0 -203 6l336 -350v-159h-93q-154 0 -246 -84q-97 -89 -97 -248q0 -148 80 -251q87 -113 230 -113q120 0 195 83 q68 75 87 200z"/>
<glyph glyph-name="uni01BA" horiz-adv-x="1116" unicode="ƺ" d="M1040 -110q-37 -165 -188 -248q-132 -73 -331 -73q-184 0 -304 64q-154 82 -154 252q0 154 158 231q52 26 300 91q130 34 176 57q74 36 74 89q0 100 -368 100v159l336 310q-149 -6 -203 -6h-423v146h868v-119l-369 -335q156 -16 232 -63q101 -62 101 -192 q0 -134 -126 -213q-89 -56 -294 -107q-151 -38 -171 -46q-106 -43 -106 -121q0 -79 97 -118q75 -31 177 -31q126 0 221 49q109 56 119 152z"/>
<glyph glyph-name="uni01BB" d="M1031 0h-969v10q0 59 21 115q69 184 354 417q83 68 146 125h-521v132h654q25 28 44 54q84 115 84 226q0 115 -82 191q-79 73 -194 73q-133 0 -209.5 -84t-77.5 -220l-185 19q19 208 143.5 321t332.5 113q192 0 321 -110q136 -116 136 -307q0 -141 -89 -276h91v-132h-201 q-86 -88 -234 -212q-139 -117 -153 -130q-87 -80 -131 -152h719v-173z" unicode="ƻ"/>
<glyph glyph-name="uni01BC" d="M1057 497q0 -198 -116 -344q-142 -178 -385 -178q-194 0 -321 107q-131 111 -150 302l189 16q19 -123 87 -196q76 -81 195 -81q144 0 230 110q80 101 80 248q0 149 -81 239q-85 93 -232 93h-279v481h-189v172h903v-172h-520v-322h133q201 0 330 -138q126 -135 126 -337z " unicode="Ƽ"/>
<glyph glyph-name="uni01BD" horiz-adv-x="939" unicode="ƽ" d="M866 307q0 -161 -122 -251q-108 -80 -273 -80q-363 0 -421 323l169 36q22 -96 90 -155t165 -59q85 0 147 52q65 56 65 141q0 126 -95 169q-59 27 -192 27h-180v403h-169v149h780v-149h-431v-262q214 0 315 -51q152 -78 152 -293z"/>
<glyph glyph-name="uni01BE" horiz-adv-x="997" unicode="ƾ" d="M918 312q0 -163 -139 -256q-120 -80 -289 -80q-393 0 -454 341l178 28q31 -221 275 -221q96 0 162 36q82 45 82 133q0 74 -77 114q-31 16 -140 43q-177 45 -243 93q-105 77 -105 237v142h-132v140h132v263l179 108v-371h181v-140h-181v-121q0 -76 51 -113q29 -22 112 -44 q216 -58 276 -93q132 -78 132 -239z"/>
<glyph glyph-name="uni01BF" d="M873 610q0 141 -56 227q-69 108 -217 108q-144 0 -222 -144q-63 -117 -63 -276v-525q301 151 381 220q177 150 177 390zM1057 609q0 -214 -119 -371q-95 -125 -284 -233q-57 -32 -339 -165v-247h-180v1469h180v-112q119 136 302 136q223 0 338 -139q102 -125 102 -338z " unicode="ƿ"/>
<glyph glyph-name="uni01C0" horiz-adv-x="532" unicode="ǀ" d="M345 0h-157v1491h157v-1491z"/>
<glyph glyph-name="uni01C2" horiz-adv-x="1196" unicode="ǂ" d="M1082 417h-406v-417h-157v417h-405v168h405v277h-405v168h405v461h157v-461h406v-168h-406v-277h406v-168z"/>
<glyph glyph-name="uni01C3" horiz-adv-x="569" unicode="ǃ" d="M184 0v205h207v-205h-207zM231 364l-55 777v325h223v-325l-52 -777h-116z"/>
<glyph glyph-name="uni01C4" horiz-adv-x="2730" unicode="Ǆ" d="M352 173h313q145 0 227.5 27t131.5 76q69 69 107.5 185.5t38.5 282.5q0 230 -75.5 353.5t-183.5 165.5q-78 30 -251 30h-308v-1120zM158 0v1466h505q171 0 261 -21q126 -29 215 -105q116 -98 173.5 -250.5t57.5 -348.5q0 -167 -39 -296t-100 -213.5t-133.5 -133 t-175 -73.5t-235.5 -25h-529zM1520 0v180l751 939q80 100 152 174h-818v173h1050v-173l-823 -1017l-89 -103h936v-173h-1159zM2138 1660l110 170h204l-225 -280h-192l-216 280h206z"/>
<glyph glyph-name="uni01C5" horiz-adv-x="2503" unicode="ǅ" d="M352 173h313q145 0 227.5 27t131.5 76q69 69 107.5 185.5t38.5 282.5q0 230 -75.5 353.5t-183.5 165.5q-78 30 -251 30h-308v-1120zM158 0v1466h505q171 0 261 -21q126 -29 215 -105q116 -98 173.5 -250.5t57.5 -348.5q0 -167 -39 -296t-100 -213.5t-133.5 -133 t-175 -73.5t-235.5 -25h-529zM1519 0v146l676 776q-115 -6 -203 -6h-433v146h868v-119l-575 -674l-111 -123q121 9 227 9h491v-155h-940zM1967 1304l110 170h204l-225 -280h-192l-216 280h206z"/>
<glyph glyph-name="uni01C6" horiz-adv-x="2148" unicode="ǆ" d="M255 530q0 -204 86 -305t203 -101q118 0 200.5 96.5t82.5 294.5q0 218 -84 320t-207 102q-120 0 -200.5 -98t-80.5 -309zM824 0v134q-101 -158 -297 -158q-127 0 -233.5 70t-165 195.5t-58.5 288.5q0 159 53 288.5t159 198.5t237 69q96 0 171 -40.5t122 -105.5v526h179 v-1466h-167zM1164 0v146l676 776q-115 -6 -203 -6h-433v146h868v-119l-575 -674l-111 -123q121 9 227 9h491v-155h-940zM1612 1304l110 170h204l-225 -280h-192l-216 280h206z"/>
<glyph glyph-name="uni01C7" horiz-adv-x="2175" unicode="Ǉ" d="M150 0v1466h194v-1293h722v-173h-916zM1210 416l175 24q7 -168 63 -230t155 -62q73 0 126 33.5t73 91t20 183.5v1010h194v-999q0 -184 -44.5 -285t-141 -154t-226.5 -53q-193 0 -295 111q-99 107 -99 314v16z"/>
<glyph glyph-name="uni01C8" horiz-adv-x="1706" unicode="ǈ" d="M150 0v1466h194v-1293h722v-173h-916zM1157 -412l34 153q54 -14 85 -14q55 0 82 36.5t27 182.5v1116h180v-1120q0 -196 -51 -273q-65 -100 -216 -100q-73 0 -141 19zM1385 1257v209h180v-209h-180z"/>
<glyph glyph-name="uni01C9" horiz-adv-x="924" unicode="ǉ" d="M131 0v1466h180v-1466h-180zM375 -412l34 153q54 -14 85 -14q55 0 82 36.5t27 182.5v1116h180v-1120q0 -196 -51 -273q-65 -100 -216 -100q-73 0 -141 19zM603 1257v209h180v-209h-180z"/>
<glyph glyph-name="uni01CA" horiz-adv-x="2503" unicode="Ǌ" d="M156 0v1466h199l770 -1151v1151h186v-1466h-199l-770 1152v-1152h-186zM1538 416l175 24q7 -168 63 -230t155 -62q73 0 126 33.5t73 91t20 183.5v1010h194v-999q0 -184 -44.5 -285t-141 -154t-226.5 -53q-193 0 -295 111q-99 107 -99 314v16z"/>
<glyph glyph-name="uni01CB" horiz-adv-x="1934" unicode="ǋ" d="M156 0v1466h199l770 -1151v1151h186v-1466h-199l-770 1152v-1152h-186zM1385 -412l34 153q54 -14 85 -14q55 0 82 36.5t27 182.5v1116h180v-1120q0 -196 -51 -273q-65 -100 -216 -100q-73 0 -141 19zM1613 1257v209h180v-209h-180z"/>
<glyph glyph-name="uni01CC" horiz-adv-x="1579" unicode="ǌ" d="M135 0v1062h162v-151q117 175 338 175q96 0 176.5 -34.5t120.5 -90.5t56 -133q10 -50 10 -175v-653h-180v646q0 110 -21 164.5t-74.5 87t-125.5 32.5q-115 0 -198.5 -73t-83.5 -277v-580h-180zM1030 -412l34 153q54 -14 85 -14q55 0 82 36.5t27 182.5v1116h180v-1120 q0 -196 -51 -273q-65 -100 -216 -100q-73 0 -141 19zM1258 1257v209h180v-209h-180z"/>
<glyph glyph-name="uni01CD" horiz-adv-x="1366" unicode="Ǎ" d="M420 602h497l-153 406q-70 185 -104 304q-28 -141 -79 -280zM-3 0l563 1466h209l600 -1466h-221l-171 444h-613l-161 -444h-206zM669 1655l110 170h204l-225 -280h-192l-216 280h206z"/>
<glyph glyph-name="uni01CE" d="M813 533q-98 -40 -294 -68q-111 -16 -157 -36t-71 -58.5t-25 -85.5q0 -72 54.5 -120t159.5 -48q104 0 185 45.5t119 124.5q29 61 29 180v66zM828 131q-100 -85 -192.5 -120t-198.5 -35q-175 0 -269 85.5t-94 218.5q0 78 35.5 142.5t93 103.5t129.5 59q53 14 160 27 q218 26 321 62q1 37 1 47q0 110 -51 155q-69 61 -205 61q-127 0 -187.5 -44.5t-89.5 -157.5l-176 24q24 113 79 182.5t159 107t241 37.5q136 0 221 -32t125 -80.5t56 -122.5q9 -46 9 -166v-240q0 -251 11.5 -317.5t45.5 -127.5h-188q-28 56 -36 131zM604 1304l110 170h204 l-225 -280h-192l-216 280h206z" unicode="ǎ"/>
<glyph glyph-name="uni01CF" horiz-adv-x="569" unicode="Ǐ" d="M191 0v1466h194v-1466h-194zM289 1655l110 170h204l-225 -280h-192l-216 280h206z"/>
<glyph glyph-name="uni01D0" horiz-adv-x="455" unicode="ǐ" d="M136 0v1062h180v-1062h-180zM239 1304l110 170h204l-225 -280h-192l-216 280h206z"/>
<glyph glyph-name="uni01D1" horiz-adv-x="1593" unicode="Ǒ" d="M299 711q0 -265 142.5 -417.5t357.5 -152.5q219 0 360.5 154t141.5 437q0 179 -60.5 312.5t-177 207t-261.5 73.5q-206 0 -354.5 -141.5t-148.5 -472.5zM99 714q0 365 196 571.5t506 206.5q203 0 366 -97t248.5 -270.5t85.5 -393.5q0 -223 -90 -399t-255 -266.5 t-356 -90.5q-207 0 -370 100t-247 273t-84 366zM809 1655l110 170h204l-225 -280h-192l-216 280h206z"/>
<glyph glyph-name="uni01D2" d="M253 531q0 -204 89 -305.5t224 -101.5q134 0 223 102t89 311q0 197 -89.5 298.5t-222.5 101.5q-135 0 -224 -101t-89 -305zM68 531q0 295 164 437q137 118 334 118q219 0 358 -143.5t139 -396.5q0 -205 -61.5 -322.5t-179 -182.5t-256.5 -65q-223 0 -360.5 143 t-137.5 412zM569 1304l110 170h204l-225 -280h-192l-216 280h206z" unicode="ǒ"/>
<glyph glyph-name="uni01D3" horiz-adv-x="1479" unicode="Ǔ" d="M1120 1466h194v-847q0 -221 -50 -351t-180.5 -211.5t-342.5 -81.5q-206 0 -337 71t-187 205.5t-56 367.5v847h194v-846q0 -191 35.5 -281.5t122 -139.5t211.5 -49q214 0 305 97t91 373v846zM759 1655l110 170h204l-225 -280h-192l-216 280h206z"/>
<glyph glyph-name="uni01D4" d="M831 0v156q-124 -180 -337 -180q-94 0 -175.5 36t-121 90.5t-55.5 133.5q-11 53 -11 168v658h180v-589q0 -141 11 -190q17 -71 72 -111.5t136 -40.5t152 41.5t100.5 113t29.5 207.5v569h180v-1062h-161zM579 1304l110 170h204l-225 -280h-192l-216 280h206z" unicode="ǔ"/>
<glyph glyph-name="uni01D5" horiz-adv-x="1479" unicode="Ǖ" d="M1120 1466h194v-847q0 -221 -50 -351t-180.5 -211.5t-342.5 -81.5q-206 0 -337 71t-187 205.5t-56 367.5v847h194v-846q0 -191 35.5 -281.5t122 -139.5t211.5 -49q214 0 305 97t91 373v846zM627 1496h-135v147h135v-147zM1008 1496h-135v147h135v-147zM1008 1726h-516 v117h516v-117z"/>
<glyph glyph-name="uni01D6" d="M831 0v156q-124 -180 -337 -180q-94 0 -175.5 36t-121 90.5t-55.5 133.5q-11 53 -11 168v658h180v-589q0 -141 11 -190q17 -71 72 -111.5t136 -40.5t152 41.5t100.5 113t29.5 207.5v569h180v-1062h-161zM654 1270v205h188v-205h-188zM281 1270v205h188v-205h-188z M249 1597v148h624v-148h-624z" unicode="ǖ"/>
<glyph glyph-name="uni01D7" horiz-adv-x="1479" unicode="Ǘ" d="M1120 1466h194v-847q0 -221 -50 -351t-180.5 -211.5t-342.5 -81.5q-206 0 -337 71t-187 205.5t-56 367.5v847h194v-846q0 -191 35.5 -281.5t122 -139.5t211.5 -49q214 0 305 97t91 373v846zM627 1496h-135v147h135v-147zM1008 1496h-135v147h135v-147zM1003 1844 l-231 -178h-130l135 178h226z"/>
<glyph glyph-name="uni01D8" d="M831 0v156q-124 -180 -337 -180q-94 0 -175.5 36t-121 90.5t-55.5 133.5q-11 53 -11 168v658h180v-589q0 -141 11 -190q17 -71 72 -111.5t136 -40.5t152 41.5t100.5 113t29.5 207.5v569h180v-1062h-161zM654 1270v205h188v-205h-188zM281 1270v205h188v-205h-188z M453 1564l133 280h236l-220 -280h-149z" unicode="ǘ"/>
<glyph glyph-name="uni01D9" horiz-adv-x="1479" unicode="Ǚ" d="M1120 1466h194v-847q0 -221 -50 -351t-180.5 -211.5t-342.5 -81.5q-206 0 -337 71t-187 205.5t-56 367.5v847h194v-846q0 -191 35.5 -281.5t122 -139.5t211.5 -49q214 0 305 97t91 373v846zM627 1496h-135v147h135v-147zM978 1844l-162 -177h-138l-156 177h149l81 -98 l79 98h147zM1008 1496h-135v147h135v-147z"/>
<glyph glyph-name="uni01DA" d="M831 0v156q-124 -180 -337 -180q-94 0 -175.5 36t-121 90.5t-55.5 133.5q-11 53 -11 168v658h180v-589q0 -141 11 -190q17 -71 72 -111.5t136 -40.5t152 41.5t100.5 113t29.5 207.5v569h180v-1062h-161zM654 1270v205h188v-205h-188zM281 1270v205h188v-205h-188z M579 1674l110 170h204l-225 -280h-192l-216 280h206z" unicode="ǚ"/>
<glyph glyph-name="uni01DB" horiz-adv-x="1479" unicode="Ǜ" d="M1120 1466h194v-847q0 -221 -50 -351t-180.5 -211.5t-342.5 -81.5q-206 0 -337 71t-187 205.5t-56 367.5v847h194v-846q0 -191 35.5 -281.5t122 -139.5t211.5 -49q214 0 305 97t91 373v846zM627 1496h-135v147h135v-147zM858 1666h-130l-231 178h226zM1008 1496h-135v147 h135v-147z"/>
<glyph glyph-name="uni01DC" d="M831 0v156q-124 -180 -337 -180q-94 0 -175.5 36t-121 90.5t-55.5 133.5q-11 53 -11 168v658h180v-589q0 -141 11 -190q17 -71 72 -111.5t136 -40.5t152 41.5t100.5 113t29.5 207.5v569h180v-1062h-161zM654 1270v205h188v-205h-188zM281 1270v205h188v-205h-188z M670 1564h-145l-231 280h241z" unicode="ǜ"/>
<glyph glyph-name="uni01DD" d="M868 429h-593q12 -134 68 -201q86 -104 223 -104q132 0 214 88q79 83 88 217zM1064 540q0 -247 -122 -399q-133 -165 -374 -165q-235 0 -365 163q-118 149 -118 390q0 16 1 48h792q-9 156 -85 252q-86 109 -236 109q-202 0 -280 -218l-186 23q93 343 467 343 q246 0 380 -152q126 -144 126 -394z" unicode="ǝ"/>
<glyph glyph-name="uni01DE" horiz-adv-x="1366" unicode="Ǟ" d="M420 602h497l-153 406q-70 185 -104 304q-28 -141 -79 -280zM-3 0l563 1466h209l600 -1466h-221l-171 444h-613l-161 -444h-206zM537 1496h-135v147h135v-147zM918 1496h-135v147h135v-147zM918 1726h-516v117h516v-117z"/>
<glyph glyph-name="uni01DF" d="M813 533q-98 -40 -294 -68q-111 -16 -157 -36t-71 -58.5t-25 -85.5q0 -72 54.5 -120t159.5 -48q104 0 185 45.5t119 124.5q29 61 29 180v66zM828 131q-100 -85 -192.5 -120t-198.5 -35q-175 0 -269 85.5t-94 218.5q0 78 35.5 142.5t93 103.5t129.5 59q53 14 160 27 q218 26 321 62q1 37 1 47q0 110 -51 155q-69 61 -205 61q-127 0 -187.5 -44.5t-89.5 -157.5l-176 24q24 113 79 182.5t159 107t241 37.5q136 0 221 -32t125 -80.5t56 -122.5q9 -46 9 -166v-240q0 -251 11.5 -317.5t45.5 -127.5h-188q-28 56 -36 131zM676 1270v205h188v-205 h-188zM303 1270v205h188v-205h-188zM271 1597v148h624v-148h-624z" unicode="ǟ"/>
<glyph glyph-name="uni01E0" horiz-adv-x="1366" unicode="Ǡ" d="M420 602h497l-153 406q-70 185 -104 304q-28 -141 -79 -280zM-3 0l563 1466h209l600 -1466h-221l-171 444h-613l-161 -444h-206zM737 1496h-135v147h135v-147zM928 1726h-516v117h516v-117z"/>
<glyph glyph-name="uni01E1" d="M813 533q-98 -40 -294 -68q-111 -16 -157 -36t-71 -58.5t-25 -85.5q0 -72 54.5 -120t159.5 -48q104 0 185 45.5t119 124.5q29 61 29 180v66zM828 131q-100 -85 -192.5 -120t-198.5 -35q-175 0 -269 85.5t-94 218.5q0 78 35.5 142.5t93 103.5t129.5 59q53 14 160 27 q218 26 321 62q1 37 1 47q0 110 -51 155q-69 61 -205 61q-127 0 -187.5 -44.5t-89.5 -157.5l-176 24q24 113 79 182.5t159 107t241 37.5q136 0 221 -32t125 -80.5t56 -122.5q9 -46 9 -166v-240q0 -251 11.5 -317.5t45.5 -127.5h-188q-28 56 -36 131zM471 1251v224h223v-224 h-223zM271 1597v148h624v-148h-624z" unicode="ǡ"/>
<glyph glyph-name="uni01E2" horiz-adv-x="2048" unicode="Ǣ" d="M493 595h484v698h-145zM1 0l705 1466h1203v-173h-737v-451h685v-172h-685v-497h764v-173h-959v423h-566l-200 -423h-210zM989 1563v148h624v-148h-624z"/>
<glyph glyph-name="uni01E3" horiz-adv-x="1821" unicode="ǣ" d="M793 533q-79 -34 -322 -73q-109 -17 -153 -51q-59 -47 -59 -123q0 -71 53 -119.5t154 -48.5q115 0 200.5 57t111.5 142q15 52 15 216zM969 633h584q-14 158 -90 231t-198 73q-126 0 -206.5 -80t-89.5 -224zM1734 325q-50 -167 -170 -258t-298 -91q-127 0 -222.5 48 t-172.5 150q-104 -102 -210.5 -150t-229.5 -48q-172 0 -267.5 88.5t-95.5 215.5q0 86 49.5 161.5t138 114.5t282.5 64q150 20 252 49q1 25 1 41q0 126 -52.5 176.5t-183.5 50.5q-87 0 -147 -21t-88.5 -59.5t-47.5 -123.5l-175 21q28 117 80.5 185.5t150.5 107.5t229 39 q167 0 269 -50q59 -29 99 -93q64 70 145 106.5t196 36.5q162 0 268 -78.5t155 -207.5t49 -254q0 -19 -2 -61h-767q2 -144 35.5 -209t107 -108.5t161.5 -43.5q103 0 174.5 59t98.5 166zM599 1227v148h624v-148h-624z"/>
<glyph glyph-name="uni01E4" horiz-adv-x="1593" unicode="Ǥ" d="M1569 302h-104v-98q-287 -229 -607 -229q-344 0 -548 208q-201 205 -201 543q0 349 197 557t537 208q488 0 600 -435l-175 -48q-93 317 -424 317q-264 0 -405 -168q-130 -156 -130 -419q0 -269 136 -425q142 -163 402 -163q108 0 227 41q124 43 201 111h-431v132h431v141 h-431v172h621v-313h104v-132z"/>
<glyph glyph-name="uni01E5" d="M834 564q0 156 -66 256q-78 117 -229 117q-148 0 -224 -116q-64 -97 -64 -251q0 -361 291 -361q292 0 292 355zM1062 -92h-90q-85 -339 -450 -339q-176 0 -285 62q-118 67 -135 195h175q34 -108 244 -108q215 0 272 190h-767v92h786q7 57 7 170v29q-118 -139 -294 -139 q-221 0 -344 143q-115 134 -115 354q0 229 114 373q124 156 346 156q188 0 310 -152v128h166v-858q0 -118 -12 -204h72v-92z" unicode="ǥ"/>
<glyph glyph-name="uni01E6" horiz-adv-x="1593" unicode="Ǧ" d="M844 575v172l621 1v-544q-143 -114 -295 -171.5t-312 -57.5q-216 0 -392.5 92.5t-266.5 267.5t-90 391q0 214 89.5 399.5t257.5 275.5t387 90q159 0 287.5 -51.5t201.5 -143.5t111 -240l-175 -48q-33 112 -82 176t-140 102.5t-202 38.5q-133 0 -230 -40.5t-156.5 -106.5 t-92.5 -145q-56 -136 -56 -295q0 -196 67.5 -328t196.5 -196t274 -64q126 0 246 48.5t182 103.5v273h-431zM850 1655l110 170h204l-225 -280h-192l-216 280h206z"/>
<glyph glyph-name="uni01E7" d="M251 550q0 -209 83 -305t208 -96q124 0 208 95.5t84 299.5q0 195 -86.5 294t-208.5 99q-120 0 -204 -97.5t-84 -289.5zM102 -88l175 -26q11 -81 61 -118q67 -50 183 -50q125 0 193 50t92 140q13 51 13 208v23q-118 -139 -294 -139q-219 0 -339 158t-120 379 q0 152 55 280.5t159.5 198.5t245.5 70q188 0 310 -152v128h166v-918q0 -248 -50.5 -351.5t-160 -163.5t-269.5 -60q-190 -1 -307 85q-113 83 -113 247v11zM547 1304l110 170h204l-225 -280h-192l-216 280h206z" unicode="ǧ"/>
<glyph glyph-name="uni01E8" horiz-adv-x="1366" unicode="Ǩ" d="M150 0v1466h194v-727l728 727h263l-615 -594l642 -872h-256l-522 742l-240 -234v-508h-194zM639 1655l110 170h204l-225 -280h-192l-216 280h206z"/>
<glyph glyph-name="uni01E9" horiz-adv-x="1024" unicode="ǩ" d="M136 0v1466h180v-836l426 432h233l-406 -394l447 -668h-222l-351 543l-127 -122v-421h-180zM509 1655l110 170h204l-225 -280h-192l-216 280h206z"/>
<glyph glyph-name="uni01EA" horiz-adv-x="1593" unicode="Ǫ" d="M299 711q0 -265 142.5 -417.5t357.5 -152.5q219 0 360.5 154t141.5 437q0 179 -60.5 312.5t-177 207t-261.5 73.5q-206 0 -354.5 -141.5t-148.5 -472.5zM99 714q0 365 196 571.5t506 206.5q203 0 366 -97t248.5 -270.5t85.5 -393.5q0 -223 -90 -399t-255 -266.5 t-356 -90.5q-207 0 -370 100t-247 273t-84 366zM965 0q-57 -35 -88.5 -86.5t-31.5 -104.5q0 -42 23 -71t75 -29q23 0 47 6.5t44 17.5v-128q-73 -35 -136 -35q-51 0 -89 14.5t-63.5 40t-38 58.5t-12.5 71q0 64 36 128.5t102 117.5h132z"/>
<glyph glyph-name="uni01EB" d="M253 531q0 -204 89 -305.5t224 -101.5q134 0 223 102t89 311q0 197 -89.5 298.5t-222.5 101.5q-135 0 -224 -101t-89 -305zM68 531q0 295 164 437q137 118 334 118q219 0 358 -143.5t139 -396.5q0 -205 -61.5 -322.5t-179 -182.5t-256.5 -65q-223 0 -360.5 143 t-137.5 412zM715 0q-57 -35 -88.5 -86.5t-31.5 -104.5q0 -42 23 -71t75 -29q23 0 47 6.5t44 17.5v-128q-73 -35 -136 -35q-51 0 -89 14.5t-63.5 40t-38 58.5t-12.5 71q0 64 36 128.5t102 117.5h132z" unicode="ǫ"/>
<glyph glyph-name="uni01EC" horiz-adv-x="1593" unicode="Ǭ" d="M299 711q0 -265 142.5 -417.5t357.5 -152.5q219 0 360.5 154t141.5 437q0 179 -60.5 312.5t-177 207t-261.5 73.5q-206 0 -354.5 -141.5t-148.5 -472.5zM99 714q0 365 196 571.5t506 206.5q203 0 366 -97t248.5 -270.5t85.5 -393.5q0 -223 -90 -399t-255 -266.5 t-356 -90.5q-207 0 -370 100t-247 273t-84 366zM965 0q-57 -35 -88.5 -86.5t-31.5 -104.5q0 -42 23 -71t75 -29q23 0 47 6.5t44 17.5v-128q-73 -35 -136 -35q-51 0 -89 14.5t-63.5 40t-38 58.5t-12.5 71q0 64 36 128.5t102 117.5h132zM489 1578v148h624v-148h-624z"/>
<glyph glyph-name="uni01ED" d="M253 531q0 -204 89 -305.5t224 -101.5q134 0 223 102t89 311q0 197 -89.5 298.5t-222.5 101.5q-135 0 -224 -101t-89 -305zM68 531q0 295 164 437q137 118 334 118q219 0 358 -143.5t139 -396.5q0 -205 -61.5 -322.5t-179 -182.5t-256.5 -65q-223 0 -360.5 143 t-137.5 412zM715 0q-57 -35 -88.5 -86.5t-31.5 -104.5q0 -42 23 -71t75 -29q23 0 47 6.5t44 17.5v-128q-73 -35 -136 -35q-51 0 -89 14.5t-63.5 40t-38 58.5t-12.5 71q0 64 36 128.5t102 117.5h132zM259 1227v148h624v-148h-624z" unicode="ǭ"/>
<glyph glyph-name="uni01EE" horiz-adv-x="1251" unicode="Ǯ" d="M1202 226q0 -282 -146 -459q-163 -198 -465 -198q-216 0 -360 111.5t-190 315.5l191 45q27 -140 128 -223t235 -83q217 0 322 159q85 128 85 331q0 415 -487 415v175l429 478h-818v173h1050v-173l-436 -492q176 -19 293 -125q169 -151 169 -450zM658 1655l110 170h204 l-225 -280h-192l-216 280h206z"/>
<glyph glyph-name="uni01EF" horiz-adv-x="1116" unicode="ǯ" d="M1048 97q0 -223 -138 -374q-141 -154 -363 -154q-194 0 -323 111.5t-148 303.5l189 16q19 -125 87 -200q75 -83 195 -83q143 0 230 113q80 103 80 251q0 159 -97 248q-92 84 -246 84h-93v159l336 350q-149 -6 -203 -6h-433v146h868v-119l-369 -375q181 -13 300 -134 q128 -131 128 -337zM562 1304l110 170h204l-225 -280h-192l-216 280h206z"/>
<glyph glyph-name="uni01F0" horiz-adv-x="455" unicode="ǰ" d="M314 -58q0 -195 -51 -273q-66 -100 -216 -100q-73 0 -141 19l34 153q54 -14 85 -14q77 0 99 78q10 35 10 141v1116h180v-1120zM231 1304l110 170h204l-225 -280h-192l-216 280h206z"/>
<glyph glyph-name="uni01F1" horiz-adv-x="2730" unicode="Ǳ" d="M352 173h313q145 0 227.5 27t131.5 76q69 69 107.5 185.5t38.5 282.5q0 230 -75.5 353.5t-183.5 165.5q-78 30 -251 30h-308v-1120zM158 0v1466h505q171 0 261 -21q126 -29 215 -105q116 -98 173.5 -250.5t57.5 -348.5q0 -167 -39 -296t-100 -213.5t-133.5 -133 t-175 -73.5t-235.5 -25h-529zM1520 0v180l751 939q80 100 152 174h-818v173h1050v-173l-823 -1017l-89 -103h936v-173h-1159z"/>
<glyph glyph-name="uni01F2" horiz-adv-x="2503" unicode="ǲ" d="M352 173h313q145 0 227.5 27t131.5 76q69 69 107.5 185.5t38.5 282.5q0 230 -75.5 353.5t-183.5 165.5q-78 30 -251 30h-308v-1120zM158 0v1466h505q171 0 261 -21q126 -29 215 -105q116 -98 173.5 -250.5t57.5 -348.5q0 -167 -39 -296t-100 -213.5t-133.5 -133 t-175 -73.5t-235.5 -25h-529zM1519 0v146l676 776q-115 -6 -203 -6h-433v146h868v-119l-575 -674l-111 -123q121 9 227 9h491v-155h-940z"/>
<glyph glyph-name="uni01F3" horiz-adv-x="2148" unicode="ǳ" d="M255 530q0 -204 86 -305t203 -101q118 0 200.5 96.5t82.5 294.5q0 218 -84 320t-207 102q-120 0 -200.5 -98t-80.5 -309zM824 0v134q-101 -158 -297 -158q-127 0 -233.5 70t-165 195.5t-58.5 288.5q0 159 53 288.5t159 198.5t237 69q96 0 171 -40.5t122 -105.5v526h179 v-1466h-167zM1164 0v146l676 776q-115 -6 -203 -6h-433v146h868v-119l-575 -674l-111 -123q121 9 227 9h491v-155h-940z"/>
<glyph glyph-name="uni01F4" horiz-adv-x="1593" unicode="Ǵ" d="M844 575v172l621 1v-544q-143 -114 -295 -171.5t-312 -57.5q-216 0 -392.5 92.5t-266.5 267.5t-90 391q0 214 89.5 399.5t257.5 275.5t387 90q159 0 287.5 -51.5t201.5 -143.5t111 -240l-175 -48q-33 112 -82 176t-140 102.5t-202 38.5q-133 0 -230 -40.5t-156.5 -106.5 t-92.5 -145q-56 -136 -56 -295q0 -196 67.5 -328t196.5 -196t274 -64q126 0 246 48.5t182 103.5v273h-431zM692 1556l133 280h236l-220 -280h-149z"/>
<glyph glyph-name="uni01F5" d="M251 550q0 -209 83 -305t208 -96q124 0 208 95.5t84 299.5q0 195 -86.5 294t-208.5 99q-120 0 -204 -97.5t-84 -289.5zM102 -88l175 -26q11 -81 61 -118q67 -50 183 -50q125 0 193 50t92 140q13 51 13 208v23q-118 -139 -294 -139q-219 0 -339 158t-120 379 q0 152 55 280.5t159.5 198.5t245.5 70q188 0 310 -152v128h166v-918q0 -248 -50.5 -351.5t-160 -163.5t-269.5 -60q-190 -1 -307 85q-113 83 -113 247v11zM402 1194l133 280h236l-220 -280h-149z" unicode="ǵ"/>
<glyph glyph-name="uni01F6" horiz-adv-x="2118" unicode="Ƕ" d="M1984 440q0 -217 -105 -337q-111 -127 -324 -127q-246 0 -349 129q-86 107 -86 328v258h-762v-691h-194v1466h194v-602h762v602h194v-1034q0 -142 42 -212q57 -96 202 -96q247 0 247 323v615h179v-622z"/>
<glyph glyph-name="uni01F7" horiz-adv-x="1266" unicode="Ƿ" d="M977 994q0 331 -290 331q-151 0 -247 -124q-88 -115 -88 -272v-929q230 116 415 381q210 302 210 613zM1177 993q0 -376 -279 -724q-237 -296 -546 -439v-237h-194v1873h194v-112q132 138 352 138q473 0 473 -499z"/>
<glyph glyph-name="uni01F8" horiz-adv-x="1479" unicode="Ǹ" d="M156 0v1466h199l770 -1151v1151h186v-1466h-199l-770 1152v-1152h-186zM831 1556h-145l-231 280h241z"/>
<glyph glyph-name="uni01F9" d="M135 0v1062h162v-151q117 175 338 175q96 0 176.5 -34.5t120.5 -90.5t56 -133q10 -50 10 -175v-653h-180v646q0 110 -21 164.5t-74.5 87t-125.5 32.5q-115 0 -198.5 -73t-83.5 -277v-580h-180zM685 1194h-145l-231 280h241z" unicode="ǹ"/>
<glyph glyph-name="Aringacute" horiz-adv-x="1366" unicode="Ǻ" d="M420 602h497l-153 406q-70 185 -104 304q-28 -141 -79 -280zM-3 0l563 1466h209l600 -1466h-221l-171 444h-613l-161 -444h-206zM557 1600q0 -47 31.5 -79t74.5 -32t74.5 32t31.5 77t-31 77t-75 32q-43 0 -74.5 -31.5t-31.5 -75.5zM481 1601q0 73 53.5 126t126.5 53 q74 0 127 -53.5t53 -129.5q0 -77 -53 -130t-126 -53q-75 0 -128 53.5t-53 133.5zM561 1780l133 280h236l-220 -280h-149z"/>
<glyph glyph-name="aringacute" d="M813 533q-98 -40 -294 -68q-111 -16 -157 -36t-71 -58.5t-25 -85.5q0 -72 54.5 -120t159.5 -48q104 0 185 45.5t119 124.5q29 61 29 180v66zM828 131q-100 -85 -192.5 -120t-198.5 -35q-175 0 -269 85.5t-94 218.5q0 78 35.5 142.5t93 103.5t129.5 59q53 14 160 27 q218 26 321 62q1 37 1 47q0 110 -51 155q-69 61 -205 61q-127 0 -187.5 -44.5t-89.5 -157.5l-176 24q24 113 79 182.5t159 107t241 37.5q136 0 221 -32t125 -80.5t56 -122.5q9 -46 9 -166v-240q0 -251 11.5 -317.5t45.5 -127.5h-188q-28 56 -36 131zM459 1337 q0 -47 31.5 -79t74.5 -32t74.5 32t31.5 77t-31 77t-75 32q-43 0 -74.5 -31.5t-31.5 -75.5zM383 1338q0 73 53.5 126t126.5 53q74 0 127 -53.5t53 -129.5q0 -77 -53 -130t-126 -53q-75 0 -128 53.5t-53 133.5zM493 1644l133 280h236l-220 -280h-149z" unicode="ǻ"/>
<glyph glyph-name="AEacute" horiz-adv-x="2048" unicode="Ǽ" d="M493 595h484v698h-145zM1 0l705 1466h1203v-173h-737v-451h685v-172h-685v-497h764v-173h-959v423h-566l-200 -423h-210zM881 1556l133 280h236l-220 -280h-149z"/>
<glyph glyph-name="aeacute" horiz-adv-x="1821" unicode="ǽ" d="M793 533q-79 -34 -322 -73q-109 -17 -153 -51q-59 -47 -59 -123q0 -71 53 -119.5t154 -48.5q115 0 200.5 57t111.5 142q15 52 15 216zM969 633h584q-14 158 -90 231t-198 73q-126 0 -206.5 -80t-89.5 -224zM1734 325q-50 -167 -170 -258t-298 -91q-127 0 -222.5 48 t-172.5 150q-104 -102 -210.5 -150t-229.5 -48q-172 0 -267.5 88.5t-95.5 215.5q0 86 49.5 161.5t138 114.5t282.5 64q150 20 252 49q1 25 1 41q0 126 -52.5 176.5t-183.5 50.5q-87 0 -147 -21t-88.5 -59.5t-47.5 -123.5l-175 21q28 117 80.5 185.5t150.5 107.5t229 39 q167 0 269 -50q59 -29 99 -93q64 70 145 106.5t196 36.5q162 0 268 -78.5t155 -207.5t49 -254q0 -19 -2 -61h-767q2 -144 35.5 -209t107 -108.5t161.5 -43.5q103 0 174.5 59t98.5 166zM822 1194l133 280h236l-220 -280h-149z"/>
<glyph glyph-name="Oslashacute" horiz-adv-x="1593" unicode="Ǿ" d="M1212 1094l-743 -832q77 -63 142 -88q85 -33 184 -33q218 0 360 154t142 432q0 208 -85 367zM1130 1197q-94 74 -164.5 101t-165.5 27q-219 0 -362 -148.5t-143 -443.5q0 -116 22 -206q16 -67 67 -165zM1250 1332l168 188l99 -84l-176 -198q86 -128 116 -224 q40 -126 40 -282q0 -225 -91 -401t-255.5 -266t-349.5 -90q-138 0 -250 39q-86 30 -201 115l-168 -188l-99 84l176 197q-98 149 -131 254.5t-33 253.5q0 226 90 402.5t252.5 267.5t361.5 91q134 0 234.5 -35.5t216.5 -123.5zM681 1556l133 280h236l-220 -280h-149z"/>
<glyph glyph-name="oslashacute" horiz-adv-x="1251" unicode="ǿ" d="M893 770l-449 -583q78 -63 176 -63q139 0 229.5 102t90.5 306q0 76 -12 133q-8 42 -35 105zM818 867q-91 70 -191 70q-133 0 -223 -102t-90 -304q0 -150 52 -251zM919 999l99 128l96 -70l-107 -138q63 -86 86 -156q31 -100 31 -233q0 -300 -169 -441q-137 -113 -330 -113 q-159 0 -281 80l-105 -135l-94 71l108 141q-59 68 -84 136q-40 109 -40 247q0 301 147 435.5t345 134.5q82 0 151 -21t147 -66zM532 1194l133 280h236l-220 -280h-149z"/>
<glyph glyph-name="uni0200" horiz-adv-x="1366" unicode="Ȁ" d="M420 602h497l-153 406q-70 185 -104 304q-28 -141 -79 -280zM-3 0l563 1466h209l600 -1466h-221l-171 444h-613l-161 -444h-206zM606 1556h-151l-207 280h231zM953 1556h-144l-211 280h234z"/>
<glyph glyph-name="uni0201" d="M813 533q-98 -40 -294 -68q-111 -16 -157 -36t-71 -58.5t-25 -85.5q0 -72 54.5 -120t159.5 -48q104 0 185 45.5t119 124.5q29 61 29 180v66zM828 131q-100 -85 -192.5 -120t-198.5 -35q-175 0 -269 85.5t-94 218.5q0 78 35.5 142.5t93 103.5t129.5 59q53 14 160 27 q218 26 321 62q1 37 1 47q0 110 -51 155q-69 61 -205 61q-127 0 -187.5 -44.5t-89.5 -157.5l-176 24q24 113 79 182.5t159 107t241 37.5q136 0 221 -32t125 -80.5t56 -122.5q9 -46 9 -166v-240q0 -251 11.5 -317.5t45.5 -127.5h-188q-28 56 -36 131zM506 1194h-151l-207 280 h231zM853 1194h-144l-211 280h234z" unicode="ȁ"/>
<glyph glyph-name="uni0202" horiz-adv-x="1366" unicode="Ȃ" d="M420 602h497l-153 406q-70 185 -104 304q-28 -141 -79 -280zM-3 0l563 1466h209l600 -1466h-221l-171 444h-613l-161 -444h-206zM960 1567h-123q-27 135 -178 135q-139 0 -167 -135h-123q31 259 296 259q264 0 295 -259z"/>
<glyph glyph-name="uni0203" d="M813 533q-98 -40 -294 -68q-111 -16 -157 -36t-71 -58.5t-25 -85.5q0 -72 54.5 -120t159.5 -48q104 0 185 45.5t119 124.5q29 61 29 180v66zM828 131q-100 -85 -192.5 -120t-198.5 -35q-175 0 -269 85.5t-94 218.5q0 78 35.5 142.5t93 103.5t129.5 59q53 14 160 27 q218 26 321 62q1 37 1 47q0 110 -51 155q-69 61 -205 61q-127 0 -187.5 -44.5t-89.5 -157.5l-176 24q24 113 79 182.5t159 107t241 37.5q136 0 221 -32t125 -80.5t56 -122.5q9 -46 9 -166v-240q0 -251 11.5 -317.5t45.5 -127.5h-188q-28 56 -36 131zM875 1205h-123 q-27 135 -178 135q-139 0 -167 -135h-123q31 259 296 259q264 0 295 -259z" unicode="ȃ"/>
<glyph glyph-name="uni0204" horiz-adv-x="1366" unicode="Ȅ" d="M162 0v1466h1060v-173h-866v-449h811v-172h-811v-499h900v-173h-1094zM624 1556h-151l-207 280h231zM971 1556h-144l-211 280h234z"/>
<glyph glyph-name="uni0205" d="M271 633h593q-12 134 -68 201q-86 104 -223 104q-124 0 -208.5 -83t-93.5 -222zM862 342l186 -23q-44 -163 -163 -253t-304 -90q-233 0 -369.5 143.5t-136.5 402.5q0 268 138 416t358 148q213 0 348 -145t135 -408q0 -16 -1 -48h-792q10 -175 99 -268t222 -93 q99 0 169 52t111 166zM506 1194h-151l-207 280h231zM853 1194h-144l-211 280h234z" unicode="ȅ"/>
<glyph glyph-name="uni0206" horiz-adv-x="1366" unicode="Ȇ" d="M162 0v1466h1060v-173h-866v-449h811v-172h-811v-499h900v-173h-1094zM995 1567h-123q-27 135 -178 135q-139 0 -167 -135h-123q31 259 296 259q264 0 295 -259z"/>
<glyph glyph-name="uni0207" d="M271 633h593q-12 134 -68 201q-86 104 -223 104q-124 0 -208.5 -83t-93.5 -222zM862 342l186 -23q-44 -163 -163 -253t-304 -90q-233 0 -369.5 143.5t-136.5 402.5q0 268 138 416t358 148q213 0 348 -145t135 -408q0 -16 -1 -48h-792q10 -175 99 -268t222 -93 q99 0 169 52t111 166zM865 1205h-123q-27 135 -178 135q-139 0 -167 -135h-123q31 259 296 259q264 0 295 -259z" unicode="ȇ"/>
<glyph glyph-name="uni0208" horiz-adv-x="569" unicode="Ȉ" d="M191 0v1466h194v-1466h-194zM240 1556h-151l-207 280h231zM587 1556h-144l-211 280h234z"/>
<glyph glyph-name="uni0209" horiz-adv-x="569" unicode="ȉ" d="M198 0v1062h180v-1062h-180zM202 1194h-151l-207 280h231zM549 1194h-144l-211 280h234z"/>
<glyph glyph-name="uni020A" horiz-adv-x="569" unicode="Ȋ" d="M191 0v1466h194v-1466h-194zM595 1567h-123q-27 135 -178 135q-139 0 -167 -135h-123q31 259 296 259q264 0 295 -259z"/>
<glyph glyph-name="uni020B" horiz-adv-x="569" unicode="ȋ" d="M198 0v1062h180v-1062h-180zM581 1205h-123q-27 135 -178 135q-139 0 -167 -135h-123q31 259 296 259q264 0 295 -259z"/>
<glyph glyph-name="uni020C" horiz-adv-x="1593" unicode="Ȍ" d="M299 711q0 -265 142.5 -417.5t357.5 -152.5q219 0 360.5 154t141.5 437q0 179 -60.5 312.5t-177 207t-261.5 73.5q-206 0 -354.5 -141.5t-148.5 -472.5zM99 714q0 365 196 571.5t506 206.5q203 0 366 -97t248.5 -270.5t85.5 -393.5q0 -223 -90 -399t-255 -266.5 t-356 -90.5q-207 0 -370 100t-247 273t-84 366zM706 1556h-151l-207 280h231zM1053 1556h-144l-211 280h234z"/>
<glyph glyph-name="uni020D" d="M253 531q0 -204 89 -305.5t224 -101.5q134 0 223 102t89 311q0 197 -89.5 298.5t-222.5 101.5q-135 0 -224 -101t-89 -305zM68 531q0 295 164 437q137 118 334 118q219 0 358 -143.5t139 -396.5q0 -205 -61.5 -322.5t-179 -182.5t-256.5 -65q-223 0 -360.5 143 t-137.5 412zM486 1194h-151l-207 280h231zM833 1194h-144l-211 280h234z" unicode="ȍ"/>
<glyph glyph-name="uni020E" horiz-adv-x="1593" unicode="Ȏ" d="M299 711q0 -265 142.5 -417.5t357.5 -152.5q219 0 360.5 154t141.5 437q0 179 -60.5 312.5t-177 207t-261.5 73.5q-206 0 -354.5 -141.5t-148.5 -472.5zM99 714q0 365 196 571.5t506 206.5q203 0 366 -97t248.5 -270.5t85.5 -393.5q0 -223 -90 -399t-255 -266.5 t-356 -90.5q-207 0 -370 100t-247 273t-84 366zM1095 1567h-123q-27 135 -178 135q-139 0 -167 -135h-123q31 259 296 259q264 0 295 -259z"/>
<glyph glyph-name="uni020F" d="M253 531q0 -204 89 -305.5t224 -101.5q134 0 223 102t89 311q0 197 -89.5 298.5t-222.5 101.5q-135 0 -224 -101t-89 -305zM68 531q0 295 164 437q137 118 334 118q219 0 358 -143.5t139 -396.5q0 -205 -61.5 -322.5t-179 -182.5t-256.5 -65q-223 0 -360.5 143 t-137.5 412zM875 1205h-123q-27 135 -178 135q-139 0 -167 -135h-123q31 259 296 259q264 0 295 -259z" unicode="ȏ"/>
<glyph glyph-name="uni0210" horiz-adv-x="1479" unicode="Ȑ" d="M355 819h417q133 0 208 27.5t114 88t39 131.5q0 104 -75.5 171t-238.5 67h-464v-485zM161 0v1466h650q196 0 298 -39.5t163 -139.5t61 -221q0 -156 -101 -263t-312 -136q77 -37 117 -73q85 -78 161 -195l255 -399h-244l-194 305q-85 132 -140 202t-98.5 98t-88.5 39 q-33 7 -108 7h-225v-651h-194zM606 1556h-151l-207 280h231zM953 1556h-144l-211 280h234z"/>
<glyph glyph-name="uni0211" horiz-adv-x="682" unicode="ȑ" d="M133 0v1062h162v-161q62 113 114.5 149t115.5 36q91 0 185 -58l-62 -167q-66 39 -132 39q-59 0 -106 -35.5t-67 -98.5q-30 -96 -30 -210v-556h-180zM306 1194h-151l-207 280h231zM653 1194h-144l-211 280h234z"/>
<glyph glyph-name="uni0212" horiz-adv-x="1479" unicode="Ȓ" d="M355 819h417q133 0 208 27.5t114 88t39 131.5q0 104 -75.5 171t-238.5 67h-464v-485zM161 0v1466h650q196 0 298 -39.5t163 -139.5t61 -221q0 -156 -101 -263t-312 -136q77 -37 117 -73q85 -78 161 -195l255 -399h-244l-194 305q-85 132 -140 202t-98.5 98t-88.5 39 q-33 7 -108 7h-225v-651h-194zM995 1567h-123q-27 135 -178 135q-139 0 -167 -135h-123q31 259 296 259q264 0 295 -259z"/>
<glyph glyph-name="uni0213" horiz-adv-x="682" unicode="ȓ" d="M133 0v1062h162v-161q62 113 114.5 149t115.5 36q91 0 185 -58l-62 -167q-66 39 -132 39q-59 0 -106 -35.5t-67 -98.5q-30 -96 -30 -210v-556h-180zM695 1205h-123q-27 135 -178 135q-139 0 -167 -135h-123q31 259 296 259q264 0 295 -259z"/>
<glyph glyph-name="uni0214" horiz-adv-x="1479" unicode="Ȕ" d="M1120 1466h194v-847q0 -221 -50 -351t-180.5 -211.5t-342.5 -81.5q-206 0 -337 71t-187 205.5t-56 367.5v847h194v-846q0 -191 35.5 -281.5t122 -139.5t211.5 -49q214 0 305 97t91 373v846zM666 1556h-151l-207 280h231zM1013 1556h-144l-211 280h234z"/>
<glyph glyph-name="uni0215" d="M831 0v156q-124 -180 -337 -180q-94 0 -175.5 36t-121 90.5t-55.5 133.5q-11 53 -11 168v658h180v-589q0 -141 11 -190q17 -71 72 -111.5t136 -40.5t152 41.5t100.5 113t29.5 207.5v569h180v-1062h-161zM476 1194h-151l-207 280h231zM823 1194h-144l-211 280h234z" unicode="ȕ"/>
<glyph glyph-name="uni0216" horiz-adv-x="1479" unicode="Ȗ" d="M1120 1466h194v-847q0 -221 -50 -351t-180.5 -211.5t-342.5 -81.5q-206 0 -337 71t-187 205.5t-56 367.5v847h194v-846q0 -191 35.5 -281.5t122 -139.5t211.5 -49q214 0 305 97t91 373v846zM1032 1567h-123q-27 135 -178 135q-139 0 -167 -135h-123q31 259 296 259 q264 0 295 -259z"/>
<glyph glyph-name="uni0217" d="M831 0v156q-124 -180 -337 -180q-94 0 -175.5 36t-121 90.5t-55.5 133.5q-11 53 -11 168v658h180v-589q0 -141 11 -190q17 -71 72 -111.5t136 -40.5t152 41.5t100.5 113t29.5 207.5v569h180v-1062h-161zM857 1205h-123q-27 135 -178 135q-139 0 -167 -135h-123 q31 259 296 259q264 0 295 -259z" unicode="ȗ"/>
<glyph glyph-name="Scommaaccent" horiz-adv-x="1366" unicode="Ș" d="M92 471l183 16q13 -110 60.5 -180.5t147.5 -114t225 -43.5q111 0 196 33t126.5 90.5t41.5 125.5q0 69 -40 120.5t-132 86.5q-59 23 -261 71.5t-283 91.5q-105 55 -156.5 136.5t-51.5 182.5q0 111 63 207.5t184 146.5t269 50q163 0 287.5 -52.5t191.5 -154.5t72 -231 l-186 -14q-15 139 -101.5 210t-255.5 71q-176 0 -256.5 -64.5t-80.5 -155.5q0 -79 57 -130q56 -51 292.5 -104.5t324.5 -93.5q128 -59 189 -149.5t61 -208.5q0 -117 -67 -220.5t-192.5 -161t-282.5 -57.5q-199 0 -333.5 58t-211 174.5t-80.5 263.5zM579 -320v175h209v-117 q0 -110 -37 -180.5t-131 -108.5l-54 84q93 40 109 147h-96z"/>
<glyph glyph-name="scommaaccent" horiz-adv-x="1024" unicode="ș" d="M63 317l178 28q15 -107 83.5 -164t191.5 -57q124 0 184 50.5t60 118.5q0 61 -53 96q-37 24 -184 61q-198 50 -274.5 86.5t-116 101t-39.5 142.5q0 71 32.5 131.5t88.5 100.5q42 31 114.5 52.5t155.5 21.5q125 0 219.5 -36t139.5 -97.5t62 -164.5l-176 -24 q-12 82 -69.5 128t-162.5 46q-124 0 -177 -41t-53 -96q0 -35 22 -63q22 -29 69 -48q27 -10 159 -46q191 -51 266.5 -83.5t118.5 -94.5t43 -154q0 -90 -52.5 -169.5t-151.5 -123t-224 -43.5q-207 0 -315.5 86t-138.5 255zM399 -320v175h209v-117q0 -110 -37 -180.5 t-131 -108.5l-54 84q93 40 109 147h-96z"/>
<glyph glyph-name="uni021A" horiz-adv-x="1251" unicode="Ț" d="M523 -326v205h205v-205q0 -180 -167 -253l-50 76q60 27 90 78q20 33 24 99h-102zM531 0v1293h-483v173h1162v-173h-485v-1293h-194z"/>
<glyph glyph-name="uni021B" horiz-adv-x="569" unicode="ț" d="M275 -305v184h185v-184q0 -70 -36.5 -131.5t-114.5 -95.5l-44 69q95 42 102 158h-92zM528 161l26 -159q-76 -16 -136 -16q-98 0 -152 31t-76 81.5t-22 212.5v611h-132v140h132v263l179 108v-371h181v-140h-181v-621q0 -77 9.5 -99t31 -35t61.5 -13q30 0 79 7z"/>
<glyph glyph-name="uni021C" horiz-adv-x="1116" unicode="Ȝ" d="M1014 360q0 -312 -300 -526q-192 -137 -578 -265v173q678 204 678 597q0 136 -78 217q-179 -136 -600 -276v173q678 204 678 586q0 124 -64 202q-70 84 -192 84q-224 0 -341 -192l-136 109q169 250 478 250q202 0 327 -114q128 -118 128 -318q0 -207 -137 -371 q137 -120 137 -329z"/>
<glyph glyph-name="uni021D" horiz-adv-x="894" unicode="ȝ" d="M814 153q0 -251 -259 -405q-143 -85 -481 -179v163q243 65 351 123q204 110 204 277q0 124 -74 187q-130 -76 -481 -174v163q258 70 350 116q205 104 205 271q0 242 -223 242q-144 0 -222 -172l-165 66q118 255 397 255q398 0 398 -370q0 -161 -108 -280 q108 -101 108 -283z"/>
<glyph glyph-name="uni021E" horiz-adv-x="1479" unicode="Ȟ" d="M164 0v1466h194v-602h762v602h194v-1466h-194v691h-762v-691h-194zM754 1666l110 170h204l-225 -280h-192l-216 280h206z"/>
<glyph glyph-name="uni021F" d="M135 0v1466h180v-526q126 146 318 146q118 0 205 -46.5t124.5 -128.5t37.5 -238v-673h-180v673q0 135 -58.5 196.5t-165.5 61.5q-80 0 -150.5 -41.5t-100.5 -112.5t-30 -196v-581h-180zM559 1666l110 170h204l-225 -280h-192l-216 280h206z" unicode="ȟ"/>
<glyph glyph-name="uni0220" horiz-adv-x="1446" unicode="Ƞ" d="M1281 -407h-194v1340q0 183 -56 275q-70 116 -242 116q-205 0 -431 -91v-1233h-194v1466h194v-71q261 97 457 97q139 0 255 -62q128 -69 172 -191q39 -109 39 -288v-1358z"/>
<glyph glyph-name="uni0221" horiz-adv-x="1396" unicode="ȡ" d="M1223 -161q0 42 -28.5 71t-72.5 29q-60 0 -131 -48q6 -164 116 -164q116 0 116 112zM827 515q0 171 -59 281q-76 141 -232 141q-151 0 -224 -136q-57 -106 -57 -271q0 -160 63 -271q77 -135 226 -135q148 0 222 128q61 105 61 263zM1386 -161q0 -270 -287 -270 q-204 0 -262 178q-31 -35 -141 -178l-108 118q45 60 91 121q69 87 133 146v180q-101 -158 -285 -158q-131 0 -238 73q-103 71 -160 193q-59 127 -59 288q0 349 212 487q106 69 237 69q187 0 293 -146v526h179v-1397q70 28 128 28q119 0 193 -70t74 -188z"/>
<glyph glyph-name="uni0222" horiz-adv-x="1238" unicode="Ȣ" d="M944 454q0 142 -95 215q-86 66 -230 66t-230 -66q-95 -73 -95 -215q0 -149 90 -232q86 -81 235 -81t235 81q90 83 90 232zM1144 444q0 -227 -153 -353q-141 -116 -372 -116t-372 116q-153 126 -153 353q0 314 316 371v15q-276 36 -276 249q0 246 465 246v-113 q-266 0 -266 -144q0 -167 286 -167t286 237q0 111 -78 173q-72 58 -189 58v123q201 0 321 -71q145 -86 145 -262q0 -127 -75.5 -214.5t-200.5 -114.5v-15q316 -57 316 -371z"/>
<glyph glyph-name="uni0223" horiz-adv-x="1158" unicode="ȣ" d="M864 454q0 137 -78 211q-75 70 -207 70q-128 0 -204 -70q-81 -75 -81 -211q0 -313 285 -313t285 313zM1064 444q0 -227 -130 -350q-127 -119 -355 -119t-355 119q-130 123 -130 350q0 155 77 253q72 92 199 118v15q-236 51 -236 318q0 219 275 344l57 -114 q-133 -88 -133 -230q0 -247 246 -247t246 247q0 142 -133 230l57 114q275 -125 275 -344q0 -267 -236 -318v-15q276 -57 276 -371z"/>
<glyph glyph-name="uni0224" horiz-adv-x="1251" unicode="Ȥ" d="M1200 -86q0 -73 -19 -141l-153 34q14 54 14 85q0 77 -79 99q-35 9 -143 9h-779v180l903 1113h-818v173h1050v-173l-912 -1120h563q179 0 257 -39q116 -57 116 -220z"/>
<glyph glyph-name="uni0225" horiz-adv-x="1024" unicode="ȥ" d="M980 -86q0 -73 -19 -141l-153 34q14 54 14 85q0 77 -79 99q-35 9 -143 9h-560v146l676 776q-149 -6 -203 -6h-433v146h868v-119l-686 -797q161 9 227 9h119q189 0 259 -31q113 -50 113 -210z"/>
<glyph glyph-name="uni0226" horiz-adv-x="1366" unicode="Ȧ" d="M420 602h497l-153 406q-70 185 -104 304q-28 -141 -79 -280zM-3 0l563 1466h209l600 -1466h-221l-171 444h-613l-161 -444h-206zM559 1556v224h223v-224h-223z"/>
<glyph glyph-name="uni0227" d="M813 533q-98 -40 -294 -68q-111 -16 -157 -36t-71 -58.5t-25 -85.5q0 -72 54.5 -120t159.5 -48q104 0 185 45.5t119 124.5q29 61 29 180v66zM828 131q-100 -85 -192.5 -120t-198.5 -35q-175 0 -269 85.5t-94 218.5q0 78 35.5 142.5t93 103.5t129.5 59q53 14 160 27 q218 26 321 62q1 37 1 47q0 110 -51 155q-69 61 -205 61q-127 0 -187.5 -44.5t-89.5 -157.5l-176 24q24 113 79 182.5t159 107t241 37.5q136 0 221 -32t125 -80.5t56 -122.5q9 -46 9 -166v-240q0 -251 11.5 -317.5t45.5 -127.5h-188q-28 56 -36 131zM469 1194v224h223v-224 h-223z" unicode="ȧ"/>
<glyph glyph-name="uni0228" horiz-adv-x="1366" unicode="Ȩ" d="M1256 0h-481l-26 -84q171 -20 171 -147q0 -99 -101 -150q-80 -40 -188 -40q-82 0 -144 12l11 117q64 -4 94 -4q161 0 161 75q0 39 -54 56q-31 10 -103 11l45 154h-479v1466h1060v-173h-866v-449h811v-172h-811v-499h900v-173z"/>
<glyph glyph-name="uni0229" d="M864 633q-12 134 -68 201q-86 104 -223 104q-130 0 -214 -88q-79 -85 -88 -217h593zM1054 533q0 -16 -1 -48h-792q9 -156 85 -252q86 -109 236 -109q202 0 280 218l186 -23q-83 -309 -400 -340l-19 -63q171 -20 171 -147q0 -99 -101 -150q-80 -40 -188 -40q-82 0 -144 12 l11 117q64 -4 94 -4q161 0 161 75q0 39 -54 56q-31 10 -103 11l39 133q-186 18 -303 141q-137 144 -137 402q0 246 123 399q133 165 373 165q234 0 364 -163q119 -150 119 -390z" unicode="ȩ"/>
<glyph glyph-name="uni022A" horiz-adv-x="1593" unicode="Ȫ" d="M299 711q0 -265 142.5 -417.5t357.5 -152.5q219 0 360.5 154t141.5 437q0 179 -60.5 312.5t-177 207t-261.5 73.5q-206 0 -354.5 -141.5t-148.5 -472.5zM99 714q0 365 196 571.5t506 206.5q203 0 366 -97t248.5 -270.5t85.5 -393.5q0 -223 -90 -399t-255 -266.5 t-356 -90.5q-207 0 -370 100t-247 273t-84 366zM677 1496h-135v147h135v-147zM1058 1496h-135v147h135v-147zM1058 1726h-516v117h516v-117z"/>
<glyph glyph-name="uni022B" d="M253 531q0 -204 89 -305.5t224 -101.5q134 0 223 102t89 311q0 197 -89.5 298.5t-222.5 101.5q-135 0 -224 -101t-89 -305zM68 531q0 295 164 437q137 118 334 118q219 0 358 -143.5t139 -396.5q0 -205 -61.5 -322.5t-179 -182.5t-256.5 -65q-223 0 -360.5 143 t-137.5 412zM676 1270v205h188v-205h-188zM303 1270v205h188v-205h-188zM271 1597v148h624v-148h-624z" unicode="ȫ"/>
<glyph glyph-name="uni022C" horiz-adv-x="1593" unicode="Ȭ" d="M299 711q0 -265 142.5 -417.5t357.5 -152.5q219 0 360.5 154t141.5 437q0 179 -60.5 312.5t-177 207t-261.5 73.5q-206 0 -354.5 -141.5t-148.5 -472.5zM99 714q0 365 196 571.5t506 206.5q203 0 366 -97t248.5 -270.5t85.5 -393.5q0 -223 -90 -399t-255 -266.5 t-356 -90.5q-207 0 -370 100t-247 273t-84 366zM1068 1671q-4 -172 -151 -172q-41 0 -114 36.5t-105 36.5q-46 0 -56 -76h-90q-1 84 49 131q43 42 109 42q37 0 107 -34t108 -34q45 0 53 70h90zM1068 1726h-516v117h516v-117z"/>
<glyph glyph-name="uni022D" d="M253 531q0 -204 89 -305.5t224 -101.5q134 0 223 102t89 311q0 197 -89.5 298.5t-222.5 101.5q-135 0 -224 -101t-89 -305zM68 531q0 295 164 437q137 118 334 118q219 0 358 -143.5t139 -396.5q0 -205 -61.5 -322.5t-179 -182.5t-256.5 -65q-223 0 -360.5 143 t-137.5 412zM249 1219q-1 104 57 166q57 62 146 62q62 0 169 -54q59 -30 94 -30q32 0 49 17.5t24 69.5h130q-3 -114 -57.5 -171t-138.5 -57q-63 0 -166 56q-67 36 -98 36q-34 0 -55 -24q-22 -24 -21 -71h-133zM271 1597v148h624v-148h-624z" unicode="ȭ"/>
<glyph glyph-name="uni022E" horiz-adv-x="1593" unicode="Ȯ" d="M299 711q0 -265 142.5 -417.5t357.5 -152.5q219 0 360.5 154t141.5 437q0 179 -60.5 312.5t-177 207t-261.5 73.5q-206 0 -354.5 -141.5t-148.5 -472.5zM99 714q0 365 196 571.5t506 206.5q203 0 366 -97t248.5 -270.5t85.5 -393.5q0 -223 -90 -399t-255 -266.5 t-356 -90.5q-207 0 -370 100t-247 273t-84 366zM689 1556v224h223v-224h-223z"/>
<glyph glyph-name="uni022F" d="M253 531q0 -204 89 -305.5t224 -101.5q134 0 223 102t89 311q0 197 -89.5 298.5t-222.5 101.5q-135 0 -224 -101t-89 -305zM68 531q0 295 164 437q137 118 334 118q219 0 358 -143.5t139 -396.5q0 -205 -61.5 -322.5t-179 -182.5t-256.5 -65q-223 0 -360.5 143 t-137.5 412zM449 1194v224h223v-224h-223z" unicode="ȯ"/>
<glyph glyph-name="uni0230" horiz-adv-x="1593" unicode="Ȱ" d="M299 711q0 -265 142.5 -417.5t357.5 -152.5q219 0 360.5 154t141.5 437q0 179 -60.5 312.5t-177 207t-261.5 73.5q-206 0 -354.5 -141.5t-148.5 -472.5zM99 714q0 365 196 571.5t506 206.5q203 0 366 -97t248.5 -270.5t85.5 -393.5q0 -223 -90 -399t-255 -266.5 t-356 -90.5q-207 0 -370 100t-247 273t-84 366zM867 1496h-135v147h135v-147zM1058 1726h-516v117h516v-117z"/>
<glyph glyph-name="uni0231" d="M253 531q0 -204 89 -305.5t224 -101.5q134 0 223 102t89 311q0 197 -89.5 298.5t-222.5 101.5q-135 0 -224 -101t-89 -305zM68 531q0 295 164 437q137 118 334 118q219 0 358 -143.5t139 -396.5q0 -205 -61.5 -322.5t-179 -182.5t-256.5 -65q-223 0 -360.5 143 t-137.5 412zM471 1251v224h223v-224h-223zM271 1597v148h624v-148h-624z" unicode="ȱ"/>
<glyph glyph-name="uni0232" horiz-adv-x="1366" unicode="Ȳ" d="M571 0v621l-565 845h236l289 -442q80 -124 149 -248q66 115 160 259l284 431h226l-585 -845v-621h-194zM389 1578v148h624v-148h-624z"/>
<glyph glyph-name="uni0233" horiz-adv-x="1024" unicode="ȳ" d="M127 -409l-20 169q59 -16 103 -16q60 0 96 20t59 56q17 27 55 134q5 15 16 44l-403 1064h194l221 -615q43 -117 77 -246q31 124 74 242l227 619h180l-404 -1080q-65 -175 -101 -241q-48 -89 -110 -130.5t-148 -41.5q-52 0 -116 22zM219 1227v148h624v-148h-624z"/>
<glyph glyph-name="uni0234" horiz-adv-x="715" unicode="ȴ" d="M542 -161q0 42 -28.5 71t-72.5 29q-59 0 -130 -48q6 -164 115 -164q116 0 116 112zM705 -161q0 -270 -287 -270q-204 0 -262 178q-31 -35 -141 -178l-108 118q45 60 91 121q69 87 133 146v1512h180v-1396q67 27 127 27q119 0 193 -70t74 -188z"/>
<glyph glyph-name="uni0235" horiz-adv-x="1402" unicode="ȵ" d="M1229 -161q0 42 -28.5 71t-72.5 29q-59 0 -130 -48q6 -164 115 -164q116 0 116 112zM1392 -161q0 -270 -287 -270q-204 0 -262 178q-31 -35 -141 -178l-108 118q45 60 91 121q69 87 133 146v692q0 194 -95 252q-53 32 -126 32q-282 0 -282 -350v-580h-180v1062h162v-151 q117 175 338 175q208 0 297 -125q40 -56 56 -133q10 -49 10 -175v-585q72 29 127 29q119 0 193 -70t74 -188z"/>
<glyph glyph-name="uni0236" horiz-adv-x="752" unicode="ȶ" d="M579 256q0 42 -28.5 71t-72.5 29q-60 0 -131 -48q6 -164 116 -164q116 0 116 112zM742 256q0 -270 -287 -270q-204 0 -262 178q-31 -35 -141 -178l-108 118q45 60 91 121q69 87 133 146v551h-132v140h132v263l179 108v-371h181v-140h-181v-434q65 26 128 26 q119 0 193 -70t74 -188z"/>
<glyph glyph-name="j.dotless" horiz-adv-x="455" unicode="ȷ" d="M314 -58q0 -195 -51 -273q-66 -100 -216 -100q-73 0 -141 19l34 153q54 -14 85 -14q77 0 99 78q10 35 10 141v1116h180v-1120z"/>
<glyph glyph-name="uni0238" horiz-adv-x="1816" unicode="ȸ" d="M827 515q0 171 -59 281q-76 141 -232 141q-151 0 -224 -136q-57 -106 -57 -271q0 -160 63 -271q77 -135 226 -135q148 0 222 128q61 105 61 263zM1548 532q0 163 -58 270q-74 136 -224 136q-147 0 -225 -132q-65 -110 -65 -267q0 -191 52 -276q85 -139 230 -139 q149 0 226 137q64 111 64 271zM1732 547q0 -233 -110 -391q-126 -180 -349 -180q-188 0 -294 157v-133h-155v134q-101 -158 -297 -158q-131 0 -238 73q-103 71 -160 193q-59 127 -59 288q0 349 212 487q106 69 237 69q187 0 293 -146v526h179v-523q114 143 291 143 q211 0 330.5 -151t119.5 -388z"/>
<glyph glyph-name="uni0239" horiz-adv-x="1816" unicode="ȹ" d="M827 518q0 165 -63 281q-78 145 -227 145q-150 0 -223 -138q-57 -108 -57 -272q0 -162 63 -273q78 -137 229 -137q142 0 217 131q61 106 61 263zM1550 540q0 160 -60 269q-75 136 -223 136q-143 0 -225 -144q-65 -117 -65 -276q0 -162 60 -268q74 -133 222 -133 q154 0 230 139q61 111 61 277zM1734 539q0 -351 -228 -493q-112 -70 -235 -70q-173 0 -279 134v-517h-180v520q-98 -137 -278 -137q-219 0 -347 178q-115 160 -115 387q0 345 217 480q105 65 231 65q193 0 305 -166v142h154v-138q117 162 305 162q286 0 397 -267 q53 -128 53 -280z"/>
<glyph glyph-name="uni023A" horiz-adv-x="1366" unicode="Ⱥ" d="M468 444h-104l-153 -421zM917 602l-75 198l-121 -198h196zM782 959l-18 49q-71 188 -104 304q-29 -147 -79 -280l-161 -430h144zM1369 0h-221l-171 444h-352l-336 -551h-157l65 107h-200l563 1466h209l129 -316l239 391h157l-333 -545z"/>
<glyph glyph-name="uni023B" horiz-adv-x="1479" unicode="Ȼ" d="M1016 1264q-93 61 -226 61q-158 0 -272 -74q-121 -79 -170 -224q-46 -137 -46 -282q0 -185 55 -326q28 -71 69 -122zM1398 465q-59 -232 -213 -359q-158 -131 -394 -131q-214 0 -356 79l-98 -161h-157l147 240q-91 86 -147 218q-78 184 -78 393q0 474 337 659 q161 88 355 88q180 0 314 -76l77 126h157l-126 -206q109 -105 157 -271l-191 -45q-28 87 -68 147l-585 -958q113 -67 246 -67q348 0 429 373z"/>
<glyph glyph-name="uni023C" horiz-adv-x="1024" unicode="ȼ" d="M619 934q-22 4 -48 4q-306 0 -306 -406q0 -173 54 -270zM1005 366q-28 -179 -144 -283q-119 -107 -298 -107q-115 0 -207 40l-189 -425h-147l222 498q-7 6 -29 30q-133 143 -133 408q0 367 231 495q116 64 253 64q60 0 117 -12l175 392h147l-196 -440q144 -86 181 -276 l-175 -27q-22 96 -75 149l-318 -713q61 -35 141 -35q230 0 267 265z"/>
<glyph glyph-name="uni023D" d="M1066 0h-916v667h-140v132h140v667h194v-667h404v-132h-404v-494h722v-173z" unicode="Ƚ"/>
<glyph glyph-name="uni023E" horiz-adv-x="1251" unicode="Ⱦ" d="M902 1293h-177v-290zM1210 1293h-151l-334 -547v-746h-194v428l-326 -535h-157l483 792v608h-483v173h959l46 75h157l-46 -75h46v-173z"/>
<glyph glyph-name="uni023F" horiz-adv-x="1024" unicode="ȿ" d="M927 -298q-103 -133 -215 -133q-157 0 -269 162l-147 213q-72 104 -217 191l111 140q177 -151 327 -151q95 0 161 36q82 45 82 133q0 61 -53 96q-36 24 -184 61q-163 41 -214 61q-128 49 -176 127q-40 65 -40 142q0 144 121 232q102 74 270 74q262 0 359 -133 q45 -61 62 -165l-176 -24q-25 174 -232 174q-230 0 -230 -137q0 -75 91 -111q26 -10 159 -46q182 -49 209 -59q126 -46 176 -119q43 -62 43 -154q0 -164 -136 -256q-119 -80 -292 -80q-22 0 -47 2l132 -180q52 -71 107 -71q63 0 122 88z"/>
<glyph glyph-name="uni0240" horiz-adv-x="1024" unicode="ɀ" d="M1017 -298q-103 -133 -215 -133q-86 0 -150 43q-51 34 -119 119l-120 150q-95 119 -223 119h-150v146l676 776q-149 -6 -203 -6h-433v146h868v-119l-686 -797q98 0 168 -52q45 -34 138 -146l124 -150q59 -71 107 -71q63 0 122 88z"/>
<glyph glyph-name="uni0241" horiz-adv-x="1189" unicode="Ɂ" d="M1094 933q0 -227 -114 -372q-124 -155 -354 -177v-384h-180v538q41 -8 107 -8q155 0 251 99q105 109 105 309q0 197 -105 305q-99 101 -266 101q-124 0 -215 -67q-87 -64 -125 -175l-169 44q108 346 509 346q274 0 419 -153q137 -145 137 -406z"/>
<glyph glyph-name="uni0242" horiz-adv-x="928" unicode="ɂ" d="M848 702q0 -152 -103 -260q-88 -94 -211 -120v-322h-180v431q120 0 209 73q94 77 94 198q0 107 -54 169q-59 67 -169 67q-200 0 -244 -199l-171 28q32 149 148 236q112 83 269 83q184 0 292 -90q120 -100 120 -294z"/>
<glyph glyph-name="uni0243" horiz-adv-x="1366" unicode="Ƀ" d="M1056 425q0 176 -158 228q-73 24 -215 24h-339v-178h362v-132h-362v-194h365q93 0 132 7q133 24 186 122q29 53 29 123zM995 1068q0 162 -135 205q-63 20 -223 20h-293v-443h317q128 0 185 17q149 45 149 201zM1257 425q0 -215 -151 -328q-129 -97 -397 -97h-559v367 h-133v132h133v967h550q316 0 429 -181q57 -92 57 -194q0 -209 -205 -311q276 -81 276 -355z"/>
<glyph glyph-name="uni0244" horiz-adv-x="1479" unicode="Ʉ" d="M1120 620v71h-765v-71q0 -157 22 -237q34 -126 136 -184q87 -49 211 -49q235 0 323 120q73 102 73 350zM1432 691h-118v-72q0 -202 -38 -317q-52 -158 -192 -245q-131 -82 -343 -82q-409 0 -524 277q-56 135 -56 367v72h-120v132h120v643h194v-643h765v643h194v-643h118 v-132z"/>
<glyph glyph-name="uni0245" horiz-adv-x="1368" unicode="Ʌ" d="M784 1466l568 -1466h-211l-381 1064q-50 140 -77 241q-33 -121 -78 -241l-396 -1064h-198l573 1466h200z"/>
<glyph glyph-name="uni0246" horiz-adv-x="1366" unicode="Ɇ" d="M616 672h-260v-499zM937 1293h-581v-449h349zM1256 0h-831l-55 -107h-157l55 107h-106v1466h864l39 75h157l-39 -75h39v-173h-128l-232 -449h305v-172h-394l-258 -499h741v-173z"/>
<glyph glyph-name="uni0247" d="M471 485h-210q10 -170 94 -263zM666 924q-44 14 -93 14q-130 0 -214 -88q-79 -85 -88 -217h266zM864 633q-13 145 -83 218l-97 -218h180zM1054 533q0 -16 -1 -48h-435l-151 -341q52 -20 115 -20q202 0 280 218l186 -23q-93 -343 -467 -343q-96 0 -177 25l-182 -410h-147 l207 468q-34 23 -70 61q-137 144 -137 402q0 246 123 399q133 165 373 165q84 0 157 -23l178 403h147l-205 -463q39 -28 71 -62q135 -145 135 -408z" unicode="ɇ"/>
<glyph glyph-name="uni0248" horiz-adv-x="1024" unicode="Ɉ" d="M1015 667h-150v-200q0 -157 -31 -250q-42 -128 -154 -189q-96 -53 -227 -53q-394 0 -394 424v17l175 24q6 -136 44 -203q52 -89 174 -89q156 0 199 125q20 58 20 183v211h-168v132h168v667h194v-667h150v-132z"/>
<glyph glyph-name="uni0249" horiz-adv-x="455" unicode="ɉ" d="M426 485h-112v-543q0 -195 -51 -273q-66 -100 -216 -100q-73 0 -141 19l34 153q54 -14 85 -14q77 0 99 78q10 35 10 141v539h-109v132h109v445h180v-445h112v-132zM314 1257h-180v209h180v-209z"/>
<glyph glyph-name="uni024A" horiz-adv-x="1510" unicode="Ɋ" d="M1141 214v1059q-158 52 -309 52q-267 0 -408 -184q-125 -164 -125 -430q0 -248 141 -407q145 -163 379 -163q183 0 322 73zM1563 -412q-68 -19 -141 -19q-163 0 -229 112q-52 87 -52 261v86q-150 -53 -321 -53q-342 0 -536 208q-185 198 -185 531q0 339 189 552 q200 226 543 226q162 0 365 -56l107 56h32v-1545q0 -107 10 -142q22 -78 99 -78q31 0 85 14z"/>
<glyph glyph-name="uni024B" d="M830 518q0 165 -63 281q-78 145 -230 145q-150 0 -223 -138q-57 -108 -57 -272q0 -162 63 -273q78 -137 229 -137q145 0 220 131q61 106 61 263zM1220 -412q-68 -19 -141 -19q-164 0 -224 114q-43 82 -43 256v174q-98 -137 -278 -137q-219 0 -347 179q-115 159 -115 386 q0 345 217 480q105 65 231 65q197 0 310 -166v142h162v-1115q0 -107 10 -142q22 -78 99 -78q31 0 85 14z" unicode="ɋ"/>
<glyph glyph-name="uni024C" horiz-adv-x="1479" unicode="Ɍ" d="M1143 1066q0 238 -314 238h-414v-485h367q247 0 322 116q39 61 39 131zM1463 0h-244l-194 305q-65 102 -108 160q-78 107 -130 140q-45 29 -89 39q-30 7 -108 7h-175v-651h-194v651h-221v168h221v647h600q171 0 259 -26q133 -39 202 -153q61 -100 61 -221 q0 -342 -413 -399q78 -38 117 -73q87 -80 161 -195z"/>
<glyph glyph-name="uni024D" horiz-adv-x="682" unicode="ɍ" d="M710 1028l-62 -167q-66 39 -132 39q-203 0 -203 -283h173v-132h-173v-485h-180v485h-118v132h118v445h162v-161q83 185 230 185q91 0 185 -58z"/>
<glyph glyph-name="uni024E" horiz-adv-x="1366" unicode="Ɏ" d="M868 1078h-372l35 -54q74 -113 149 -248q72 125 160 259zM1350 1078h-269l-316 -457v-621h-194v621l-306 457h-259v132h171l-171 256h236l167 -256h546l169 256h226l-177 -256h177v-132z"/>
<glyph glyph-name="uni024F" horiz-adv-x="1024" unicode="ɏ" d="M651 585h-253l50 -138q46 -127 77 -246q32 126 74 242zM1006 585h-178l-226 -603q-66 -176 -101 -241q-93 -172 -258 -172q-52 0 -116 22l-20 169q59 -16 103 -16q107 0 155 76q17 28 55 134l16 44l-222 587h-181v132h131l-131 345h194l124 -345h348l127 345h180 l-129 -345h129v-132z"/>
<glyph glyph-name="uni0250" d="M873 777q0 85 -67 130q-57 38 -147 38q-223 0 -304 -170q-29 -61 -29 -180v-66q98 40 294 68q90 13 126 24q71 23 102 71q25 39 25 85zM1065 782q0 -159 -128 -246q-58 -39 -130 -59q-51 -14 -160 -27q-219 -26 -321 -62q-1 -37 -1 -47q0 -110 51 -155q69 -61 205 -61 q123 0 183 42q64 45 94 160l176 -24q-47 -220 -238 -289q-105 -38 -241 -38q-253 0 -346 113q-41 50 -56 122q-9 43 -9 166v240q0 215 -1 228q-9 132 -56 217h188q28 -56 36 -131q182 155 391 155q156 0 254 -72q109 -81 109 -232z" unicode="ɐ"/>
<glyph glyph-name="uni0251" d="M830 518q0 165 -63 281q-78 145 -230 145q-150 0 -223 -138q-57 -108 -57 -272q0 -162 63 -273q78 -137 229 -137q145 0 220 131q61 106 61 263zM992 0h-180v113q-98 -137 -278 -137q-219 0 -347 179q-115 159 -115 386q0 345 217 480q105 65 231 65q197 0 310 -166v142 h162v-1062z" unicode="ɑ"/>
<glyph glyph-name="uni0252" d="M869 534q0 165 -57 272q-72 138 -223 138t-230 -145q-63 -117 -63 -281q0 -157 61 -263q75 -131 220 -131q151 0 229 137q63 111 63 273zM1054 541q0 -228 -114 -387q-128 -178 -348 -178q-180 0 -278 137v-113h-180v1062h162v-142q113 166 310 166q280 0 393 -258 q55 -126 55 -287z" unicode="ɒ"/>
<glyph glyph-name="uni0253" d="M871 532q0 163 -58 270q-74 136 -224 136q-147 0 -225 -132q-65 -110 -65 -267q0 -191 52 -276q85 -139 230 -139q149 0 226 137q64 111 64 271zM1055 547q0 -233 -110 -391q-126 -180 -349 -180q-188 0 -295 157v-133h-167v1175q0 158 63 233q70 83 232 83q76 0 168 -18 l-27 -157q-56 10 -106 10q-86 0 -120 -39q-30 -36 -30 -125v-219q114 143 291 143q211 0 330.5 -151t119.5 -388z" unicode="ɓ"/>
<glyph glyph-name="uni0254" horiz-adv-x="1024" unicode="ɔ" d="M944 527q0 -244 -117 -391q-128 -160 -366 -160q-178 0 -296 106t-146 284l177 23q37 -265 267 -265q296 0 296 408q0 406 -306 406q-192 0 -242 -215l-175 27q65 336 424 336q144 0 254 -64q117 -68 173 -194q57 -129 57 -301z"/>
<glyph glyph-name="uni0255" horiz-adv-x="1024" unicode="ɕ" d="M805 259q0 101 -111 101q-138 0 -292 -180q74 -56 179 -56q93 0 158.5 37.5t65.5 97.5zM988 750l-175 -27q-50 215 -242 215q-306 0 -306 -406q0 -129 43 -227q189 208 383 208q277 0 277 -254q0 -140 -113 -215q-103 -68 -272 -68q-162 0 -279 75q-38 -58 -103 -155 l-121 104q34 50 110 158q-110 147 -110 369q0 367 231 495q116 64 253 64q359 0 424 -336z"/>
<glyph glyph-name="uni0256" d="M827 515q0 171 -59 281q-76 141 -232 141q-151 0 -224 -136q-57 -106 -57 -271q0 -160 63 -271q77 -135 226 -135q148 0 222 128q61 105 61 263zM1219 -412q-68 -19 -141 -19q-164 0 -224 114q-42 81 -42 259v192q-101 -158 -285 -158q-131 0 -238 73q-103 71 -160 193 q-59 127 -59 288q0 349 212 487q106 69 237 69q187 0 293 -146v526h179v-1519q0 -107 10 -142q22 -78 99 -78q31 0 85 14z" unicode="ɖ"/>
<glyph glyph-name="uni0257" d="M827 515q0 171 -59 281q-76 141 -232 141q-151 0 -224 -136q-57 -106 -57 -271q0 -160 63 -271q77 -135 226 -135q148 0 222 128q61 105 61 263zM1274 1473l-27 -157q-56 10 -106 10q-87 0 -120 -40q-30 -36 -30 -126v-1160h-167v134q-101 -158 -297 -158q-131 0 -238 73 q-103 71 -160 193q-59 127 -59 288q0 349 212 487q106 69 237 69q187 0 293 -146v236q0 162 69 238.5t225 76.5q76 0 168 -18z" unicode="ɗ"/>
<glyph glyph-name="uni0258" d="M868 633q-9 133 -88 217q-83 88 -214 88q-137 0 -223 -104q-56 -67 -68 -201h593zM1064 522q0 -248 -128 -393q-134 -153 -378 -153q-374 0 -467 343l186 23q78 -218 280 -218q150 0 236 109q76 96 85 252h-792q-1 32 -1 48q0 240 119 390q130 163 364 163 q240 0 373 -165q123 -153 123 -399z" unicode="ɘ"/>
<glyph glyph-name="uni025A" horiz-adv-x="1513" unicode="ɚ" d="M878 578l-608 -114q7 -150 74 -238q77 -102 222 -102q312 0 312 454zM1513 412q-118 -57 -219 -57q-186 0 -232 246q2 -29 2 -61q0 -247 -122 -399q-133 -165 -374 -165q-235 0 -365 163q-118 149 -118 390q0 16 1 48l764 149q-3 19 -57 103q-86 109 -236 109 q-202 0 -280 -218l-186 23q93 343 467 343q245 0 379 -152q65 -73 96 -172l156 31l23 -132q13 -75 28 -102q23 -42 72 -42q46 0 172 61z"/>
<glyph glyph-name="uni025B" horiz-adv-x="939" unicode="ɛ" d="M889 299q-58 -323 -421 -323q-167 0 -273 75q-122 86 -122 246q0 181 160 267q-126 77 -126 207q0 147 111 234q102 81 252 81q306 0 386 -299l-171 -28q-61 179 -213 179q-76 0 -125 -42.5t-49 -117.5q0 -52 33 -95t83 -53q42 -8 155 -9v-141q-32 1 -41 1 q-102 0 -130 -5q-65 -13 -107 -64q-38 -46 -38 -108q0 -83 66 -135q60 -48 146 -48q98 0 167 60q66 57 88 154z"/>
<glyph glyph-name="uni025C" horiz-adv-x="939" unicode="ɜ" d="M370 480v141q114 1 155.5 9t78.5 48t37 100q0 73 -48.5 116.5t-125.5 43.5q-152 0 -213 -179l-171 28q80 299 386 299q170 0 266.5 -93t96.5 -222q0 -130 -126 -207q80 -43 120 -109.5t40 -157.5q0 -143 -104 -232t-291 -89q-363 0 -421 323l169 36q23 -102 93.5 -158 t161.5 -56t151.5 51.5t60.5 131.5q0 62 -38 108t-81 57.5t-156 11.5q-9 0 -41 -1z"/>
<glyph glyph-name="uni025D" horiz-adv-x="1293" unicode="ɝ" d="M1293 538q-118 -57 -219 -57q-190 0 -242 275q-7 -119 -126 -192q160 -86 160 -267q0 -160 -122 -246q-106 -75 -273 -75q-363 0 -421 323l169 36q22 -96 90 -155t165 -59q87 0 147 47q65 52 65 136q0 54 -34 103t-85 63q-41 11 -156 11q-9 0 -41 -1v141q106 1 125 4 q69 10 109 53q37 40 37 100q0 76 -48.5 118t-125.5 42q-152 0 -213 -179l-171 28q80 299 386 299q170 0 267 -93q48 -46 73 -106l160 32l23 -132q13 -75 28 -102q23 -42 72 -42q46 0 172 61z"/>
<glyph glyph-name="uni025E" horiz-adv-x="1039" unicode="ɞ" d="M786 304q0 177 -255 177q-23 0 -61 -1v141q127 1 179 20q92 34 92 137q0 75 -49 117.5t-125 42.5q-161 0 -244 -128q-70 -108 -70 -279q0 -204 89 -305q93 -106 231 -106q87 0 147 48q66 52 66 136zM966 297q0 -160 -122 -246q-107 -75 -274 -75q-227 0 -364.5 143.5 t-137.5 411.5q0 295 164 437q137 118 337 118q151 0 253 -81q110 -87 110 -234q0 -130 -126 -207q160 -86 160 -267z"/>
<glyph glyph-name="uni025F" horiz-adv-x="569" unicode="ɟ" d="M550 0h-159v-115q0 -107 -19 -159q-58 -157 -275 -157q-76 0 -168 18l27 157q56 -10 106 -10q87 0 120 40q30 36 30 126v100h-207v140h207v922h179v-922h159v-140z"/>
<glyph glyph-name="uni0260" d="M834 544q0 160 -66 266q-79 127 -229 127q-147 0 -224 -126q-64 -104 -64 -261q0 -168 60 -272q75 -129 231 -129q153 0 230 127q62 104 62 268zM1285 1473l-27 -157q-56 10 -106 10q-87 0 -120 -40q-30 -36 -30 -126v-1016q0 -199 -29 -294q-45 -147 -181 -221 q-110 -60 -270 -60q-185 0 -295 77q-125 87 -125 255v11l175 -26q11 -81 61 -118q67 -50 183 -50q235 0 285 190q13 49 13 208v23q-118 -139 -294 -139q-218 0 -344 163q-115 149 -115 374q0 335 215 479q105 70 245 70q171 0 293 -152v241q0 316 298 316q76 0 168 -18z" unicode="ɠ"/>
<glyph glyph-name="uni0261" d="M251 550q0 -209 83 -305t208 -96q124 0 208 95.5t84 299.5q0 195 -86.5 294t-208.5 99q-120 0 -204 -97.5t-84 -289.5zM102 -88l175 -26q11 -81 61 -118q67 -50 183 -50q125 0 193 50t92 140q13 51 13 208v23q-118 -139 -294 -139q-219 0 -339 158t-120 379 q0 152 55 280.5t159.5 198.5t245.5 70q188 0 310 -152v128h166v-918q0 -248 -50.5 -351.5t-160 -163.5t-269.5 -60q-190 -1 -307 85q-113 83 -113 247v11z" unicode="ɡ"/>
<glyph glyph-name="uni0262" horiz-adv-x="1144" unicode="ɢ" d="M1005 124q-183 -148 -442 -148q-237 0 -365 160q-118 148 -118 391q0 367 231 495q116 64 253 64q359 0 424 -336l-175 -27q-50 215 -242 215q-306 0 -306 -406q0 -408 296 -408q159 0 264 76v183h-307v149h487v-408z"/>
<glyph glyph-name="uni0263" horiz-adv-x="1026" unicode="ɣ" d="M562 -190q0 27 -34 106l-15 35l-15 -35q-34 -79 -34 -106q0 -77 50 -77q48 0 48 77zM1001 1062l-394 -902l65 -146q59 -133 59 -209q0 -236 -219 -236q-217 0 -217 236q0 76 59 209l65 146l-394 902h196l292 -678l292 678h196z"/>
<glyph glyph-name="uni0264" horiz-adv-x="1263" unicode="ɤ" d="M680 186q0 20 -34 99l-15 35l-14 -35q-34 -85 -34 -99q0 -62 51 -62q46 0 46 62zM1238 898l-109 -118q-91 148 -166 148q-61 0 -92 -71l-144 -328l63 -156q59 -146 59 -179q0 -218 -218 -218q-217 0 -217 218q0 33 59 179l63 156l-144 328q-31 71 -92 71q-75 0 -166 -148 l-109 118q120 188 280 188q194 0 262 -173l67 -170l62 170q63 173 262 173q160 0 280 -188z"/>
<glyph glyph-name="uni0265" d="M1004 -407h-180v529q-126 -146 -318 -146q-249 0 -329 175q-38 83 -38 238v673h180v-673q0 -258 224 -258q80 0 150.5 41.5t100.5 112.5t30 196v581h180v-1469z" unicode="ɥ"/>
<glyph glyph-name="uni0266" d="M1000 0h-180v673q0 258 -224 258q-81 0 -149 -40q-72 -42 -102 -113.5t-30 -196.5v-581h-180v1176q0 161 69.5 238t225.5 77q76 0 168 -18l-27 -157q-56 10 -106 10q-87 0 -120 -40q-30 -36 -30 -126v-220q126 146 318 146q250 0 330 -175q37 -81 37 -238v-673z" unicode="ɦ"/>
<glyph glyph-name="uni0267" d="M1000 -58q0 -195 -51 -273q-66 -100 -216 -100q-73 0 -141 19l34 153q54 -14 85 -14q77 0 99 78q10 36 10 142v726q0 258 -224 258q-81 0 -149 -40q-72 -42 -102 -113.5t-30 -196.5v-581h-180v1176q0 161 69.5 238t225.5 77q76 0 168 -18l-27 -157q-56 10 -106 10 q-87 0 -120 -40q-30 -36 -30 -126v-220q126 146 318 146q250 0 330 -175q37 -81 37 -238v-731z" unicode="ɧ"/>
<glyph glyph-name="uni0268" horiz-adv-x="455" unicode="ɨ" d="M426 485h-110v-485h-180v485h-111v132h111v445h180v-445h110v-132zM316 1259h-180v207h180v-207z"/>
<glyph glyph-name="uni0269" horiz-adv-x="455" unicode="ɩ" d="M455 -10q-48 -15 -108 -15q-260 0 -260 328v758h180v-758q0 -100 25.5 -137t88.5 -37q41 0 74 8v-147z"/>
<glyph glyph-name="uni026A" horiz-adv-x="729" unicode="ɪ" d="M455 148h207v-148h-594v148h206v765h-206v149h594v-149h-207v-765z"/>
<glyph glyph-name="uni026B" horiz-adv-x="670" unicode="ɫ" d="M670 839q-6 -228 -196 -228q-21 0 -46 6v-617h-180v695q-25 8 -41 8q-78 0 -76 -95h-130q-1 97 52 160q56 68 151 68q22 0 44 -5v635h180v-715q23 -7 39 -7q61 0 73 95h130z"/>
<glyph glyph-name="uni026C" horiz-adv-x="622" unicode="ɬ" d="M257 734v198h-14q-102 0 -102 -102q0 -96 102 -96h14zM602 615h-165v-615h-180v615h-13q-224 0 -224 219q0 217 223 217h14v415h180v-732h165v-119z"/>
<glyph glyph-name="uni026D" horiz-adv-x="455" unicode="ɭ" d="M539 -412q-68 -19 -141 -19q-150 0 -216 100q-51 78 -51 273v1524h180v-1518q0 -107 10 -143q22 -78 99 -78q31 0 85 14z"/>
<glyph glyph-name="uni026E" horiz-adv-x="1171" unicode="ɮ" d="M1103 97q0 -223 -138 -374q-141 -154 -363 -154q-404 0 -471 305l180 16q42 -173 291 -173q143 0 230 113q80 103 80 251q0 159 -97 248q-92 84 -246 84h-93v159l336 350q-149 -6 -203 -6h-298v-916h-180v1466h180v-404h733v-119l-369 -375q181 -13 300 -134 q128 -131 128 -337z"/>
<glyph glyph-name="uni026F" horiz-adv-x="1706" unicode="ɯ" d="M1571 0h-161v149q-111 -173 -322 -173q-234 0 -300 186q-126 -186 -328 -186q-328 0 -328 357v729h179v-669q0 -181 81 -232q46 -29 108 -29q133 0 201 93q59 81 59 220v617h180v-690q0 -240 188 -240q175 0 234 157q29 77 29 222v551h180v-1062z"/>
<glyph glyph-name="uni0270" horiz-adv-x="1706" unicode="ɰ" d="M1571 -407h-180v556q-111 -173 -303 -173q-234 0 -300 186q-126 -186 -328 -186q-328 0 -328 357v729h179v-669q0 -181 81 -232q46 -29 108 -29q133 0 201 93q59 81 59 220v617h180v-690q0 -240 188 -240q175 0 234 157q29 77 29 222v551h180v-1469z"/>
<glyph glyph-name="uni0271" horiz-adv-x="1706" unicode="ɱ" d="M1574 -58q0 -195 -51 -273q-66 -100 -216 -100q-73 0 -141 19l34 153q54 -14 85 -14q55 0 82.5 37.5t27.5 183.5v721q0 91 -9 130q-17 67 -72 102q-46 29 -108 29q-260 0 -260 -313v-617h-180v690q0 240 -188 240q-175 0 -234 -157q-29 -77 -29 -222v-551h-180v1062h161 v-149q111 173 322 173q234 0 300 -186q126 186 328 186q328 0 328 -357v-787z"/>
<glyph glyph-name="uni0272" d="M1002 0h-180v646q0 194 -95 252q-53 32 -126 32q-282 0 -282 -350v-638q0 -194 -52 -273q-66 -100 -216 -100q-73 0 -141 19l34 153q54 -14 85 -14q55 0 82.5 37.5t27.5 184.5v1113h162v-151q117 175 338 175q208 0 297 -125q40 -56 56 -133q10 -49 10 -175v-653z" unicode="ɲ"/>
<glyph glyph-name="uni0273" d="M1230 -412q-68 -19 -141 -19q-150 0 -216 100q-51 78 -51 273v704q0 194 -95 252q-53 32 -126 32q-282 0 -282 -350v-580h-180v1062h162v-151q117 175 338 175q208 0 297 -125q40 -56 56 -133q10 -49 10 -175v-704q0 -148 27 -185t82 -37q31 0 85 14z" unicode="ɳ"/>
<glyph glyph-name="uni0274" horiz-adv-x="1132" unicode="ɴ" d="M997 0h-189l-493 784v-784h-180v1062h189l493 -784v784h180v-1062z"/>
<glyph glyph-name="uni0275" d="M877 485h-623q8 -155 81 -251q83 -110 231 -110q147 0 230 111q72 96 81 250zM872 633q-17 128 -83 203q-89 101 -223 101q-135 0 -224 -101q-66 -75 -83 -203h613zM1063 546q0 -372 -240 -505q-117 -65 -257 -65q-244 0 -376 159q-122 148 -122 396q0 295 164 437 q137 118 334 118q235 0 370 -155q127 -146 127 -385z" unicode="ɵ"/>
<glyph glyph-name="uni0276" horiz-adv-x="1619" unicode="ɶ" d="M878 537q0 166 -71 274q-83 126 -241 126q-161 0 -244 -128q-69 -107 -69 -278t69 -279q83 -128 244 -128q162 0 244 131q68 109 68 282zM1551 0h-673v115q-46 -66 -139 -104q-84 -35 -173 -35q-243 0 -375 159q-123 148 -123 396t124 396q133 159 374 159q91 0 182 -40 q83 -38 130 -92v108h651v-149h-471v-288h434v-147h-434v-329h493v-149z"/>
<glyph glyph-name="uni0277" horiz-adv-x="1599" unicode="ɷ" d="M1330 476q0 238 -163 358q-140 103 -367 103t-367 -103q-163 -120 -163 -358q0 -134 44 -231q57 -128 173 -128q223 0 223 366v117h179v-117q0 -142 41 -235q57 -131 184 -131q116 0 173 128q43 97 43 231zM1513 487q0 -212 -83 -348q-100 -163 -296 -163 q-237 0 -334 239q-98 -239 -334 -239q-196 0 -296 163q-83 136 -83 348q0 289 211 450q193 149 502 149t502 -149q211 -161 211 -450z"/>
<glyph glyph-name="uni0278" horiz-adv-x="1126" unicode="ɸ" d="M473 137v787q-113 -33 -170 -150q-50 -101 -50 -243t50 -243q57 -117 170 -151zM873 537q0 140 -52 241q-59 116 -168 148v-791q112 32 170 153q50 103 50 249zM1058 546q0 -232 -100 -379q-107 -157 -305 -185v-389h-180v390q-198 29 -305 182q-100 144 -100 366 t101 366q107 152 304 182v387h180v-386q190 -28 300 -177q105 -143 105 -357z"/>
<glyph glyph-name="uni0279" horiz-adv-x="682" unicode="ɹ" d="M549 0h-162v161q-49 -89 -90 -128q-59 -57 -140 -57q-91 0 -185 58l62 167q66 -39 132 -39q131 0 173 134q30 95 30 210v556h180v-1062z"/>
<glyph glyph-name="uni027A" horiz-adv-x="682" unicode="ɺ" d="M549 0h-162v161q-49 -89 -90 -128q-59 -57 -140 -57q-91 0 -185 58l62 167q66 -39 132 -39q131 0 173 134q30 95 30 210v960h180v-1466z"/>
<glyph glyph-name="uni027B" horiz-adv-x="682" unicode="ɻ" d="M777 -412q-68 -19 -141 -19q-163 0 -223 114q-44 83 -44 262v216q-70 -185 -212 -185q-91 0 -185 58l62 167q66 -39 132 -39q131 0 173 134q30 95 30 210v556h180v-1116q0 -106 10 -141q22 -78 99 -78q31 0 85 14z"/>
<glyph glyph-name="uni027C" horiz-adv-x="682" unicode="ɼ" d="M710 1028l-62 -167q-66 39 -132 39q-131 0 -173 -134q-30 -95 -30 -210v-963h-180v1469h162v-161q102 185 230 185q91 0 185 -58z"/>
<glyph glyph-name="uni027D" horiz-adv-x="682" unicode="ɽ" d="M710 1028l-62 -167q-66 39 -132 39q-131 0 -173 -134q-30 -95 -30 -210v-610q0 -106 10 -142q22 -77 99 -77q31 0 85 14l34 -153q-68 -19 -141 -19q-163 0 -223 114q-44 83 -44 262v1117h162v-161q102 185 230 185q91 0 185 -58z"/>
<glyph glyph-name="uni027E" horiz-adv-x="682" unicode="ɾ" d="M710 1028l-62 -167q-66 39 -142 39q-127 0 -169 -122q-24 -68 -24 -222v-556h-180v632q0 242 123 359q100 95 259 95q101 0 195 -58z"/>
<glyph glyph-name="uni027F" horiz-adv-x="682" unicode="ɿ" d="M549 -407h-180v963q0 154 -24 222q-42 122 -169 122q-76 0 -142 -39l-62 167q94 58 195 58q159 0 259 -95q123 -117 123 -359v-1039z"/>
<glyph glyph-name="uni0280" horiz-adv-x="1109" unicode="ʀ" d="M827 746q0 167 -254 167h-256v-351h199q139 0 206 27q105 41 105 157zM1078 0h-223l-157 232q-91 135 -136 158.5t-141 23.5h-104v-414h-179v1062h492q164 0 265 -71q115 -82 115 -239q0 -135 -86 -220q-80 -79 -217 -98q88 -17 177 -148z"/>
<glyph glyph-name="uni0281" horiz-adv-x="1109" unicode="ʁ" d="M827 316q0 117 -105 158q-66 26 -206 26h-199v-351h256q254 0 254 167zM1078 1062l-194 -286q-89 -131 -177 -148q137 -19 217 -98q86 -85 86 -220q0 -157 -115 -239q-101 -71 -265 -71h-492v1062h179v-414h104q111 0 166 42q34 27 111 140l157 232h223z"/>
<glyph glyph-name="uni0282" horiz-adv-x="1024" unicode="ʂ" d="M63 317l180 28q31 -221 273 -221q96 0 162 36q82 45 82 133q0 61 -53 96q-36 24 -184 61q-159 40 -214 61q-216 84 -216 269q0 152 125 235q107 71 266 71q262 0 359 -133q45 -62 62 -165l-176 -24q-25 174 -232 174q-230 0 -230 -137q0 -75 91 -111q25 -10 159 -46 q182 -49 209 -59q219 -80 219 -273q0 -202 -204 -292q-100 -44 -224 -44q-185 0 -274 89v-118q0 -106 10 -142q22 -78 99 -78q31 0 85 14l34 -153q-68 -19 -141 -19q-150 0 -216 100q-51 78 -51 273v375z"/>
<glyph glyph-name="uni0283" horiz-adv-x="455" unicode="ʃ" d="M597 1473l-27 -157q-56 10 -106 10q-87 0 -118.5 -38.5t-31.5 -128.5v-1217q0 -178 -44 -260q-61 -113 -223 -113q-73 0 -141 19l34 153q54 -14 85 -14q77 0 99 77q10 36 10 142v1229q0 162 68 237q71 79 227 79q76 0 168 -18z"/>
<glyph glyph-name="uni0284" horiz-adv-x="532" unicode="ʄ" d="M674 1473l-27 -157q-56 10 -106 10q-87 0 -120 -40q-30 -36 -30 -126v-1020h159v-140h-159v-115q0 -107 -19 -159q-58 -157 -275 -157q-76 0 -168 18l27 157q56 -10 106 -10q87 0 120 40q30 36 30 126v100h-207v140h207v1035q0 162 67 237q71 79 227 79q76 0 168 -18z "/>
<glyph glyph-name="uni0285" horiz-adv-x="455" unicode="ʅ" d="M549 -412q-68 -19 -141 -19q-162 0 -223 113q-44 82 -44 260v812q0 90 -30 127q-33 40 -120 40q-50 0 -106 -10l-27 157q92 18 168 18q156 0 227 -79q68 -75 68 -237v-824q0 -106 10 -142q22 -77 99 -77q31 0 85 14z"/>
<glyph glyph-name="uni0286" horiz-adv-x="715" unicode="ʆ" d="M393 -109q-71 48 -129 48q-44 0 -72.5 -29t-28.5 -71q0 -112 116 -112q108 0 114 164zM857 1473l-27 -157q-56 10 -106 10q-87 0 -118.5 -38.5t-31.5 -128.5v-1207q78 -71 224 -265l-108 -118q-40 55 -141 178q-58 -178 -262 -178q-287 0 -287 270q0 118 74 188t193 70 q62 0 127 -26v1104q0 162 68 237q71 79 227 79q76 0 168 -18z"/>
<glyph glyph-name="uni0287" horiz-adv-x="569" unicode="ʇ" d="M533 357h-132v-263l-179 -108v371h-181v140h181v621q0 79 -13 106q-21 41 -89 41q-30 0 -79 -7l-26 159q76 16 136 16q179 0 228 -113q22 -51 22 -212v-611h132v-140z"/>
<glyph glyph-name="uni0288" horiz-adv-x="569" unicode="ʈ" d="M554 -415q-76 -16 -136 -16q-179 0 -228 113q-22 51 -22 212v1028h-132v140h132v263l179 108v-371h181v-140h-181v-1038q0 -78 14 -105q21 -42 88 -42q30 0 79 7z"/>
<glyph glyph-name="uni0289" d="M812 485h-501v-12q0 -143 11 -190q35 -152 208 -152q81 0 150 41q74 42 103 114q28 68 29 199zM1106 485h-114v-485h-161v156q-124 -180 -337 -180q-204 0 -296 127q-40 55 -56 133q-11 54 -11 168v81h-106v132h106v445h180v-445h501v445h180v-445h114v-132z" unicode="ʉ"/>
<glyph glyph-name="uni028A" horiz-adv-x="1164" unicode="ʊ" d="M1079 922h-82q-86 0 -86 -62q0 -25 11.5 -50.5t60.5 -88.5q96 -121 96 -252q0 -227 -144 -360.5t-354 -133.5t-353.5 133.5t-143.5 360.5q0 131 96 252q49 63 60.5 88.5t11.5 50.5q0 62 -86 62h-82v139h94q99 0 158 -52t59 -137q0 -72 -61 -170q-66 -104 -66 -225 q0 -178 92 -266t221 -88q138 0 226 93t88 261q0 121 -66 225q-61 98 -61 170q0 85 59 137t158 52h94v-139z"/>
<glyph glyph-name="uni028B" horiz-adv-x="1120" unicode="ʋ" d="M986 751q0 -329 -75 -509q-112 -266 -394 -266q-206 0 -297 114q-84 105 -84 323v649h180v-649q0 -139 35 -203q47 -86 169 -86q287 0 287 610q0 187 -150 187q-50 0 -106 -10l-27 157q92 18 168 18q294 0 294 -335z"/>
<glyph glyph-name="uni028C" horiz-adv-x="1024" unicode="ʌ" d="M1000 0h-185l-236 648q-43 118 -67 202q-31 -110 -68 -214l-228 -636h-190l404 1062h168z"/>
<glyph glyph-name="uni028D" horiz-adv-x="1479" unicode="ʍ" d="M1463 0h-175l-243 841l-219 -841h-185l-217 841l-232 -841h-186l325 1062h188l215 -817l220 817h187z"/>
<glyph glyph-name="uni028E" horiz-adv-x="1024" unicode="ʎ" d="M998 0h-190l-297 794l-297 -794h-190l548 1466h190l-158 -424z"/>
<glyph glyph-name="uni028F" horiz-adv-x="1064" unicode="ʏ" d="M1039 1062l-424 -612v-450h-180v450l-410 612h201l200 -310q50 -77 107 -180q46 80 116 188l196 302h194z"/>
<glyph glyph-name="uni0290" horiz-adv-x="1024" unicode="ʐ" d="M1187 -415q-76 -16 -136 -16q-179 0 -228 113q-22 51 -22 212v106h-761v146l676 776q-149 -6 -203 -6h-433v146h868v-119l-686 -797q161 9 227 9h491v-271q0 -78 14 -105q21 -42 88 -42q30 0 79 7z"/>
<glyph glyph-name="uni0291" horiz-adv-x="1108" unicode="ʑ" d="M901 237q0 81 -80 81q-83 0 -199 -163h198q81 0 81 82zM1064 237q0 -110 -66.5 -173.5t-177.5 -63.5h-296q-46 -83 -82 -163l-139 61q17 44 44 102h-307v146l676 776q-149 -6 -203 -6h-433v146h868v-119l-686 -797q61 9 127 9h45q196 320 387 320q112 0 177.5 -63.5 t65.5 -174.5z"/>
<glyph glyph-name="uni0292" horiz-adv-x="1116" unicode="ʒ" d="M1048 97q0 -223 -138 -374q-141 -154 -363 -154q-194 0 -323 111.5t-148 303.5l189 16q19 -125 87 -200q75 -83 195 -83q143 0 230 113q80 103 80 251q0 159 -97 248q-92 84 -246 84h-93v159l336 350q-149 -6 -203 -6h-433v146h868v-119l-369 -375q181 -13 300 -134 q128 -131 128 -337z"/>
<glyph glyph-name="uni0293" horiz-adv-x="1116" unicode="ʓ" d="M740 -189q-151 108 -289 108q-57 0 -94 -23.5t-37 -62.5q0 -55 71 -89q57 -27 119 -27q135 0 230 94zM1107 -304l-100 -127q-25 28 -123 124q-133 -124 -377 -124q-149 0 -242 61q-108 71 -108 208q0 120 89 185q81 59 208 59q184 0 372 -131q31 62 31 130q0 159 -97 248 q-92 84 -246 84h-93v159l336 350q-149 -6 -203 -6h-433v146h868v-119l-369 -375q181 -13 300 -134q128 -131 128 -337q0 -144 -68 -273q72 -66 127 -128z"/>
<glyph glyph-name="uni0294" horiz-adv-x="1024" unicode="ʔ" d="M944 933q0 -207 -94 -357q-109 -174 -304 -187v-389h-180v544q44 -14 97 -14q296 0 296 408q0 406 -306 406q-192 0 -242 -215l-175 27q65 336 424 336q144 0 254 -64q117 -68 173 -194q57 -129 57 -301z"/>
<glyph glyph-name="uni0295" horiz-adv-x="1024" unicode="ʕ" d="M988 1156l-175 -27q-50 215 -242 215q-306 0 -306 -406q0 -408 296 -408q53 0 97 14v-544h-180v389q-195 13 -304 187q-94 150 -94 357q0 367 231 495q116 64 253 64q359 0 424 -336z"/>
<glyph glyph-name="uni0296" horiz-adv-x="1024" unicode="ʖ" d="M944 533q0 -367 -230 -494q-117 -65 -254 -65q-169 0 -279 85q-113 87 -145 251l175 27q50 -215 242 -215q163 0 242 127q64 105 64 279q0 408 -296 408q-53 0 -97 -14v544h180v-389q195 -13 304 -187q94 -150 94 -357z"/>
<glyph glyph-name="uni0297" horiz-adv-x="1024" unicode="ʗ" d="M1005 -41q-28 -179 -144 -283q-119 -107 -298 -107q-237 0 -365 160q-118 148 -118 391v407q0 367 231 495q116 64 253 64q359 0 424 -336l-175 -27q-50 215 -242 215q-306 0 -306 -407v-406q0 -408 296 -408q230 0 267 265z"/>
<glyph glyph-name="uni0298" horiz-adv-x="1593" unicode="ʘ" d="M900 615h-205v205h205v-205zM1301 732q0 370 -237 520q-116 73 -262 73q-259 0 -389 -184q-114 -160 -114 -430q0 -241 127 -399q137 -171 373 -171q246 0 381 177q121 160 121 414zM1501 731q0 -213 -81 -382q-91 -188 -264 -283q-166 -91 -356 -91q-202 0 -364 96 q-166 99 -253 277q-84 173 -84 366q0 341 178 553q190 225 524 225q200 0 362 -94q166 -97 253 -273q85 -172 85 -394z"/>
<glyph glyph-name="uni0299" horiz-adv-x="1088" unicode="ʙ" d="M316 148h237q153 0 210 35.5t60 122.5q0 51 -33 94.5t-86 55t-170 11.5h-218v-319zM316 615h192q115 0 158 12t77 48.5t34 87.5q0 84 -59.5 117t-203.5 33h-198v-298zM136 1062h415q153 0 227.5 -25.5t128 -93.5t53.5 -163q0 -76 -31.5 -132.5t-94.5 -94.5 q75 -25 124.5 -93.5t49.5 -162.5q-10 -151 -108 -224t-285 -73h-479v1062z"/>
<glyph glyph-name="uni029A" horiz-adv-x="1039" unicode="ʚ" d="M786 531q0 171 -70 279q-83 128 -244 128q-76 0 -125 -42.5t-49 -117.5q0 -103 92 -137q52 -19 179 -20v-141q-39 1 -61 1q-255 0 -255 -177q0 -84 66 -136q60 -48 147 -48q138 0 231 106q89 101 89 305zM971 531q0 -270 -137 -412.5t-365 -142.5q-167 0 -274 75 q-122 86 -122 246q0 181 160 267q-126 77 -126 207q0 147 110 234q102 81 253 81q200 0 337 -118q164 -142 164 -437z"/>
<glyph glyph-name="uni029B" horiz-adv-x="1144" unicode="ʛ" d="M1271 1233l-27 -157q-56 10 -106 10q-87 0 -120 -40q-30 -36 -30 -126v-170l-175 -27q-50 215 -242 215q-306 0 -306 -406q0 -408 296 -408q159 0 264 76v183h-307v149h487v-408q-183 -148 -442 -148q-237 0 -365 160q-118 148 -118 391q0 367 231 495q116 64 253 64 q147 0 249 -64q5 44 15 72q58 157 275 157q76 0 168 -18z"/>
<glyph glyph-name="uni029C" horiz-adv-x="1131" unicode="ʜ" d="M136 1062h180v-442h499v442h180v-1062h-180v471h-499v-471h-180v1062z"/>
<glyph glyph-name="uni029D" horiz-adv-x="814" unicode="ʝ" d="M493 -50h-209q-41 0 -76 -31t-35 -73q0 -57 49 -91q43 -28 101 -28q148 0 170 223zM810 -50h-137q-7 -171 -95 -273q-94 -108 -258 -108q-155 0 -240 79q-80 74 -80 198q0 123 78 192q75 67 199 67h216v957h180v-957h137v-155zM673 1257h-180v209h180v-209z"/>
<glyph glyph-name="uni029E" horiz-adv-x="1024" unicode="ʞ" d="M888 -407h-180v839l-426 -432h-233l406 394l-447 668h222l351 -543l127 122v421h180v-1469z"/>
<glyph glyph-name="uni029F" horiz-adv-x="827" unicode="ʟ" d="M747 0h-611v1062h180v-913h431v-149z"/>
<glyph glyph-name="uni02A0" d="M830 518q0 165 -63 281q-78 145 -230 145q-150 0 -223 -138q-57 -108 -57 -272q0 -162 63 -273q78 -137 229 -137q145 0 220 131q61 106 61 263zM1275 1473l-27 -157q-56 10 -106 10q-87 0 -120 -41q-30 -36 -30 -126v-1566h-180v520q-98 -137 -278 -137q-219 0 -347 179 q-115 159 -115 386q0 345 217 480q105 65 231 65q186 0 292 -136v225q0 161 69.5 238.5t225.5 77.5q76 0 168 -18z" unicode="ʠ"/>
<glyph glyph-name="uni02A1" horiz-adv-x="1024" unicode="ʡ" d="M944 933q0 -207 -94 -357q-109 -174 -304 -187v-109h329v-132h-329v-148h-180v148h-330v132h330v264q44 -14 97 -14q296 0 296 408q0 406 -306 406q-192 0 -242 -215l-175 27q65 336 424 336q144 0 254 -64q117 -68 173 -194q57 -129 57 -301z"/>
<glyph glyph-name="uni02A2" horiz-adv-x="1024" unicode="ʢ" d="M988 148h-330v-148h-180v148h-329v132h329v109q-195 13 -304 187q-94 150 -94 357q0 367 231 495q116 64 253 64q359 0 424 -336l-175 -27q-50 215 -242 215q-306 0 -306 -406q0 -408 296 -408q53 0 97 14v-264h330v-132z"/>
<glyph glyph-name="uni02A3" horiz-adv-x="1975" unicode="ʣ" d="M827 515q0 171 -59 281q-76 141 -232 141q-151 0 -224 -136q-57 -106 -57 -271q0 -160 63 -271q77 -135 226 -135q148 0 222 128q61 105 61 263zM1667 922q-149 -6 -203 -6h-473v-770zM1931 0h-1107v134q-101 -158 -297 -158q-131 0 -238 73q-103 71 -160 193 q-59 127 -59 288q0 349 212 487q106 69 237 69q187 0 293 -146v526h179v-404h908v-119l-686 -797q161 9 227 9h491v-155z"/>
<glyph glyph-name="uni02A4" horiz-adv-x="1856" unicode="ʤ" d="M827 515q0 171 -59 281q-76 141 -232 141q-151 0 -224 -136q-57 -106 -57 -271q0 -160 63 -271q77 -135 226 -135q148 0 222 128q61 105 61 263zM1788 97q0 -222 -145 -375t-368 -153q-172 0 -300 79q-134 82 -151 212h175q16 -53 81 -93q80 -50 197 -50q144 0 235 113 q85 104 85 251q0 159 -97 248q-92 84 -246 84h-93v159l336 350q-149 -6 -203 -6h-303v-916h-167v134q-101 -158 -297 -158q-131 0 -238 73q-103 71 -160 193q-59 127 -59 288q0 349 212 487q106 69 237 69q187 0 293 -146v526h179v-404h738v-119l-369 -375q181 -13 300 -134 q128 -131 128 -337z"/>
<glyph glyph-name="uni02A5" horiz-adv-x="2059" unicode="ʥ" d="M827 515q0 171 -59 281q-76 141 -232 141q-151 0 -224 -136q-57 -106 -57 -271q0 -160 63 -271q77 -135 226 -135q148 0 222 128q61 105 61 263zM1667 922q-149 -6 -203 -6h-473v-770zM1852 237q0 81 -80 81q-83 0 -199 -163h198q81 0 81 82zM2015 237 q0 -110 -66.5 -173.5t-177.5 -63.5h-296q-46 -83 -82 -163l-139 61q17 44 44 102h-474v134q-101 -158 -297 -158q-131 0 -238 73q-103 71 -160 193q-59 127 -59 288q0 349 212 487q106 69 237 69q187 0 293 -146v526h179v-404h908v-119l-686 -797q61 9 127 9h45 q196 320 387 320q112 0 177.5 -63.5t65.5 -174.5z"/>
<glyph glyph-name="uni02A6" horiz-adv-x="1459" unicode="ʦ" d="M1195 293q0 74 -87 114q-27 12 -150 43q-164 41 -214 61q-128 49 -176 127q-40 65 -40 142q0 75 38 142h-219v-607q0 -78 14 -105q21 -42 89 -42h501q244 0 244 125zM1380 312q0 -164 -139 -246q-113 -66 -289 -66h-524q-166 0 -220 90q-40 65 -40 235v597h-132v140h132 v263l179 108v-371h408q79 24 164 24q262 0 359 -133q45 -61 62 -165l-176 -24q-25 174 -232 174q-230 0 -230 -137q0 -75 91 -111q26 -10 159 -46q198 -53 267 -83q161 -69 161 -249z"/>
<glyph glyph-name="uni02A7" horiz-adv-x="879" unicode="ʧ" d="M558 167v755h-211v-621q0 -79 13 -105q21 -42 89 -42q42 0 109 13zM1021 1473l-27 -157q-56 10 -106 10q-87 0 -118.5 -38.5t-31.5 -128.5v-1217q0 -178 -44 -260q-61 -113 -223 -113q-73 0 -141 19l34 153q54 -14 85 -14q77 0 99 77q10 36 10 142v55q-75 -15 -140 -15 q-164 0 -215 90q-35 61 -35 235v611h-132v140h132v263l179 108v-371h211v113q0 162 68 237q71 79 227 79q76 0 168 -18z"/>
<glyph glyph-name="uni02A8" horiz-adv-x="1472" unicode="ʨ" d="M1253 259q0 42 -33.5 71.5t-87.5 29.5q-151 0 -320 -149q80 -87 217 -87q93 0 158.5 37.5t65.5 97.5zM1436 750l-175 -27q-50 215 -242 215q-306 0 -306 -406q0 -121 31 -193q212 174 385 174q127 0 203 -59q84 -66 84 -195q0 -140 -113 -215q-103 -68 -272 -68 q-233 0 -356 137q-156 -127 -267 -127q-148 0 -200 90q-40 68 -40 235v611h-132v140h132v263l179 108v-371h181v-140h-181v-621q0 -77 13 -105q20 -42 79 -42q52 0 155 76q-66 114 -66 297q0 367 231 495q116 64 253 64q359 0 424 -336z"/>
<glyph glyph-name="uni02A9" horiz-adv-x="1564" unicode="ʩ" d="M1427 -58q0 -180 -44 -262q-61 -111 -223 -111q-73 0 -141 19l34 153q53 -14 85 -14q78 0 99 77q10 34 10 142v700q0 136 -43 203q-52 81 -180 81q-280 0 -280 -350v-580h-180v922h-207v-922h-179v922h-159v140h159v113q0 107 19 159q58 157 275 157q76 0 168 -18 l-27 -157q-56 10 -106 10q-87 0 -120 -40q-30 -36 -30 -126v-98h369v-151q117 175 338 175q111 0 200 -46q102 -52 135 -148q28 -81 28 -239v-711z"/>
<glyph glyph-name="uni02AA" horiz-adv-x="1354" unicode="ʪ" d="M1275 312q0 -187 -175 -272q-131 -64 -343 -64q-252 0 -446 112v-88h-180v1466h180v-1189q202 -153 445 -153q127 0 214 31q120 43 120 138q0 61 -53 96q-36 24 -184 61q-164 41 -214 61q-128 49 -176 127q-40 65 -40 142q0 144 121 232q102 74 270 74q262 0 359 -133 q45 -61 62 -165l-176 -24q-25 174 -232 174q-230 0 -230 -137q0 -75 91 -111q26 -10 159 -46q182 -49 209 -59q126 -46 176 -119q43 -62 43 -154z"/>
<glyph glyph-name="uni02AB" horiz-adv-x="1295" unicode="ʫ" d="M987 922q-149 -6 -203 -6h-473v-770zM1251 0h-1120v1466h180v-404h908v-119l-686 -797q161 9 227 9h491v-155z"/>
<glyph glyph-name="uni02AC" horiz-adv-x="994" unicode="ʬ" d="M964 699l-177 -699h-129l-161 509l-160 -509h-128l-179 699h133l123 -531l166 531h97l170 -531l117 531h128zM964 1466l-177 -699h-129l-161 509l-160 -509h-128l-179 699h133l123 -531l166 531h97l170 -531l117 531h128z"/>
<glyph glyph-name="uni02AD" horiz-adv-x="1080" unicode="ʭ" d="M981 0h-180v314h-522v-314h-180v487h882v-487zM981 979h-180v314h-522v-314h-180v487h882v-487z"/>
<glyph glyph-name="uni02AE" horiz-adv-x="1407" unicode="ʮ" d="M1272 -407h-180v529q-126 -146 -318 -146q-249 0 -329 175q-38 83 -38 238v167q0 154 -24 222q-42 122 -169 122q-76 0 -142 -39l-62 167q94 58 195 58q160 0 259 -93q123 -116 123 -358v-246q0 -258 224 -258q80 0 150.5 41.5t100.5 112.5t30 196v581h180v-1469z"/>
<glyph glyph-name="uni02AF" horiz-adv-x="1407" unicode="ʯ" d="M1669 -373q-94 -58 -195 -58q-160 0 -259 93q-123 116 -123 358v102q-126 -146 -318 -146q-249 0 -329 175q-38 83 -38 238v167q0 154 -24 222q-42 122 -169 122q-76 0 -142 -39l-62 167q94 58 195 58q160 0 259 -93q123 -116 123 -358v-246q0 -258 224 -258 q80 0 150.5 41.5t100.5 112.5t30 196v581h180v-963q0 -154 24 -222q42 -122 169 -122q76 0 142 39z"/>
<glyph glyph-name="uni02B0" horiz-adv-x="785" unicode="ʰ" d="M685 474h-122v455q0 175 -151 175q-126 0 -170 -104q-20 -47 -20 -133v-393h-122v992h122v-356q85 99 215 99q169 0 223 -119q25 -55 25 -161v-455z"/>
<glyph glyph-name="uni02B1" horiz-adv-x="785" unicode="ʱ" d="M685 474h-122v454q0 175 -151 175q-126 0 -170 -104q-20 -47 -20 -133v-392h-122v795q0 212 200 212q52 0 113 -12l-18 -106q-39 7 -72 7q-59 0 -80 -25.5t-21 -86.5v-149q85 99 215 99q169 0 223 -119q25 -55 25 -161v-454z"/>
<glyph glyph-name="uni02B2" horiz-adv-x="326" unicode="ʲ" d="M226 434q0 -131 -35 -184q-45 -68 -146 -68q-48 0 -95 13l23 104q39 -10 58 -10q52 0 66 53q7 23 7 95v755h122v-758zM226 1325h-122v140h122v-140z"/>
<glyph glyph-name="uni02B3" horiz-adv-x="491" unicode="ʳ" d="M491 1169l-42 -113q-44 26 -90 26q-89 0 -117 -90q-20 -64 -20 -142v-376h-122v718h110v-109q69 125 155 125q63 0 126 -39z"/>
<glyph glyph-name="uni02B4" horiz-adv-x="491" unicode="ʴ" d="M391 474h-110v109q-69 -125 -155 -125q-63 0 -126 39l42 113q44 -26 90 -26q89 0 117 90q20 64 20 142v376h122v-718z"/>
<glyph glyph-name="uni02B5" horiz-adv-x="491" unicode="ʵ" d="M545 196q-47 -13 -96 -13q-111 0 -151 77q-29 55 -29 177v146q-48 -125 -144 -125q-62 0 -125 39l42 113q44 -26 90 -26q89 0 117 90q20 64 20 142v376h121v-754q0 -98 18.5 -123t55.5 -25q23 0 58 9z"/>
<glyph glyph-name="uni02B6" horiz-adv-x="746" unicode="ʶ" d="M566 688q0 124 -210 124h-135v-237h173q172 0 172 113zM736 1192l-131 -193q-60 -88 -120 -100q92 -12 147 -67q58 -58 58 -148q0 -106 -78 -161q-68 -49 -179 -49h-333v718h121v-280h71q74 0 112 29q24 19 75 94l106 157h151z"/>
<glyph glyph-name="uni02B7" horiz-adv-x="985" unicode="ʷ" d="M985 1192l-224 -718h-127l-142 552l-145 -552h-127l-220 718h126l157 -569l151 569h125l143 -554l165 554h118z"/>
<glyph glyph-name="uni02B8" horiz-adv-x="657" unicode="ʸ" d="M657 1192l-273 -730q-45 -121 -68 -163q-63 -116 -174 -116q-35 0 -79 15l-13 114q41 -11 69 -11q72 0 105 52q12 19 37 90q5 14 11 30l-272 719h131l149 -416q31 -87 52 -166q22 88 50 164l154 418h121z"/>
<glyph glyph-name="uni02B9" horiz-adv-x="391" unicode="ʹ" d="M136 947l-46 274v245h205v-245l-48 -274h-111z"/>
<glyph glyph-name="uni02BA" horiz-adv-x="727" unicode="ʺ" d="M475 947l-49 279v240h205v-240l-48 -279h-108zM144 947l-50 279v240h205v-240l-45 -279h-110z"/>
<glyph glyph-name="uni02BB" horiz-adv-x="455" unicode="ʻ" d="M337 1421q-105 -44 -110 -201h94v-209h-193v165q0 133 32 194q42 80 133 121z"/>
<glyph glyph-name="uni02BC" horiz-adv-x="455" unicode="ʼ" d="M317 1316q0 -134 -31 -193q-43 -81 -134 -122l-44 71q104 42 110 200h-94v209h193v-165z"/>
<glyph glyph-name="uni02BD" horiz-adv-x="455" unicode="ʽ" d="M347 1072l-44 -71q-91 41 -134 122q-31 59 -31 193v165h193v-209h-94q6 -158 110 -200z"/>
<glyph glyph-name="uni02BE" horiz-adv-x="682" unicode="ʾ" d="M431 1338q0 -78 -51.5 -132.5t-128.5 -54.5v75q44 0 74 33t30 78q0 43 -30.5 75t-73.5 32v73q74 0 127 -53t53 -126z"/>
<glyph glyph-name="uni02BF" horiz-adv-x="682" unicode="ʿ" d="M431 1151q-77 0 -128.5 54.5t-51.5 132.5q0 73 53 126t127 53v-73q-43 0 -73.5 -32t-30.5 -75q0 -45 30 -78t74 -33v-75z"/>
<glyph glyph-name="uni02C0" horiz-adv-x="714" unicode="ˀ" d="M664 1104q0 -140 -64 -241q-73 -117 -205 -126v-263h-122v367q30 -9 66 -9q200 0 200 276q0 274 -207 274q-130 0 -164 -145l-118 18q44 227 287 227q211 0 288 -174q39 -88 39 -204z"/>
<glyph glyph-name="uni02C1" horiz-adv-x="714" unicode="ˁ" d="M664 1255l-118 -18q-34 145 -164 145q-207 0 -207 -274q0 -276 200 -276q36 0 66 9v-367h-122v263q-132 9 -205 126q-64 101 -64 241q0 249 156 335q78 43 171 43q243 0 287 -227z"/>
<glyph glyph-name="uni02C2" horiz-adv-x="1196" unicode="˂" d="M112 641v168l971 410v-179l-770 -316l770 -319v-179z"/>
<glyph glyph-name="uni02C3" horiz-adv-x="1196" unicode="˃" d="M1083 641l-971 -415v179l769 319l-769 316v179l971 -410v-168z"/>
<glyph glyph-name="uni02C4" horiz-adv-x="1196" unicode="˄" d="M1094 237h-179l-319 770l-316 -770h-179l410 971h168z"/>
</font>
</defs>
</svg>
