<?xml version="1.0" encoding="UTF-8" standalone="no"?>
<!DOCTYPE svg  PUBLIC '-//W3C//DTD SVG 1.1//EN'  'http://www.w3.org/Graphics/SVG/1.1/DTD/svg11.dtd'>
<svg xmlns="http://www.w3.org/2000/svg">
<defs>
<font id="Arial-BoldMT" horiz-adv-x="1251">
<font-face underline-position="-110" font-weight="700" descent="-410" panose-1="2 11 7 4 2 2 2 2 2 4" units-per-em="2048" unicode-range="U+0020-A78C" bbox="-911.017 -771 2692 2057" x-height="1062" underline-thickness="215" font-family="Arial" ascent="1638" cap-height="1466"/>
<missing-glyph horiz-adv-x="2048"/>
<glyph glyph-name=".notdef" horiz-adv-x="2048"/>
<glyph glyph-name=".null" horiz-adv-x="0"/>
<glyph glyph-name="nonmarkingreturn" horiz-adv-x="2048"/>
<glyph glyph-name="space" horiz-adv-x="569" unicode=" "/>
<glyph glyph-name="space" horiz-adv-x="569" unicode=" "/>
<glyph glyph-name="exclam" horiz-adv-x="682" unicode="!" d="M196 0v281h281v-281h-281zM257 378l-73 744v344h304v-344l-72 -744h-159z"/>
<glyph glyph-name="quotedbl" horiz-adv-x="971" unicode='&quot;' d="M616 945l-53 273v248h306v-248l-46 -273h-207zM165 945l-53 273v248h306v-248l-46 -273h-207z"/>
<glyph glyph-name="numbersign" horiz-adv-x="1139" unicode="#" d="M483 880l-59 -295h222l58 295h-221zM154 365h-136v220h180l60 295h-240v221h285l79 390h224l-79 -390h221l77 390h232l-80 -390h138v-221h-183l-60 -295h243v-220h-288l-79 -390h-223l77 390h-222l-79 -390h-226z"/>
<glyph glyph-name="dollar" horiz-adv-x="1139" unicode="$" d="M634 203q75 14 122 69.5t47 130.5q0 67 -39.5 115.5t-129.5 74.5v-390zM489 1267q-59 -20 -94 -68t-35 -106q0 -53 32 -98.5t97 -73.5v346zM489 217v419q-196 56 -287.5 169.5t-91.5 275.5q0 164 103.5 275.5t275.5 128.5v99h145v-99q159 -19 253 -108.5t120 -239.5 l-253 -33q-23 118 -120 160v-391q240 -65 327 -168.5t87 -265.5q0 -181 -109.5 -305t-304.5 -152v-187h-145v182q-173 21 -281 129t-138 305l261 28q16 -80 60 -138t98 -84z"/>
<glyph glyph-name="percent" horiz-adv-x="1821" unicode="%" d="M1297 330q0 -143 33 -191q25 -37 69 -37q45 0 69 36q33 49 33 192t-32 192q-25 36 -70 36t-69 -36q-33 -49 -33 -192zM1078 329q0 197 86.5 292t236.5 95q151 0 237.5 -95t86.5 -292q0 -198 -86.5 -293t-234.5 -95q-153 0 -239.5 95t-86.5 293zM624 -56h-208l781 1547 h202zM308 1106q0 -143 33 -192q25 -36 69 -36q45 0 70 36q32 49 32 192t-32 191q-25 37 -70 37q-44 0 -69 -36q-33 -49 -33 -192zM89 1104q0 197 86.5 292t234.5 95q153 0 239.5 -94.5t86.5 -292.5q0 -197 -86.5 -292t-234.5 -95q-153 0 -239.5 94.5t-86.5 292.5z"/>
<glyph glyph-name="ampersand" horiz-adv-x="1479" unicode="&amp;" d="M571 671q-97 -49 -145 -118t-48 -141q0 -91 59.5 -148.5t159.5 -57.5q66 0 127 26t133 86zM681 976l76 58q84 65 84 129q0 54 -40.5 92t-109.5 38q-67 0 -105 -33.5t-38 -77.5q0 -52 64 -126zM1446 179l-170 -217q-125 61 -240 168q-89 -80 -189 -118t-238 -38 q-274 0 -412 154q-107 119 -107 274q0 141 84 253.5t251 195.5q-75 89 -113 169.5t-38 152.5q0 133 106.5 225.5t303.5 92.5q190 0 297 -97t107 -237q0 -89 -53 -169t-214 -181l204 -269q36 64 62 167l254 -58q-38 -135 -66 -197.5t-60 -104.5q47 -44 121.5 -96.5 t109.5 -69.5z"/>
<glyph glyph-name="quotesingle" horiz-adv-x="487" unicode="&apos;" d="M145 945l-53 273v248h306v-248l-46 -273h-207z"/>
<glyph glyph-name="parenleft" horiz-adv-x="682" unicode="(" d="M613 -431h-193q-153 231 -233 480t-80 482q0 289 99 547q86 224 218 413h192q-137 -303 -188.5 -515.5t-51.5 -450.5q0 -164 30.5 -336t83.5 -327q35 -102 123 -293z"/>
<glyph glyph-name="parenright" horiz-adv-x="682" unicode=")" d="M69 -431q83 178 117 273t63 219t43 235.5t14 228.5q0 238 -51 450.5t-188 515.5h191q151 -215 234.5 -456t83.5 -489q0 -209 -66 -448q-75 -268 -247 -529h-194z"/>
<glyph glyph-name="asterisk" horiz-adv-x="797" unicode="*" d="M245 792l-151 117q72 81 150 155q31 30 39 38q-25 4 -143 33q-85 21 -112 31l59 176q131 -53 234 -117q-24 163 -24 266h178q0 -73 -27 -268q20 8 86 39q90 41 166 70l53 -181q-111 -25 -257 -49l120 -135q36 -41 57 -67l-153 -101l-135 223q-61 -108 -140 -230z"/>
<glyph glyph-name="plus" horiz-adv-x="1196" unicode="+" d="M469 211v381h-384v263h384v381h256v-381h385v-263h-385v-381h-256z"/>
<glyph glyph-name="comma" horiz-adv-x="569" unicode="," d="M140 281h281v-201q0 -122 -21 -192.5t-79.5 -126.5t-148.5 -88l-55 116q85 28 121 77t38 134h-136v281z"/>
<glyph glyph-name="hyphen" horiz-adv-x="682" unicode="-" d="M115 391v281h552v-281h-552z"/>
<glyph glyph-name="hyphen" horiz-adv-x="682" unicode="­" d="M115 391v281h552v-281h-552z"/>
<glyph glyph-name="period" horiz-adv-x="569" unicode="." d="M147 0v281h281v-281h-281z"/>
<glyph glyph-name="slash" horiz-adv-x="569" unicode="/" d="M-3 -25l363 1516h211l-367 -1516h-207z"/>
<glyph glyph-name="zero" horiz-adv-x="1139" unicode="0" d="M562 1239q-51 0 -91 -32.5t-62 -116.5q-29 -109 -29 -367t26 -354.5t65.5 -128.5t90.5 -32t91 32.5t62 116.5q29 108 29 366t-26 354.5t-65.5 129t-90.5 32.5zM562 1472q213 0 333 -152q143 -180 143 -597q0 -416 -144 -598q-119 -150 -332 -150q-214 0 -345 164.5 t-131 586.5q0 414 144 596q119 150 332 150z"/>
<glyph glyph-name="one" horiz-adv-x="1139" unicode="1" d="M806 0h-281v1059q-154 -144 -363 -213v255q110 36 239 136.5t177 234.5h228v-1472z"/>
<glyph glyph-name="two" horiz-adv-x="1139" unicode="2" d="M1036 261v-261h-985q16 148 96 280.5t316 351.5q190 177 233 240q58 87 58 172q0 94 -50.5 144.5t-139.5 50.5q-88 0 -140 -53t-60 -176l-280 28q25 232 157 333t330 101q217 0 341 -117t124 -291q0 -99 -35.5 -188.5t-112.5 -187.5q-51 -65 -184 -187t-168.5 -162 t-57.5 -78h558z"/>
<glyph glyph-name="three" horiz-adv-x="1139" unicode="3" d="M77 389l272 33q13 -104 70 -159t138 -55q87 0 146.5 66t59.5 178q0 106 -57 168t-139 62q-54 0 -129 -21l31 229h12q105 0 163.5 51t58.5 138q0 74 -44 118t-117 44q-72 0 -123 -50t-62 -146l-259 44q27 133 81.5 212.5t152 125t218.5 45.5q207 0 332 -132 q103 -108 103 -244q0 -193 -211 -308q126 -27 201.5 -121t75.5 -227q0 -193 -141 -329t-351 -136q-199 0 -330 114.5t-152 299.5z"/>
<glyph glyph-name="four" horiz-adv-x="1139" unicode="4" d="M638 542v501l-337 -501h337zM638 0v295h-600v246l636 931h236v-930h182v-247h-182v-295h-272z"/>
<glyph glyph-name="five" horiz-adv-x="1139" unicode="5" d="M91 377l280 29q12 -95 71 -150.5t136 -55.5q88 0 149 71.5t61 215.5q0 135 -60.5 202.5t-157.5 67.5q-121 0 -217 -107l-228 33l144 763h743v-263h-530l-44 -249q94 47 192 47q187 0 317 -136t130 -353q0 -181 -105 -323q-143 -194 -397 -194q-203 0 -331 109t-153 293z "/>
<glyph glyph-name="six" horiz-adv-x="1139" unicode="6" d="M402 494q0 -137 63 -211.5t144 -74.5q78 0 130 61t52 200q0 143 -56 209.5t-140 66.5q-81 0 -137 -63.5t-56 -187.5zM1039 1107l-272 -30q-10 84 -52 124t-109 40q-89 0 -150.5 -80t-77.5 -333q105 124 261 124q176 0 301.5 -134t125.5 -346q0 -225 -132 -361t-339 -136 q-222 0 -365 172.5t-143 565.5q0 403 149 581t387 178q167 0 276.5 -93.5t139.5 -271.5z"/>
<glyph glyph-name="seven" horiz-adv-x="1139" unicode="7" d="M87 1185v261h961v-204q-119 -117 -242 -336t-187 -463.5t-64 -436.5v-6h-271q7 304 125.5 620t316.5 565h-639z"/>
<glyph glyph-name="eight" horiz-adv-x="1139" unicode="8" d="M360 446q0 -116 59.5 -181t148.5 -65q87 0 144 62.5t57 180.5q0 103 -58 165.5t-147 62.5q-103 0 -153.5 -71t-50.5 -154zM386 1074q0 -84 47.5 -131t126.5 -47q80 0 128 47.5t48 131.5q0 79 -47.5 126.5t-125.5 47.5q-81 0 -129 -48t-48 -127zM328 791 q-109 46 -158.5 126.5t-49.5 176.5q0 164 114.5 271t325.5 107q209 0 324.5 -107t115.5 -271q0 -102 -53 -181.5t-149 -121.5q122 -49 185.5 -143t63.5 -217q0 -203 -129.5 -330t-344.5 -127q-200 0 -333 105q-157 124 -157 340q0 119 59 218.5t186 153.5z"/>
<glyph glyph-name="nine" horiz-adv-x="1139" unicode="9" d="M729 953q0 136 -62.5 211t-144.5 75q-78 0 -129.5 -61.5t-51.5 -201.5q0 -142 56 -208.5t140 -66.5q81 0 136.5 64t55.5 188zM93 339l272 30q10 -83 52 -123t111 -40q87 0 148 80t78 332q-106 -123 -265 -123q-173 0 -298.5 133.5t-125.5 347.5q0 223 132.5 359.5 t337.5 136.5q223 0 366 -172.5t143 -567.5q0 -402 -149 -580t-388 -178q-172 0 -278 91.5t-136 273.5z"/>
<glyph glyph-name="colon" horiz-adv-x="682" unicode=":" d="M201 0v281h281v-281h-281zM201 781v281h281v-281h-281z"/>
<glyph glyph-name="less" horiz-adv-x="1196" unicode="&lt;" d="M1100 167l-1005 437v242l1005 435v-285l-701 -268l701 -278v-283z"/>
<glyph glyph-name="equal" horiz-adv-x="1196" unicode="=" d="M85 372v259h1025v-259h-1025zM85 816v258h1025v-258h-1025z"/>
<glyph glyph-name="greater" horiz-adv-x="1196" unicode="&gt;" d="M95 166v283l702 276l-702 273v281l1006 -435v-240z"/>
<glyph glyph-name="question" d="M496 0v281h281v-281h-281zM751 378h-255q-1 55 -1 67q0 124 41 204t164 180t147 131q37 49 37 108q0 82 -65.5 140.5t-176.5 58.5q-107 0 -179 -61t-99 -186l-258 32q11 179 152.5 304t371.5 125q242 0 385 -126.5t143 -294.5q0 -93 -52.5 -176t-224.5 -226 q-89 -74 -109.5 -117t-20.5 -144v-19z" unicode="?"/>
<glyph glyph-name="at" horiz-adv-x="1997" unicode="@" d="M696 430q0 -127 51.5 -187t127.5 -60q57 0 107 28q38 20 75 63q53 61 91.5 178t38.5 218q0 113 -52.5 173.5t-132.5 60.5q-86 0 -159 -66.5t-110 -189.5t-37 -218zM1777 19h213q-100 -203 -307 -318q-237 -132 -578 -132q-330 0 -570 111.5t-357 329t-117 473.5 q0 281 133 523.5t364 364t528 121.5q252 0 448 -98t299.5 -278.5t103.5 -394.5q0 -255 -157 -461q-197 -260 -505 -260q-83 0 -125 29t-56 85q-118 -114 -272 -114q-166 0 -275.5 114.5t-109.5 304.5q0 235 132 429q160 236 410 236q178 0 263 -136l25 111h264l-151 -717 q-14 -68 -14 -88q0 -25 11.5 -37.5t27.5 -12.5q48 0 124 58q102 76 165 204t63 265q0 246 -178 411.5t-497 165.5q-271 0 -459.5 -110.5t-284 -311t-95.5 -417.5q0 -211 106.5 -384t299 -252.5t440.5 -79.5q239 0 411 66.5t277 199.5z"/>
<glyph glyph-name="A" horiz-adv-x="1479" unicode="A" d="M926 580l-202 544l-198 -544h400zM1471 0h-322l-128 333h-586l-121 -333h-314l571 1466h313z"/>
<glyph glyph-name="B" horiz-adv-x="1479" unicode="B" d="M446 639v-392h274q160 0 203 9q66 12 107.5 58.5t41.5 124.5q0 66 -32 112t-92.5 67t-262.5 21h-239zM446 1222v-339h194q173 0 215 5q76 9 119.5 52.5t43.5 114.5q0 68 -37.5 110.5t-111.5 51.5q-44 5 -253 5h-170zM150 1466h586q174 0 259.5 -14.5t153 -60.5 t112.5 -122.5t45 -171.5q0 -103 -55.5 -189t-150.5 -129q134 -39 206 -133t72 -221q0 -100 -46.5 -194.5t-127 -151t-198.5 -69.5q-74 -8 -357 -10h-499v1466z"/>
<glyph glyph-name="C" horiz-adv-x="1479" unicode="C" d="M1087 539l287 -91q-66 -240 -219.5 -356.5t-389.5 -116.5q-292 0 -480 199.5t-188 545.5q0 366 189 568.5t497 202.5q269 0 437 -159q100 -94 150 -270l-293 -70q-26 114 -108.5 180t-200.5 66q-163 0 -264.5 -117t-101.5 -379q0 -278 100 -396t260 -118q118 0 203 75 t122 236z"/>
<glyph glyph-name="D" horiz-adv-x="1479" unicode="D" d="M444 1218v-971h221q124 0 179 14q72 18 119.5 61t77.5 141.5t30 268.5t-30 261t-84 142t-137 69q-62 14 -243 14h-133zM148 1466h541q183 0 279 -28q129 -38 221 -135t140 -237.5t48 -346.5q0 -181 -45 -312q-55 -160 -157 -259q-77 -75 -208 -117q-98 -31 -262 -31h-557 v1466z"/>
<glyph glyph-name="E" horiz-adv-x="1366" unicode="E" d="M149 0v1466h1087v-248h-791v-325h736v-247h-736v-399h819v-247h-1115z"/>
<glyph glyph-name="F" d="M151 0v1466h1005v-248h-709v-347h612v-248h-612v-623h-296z" unicode="F"/>
<glyph glyph-name="G" horiz-adv-x="1593" unicode="G" d="M831 539v247h638v-584q-93 -90 -269.5 -158.5t-357.5 -68.5q-230 0 -401 96.5t-257 276t-86 390.5q0 229 96 407t281 273q141 73 351 73q273 0 426.5 -114.5t197.5 -316.5l-294 -55q-31 108 -116.5 170.5t-213.5 62.5q-194 0 -308.5 -123t-114.5 -365q0 -261 116 -391.5 t304 -130.5q93 0 186.5 36.5t160.5 88.5v186h-339z"/>
<glyph glyph-name="H" horiz-adv-x="1479" unicode="H" d="M150 0v1466h296v-577h580v577h296v-1466h-296v641h-580v-641h-296z"/>
<glyph glyph-name="I" horiz-adv-x="569" unicode="I" d="M140 0v1466h296v-1466h-296z"/>
<glyph glyph-name="J" horiz-adv-x="1139" unicode="J" d="M678 1466h295v-928q0 -182 -32 -280q-43 -128 -156 -205.5t-298 -77.5q-217 0 -334 121.5t-118 356.5l279 32q5 -126 37 -178q48 -79 146 -79q99 0 140 56.5t41 234.5v947z"/>
<glyph glyph-name="K" horiz-adv-x="1479" unicode="K" d="M153 0v1466h296v-651l598 651h398l-552 -571l582 -895h-383l-403 688l-240 -245v-443h-296z"/>
<glyph glyph-name="L" d="M157 0v1454h296v-1207h736v-247h-1032z" unicode="L"/>
<glyph glyph-name="M" horiz-adv-x="1706" unicode="M" d="M145 0v1466h443l266 -1000l263 1000h444v-1466h-275v1154l-291 -1154h-285l-290 1154v-1154h-275z"/>
<glyph glyph-name="N" horiz-adv-x="1479" unicode="N" d="M152 0v1466h288l600 -979v979h275v-1466h-297l-591 956v-956h-275z"/>
<glyph glyph-name="O" horiz-adv-x="1593" unicode="O" d="M394 734q0 -249 115 -377.5t292 -128.5t290.5 127.5t113.5 382.5q0 252 -110.5 376t-293.5 124t-295 -125.5t-112 -378.5zM89 724q0 224 67 376q50 112 136.5 201t189.5 132q137 58 316 58q324 0 518.5 -201t194.5 -559q0 -355 -193 -555.5t-516 -200.5 q-327 0 -520 199.5t-193 549.5z"/>
<glyph glyph-name="P" horiz-adv-x="1366" unicode="P" d="M445 1218v-416h162q175 0 234 23t92.5 72t33.5 114q0 80 -47 132t-119 65q-53 10 -213 10h-143zM149 0v1466h475q270 0 352 -22q126 -33 211 -143.5t85 -285.5q0 -135 -49 -227t-124.5 -144.5t-153.5 -69.5q-106 -21 -307 -21h-193v-553h-296z"/>
<glyph glyph-name="Q" horiz-adv-x="1593" unicode="Q" d="M1091 353q57 67 85.5 162t28.5 218q0 254 -112 379.5t-293 125.5t-293.5 -126t-112.5 -379q0 -257 112.5 -384.5t284.5 -127.5q64 0 121 21q-90 59 -183 92l83 169q146 -50 279 -150zM1329 186q109 -78 237 -124l-109 -209q-67 20 -131 55q-14 7 -197 130 q-144 -63 -319 -63q-338 0 -529.5 199t-191.5 559q0 359 192 558.5t521 199.5q326 0 517 -199.5t191 -558.5q0 -190 -53 -334q-40 -110 -128 -213z"/>
<glyph glyph-name="R" horiz-adv-x="1479" unicode="R" d="M446 846h219q213 0 266 18t83 62t30 110q0 74 -39.5 119.5t-111.5 57.5q-36 5 -216 5h-231v-372zM150 0v1466h623q235 0 341.5 -39.5t170.5 -140.5t64 -231q0 -165 -97 -272.5t-290 -135.5q96 -56 158.5 -123t168.5 -238l179 -286h-354l-214 319q-114 171 -156 215.5 t-89 61t-149 16.5h-60v-612h-296z"/>
<glyph glyph-name="S" horiz-adv-x="1366" unicode="S" d="M74 477l288 28q26 -145 105.5 -213t214.5 -68q143 0 215.5 60.5t72.5 141.5q0 52 -30.5 88.5t-106.5 63.5q-52 18 -237 64q-238 59 -334 145q-135 121 -135 295q0 112 63.5 209.5t183 148.5t288.5 51q276 0 415.5 -121t146.5 -323l-296 -13q-19 113 -81.5 162.5 t-187.5 49.5q-129 0 -202 -53q-47 -34 -47 -91q0 -52 44 -89q56 -47 272 -98t319.5 -105.5t162 -149t58.5 -233.5q0 -126 -70 -236t-198 -163.5t-319 -53.5q-278 0 -427 128.5t-178 374.5z"/>
<glyph glyph-name="T" d="M479 0v1218h-435v248h1165v-248h-434v-1218h-296z" unicode="T"/>
<glyph glyph-name="U" horiz-adv-x="1479" unicode="U" d="M147 1466h296v-794q0 -189 11 -245q19 -90 90.5 -144.5t195.5 -54.5q126 0 190 51.5t77 126.5t13 249v811h296v-770q0 -264 -24 -373t-88.5 -184t-172.5 -119.5t-282 -44.5q-210 0 -318.5 48.5t-171.5 126t-83 162.5q-29 126 -29 372v782z"/>
<glyph glyph-name="V" horiz-adv-x="1366" unicode="V" d="M523 0l-524 1466h321l371 -1085l359 1085h314l-525 -1466h-316z"/>
<glyph glyph-name="W" horiz-adv-x="1933" unicode="W" d="M357 0l-350 1466h303l221 -1007l268 1007h352l257 -1024l225 1024h298l-356 -1466h-314l-292 1096l-291 -1096h-321z"/>
<glyph glyph-name="X" horiz-adv-x="1366" unicode="X" d="M0 0l501 765l-454 701h346l294 -471l288 471h343l-456 -712l501 -754h-357l-325 507l-326 -507h-355z"/>
<glyph glyph-name="Y" horiz-adv-x="1366" unicode="Y" d="M534 0v617l-537 849h347l345 -580l338 580h341l-539 -851v-615h-295z"/>
<glyph glyph-name="Z" d="M22 0v267l770 951h-683v248h1073v-230l-803 -989h834v-247h-1191z" unicode="Z"/>
<glyph glyph-name="bracketleft" horiz-adv-x="682" unicode="[" d="M146 -413v1879h498v-221h-231v-1437h231v-221h-498z"/>
<glyph glyph-name="backslash" horiz-adv-x="569" unicode="\" d="M-3 1491h207l367 -1516h-211z"/>
<glyph glyph-name="bracketright" horiz-adv-x="682" unicode="]" d="M536 1466v-1879h-498v221h231v1439h-231v219h498z"/>
<glyph glyph-name="asciicircum" horiz-adv-x="1196" unicode="^" d="M115 692l376 799h223l366 -799h-284l-198 489l-197 -489h-286z"/>
<glyph glyph-name="underscore" horiz-adv-x="1139" unicode="_" d="M-19 -405v182h1168v-182h-1168z"/>
<glyph glyph-name="grave" horiz-adv-x="682" unicode="`" d="M495 1192h-177l-276 299h315z"/>
<glyph glyph-name="a" horiz-adv-x="1139" unicode="a" d="M733 510q-54 -18 -171 -43t-153 -49q-55 -39 -55 -99q0 -59 44 -102t112 -43q76 0 145 50q51 38 67 93q11 36 11 137v56zM357 738l-255 46q43 154 148 228t312 74q188 0 280 -44.5t129.5 -113t37.5 -251.5l-3 -328q0 -140 13.5 -206.5t50.5 -142.5h-278q-11 28 -27 83 q-7 25 -10 33q-72 -70 -154 -105t-175 -35q-164 0 -258.5 89t-94.5 225q0 90 43 160.5t120.5 108t223.5 65.5q197 37 273 69v28q0 81 -40 115.5t-151 34.5q-75 0 -117 -29.5t-68 -103.5z"/>
<glyph glyph-name="b" d="M414 554q0 -165 52 -244q73 -112 194 -112q93 0 158.5 79.5t65.5 250.5q0 182 -66 262.5t-169 80.5q-101 0 -168 -78.5t-67 -238.5zM135 0v1466h281v-528q130 148 308 148q194 0 321 -140.5t127 -403.5q0 -272 -129.5 -419t-314.5 -147q-91 0 -179.5 45.5t-152.5 134.5 v-156h-261z" unicode="b"/>
<glyph glyph-name="c" horiz-adv-x="1139" unicode="c" d="M1073 748l-277 -50q-14 83 -63.5 125t-128.5 42q-105 0 -167.5 -72.5t-62.5 -242.5q0 -189 63.5 -267t170.5 -78q80 0 131 45.5t72 156.5l276 -47q-43 -190 -165 -287t-327 -97q-233 0 -371.5 147t-138.5 407q0 263 139 409.5t376 146.5q194 0 308.5 -83.5t164.5 -254.5z "/>
<glyph glyph-name="d" d="M371 554q0 -170 47 -246q68 -110 190 -110q97 0 165 82.5t68 246.5q0 183 -66 263.5t-169 80.5q-100 0 -167.5 -79.5t-67.5 -237.5zM1121 0h-261v156q-65 -91 -153.5 -135.5t-178.5 -44.5q-183 0 -313.5 147.5t-130.5 411.5q0 270 127 410.5t321 140.5q178 0 308 -148 v528h281v-1466z" unicode="d"/>
<glyph glyph-name="e" horiz-adv-x="1139" unicode="e" d="M778 622q-3 122 -63 185.5t-146 63.5q-92 0 -152 -67t-59 -182h420zM762 338l280 -47q-54 -154 -170.5 -234.5t-291.5 -80.5q-277 0 -410 181q-105 145 -105 366q0 264 138 413.5t349 149.5q237 0 374 -156q131 -150 131 -453v-27h-704q3 -125 68 -194.5t162 -69.5 q66 0 111 36t68 116z"/>
<glyph glyph-name="f" horiz-adv-x="682" unicode="f" d="M24 1062h156v80q0 134 28.5 200t105 107.5t193.5 41.5q120 0 235 -36l-38 -196q-67 16 -129 16q-61 0 -87.5 -28.5t-26.5 -109.5v-75h210v-221h-210v-841h-281v841h-156v221z"/>
<glyph glyph-name="g" d="M372 553q0 -169 65.5 -247.5t161.5 -78.5q103 0 174 80.5t71 238.5q0 165 -68 245t-172 80q-101 0 -166.5 -78.5t-65.5 -239.5zM121 -70l321 -39q8 -56 37 -77q40 -30 126 -30q110 0 165 33q37 22 56 71q13 35 13 129v155q-126 -172 -318 -172q-214 0 -339 181 q-98 143 -98 356q0 267 128.5 408t319.5 141q197 0 325 -173v149h263v-953q0 -188 -31 -281t-87 -146t-149.5 -83t-236.5 -30q-270 0 -383 92.5t-113 234.5q0 14 1 34z" unicode="g"/>
<glyph glyph-name="h" d="M427 1466v-539q136 159 325 159q97 0 175 -36t117.5 -92t54 -124t14.5 -211v-623h-281v561q0 167 -16 212t-56.5 71.5t-101.5 26.5q-70 0 -125 -34t-80.5 -102.5t-25.5 -202.5v-532h-281v1466h281z" unicode="h"/>
<glyph glyph-name="i" horiz-adv-x="569" unicode="i" d="M147 0v1062h281v-1062h-281zM147 1206v260h281v-260h-281z"/>
<glyph glyph-name="j" horiz-adv-x="569" unicode="j" d="M422 1062v-1029q0 -203 -26.5 -286.5t-102 -130.5t-192.5 -47q-42 0 -90.5 7.5t-104.5 22.5l49 240q20 -4 37.5 -6.5t32.5 -2.5q43 0 70.5 18.5t36.5 44.5t9 156v1013h281zM141 1206v260h281v-260h-281z"/>
<glyph glyph-name="k" horiz-adv-x="1139" unicode="k" d="M137 0v1466h281v-778l329 374h346l-363 -388l389 -674h-303l-267 477l-131 -137v-340h-281z"/>
<glyph glyph-name="l" horiz-adv-x="569" unicode="l" d="M147 0v1466h281v-1466h-281z"/>
<glyph glyph-name="m" horiz-adv-x="1821" unicode="m" d="M126 1062h259v-145q139 169 331 169q102 0 177 -42t123 -127q70 85 151 127t173 42q117 0 198 -47.5t121 -139.5q29 -68 29 -220v-679h-281v607q0 158 -29 204q-39 60 -120 60q-59 0 -111 -36t-75 -105.5t-23 -219.5v-510h-281v582q0 155 -15 200t-46.5 67t-85.5 22 q-65 0 -117 -35t-74.5 -101t-22.5 -219v-516h-281v1062z"/>
<glyph glyph-name="n" d="M1113 0h-281v542q0 172 -18 222.5t-58.5 78.5t-97.5 28q-73 0 -131 -40t-79.5 -106t-21.5 -244v-481h-281v1062h261v-156q139 180 350 180q93 0 170 -33.5t116.5 -85.5t55 -118t15.5 -189v-660z" unicode="n"/>
<glyph glyph-name="o" d="M370 531q0 -158 75 -242t185 -84t184.5 84t74.5 244q0 156 -74.5 240t-184.5 84t-185 -84t-75 -242zM82 546q0 140 69 271t195.5 200t282.5 69q241 0 395 -156.5t154 -395.5q0 -241 -155.5 -399.5t-391.5 -158.5q-146 0 -278.5 66t-201.5 193.5t-69 310.5z" unicode="o"/>
<glyph glyph-name="p" d="M417 549q0 -179 71 -264.5t173 -85.5q98 0 163 78.5t65 257.5q0 167 -67 248t-166 81q-103 0 -171 -79.5t-68 -235.5zM139 1062h262v-156q51 80 138 130t193 50q185 0 314 -145t129 -404q0 -266 -130 -413.5t-315 -147.5q-88 0 -159.5 35t-150.5 120v-535h-281v1466z" unicode="p"/>
<glyph glyph-name="q" d="M850 544q0 163 -66.5 242.5t-166.5 79.5q-102 0 -170.5 -81t-68.5 -257q0 -175 66 -252.5t163 -77.5t170 87t73 259zM841 -404v534q-55 -71 -137 -112.5t-177 -41.5q-181 0 -298 136q-138 159 -138 431q0 256 129.5 399.5t321.5 143.5q106 0 183.5 -45t137.5 -136v157 h259v-1466h-281z" unicode="q"/>
<glyph glyph-name="r" horiz-adv-x="797" unicode="r" d="M416 0h-281v1062h261v-151q67 107 120.5 141t121.5 34q96 0 185 -53l-87 -245q-71 46 -132 46q-59 0 -100 -32.5t-64.5 -117.5t-23.5 -356v-328z"/>
<glyph glyph-name="s" horiz-adv-x="1139" unicode="s" d="M48 303l282 43q18 -82 73 -124.5t154 -42.5q109 0 164 40q37 28 37 75q0 32 -20 53q-21 20 -94 37q-340 75 -431 137q-126 86 -126 239q0 138 109 232t338 94q218 0 324 -71t146 -210l-265 -49q-17 62 -64.5 95t-135.5 33q-111 0 -159 -31q-32 -22 -32 -57q0 -30 28 -51 q38 -28 262.5 -79t313.5 -125q88 -75 88 -209q0 -146 -122 -251t-361 -105q-217 0 -343.5 88t-165.5 239z"/>
<glyph glyph-name="t" horiz-adv-x="682" unicode="t" d="M634 1062v-224h-192v-428q0 -130 5.5 -151.5t25 -35.5t47.5 -14q39 0 113 27l24 -218q-98 -42 -222 -42q-76 0 -137 25.5t-89.5 66t-39.5 109.5q-9 49 -9 198v463h-129v224h129v211l282 164v-375h192z"/>
<glyph glyph-name="u" d="M846 0v159q-58 -85 -152.5 -134t-199.5 -49q-107 0 -192 47t-123 132t-38 235v672h281v-488q0 -224 15.5 -274.5t56.5 -80t104 -29.5q72 0 129 39.5t78 98t21 286.5v448h281v-1062h-261z" unicode="u"/>
<glyph glyph-name="v" horiz-adv-x="1139" unicode="v" d="M439 0l-428 1062h295l200 -542l58 -181q23 69 29 91q14 45 30 90l202 542h289l-422 -1062h-253z"/>
<glyph glyph-name="w" horiz-adv-x="1593" unicode="w" d="M345 0l-336 1062h273l199 -696l183 696h271l177 -696l203 696h277l-341 -1062h-270l-183 683l-180 -683h-273z"/>
<glyph glyph-name="x" horiz-adv-x="1139" unicode="x" d="M12 0l383 547l-367 515h343l188 -292l198 292h330l-360 -503l393 -559h-345l-216 329l-218 -329h-329z"/>
<glyph glyph-name="y" horiz-adv-x="1139" unicode="y" d="M14 1062h299l254 -754l248 754h291l-375 -1022l-67 -185q-37 -93 -70.5 -142t-77 -79.5t-107 -47.5t-143.5 -17q-81 0 -159 17l-25 220q66 -13 119 -13q98 0 145 57.5t72 146.5z"/>
<glyph glyph-name="z" horiz-adv-x="1024" unicode="z" d="M34 0v219l398 457q98 112 145 159q-49 -3 -129 -4l-375 -2v233h878v-199l-406 -468l-143 -155q117 7 145 7h435v-247h-948z"/>
<glyph glyph-name="braceleft" horiz-adv-x="797" unicode="{" d="M60 410v240q73 4 110 22t64 60.5t37 106.5q8 48 8 167q0 194 18 270.5t65 123t137 73.5q61 18 192 18h53v-239q-111 0 -142.5 -12.5t-46.5 -38t-15 -87.5q0 -63 -9 -239q-5 -99 -26 -160.5t-53.5 -101.5t-99.5 -83q59 -34 96.5 -79.5t57.5 -110.5t26 -174q7 -166 7 -212 q0 -66 16 -92t48.5 -39.5t140.5 -13.5v-240h-53q-135 0 -207 21.5t-121.5 71.5t-66.5 123.5t-17 231.5q0 184 -16 239q-22 80 -66.5 114.5t-136.5 39.5z"/>
<glyph glyph-name="bar" horiz-adv-x="573" unicode="|" d="M176 -431v1922h223v-1922h-223z"/>
<glyph glyph-name="braceright" horiz-adv-x="797" unicode="}" d="M729 410q-73 -4 -110 -22t-63.5 -60.5t-37.5 -106.5q-8 -48 -8 -166q0 -194 -17.5 -271t-64.5 -123.5t-138 -73.5q-61 -18 -192 -18h-53v240q107 0 140 13.5t48.5 39t16 86.5t8.5 233q5 104 27 166.5t58.5 106t93.5 76.5q-74 48 -108 94q-47 66 -64 168q-11 70 -16 308 q-1 75 -13.5 100t-45 38.5t-145.5 13.5v239h53q135 0 207 -21t121 -71.5t66.5 -124t17.5 -231.5q0 -183 15 -239q22 -80 67 -114.5t137 -39.5v-240z"/>
<glyph glyph-name="asciitilde" horiz-adv-x="1196" unicode="~" d="M67 519v259q127 138 296 138q63 0 116 -12.5t190.5 -68t186.5 -55.5q56 0 129.5 34.5t143.5 109.5v-270q-46 -48 -128.5 -90t-170.5 -42q-50 0 -97.5 12t-150.5 57q-154 67 -242 67q-140 0 -273 -139z"/>
<glyph glyph-name="exclamdown" horiz-adv-x="682" unicode="¡" d="M426 678l73 -741v-344h-304v344l73 741h158zM488 1062v-281h-282v281h282z"/>
<glyph glyph-name="cent" horiz-adv-x="1139" unicode="¢" d="M627 864q-13 1 -24 1q-106 0 -168.5 -73t-62.5 -243q0 -194 76 -280zM744 811l-182 -602q22 -4 45 -4q79 0 130.5 45.5t72.5 156.5l276 -47q-43 -190 -165 -287t-326 -97q-50 0 -101 7l-117 -386l-122 34l116 385q-138 60 -212.5 196.5t-74.5 322.5q0 259 139 405 t375 146q45 0 94 -6l113 376l123 -35l-112 -371q189 -72 256 -302l-277 -50q-12 72 -51 113z"/>
<glyph glyph-name="sterling" horiz-adv-x="1139" unicode="£" d="M999 285l108 -238q-57 -31 -131.5 -50.5t-144.5 -19.5q-90 0 -240 42.5t-222 42.5q-122 0 -249 -87l-107 242q113 81 162.5 172.5t49.5 174.5q0 27 -4 57h-208v221h157q-41 118 -41 239q0 109 59.5 208t168.5 150.5t238 51.5q197 0 314 -99.5t143 -285.5l-271 -40 q-19 107 -69 154t-125 47q-80 0 -133 -53.5t-53 -134.5q0 -42 14.5 -111t35.5 -126h312v-221h-266q3 -22 3 -44q0 -79 -30 -146t-123 -176q55 28 138 28q35 0 63 -4q14 -2 82 -19q121 -31 165 -31q78 0 204 56z"/>
<glyph glyph-name="currency" horiz-adv-x="1139" unicode="¤" d="M364 728q0 -84 59.5 -143t142.5 -59q84 0 143 59t59 143t-59 143t-143 59t-143 -59t-59 -143zM177 941l-132 131l166 178l136 -136q53 29 107.5 43t110.5 14q57 0 112 -14t107 -43l134 134l167 -169l-132 -133q28 -51 42 -105.5t14 -112.5q0 -57 -14 -111.5t-42 -106.5 l134 -133l-167 -171l-136 136q-50 -28 -104.5 -42.5t-113.5 -14.5q-56 0 -110 14t-106 42l-130 -131l-170 168l130 132q-28 52 -42.5 106.5t-14.5 111.5t13.5 110.5t40.5 102.5z"/>
<glyph glyph-name="yen" horiz-adv-x="1139" unicode="¥" d="M422 273h-371v221h371v120h-371v221h261l-311 631h308l200 -426q38 -80 54 -141q19 66 54 141l204 426h308l-315 -631h265v-221h-376v-120h376v-221h-376v-273h-281v273z"/>
<glyph glyph-name="brokenbar" horiz-adv-x="573" unicode="¦" d="M176 -431v791h223v-791h-223zM176 701v790h223v-790h-223z"/>
<glyph glyph-name="section" horiz-adv-x="1139" unicode="§" d="M735 293q44 40 65.5 76.5t21.5 70.5q0 33 -23 68t-126 110l-273 198q-34 -20 -60 -57t-26 -79q0 -101 135 -192zM986 1154l-275 -29q-4 74 -43.5 113t-109.5 39q-65 0 -99 -28.5t-34 -64.5q0 -49 46 -94q31 -30 205 -142t230 -160q87 -73 124.5 -144.5t37.5 -158.5 q0 -93 -45.5 -171.5t-136.5 -142.5q61 -56 91 -119.5t30 -134.5q0 -148 -111 -248t-319 -100q-200 0 -320 99t-142 264l274 33q18 -90 68.5 -135.5t127.5 -45.5q66 0 105 34.5t39 83.5q0 47 -37 84q-38 37 -266.5 182.5t-297.5 241.5t-69 215q0 98 45 182t140 138 q-50 54 -75.5 110t-25.5 114q0 135 105.5 228.5t296.5 93.5q196 0 308.5 -93.5t132.5 -243.5z"/>
<glyph glyph-name="dieresis" horiz-adv-x="682" unicode="¨" d="M435 1250v241h242v-241h-242zM5 1250v241h241v-241h-241z"/>
<glyph glyph-name="copyright" horiz-adv-x="1509" unicode="©" d="M943 616l161 -54q-38 -126 -126 -193t-210 -67q-171 0 -279 112t-108 309q0 129 48 230t138.5 151t202.5 50q123 0 205.5 -58.5t128.5 -184.5l-162 -38q-28 73 -72.5 106t-105.5 33q-91 0 -149 -68.5t-58 -214.5t57 -215t137 -69q67 0 116 39.5t76 131.5zM757 1345 q-158 0 -303.5 -79t-228.5 -226.5t-83 -309.5q0 -160 81.5 -306t227.5 -227.5t306 -81.5t306 81.5t227.5 227.5t81.5 306q0 161 -83 309t-228.5 227t-303.5 79zM757 1496q197 0 378 -99t284.5 -282.5t103.5 -384.5q0 -200 -101.5 -381.5t-283 -283t-381.5 -101.5 t-381.5 101.5t-283 283t-101.5 381.5q0 201 103.5 384.5t284.5 282.5t378 99z"/>
<glyph glyph-name="ordfeminine" horiz-adv-x="758" unicode="ª" d="M474 1095q-22 -13 -62 -21q-108 -23 -128 -35q-40 -25 -40 -65q0 -31 27 -56t70 -25q58 0 95.5 41.5t37.5 120.5v40zM254 1252l-189 38q23 99 92.5 150t210.5 51q147 0 222 -39q49 -25 73 -89q15 -40 15 -154v-239q0 -104 6.5 -139.5t23.5 -69.5h-190q-13 26 -23 71 q-88 -89 -216 -89q-114 0 -178 60.5t-64 155.5q0 68 31.5 115t92.5 74q45 19 188 47q79 16 125 33q0 14 -1 21q-1 49 -18 64q-24 21 -83 21q-52 0 -78 -17q-19 -13 -40 -65z"/>
<glyph glyph-name="guillemotleft" horiz-adv-x="1139" unicode="«" d="M1025 983l-259 -451l259 -462h-221l-316 462l316 451h221zM633 983l-260 -451l260 -462h-221l-316 462l316 451h221z"/>
<glyph glyph-name="logicalnot" horiz-adv-x="1196" unicode="¬" d="M853 376v441h-768v257h1025v-698h-257z"/>
<glyph glyph-name="registered" horiz-adv-x="1509" unicode="®" d="M576 782h67q143 0 177.5 11t54.5 38.5t20 62.5q0 34 -19.5 60.5t-55.5 38t-177 11.5h-67v-222zM411 320v813h165q232 0 260 -2q82 -7 127.5 -32.5t76 -78t30.5 -116.5q0 -88 -57.5 -150.5t-161.5 -77.5q37 -14 57 -30.5t55 -62.5q9 -12 60 -99l96 -164h-204l-68 132 q-69 133 -114 167.5t-114 34.5h-43v-334h-165zM758 1346q-158 0 -303 -79t-228.5 -227t-83.5 -310q0 -161 81.5 -307t227.5 -228t306 -82q161 0 306.5 82t227.5 228t82 307q0 162 -83.5 310t-229 227t-303.5 79zM757 1496q197 0 378 -98.5t284.5 -282.5t103.5 -385 q0 -200 -101.5 -381.5t-283 -283t-381.5 -101.5t-381.5 101.5t-283 283t-101.5 381.5q0 201 103.5 385t284.5 282.5t378 98.5z"/>
<glyph glyph-name="overscore" horiz-adv-x="1131" unicode="¯" d="M-19 1552v183h1168v-183h-1168z"/>
<glyph glyph-name="degree" horiz-adv-x="819" unicode="°" d="M252 1172q0 -63 45 -108t108 -45t108 45t45 108t-45 108t-108 45t-108 -45t-45 -108zM86 1172q0 133 93.5 226t225.5 93t225.5 -93.5t93.5 -225.5t-93.5 -225.5t-225.5 -93.5t-225.5 93.5t-93.5 225.5z"/>
<glyph glyph-name="plusminus" horiz-adv-x="1124" unicode="±" d="M50 0v263h1025v-263h-1025zM434 356v381h-384v263h384v381h256v-381h385v-263h-385v-381h-256z"/>
<glyph glyph-name="twosuperior" horiz-adv-x="682" unicode="²" d="M632 885v-158h-607q11 85 54.5 152t194.5 186q114 89 137 118q31 38 31 77q0 37 -25 59t-76 22t-76 -24.5t-31 -90.5l-189 16q15 117 75 171q80 71 226 71q139 0 212.5 -64t73.5 -151q0 -54 -23 -102.5t-73 -100.5q-26 -26 -135 -112q-58 -45 -83 -69h314z"/>
<glyph glyph-name="threesuperior" horiz-adv-x="682" unicode="³" d="M40 946l184 20q8 -55 37 -81.5t76 -26.5q49 0 79 30t30 78q0 43 -28.5 71t-74.5 28q-30 0 -91 -15l23 146h8q46 0 74.5 11t41 28.5t12.5 39.5q0 29 -21 47.5t-62 18.5t-66 -22.5t-33 -75.5l-178 26q25 103 74 147q76 68 208 68q124 0 196.5 -62t72.5 -142q0 -38 -21 -70 q-28 -45 -76 -74q67 -24 101.5 -70.5t34.5 -108.5q0 -95 -84 -168.5t-221 -73.5q-128 0 -205 63t-91 168z"/>
<glyph glyph-name="acute" horiz-adv-x="682" unicode="´" d="M187 1192l138 299h315l-275 -299h-178z"/>
<glyph glyph-name="mu1" horiz-adv-x="1180" unicode="µ" d="M111 1062h279v-481q0 -208 42 -283q53 -97 157 -97q56 0 106 36t74 100t24 241v484h284v-1062h-262v128q-30 -56 -57 -84t-72.5 -49t-83.5 -21q-71 0 -126 39q-39 29 -86 115v-535h-279v1469z"/>
<glyph glyph-name="paragraph" horiz-adv-x="1139" unicode="¶" d="M635 -403h-243v1047q-190 14 -292 122t-102 286q0 105 41 192.5t110.5 138.5t163.5 71q56 12 219 12h597v-261h-113v-1608h-237v1608h-144v-1608z"/>
<glyph glyph-name="middot" horiz-adv-x="682" unicode="·" d="M200 573v281h281v-281h-281z"/>
<glyph glyph-name="cedilla" horiz-adv-x="682" unicode="¸" d="M38 -403v118q103 -11 189 -11q89 0 132 32q33 24 33 62q0 34 -31 59t-96 25q-64 0 -131 -20l26 99q78 27 168 27q125 0 190 -55t65 -134q0 -88 -72 -143q-97 -75 -278 -75q-129 0 -195 16z"/>
<glyph glyph-name="onesuperior" horiz-adv-x="682" unicode="¹" d="M495 727h-190v513q-94 -65 -214 -98v155q95 27 172 87q54 42 78 100h154v-757z"/>
<glyph glyph-name="ordmasculine" horiz-adv-x="748" unicode="º" d="M237 1113q0 -110 37 -156.5t96 -46.5t96.5 46.5t37.5 156.5t-37.5 156.5t-96.5 46.5t-96 -46t-37 -157zM26 1115q0 178 94.5 277t252.5 99q157 0 252 -99.5t95 -276.5t-94.5 -276t-252.5 -99t-252.5 98.5t-94.5 276.5z"/>
<glyph glyph-name="guillemotright" horiz-adv-x="1139" unicode="»" d="M106 70l260 452l-260 461h221l316 -461l-316 -452h-221zM498 70l260 452l-260 461h221l316 -461l-316 -452h-221z"/>
<glyph glyph-name="onequarter" horiz-adv-x="1708" unicode="¼" d="M1403 249v225l-183 -225h183zM1403 -42v146h-360v141l382 470h156v-466h107v-145h-107v-146h-178zM499 -54h-159l869 1538h159zM496 727h-190v513q-94 -65 -214 -98v155q95 27 172 87q54 42 78 100h154v-757z"/>
<glyph glyph-name="onehalf" horiz-adv-x="1708" unicode="½" d="M1656 115v-157h-607q11 85 55 152t194 186q114 89 137 118q31 38 31 77q0 37 -25 59t-76 22q-50 0 -75.5 -24.5t-30.5 -90.5l-190 16q15 116 76 171q79 71 225 71q139 0 212.5 -64t73.5 -151q0 -54 -22.5 -102.5t-73.5 -100.5q-26 -26 -135 -112q-57 -45 -82 -70h313z M499 -54h-159l869 1538h159zM496 727h-190v513q-94 -65 -214 -98v155q95 27 172 87q54 42 78 100h154v-757z"/>
<glyph glyph-name="threequarters" horiz-adv-x="1708" unicode="¾" d="M1402 249v225l-182 -225h182zM1402 -42v146h-360v141l382 470h156v-466h108v-145h-108v-146h-178zM523 -54h-159l869 1538h158zM40 946l184 20q8 -55 37 -81.5t76 -26.5q49 0 79 30t30 78q0 43 -28.5 71t-74.5 28q-30 0 -91 -15l23 146h8q46 0 74.5 11t41 28.5t12.5 39.5 q0 29 -21 47.5t-62 18.5t-66 -22.5t-33 -75.5l-178 26q25 103 74 147q76 68 208 68q124 0 196.5 -62t72.5 -142q0 -38 -21 -70q-28 -45 -76 -74q67 -24 101.5 -70.5t34.5 -108.5q0 -95 -84 -168.5t-221 -73.5q-128 0 -205 63t-91 168z"/>
<glyph glyph-name="questiondown" d="M509 684h254q2 -66 2 -76q0 -114 -43.5 -196.5t-170 -185.5t-151.5 -144t-25 -93q0 -77 66 -135.5t177 -58.5q107 0 178 59.5t100 187.5l258 -33q-17 -125 -71 -208q-74 -113 -192.5 -167t-261.5 -54q-241 0 -384.5 126.5t-143.5 292.5q0 64 25.5 124.5t80 121.5 t173.5 159q87 70 108 115.5t21 154.5v10zM763 1062v-281h-281v281h281z" unicode="¿"/>
<glyph glyph-name="Agrave" horiz-adv-x="1479" unicode="À" d="M926 580l-202 544l-198 -544h400zM1471 0h-322l-128 333h-586l-121 -333h-314l571 1466h313zM891 1550h-177l-276 299h315z"/>
<glyph glyph-name="Aacute" horiz-adv-x="1479" unicode="Á" d="M926 580l-202 544l-198 -544h400zM1471 0h-322l-128 333h-586l-121 -333h-314l571 1466h313zM554 1550l138 299h315l-275 -299h-178z"/>
<glyph glyph-name="Acircumflex" horiz-adv-x="1479" unicode="Â" d="M926 580l-202 544l-198 -544h400zM1471 0h-322l-128 333h-586l-121 -333h-314l571 1466h313zM386 1550l210 295h260l207 -295h-226l-116 149l-108 -149h-227z"/>
<glyph glyph-name="Atilde" horiz-adv-x="1479" unicode="Ã" d="M926 580l-202 544l-198 -544h400zM1471 0h-322l-128 333h-586l-121 -333h-314l571 1466h313zM495 1547h-128q-1 23 -1 36q0 105 51 161.5t131 56.5q35 0 65 -7.5t109.5 -43t124.5 -35.5q32 0 53.5 20t27.5 67h130q-1 -135 -50.5 -193t-127.5 -58q-34 0 -67 7 q-23 6 -115 41t-134 35q-32 0 -50 -19.5t-19 -67.5z"/>
<glyph glyph-name="Adieresis" horiz-adv-x="1479" unicode="Ä" d="M926 580l-202 544l-198 -544h400zM1471 0h-322l-128 333h-586l-121 -333h-314l571 1466h313zM813 1550v241h242v-241h-242zM383 1550v241h241v-241h-241z"/>
<glyph glyph-name="Aring" horiz-adv-x="1479" unicode="Å" d="M926 580l-202 544l-198 -544h400zM1471 0h-322l-128 333h-586l-121 -333h-314l571 1466h313zM814 1562q0 37 -26 63t-63 26t-63 -26t-26 -63t26 -63t63 -26t63 26t26 63zM921 1562q0 -81 -57.5 -138.5t-138.5 -57.5t-138.5 57.5t-57.5 138.5t57.5 138.5t138.5 57.5 t138.5 -57t57.5 -139z"/>
<glyph glyph-name="AE" horiz-adv-x="2048" unicode="Æ" d="M501 601h402v643h-115zM-86 0l684 1466h1324v-248h-726v-326h669v-248h-669v-397h753v-247h-1049v345h-508l-150 -345h-328z"/>
<glyph glyph-name="Ccedilla" horiz-adv-x="1479" unicode="Ç" d="M1087 539l287 -91q-66 -240 -219.5 -356.5t-389.5 -116.5q-292 0 -480 199.5t-188 545.5q0 366 189 568.5t497 202.5q269 0 437 -159q100 -94 150 -270l-293 -70q-26 114 -108.5 180t-200.5 66q-163 0 -264.5 -117t-101.5 -379q0 -278 100 -396t260 -118q118 0 203 75 t122 236zM465 -403v118q103 -11 189 -11q89 0 132 32q33 24 33 62q0 34 -31 59t-96 25q-64 0 -131 -20l26 99q78 27 168 27q125 0 190 -55t65 -134q0 -88 -72 -143q-97 -75 -278 -75q-129 0 -195 16z"/>
<glyph glyph-name="Egrave" horiz-adv-x="1366" unicode="È" d="M149 0v1466h1087v-248h-791v-325h736v-247h-736v-399h819v-247h-1115zM862 1550h-177l-276 299h315z"/>
<glyph glyph-name="Eacute" horiz-adv-x="1366" unicode="É" d="M149 0v1466h1087v-248h-791v-325h736v-247h-736v-399h819v-247h-1115zM525 1550l138 299h315l-275 -299h-178z"/>
<glyph glyph-name="Ecircumflex" horiz-adv-x="1366" unicode="Ê" d="M149 0v1466h1087v-248h-791v-325h736v-247h-736v-399h819v-247h-1115zM337 1550l210 295h260l207 -295h-226l-116 149l-108 -149h-227z"/>
<glyph glyph-name="Edieresis" horiz-adv-x="1366" unicode="Ë" d="M149 0v1466h1087v-248h-791v-325h736v-247h-736v-399h819v-247h-1115zM784 1550v241h242v-241h-242zM354 1550v241h241v-241h-241z"/>
<glyph glyph-name="Igrave" horiz-adv-x="569" unicode="Ì" d="M140 0v1466h296v-1466h-296zM443 1550h-177l-276 299h315z"/>
<glyph glyph-name="Iacute" horiz-adv-x="569" unicode="Í" d="M140 0v1466h296v-1466h-296zM106 1550l138 299h315l-275 -299h-178z"/>
<glyph glyph-name="Icircumflex" horiz-adv-x="569" unicode="Î" d="M140 0v1466h296v-1466h-296zM-42 1550l210 295h260l207 -295h-226l-116 149l-108 -149h-227z"/>
<glyph glyph-name="Idieresis" horiz-adv-x="569" unicode="Ï" d="M140 0v1466h296v-1466h-296zM385 1550v241h242v-241h-242zM-45 1550v241h241v-241h-241z"/>
<glyph glyph-name="Eth" horiz-adv-x="1479" unicode="Ð" d="M444 1218v-392h314v-186h-314v-393h222q147 0 212 24q86 30 131 110q63 113 63 345q0 165 -26.5 254.5t-78 144.5t-134.5 77q-64 16 -255 16h-134zM149 1466h540q186 0 282 -29q130 -39 222 -137.5t138.5 -238.5t46.5 -346q0 -181 -51.5 -326.5t-151.5 -242.5 q-77 -73 -207 -115q-98 -31 -263 -31h-556v640h-152v186h152v640z"/>
<glyph glyph-name="Ntilde" horiz-adv-x="1479" unicode="Ñ" d="M152 0v1466h288l600 -979v979h275v-1466h-297l-591 956v-956h-275zM520 1547h-128q-1 23 -1 36q0 105 51 161.5t131 56.5q35 0 65 -7.5t109.5 -43t124.5 -35.5q32 0 53.5 20t27.5 67h130q-1 -135 -50.5 -193t-127.5 -58q-34 0 -67 7q-23 6 -115 41t-134 35 q-32 0 -50 -19.5t-19 -67.5z"/>
<glyph glyph-name="Ograve" horiz-adv-x="1593" unicode="Ò" d="M394 734q0 -249 115 -377.5t292 -128.5t290.5 127.5t113.5 382.5q0 252 -110.5 376t-293.5 124t-295 -125.5t-112 -378.5zM89 724q0 224 67 376q50 112 136.5 201t189.5 132q137 58 316 58q324 0 518.5 -201t194.5 -559q0 -355 -193 -555.5t-516 -200.5 q-327 0 -520 199.5t-193 549.5zM955 1550h-177l-276 299h315z"/>
<glyph glyph-name="Oacute" horiz-adv-x="1593" unicode="Ó" d="M394 734q0 -249 115 -377.5t292 -128.5t290.5 127.5t113.5 382.5q0 252 -110.5 376t-293.5 124t-295 -125.5t-112 -378.5zM89 724q0 224 67 376q50 112 136.5 201t189.5 132q137 58 316 58q324 0 518.5 -201t194.5 -559q0 -355 -193 -555.5t-516 -200.5 q-327 0 -520 199.5t-193 549.5zM618 1550l138 299h315l-275 -299h-178z"/>
<glyph glyph-name="Ocircumflex" horiz-adv-x="1593" unicode="Ô" d="M394 734q0 -249 115 -377.5t292 -128.5t290.5 127.5t113.5 382.5q0 252 -110.5 376t-293.5 124t-295 -125.5t-112 -378.5zM89 724q0 224 67 376q50 112 136.5 201t189.5 132q137 58 316 58q324 0 518.5 -201t194.5 -559q0 -355 -193 -555.5t-516 -200.5 q-327 0 -520 199.5t-193 549.5zM450 1550l210 295h260l207 -295h-226l-116 149l-108 -149h-227z"/>
<glyph glyph-name="Otilde" horiz-adv-x="1593" unicode="Õ" d="M394 734q0 -249 115 -377.5t292 -128.5t290.5 127.5t113.5 382.5q0 252 -110.5 376t-293.5 124t-295 -125.5t-112 -378.5zM89 724q0 224 67 376q50 112 136.5 201t189.5 132q137 58 316 58q324 0 518.5 -201t194.5 -559q0 -355 -193 -555.5t-516 -200.5 q-327 0 -520 199.5t-193 549.5zM559 1547h-128q-1 23 -1 36q0 105 51 161.5t131 56.5q35 0 65 -7.5t109.5 -43t124.5 -35.5q32 0 53.5 20t27.5 67h130q-1 -135 -50.5 -193t-127.5 -58q-34 0 -67 7q-23 6 -115 41t-134 35q-32 0 -50 -19.5t-19 -67.5z"/>
<glyph glyph-name="Odieresis" horiz-adv-x="1593" unicode="Ö" d="M394 734q0 -249 115 -377.5t292 -128.5t290.5 127.5t113.5 382.5q0 252 -110.5 376t-293.5 124t-295 -125.5t-112 -378.5zM89 724q0 224 67 376q50 112 136.5 201t189.5 132q137 58 316 58q324 0 518.5 -201t194.5 -559q0 -355 -193 -555.5t-516 -200.5 q-327 0 -520 199.5t-193 549.5zM877 1550v241h242v-241h-242zM447 1550v241h241v-241h-241z"/>
<glyph glyph-name="multiply" horiz-adv-x="1196" unicode="×" d="M111 420l302 302l-304 303l186 186l304 -303l302 302l181 -182l-302 -302l305 -305l-186 -186l-305 305l-302 -302z"/>
<glyph glyph-name="Oslash" horiz-adv-x="1593" unicode="Ø" d="M1164 996l-615 -691q103 -90 248 -90q178 0 292.5 129t114.5 385q0 162 -40 267zM1055 1153q-101 86 -256 86q-182 0 -294 -125.5t-112 -378.5q0 -159 46 -272zM1239 1359l158 177l139 -122l-167 -188q67 -90 104 -221.5t37 -279.5q0 -349 -193 -549.5t-510 -200.5 q-275 0 -440 125l-162 -182l-142 124l171 192q-146 195 -146 508q0 347 193 548t515 201q267 0 443 -132z"/>
<glyph glyph-name="Ugrave" horiz-adv-x="1479" unicode="Ù" d="M147 1466h296v-794q0 -189 11 -245q19 -90 90.5 -144.5t195.5 -54.5q126 0 190 51.5t77 126.5t13 249v811h296v-770q0 -264 -24 -373t-88.5 -184t-172.5 -119.5t-282 -44.5q-210 0 -318.5 48.5t-171.5 126t-83 162.5q-29 126 -29 372v782zM887 1550h-177l-276 299h315z "/>
<glyph glyph-name="Uacute" horiz-adv-x="1479" unicode="Ú" d="M147 1466h296v-794q0 -189 11 -245q19 -90 90.5 -144.5t195.5 -54.5q126 0 190 51.5t77 126.5t13 249v811h296v-770q0 -264 -24 -373t-88.5 -184t-172.5 -119.5t-282 -44.5q-210 0 -318.5 48.5t-171.5 126t-83 162.5q-29 126 -29 372v782zM550 1550l138 299h315 l-275 -299h-178z"/>
<glyph glyph-name="Ucircumflex" horiz-adv-x="1479" unicode="Û" d="M147 1466h296v-794q0 -189 11 -245q19 -90 90.5 -144.5t195.5 -54.5q126 0 190 51.5t77 126.5t13 249v811h296v-770q0 -264 -24 -373t-88.5 -184t-172.5 -119.5t-282 -44.5q-210 0 -318.5 48.5t-171.5 126t-83 162.5q-29 126 -29 372v782zM402 1550l210 295h260l207 -295 h-226l-116 149l-108 -149h-227z"/>
<glyph glyph-name="Udieresis" horiz-adv-x="1479" unicode="Ü" d="M147 1466h296v-794q0 -189 11 -245q19 -90 90.5 -144.5t195.5 -54.5q126 0 190 51.5t77 126.5t13 249v811h296v-770q0 -264 -24 -373t-88.5 -184t-172.5 -119.5t-282 -44.5q-210 0 -318.5 48.5t-171.5 126t-83 162.5q-29 126 -29 372v782zM829 1550v241h242v-241h-242z M399 1550v241h241v-241h-241z"/>
<glyph glyph-name="Yacute" horiz-adv-x="1366" unicode="Ý" d="M534 0v617l-537 849h347l345 -580l338 580h341l-539 -851v-615h-295zM495 1550l138 299h315l-275 -299h-178z"/>
<glyph glyph-name="Thorn" horiz-adv-x="1366" unicode="Þ" d="M445 942v-417h162q166 0 211 11q62 15 105.5 66t43.5 135q0 68 -34.5 118.5t-84 68.5t-260.5 18h-143zM149 0v1466h296v-276h179q270 0 353 -22q126 -34 210.5 -144.5t84.5 -285.5q0 -134 -49 -226t-124.5 -145t-153.5 -69q-106 -22 -307 -22h-193v-276h-296z"/>
<glyph glyph-name="germandbls" d="M139 0v952q0 200 35.5 304t137.5 169.5t265 65.5q204 0 305 -87t101 -216q0 -87 -54.5 -186.5t-62.5 -121.5t-8 -38q0 -33 25 -69q16 -23 120 -128t140 -178t36 -151q0 -145 -100.5 -242.5t-254.5 -97.5q-106 0 -193 54.5t-131 134.5l196 115q21 -39 47 -59t57 -20 q41 0 69.5 29.5t28.5 73.5q0 41 -30 83q-17 25 -138 139q-169 162 -169 255q0 59 65 194q51 104 60 132t9 58q0 44 -33 75t-88 31q-50 0 -86.5 -26t-49.5 -67q-18 -55 -18 -226v-952h-281z" unicode="ß"/>
<glyph glyph-name="agrave" horiz-adv-x="1139" unicode="à" d="M733 510q-54 -18 -171 -43t-153 -49q-55 -39 -55 -99q0 -59 44 -102t112 -43q76 0 145 50q51 38 67 93q11 36 11 137v56zM357 738l-255 46q43 154 148 228t312 74q188 0 280 -44.5t129.5 -113t37.5 -251.5l-3 -328q0 -140 13.5 -206.5t50.5 -142.5h-278q-11 28 -27 83 q-7 25 -10 33q-72 -70 -154 -105t-175 -35q-164 0 -258.5 89t-94.5 225q0 90 43 160.5t120.5 108t223.5 65.5q197 37 273 69v28q0 81 -40 115.5t-151 34.5q-75 0 -117 -29.5t-68 -103.5zM713 1192h-177l-276 299h315z"/>
<glyph glyph-name="aacute" horiz-adv-x="1139" unicode="á" d="M733 510q-54 -18 -171 -43t-153 -49q-55 -39 -55 -99q0 -59 44 -102t112 -43q76 0 145 50q51 38 67 93q11 36 11 137v56zM357 738l-255 46q43 154 148 228t312 74q188 0 280 -44.5t129.5 -113t37.5 -251.5l-3 -328q0 -140 13.5 -206.5t50.5 -142.5h-278q-11 28 -27 83 q-7 25 -10 33q-72 -70 -154 -105t-175 -35q-164 0 -258.5 89t-94.5 225q0 90 43 160.5t120.5 108t223.5 65.5q197 37 273 69v28q0 81 -40 115.5t-151 34.5q-75 0 -117 -29.5t-68 -103.5zM429 1192l138 299h315l-275 -299h-178z"/>
<glyph glyph-name="acircumflex" horiz-adv-x="1139" unicode="â" d="M733 510q-54 -18 -171 -43t-153 -49q-55 -39 -55 -99q0 -59 44 -102t112 -43q76 0 145 50q51 38 67 93q11 36 11 137v56zM357 738l-255 46q43 154 148 228t312 74q188 0 280 -44.5t129.5 -113t37.5 -251.5l-3 -328q0 -140 13.5 -206.5t50.5 -142.5h-278q-11 28 -27 83 q-7 25 -10 33q-72 -70 -154 -105t-175 -35q-164 0 -258.5 89t-94.5 225q0 90 43 160.5t120.5 108t223.5 65.5q197 37 273 69v28q0 81 -40 115.5t-151 34.5q-75 0 -117 -29.5t-68 -103.5zM233 1196l210 295h260l207 -295h-226l-116 149l-108 -149h-227z"/>
<glyph glyph-name="atilde" horiz-adv-x="1139" unicode="ã" d="M733 510q-54 -18 -171 -43t-153 -49q-55 -39 -55 -99q0 -59 44 -102t112 -43q76 0 145 50q51 38 67 93q11 36 11 137v56zM357 738l-255 46q43 154 148 228t312 74q188 0 280 -44.5t129.5 -113t37.5 -251.5l-3 -328q0 -140 13.5 -206.5t50.5 -142.5h-278q-11 28 -27 83 q-7 25 -10 33q-72 -70 -154 -105t-175 -35q-164 0 -258.5 89t-94.5 225q0 90 43 160.5t120.5 108t223.5 65.5q197 37 273 69v28q0 81 -40 115.5t-151 34.5q-75 0 -117 -29.5t-68 -103.5zM355 1205h-128q-1 23 -1 36q0 105 51 161.5t131 56.5q35 0 65 -7.5t109.5 -43 t124.5 -35.5q32 0 53.5 20t27.5 67h130q-1 -135 -50.5 -193t-127.5 -58q-34 0 -67 7q-23 6 -115 41t-134 35q-32 0 -50 -19.5t-19 -67.5z"/>
<glyph glyph-name="adieresis" horiz-adv-x="1139" unicode="ä" d="M733 510q-54 -18 -171 -43t-153 -49q-55 -39 -55 -99q0 -59 44 -102t112 -43q76 0 145 50q51 38 67 93q11 36 11 137v56zM357 738l-255 46q43 154 148 228t312 74q188 0 280 -44.5t129.5 -113t37.5 -251.5l-3 -328q0 -140 13.5 -206.5t50.5 -142.5h-278q-11 28 -27 83 q-7 25 -10 33q-72 -70 -154 -105t-175 -35q-164 0 -258.5 89t-94.5 225q0 90 43 160.5t120.5 108t223.5 65.5q197 37 273 69v28q0 81 -40 115.5t-151 34.5q-75 0 -117 -29.5t-68 -103.5zM666 1250v241h242v-241h-242zM236 1250v241h241v-241h-241z"/>
<glyph glyph-name="aring" horiz-adv-x="1139" unicode="å" d="M733 510q-54 -18 -171 -43t-153 -49q-55 -39 -55 -99q0 -59 44 -102t112 -43q76 0 145 50q51 38 67 93q11 36 11 137v56zM357 738l-255 46q43 154 148 228t312 74q188 0 280 -44.5t129.5 -113t37.5 -251.5l-3 -328q0 -140 13.5 -206.5t50.5 -142.5h-278q-11 28 -27 83 q-7 25 -10 33q-72 -70 -154 -105t-175 -35q-164 0 -258.5 89t-94.5 225q0 90 43 160.5t120.5 108t223.5 65.5q197 37 273 69v28q0 81 -40 115.5t-151 34.5q-75 0 -117 -29.5t-68 -103.5zM660 1342q0 37 -26 63t-63 26t-63 -26t-26 -63t26 -63t63 -26t63 26t26 63zM767 1342 q0 -81 -57.5 -138.5t-138.5 -57.5t-138.5 57.5t-57.5 138.5t57.5 138.5t138.5 57.5t138.5 -57t57.5 -139z"/>
<glyph glyph-name="ae" horiz-adv-x="1821" unicode="æ" d="M740 508q-231 -61 -251 -68q-67 -22 -93.5 -53t-26.5 -73q0 -58 43.5 -99t113.5 -41q74 0 139 47q48 35 61.5 87.5t13.5 199.5zM1447 624q-6 88 -24 127q-25 56 -75.5 88t-118.5 32q-59 0 -103.5 -27.5t-70.5 -82.5q-32 -67 -32 -127v-10h424zM1436 339l275 -49 q-57 -157 -173 -235.5t-296 -78.5q-112 0 -207 36.5t-172 109.5q-71 -61 -183.5 -103.5t-231.5 -42.5q-170 0 -265 88.5t-95 223.5q0 81 33.5 144t81 98.5t132.5 61.5q40 13 238 54q99 21 169 44v28q0 77 -42 115t-133 38q-80 0 -127 -32.5t-67 -100.5l-255 49 q50 154 157.5 226.5t327.5 72.5q104 0 185.5 -24.5t139.5 -73.5q61 49 133.5 73.5t155.5 24.5q160 0 271 -68q110 -66 174 -198q63 -129 62 -365v-7h-706q17 -136 76 -197t145 -61q71 0 121 36.5t76 112.5z"/>
<glyph glyph-name="ccedilla" horiz-adv-x="1139" unicode="ç" d="M1073 748l-277 -50q-14 83 -63.5 125t-128.5 42q-105 0 -167.5 -72.5t-62.5 -242.5q0 -189 63.5 -267t170.5 -78q80 0 131 45.5t72 156.5l276 -47q-43 -190 -165 -287t-327 -97q-233 0 -371.5 147t-138.5 407q0 263 139 409.5t376 146.5q194 0 308.5 -83.5t164.5 -254.5z M316 -403v118q103 -11 189 -11q89 0 132 32q33 24 33 62q0 34 -31 59t-96 25q-64 0 -131 -20l26 99q78 27 168 27q125 0 190 -55t65 -134q0 -88 -72 -143q-97 -75 -278 -75q-129 0 -195 16z"/>
<glyph glyph-name="egrave" horiz-adv-x="1139" unicode="è" d="M778 622q-3 122 -63 185.5t-146 63.5q-92 0 -152 -67t-59 -182h420zM762 338l280 -47q-54 -154 -170.5 -234.5t-291.5 -80.5q-277 0 -410 181q-105 145 -105 366q0 264 138 413.5t349 149.5q237 0 374 -156q131 -150 131 -453v-27h-704q3 -125 68 -194.5t162 -69.5 q66 0 111 36t68 116zM703 1192h-177l-276 299h315z"/>
<glyph glyph-name="eacute" horiz-adv-x="1139" unicode="é" d="M778 622q-3 122 -63 185.5t-146 63.5q-92 0 -152 -67t-59 -182h420zM762 338l280 -47q-54 -154 -170.5 -234.5t-291.5 -80.5q-277 0 -410 181q-105 145 -105 366q0 264 138 413.5t349 149.5q237 0 374 -156q131 -150 131 -453v-27h-704q3 -125 68 -194.5t162 -69.5 q66 0 111 36t68 116zM419 1192l138 299h315l-275 -299h-178z"/>
<glyph glyph-name="ecircumflex" horiz-adv-x="1139" unicode="ê" d="M778 622q-3 122 -63 185.5t-146 63.5q-92 0 -152 -67t-59 -182h420zM762 338l280 -47q-54 -154 -170.5 -234.5t-291.5 -80.5q-277 0 -410 181q-105 145 -105 366q0 264 138 413.5t349 149.5q237 0 374 -156q131 -150 131 -453v-27h-704q3 -125 68 -194.5t162 -69.5 q66 0 111 36t68 116zM223 1196l210 295h260l207 -295h-226l-116 149l-108 -149h-227z"/>
<glyph glyph-name="edieresis" horiz-adv-x="1139" unicode="ë" d="M778 622q-3 122 -63 185.5t-146 63.5q-92 0 -152 -67t-59 -182h420zM762 338l280 -47q-54 -154 -170.5 -234.5t-291.5 -80.5q-277 0 -410 181q-105 145 -105 366q0 264 138 413.5t349 149.5q237 0 374 -156q131 -150 131 -453v-27h-704q3 -125 68 -194.5t162 -69.5 q66 0 111 36t68 116zM655 1250v241h242v-241h-242zM225 1250v241h241v-241h-241z"/>
<glyph glyph-name="igrave" horiz-adv-x="569" unicode="ì" d="M147 0v1062h281v-1062h-281zM430 1192h-177l-276 299h315z"/>
<glyph glyph-name="iacute" horiz-adv-x="569" unicode="í" d="M147 0v1062h281v-1062h-281zM126 1192l138 299h315l-275 -299h-178z"/>
<glyph glyph-name="icircumflex" horiz-adv-x="569" unicode="î" d="M147 0v1062h281v-1062h-281zM-51 1196l210 295h260l207 -295h-226l-116 149l-108 -149h-227z"/>
<glyph glyph-name="idieresis" horiz-adv-x="569" unicode="ï" d="M147 0v1062h281v-1062h-281zM382 1250v241h242v-241h-242zM-48 1250v241h241v-241h-241z"/>
<glyph glyph-name="eth" d="M376 530q0 -159 72.5 -242.5t177.5 -83.5q107 0 182 84t75 232q0 149 -77 235t-182 86q-103 0 -175.5 -81.5t-72.5 -229.5zM332 1466h293q57 -44 109 -89l181 89l45 -98l-144 -67q192 -193 275.5 -387.5t83.5 -367.5q0 -258 -154 -414.5t-398 -156.5q-235 0 -387.5 155.5 t-152.5 402.5q0 243 162 399q135 130 304 130q54 0 109 -16q40 -12 113 -53q-39 70 -65 109t-81 108l-250 -119l-43 96l218 103q-100 92 -218 176z" unicode="ð"/>
<glyph glyph-name="ntilde" d="M1113 0h-281v542q0 172 -18 222.5t-58.5 78.5t-97.5 28q-73 0 -131 -40t-79.5 -106t-21.5 -244v-481h-281v1062h261v-156q139 180 350 180q93 0 170 -33.5t116.5 -85.5t55 -118t15.5 -189v-660zM412 1205h-128q-1 23 -1 36q0 105 51 161.5t131 56.5q35 0 65 -7.5 t109.5 -43t124.5 -35.5q32 0 53.5 20t27.5 67h130q-1 -135 -50.5 -193t-127.5 -58q-34 0 -67 7q-23 6 -115 41t-134 35q-32 0 -50 -19.5t-19 -67.5z" unicode="ñ"/>
<glyph glyph-name="ograve" d="M370 531q0 -158 75 -242t185 -84t184.5 84t74.5 244q0 156 -74.5 240t-184.5 84t-185 -84t-75 -242zM82 546q0 140 69 271t195.5 200t282.5 69q241 0 395 -156.5t154 -395.5q0 -241 -155.5 -399.5t-391.5 -158.5q-146 0 -278.5 66t-201.5 193.5t-69 310.5zM771 1192h-177 l-276 299h315z" unicode="ò"/>
<glyph glyph-name="oacute" d="M370 531q0 -158 75 -242t185 -84t184.5 84t74.5 244q0 156 -74.5 240t-184.5 84t-185 -84t-75 -242zM82 546q0 140 69 271t195.5 200t282.5 69q241 0 395 -156.5t154 -395.5q0 -241 -155.5 -399.5t-391.5 -158.5q-146 0 -278.5 66t-201.5 193.5t-69 310.5zM488 1192 l138 299h315l-275 -299h-178z" unicode="ó"/>
<glyph glyph-name="ocircumflex" d="M370 531q0 -158 75 -242t185 -84t184.5 84t74.5 244q0 156 -74.5 240t-184.5 84t-185 -84t-75 -242zM82 546q0 140 69 271t195.5 200t282.5 69q241 0 395 -156.5t154 -395.5q0 -241 -155.5 -399.5t-391.5 -158.5q-146 0 -278.5 66t-201.5 193.5t-69 310.5zM291 1196 l210 295h260l207 -295h-226l-116 149l-108 -149h-227z" unicode="ô"/>
<glyph glyph-name="otilde" d="M370 531q0 -158 75 -242t185 -84t184.5 84t74.5 244q0 156 -74.5 240t-184.5 84t-185 -84t-75 -242zM82 546q0 140 69 271t195.5 200t282.5 69q241 0 395 -156.5t154 -395.5q0 -241 -155.5 -399.5t-391.5 -158.5q-146 0 -278.5 66t-201.5 193.5t-69 310.5zM413 1205h-128 q-1 23 -1 36q0 105 51 161.5t131 56.5q35 0 65 -7.5t109.5 -43t124.5 -35.5q32 0 53.5 20t27.5 67h130q-1 -135 -50.5 -193t-127.5 -58q-34 0 -67 7q-23 6 -115 41t-134 35q-32 0 -50 -19.5t-19 -67.5z" unicode="õ"/>
<glyph glyph-name="odieresis" d="M370 531q0 -158 75 -242t185 -84t184.5 84t74.5 244q0 156 -74.5 240t-184.5 84t-185 -84t-75 -242zM82 546q0 140 69 271t195.5 200t282.5 69q241 0 395 -156.5t154 -395.5q0 -241 -155.5 -399.5t-391.5 -158.5q-146 0 -278.5 66t-201.5 193.5t-69 310.5zM713 1250v241 h242v-241h-242zM283 1250v241h241v-241h-241z" unicode="ö"/>
<glyph glyph-name="divide" horiz-adv-x="1124" unicode="÷" d="M421 185v281h281v-281h-281zM49 592v263h1025v-263h-1025zM421 981v281h281v-281h-281z"/>
<glyph glyph-name="oslash" d="M874 695l-392 -453q66 -48 151 -48q115 0 193 86.5t78 242.5q0 94 -30 172zM788 817q-67 54 -152 54q-113 0 -191.5 -87t-78.5 -244q0 -99 28 -178zM946 999l104 120l112 -92l-108 -124q60 -71 94.5 -168.5t34.5 -204.5q0 -238 -157 -396t-394 -158q-172 0 -307 84 l-115 -133l-110 95l116 134q-60 73 -94.5 174t-34.5 207q0 240 153.5 394.5t393.5 154.5q178 0 312 -87z" unicode="ø"/>
<glyph glyph-name="ugrave" d="M846 0v159q-58 -85 -152.5 -134t-199.5 -49q-107 0 -192 47t-123 132t-38 235v672h281v-488q0 -224 15.5 -274.5t56.5 -80t104 -29.5q72 0 129 39.5t78 98t21 286.5v448h281v-1062h-261zM766 1192h-177l-276 299h315z" unicode="ù"/>
<glyph glyph-name="uacute" d="M846 0v159q-58 -85 -152.5 -134t-199.5 -49q-107 0 -192 47t-123 132t-38 235v672h281v-488q0 -224 15.5 -274.5t56.5 -80t104 -29.5q72 0 129 39.5t78 98t21 286.5v448h281v-1062h-261zM482 1192l138 299h315l-275 -299h-178z" unicode="ú"/>
<glyph glyph-name="ucircumflex" d="M846 0v159q-58 -85 -152.5 -134t-199.5 -49q-107 0 -192 47t-123 132t-38 235v672h281v-488q0 -224 15.5 -274.5t56.5 -80t104 -29.5q72 0 129 39.5t78 98t21 286.5v448h281v-1062h-261zM286 1196l210 295h260l207 -295h-226l-116 149l-108 -149h-227z" unicode="û"/>
<glyph glyph-name="udieresis" d="M846 0v159q-58 -85 -152.5 -134t-199.5 -49q-107 0 -192 47t-123 132t-38 235v672h281v-488q0 -224 15.5 -274.5t56.5 -80t104 -29.5q72 0 129 39.5t78 98t21 286.5v448h281v-1062h-261zM718 1250v241h242v-241h-242zM288 1250v241h241v-241h-241z" unicode="ü"/>
<glyph glyph-name="yacute" horiz-adv-x="1139" unicode="ý" d="M14 1062h299l254 -754l248 754h291l-375 -1022l-67 -185q-37 -93 -70.5 -142t-77 -79.5t-107 -47.5t-143.5 -17q-81 0 -159 17l-25 220q66 -13 119 -13q98 0 145 57.5t72 146.5zM418 1192l138 299h315l-275 -299h-178z"/>
<glyph glyph-name="thorn" d="M418 554q0 -165 52 -244q73 -112 194 -112q93 0 158.5 79.5t65.5 250.5q0 182 -66 262.5t-169 80.5q-101 0 -168 -78.5t-67 -238.5zM139 1466h281v-528q83 83 152.5 115.5t159.5 32.5q185 0 314 -145t129 -404q0 -266 -130 -413.5t-315 -147.5q-88 0 -159.5 35 t-150.5 120v-535h-281v1870z" unicode="þ"/>
<glyph glyph-name="ydieresis" horiz-adv-x="1139" unicode="ÿ" d="M14 1062h299l254 -754l248 754h291l-375 -1022l-67 -185q-37 -93 -70.5 -142t-77 -79.5t-107 -47.5t-143.5 -17q-81 0 -159 17l-25 220q66 -13 119 -13q98 0 145 57.5t72 146.5zM660 1250v241h242v-241h-242zM230 1250v241h241v-241h-241z"/>
<glyph glyph-name="Amacron" horiz-adv-x="1479" unicode="Ā" d="M926 580l-202 544l-198 -544h400zM1471 0h-322l-128 333h-586l-121 -333h-314l571 1466h313zM405 1598v185h644v-185h-644z"/>
<glyph glyph-name="amacron" horiz-adv-x="1139" unicode="ā" d="M733 510q-54 -18 -171 -43t-153 -49q-55 -39 -55 -99q0 -59 44 -102t112 -43q76 0 145 50q51 38 67 93q11 36 11 137v56zM357 738l-255 46q43 154 148 228t312 74q188 0 280 -44.5t129.5 -113t37.5 -251.5l-3 -328q0 -140 13.5 -206.5t50.5 -142.5h-278q-11 28 -27 83 q-7 25 -10 33q-72 -70 -154 -105t-175 -35q-164 0 -258.5 89t-94.5 225q0 90 43 160.5t120.5 108t223.5 65.5q197 37 273 69v28q0 81 -40 115.5t-151 34.5q-75 0 -117 -29.5t-68 -103.5zM247 1237v185h644v-185h-644z"/>
<glyph glyph-name="Abreve" horiz-adv-x="1479" unicode="Ă" d="M926 580l-202 544l-198 -544h400zM1471 0h-322l-128 333h-586l-121 -333h-314l571 1466h313zM911 1836h137q-12 -136 -95.5 -213.5t-216.5 -77.5t-216.5 77.5t-95.5 213.5h137q7 -71 50 -107.5t125 -36.5t125 36.5t50 107.5z"/>
<glyph glyph-name="abreve" horiz-adv-x="1139" unicode="ă" d="M733 510q-54 -18 -171 -43t-153 -49q-55 -39 -55 -99q0 -59 44 -102t112 -43q76 0 145 50q51 38 67 93q11 36 11 137v56zM357 738l-255 46q43 154 148 228t312 74q188 0 280 -44.5t129.5 -113t37.5 -251.5l-3 -328q0 -140 13.5 -206.5t50.5 -142.5h-278q-11 28 -27 83 q-7 25 -10 33q-72 -70 -154 -105t-175 -35q-164 0 -258.5 89t-94.5 225q0 90 43 160.5t120.5 108t223.5 65.5q197 37 273 69v28q0 81 -40 115.5t-151 34.5q-75 0 -117 -29.5t-68 -103.5zM743 1491h137q-12 -136 -95.5 -213.5t-216.5 -77.5t-216.5 77.5t-95.5 213.5h137 q7 -71 50 -107.5t125 -36.5t125 36.5t50 107.5z"/>
<glyph glyph-name="Aogonek" horiz-adv-x="1479" unicode="Ą" d="M926 580l-202 544l-198 -544h400zM1471 0h-322l-128 333h-586l-121 -333h-314l571 1466h313zM1381 0q-19 -14 -34.5 -32.5t-26.5 -39.5t-17 -42.5t-6 -41.5q0 -33 17.5 -55.5t58.5 -22.5q18 0 40.5 6.5t42.5 12.5v-167q-84 -40 -151 -40q-56 0 -97 15t-68.5 41t-41 60.5 t-13.5 73.5q0 58 35 121t94 111h167z"/>
<glyph glyph-name="aogonek" horiz-adv-x="1139" unicode="ą" d="M733 510q-54 -18 -171 -43t-153 -49q-55 -39 -55 -99q0 -59 44 -102t112 -43q76 0 145 50q51 38 67 93q11 36 11 137v56zM357 738l-255 46q43 154 148 228t312 74q188 0 280 -44.5t129.5 -113t37.5 -251.5l-3 -328q0 -140 13.5 -206.5t50.5 -142.5h-278q-11 28 -27 83 q-7 25 -10 33q-72 -70 -154 -105t-175 -35q-164 0 -258.5 89t-94.5 225q0 90 43 160.5t120.5 108t223.5 65.5q197 37 273 69v28q0 81 -40 115.5t-151 34.5q-75 0 -117 -29.5t-68 -103.5zM1006 0q-19 -14 -34.5 -32.5t-26.5 -39.5t-17 -42.5t-6 -41.5q0 -33 17.5 -55.5 t58.5 -22.5q18 0 40.5 6.5t42.5 12.5v-167q-84 -40 -151 -40q-56 0 -97 15t-68.5 41t-41 60.5t-13.5 73.5q0 58 35 121t94 111h167z"/>
<glyph glyph-name="Cacute" horiz-adv-x="1479" unicode="Ć" d="M1087 539l287 -91q-66 -240 -219.5 -356.5t-389.5 -116.5q-292 0 -480 199.5t-188 545.5q0 366 189 568.5t497 202.5q269 0 437 -159q100 -94 150 -270l-293 -70q-26 114 -108.5 180t-200.5 66q-163 0 -264.5 -117t-101.5 -379q0 -278 100 -396t260 -118q118 0 203 75 t122 236zM577 1550l138 299h315l-275 -299h-178z"/>
<glyph glyph-name="cacute" horiz-adv-x="1139" unicode="ć" d="M1073 748l-277 -50q-14 83 -63.5 125t-128.5 42q-105 0 -167.5 -72.5t-62.5 -242.5q0 -189 63.5 -267t170.5 -78q80 0 131 45.5t72 156.5l276 -47q-43 -190 -165 -287t-327 -97q-233 0 -371.5 147t-138.5 407q0 263 139 409.5t376 146.5q194 0 308.5 -83.5t164.5 -254.5z M432 1192l138 299h315l-275 -299h-178z"/>
<glyph glyph-name="Ccircumflex" horiz-adv-x="1479" unicode="Ĉ" d="M1087 539l287 -91q-66 -240 -219.5 -356.5t-389.5 -116.5q-292 0 -480 199.5t-188 545.5q0 366 189 568.5t497 202.5q269 0 437 -159q100 -94 150 -270l-293 -70q-26 114 -108.5 180t-200.5 66q-163 0 -264.5 -117t-101.5 -379q0 -278 100 -396t260 -118q118 0 203 75 t122 236zM430 1598l210 295h260l207 -295h-226l-116 149l-108 -149h-227z"/>
<glyph glyph-name="ccircumflex" horiz-adv-x="1139" unicode="ĉ" d="M1073 748l-277 -50q-14 83 -63.5 125t-128.5 42q-105 0 -167.5 -72.5t-62.5 -242.5q0 -189 63.5 -267t170.5 -78q80 0 131 45.5t72 156.5l276 -47q-43 -190 -165 -287t-327 -97q-233 0 -371.5 147t-138.5 407q0 263 139 409.5t376 146.5q194 0 308.5 -83.5t164.5 -254.5z M231 1196l210 295h260l207 -295h-226l-116 149l-108 -149h-227z"/>
<glyph glyph-name="Cdotaccent" horiz-adv-x="1479" unicode="Ċ" d="M1087 539l287 -91q-66 -240 -219.5 -356.5t-389.5 -116.5q-292 0 -480 199.5t-188 545.5q0 366 189 568.5t497 202.5q269 0 437 -159q100 -94 150 -270l-293 -70q-26 114 -108.5 180t-200.5 66q-163 0 -264.5 -117t-101.5 -379q0 -278 100 -396t260 -118q118 0 203 75 t122 236zM628 1598v266h276v-266h-276z"/>
<glyph glyph-name="cdotaccent" horiz-adv-x="1139" unicode="ċ" d="M1073 748l-277 -50q-14 83 -63.5 125t-128.5 42q-105 0 -167.5 -72.5t-62.5 -242.5q0 -189 63.5 -267t170.5 -78q80 0 131 45.5t72 156.5l276 -47q-43 -190 -165 -287t-327 -97q-233 0 -371.5 147t-138.5 407q0 263 139 409.5t376 146.5q194 0 308.5 -83.5t164.5 -254.5z M433 1225v266h276v-266h-276z"/>
<glyph glyph-name="Ccaron" horiz-adv-x="1479" unicode="Č" d="M1087 539l287 -91q-66 -240 -219.5 -356.5t-389.5 -116.5q-292 0 -480 199.5t-188 545.5q0 366 189 568.5t497 202.5q269 0 437 -159q100 -94 150 -270l-293 -70q-26 114 -108.5 180t-200.5 66q-163 0 -264.5 -117t-101.5 -379q0 -278 100 -396t260 -118q118 0 203 75 t122 236zM416 1851h227l108 -149l116 149h226l-207 -295h-260z"/>
<glyph glyph-name="ccaron" horiz-adv-x="1139" unicode="č" d="M1073 748l-277 -50q-14 83 -63.5 125t-128.5 42q-105 0 -167.5 -72.5t-62.5 -242.5q0 -189 63.5 -267t170.5 -78q80 0 131 45.5t72 156.5l276 -47q-43 -190 -165 -287t-327 -97q-233 0 -371.5 147t-138.5 407q0 263 139 409.5t376 146.5q194 0 308.5 -83.5t164.5 -254.5z M274 1491h227l108 -149l116 149h226l-207 -295h-260z"/>
<glyph glyph-name="Dcaron" horiz-adv-x="1479" unicode="Ď" d="M444 1218v-971h221q124 0 179 14q72 18 119.5 61t77.5 141.5t30 268.5t-30 261t-84 142t-137 69q-62 14 -243 14h-133zM148 1466h541q183 0 279 -28q129 -38 221 -135t140 -237.5t48 -346.5q0 -181 -45 -312q-55 -160 -157 -259q-77 -75 -208 -117q-98 -31 -262 -31h-557 v1466zM274 1851h227l108 -149l116 149h226l-207 -295h-260z"/>
<glyph glyph-name="dcaron" horiz-adv-x="1472" unicode="ď" d="M368 554q0 -170 47 -246q68 -110 190 -110q97 0 165 82.5t68 246.5q0 183 -66 263.5t-169 80.5q-100 0 -167.5 -79.5t-67.5 -237.5zM1118 0h-261v156q-65 -91 -153.5 -135.5t-178.5 -44.5q-183 0 -313.5 147.5t-130.5 411.5q0 270 127 410.5t321 140.5q178 0 308 -148 v528h281v-1466zM1219 1466h253v-181q0 -112 -20 -176t-74 -114t-130 -77l-50 105q76 25 109 70t34 120h-122v253z"/>
<glyph glyph-name="Dcroat" horiz-adv-x="1479" unicode="Đ" d="M444 1218v-392h314v-186h-314v-393h222q147 0 212 24q86 30 131 110q63 113 63 345q0 165 -26.5 254.5t-78 144.5t-134.5 77q-64 16 -255 16h-134zM149 1466h540q186 0 282 -29q130 -39 222 -137.5t138.5 -238.5t46.5 -346q0 -181 -51.5 -326.5t-151.5 -242.5 q-77 -73 -207 -115q-98 -31 -263 -31h-556v640h-152v186h152v640z"/>
<glyph glyph-name="dcroat" d="M371 554q0 -170 47 -246q68 -110 190 -110q97 0 165 82.5t68 246.5q0 183 -66 263.5t-169 80.5q-100 0 -167.5 -79.5t-67.5 -237.5zM840 1175h-303v187h303v104h281v-104h111v-187h-111v-1175h-261v156q-65 -91 -153.5 -135.5t-178.5 -44.5q-183 0 -313.5 147.5 t-130.5 411.5q0 270 127 410.5t321 140.5q178 0 308 -148v237z" unicode="đ"/>
<glyph glyph-name="Emacron" horiz-adv-x="1366" unicode="Ē" d="M149 0v1466h1087v-248h-791v-325h736v-247h-736v-399h819v-247h-1115zM361 1598v185h644v-185h-644z"/>
<glyph glyph-name="emacron" horiz-adv-x="1139" unicode="ē" d="M778 622q-3 122 -63 185.5t-146 63.5q-92 0 -152 -67t-59 -182h420zM762 338l280 -47q-54 -154 -170.5 -234.5t-291.5 -80.5q-277 0 -410 181q-105 145 -105 366q0 264 138 413.5t349 149.5q237 0 374 -156q131 -150 131 -453v-27h-704q3 -125 68 -194.5t162 -69.5 q66 0 111 36t68 116zM245 1237v185h644v-185h-644z"/>
<glyph glyph-name="Ebreve" horiz-adv-x="1366" unicode="Ĕ" d="M149 0v1466h1087v-248h-791v-325h736v-247h-736v-399h819v-247h-1115zM855 1880h137q-12 -136 -95.5 -213.5t-216.5 -77.5t-216.5 77.5t-95.5 213.5h137q7 -71 50 -107.5t125 -36.5t125 36.5t50 107.5z"/>
<glyph glyph-name="ebreve" horiz-adv-x="1139" unicode="ĕ" d="M778 622q-3 122 -63 185.5t-146 63.5q-92 0 -152 -67t-59 -182h420zM762 338l280 -47q-54 -154 -170.5 -234.5t-291.5 -80.5q-277 0 -410 181q-105 145 -105 366q0 264 138 413.5t349 149.5q237 0 374 -156q131 -150 131 -453v-27h-704q3 -125 68 -194.5t162 -69.5 q66 0 111 36t68 116zM729 1491h137q-12 -136 -95.5 -213.5t-216.5 -77.5t-216.5 77.5t-95.5 213.5h137q7 -71 50 -107.5t125 -36.5t125 36.5t50 107.5z"/>
<glyph glyph-name="Edotaccent" horiz-adv-x="1366" unicode="Ė" d="M149 0v1466h1087v-248h-791v-325h736v-247h-736v-399h819v-247h-1115zM547 1598v266h276v-266h-276z"/>
<glyph glyph-name="edotaccent" horiz-adv-x="1139" unicode="ė" d="M778 622q-3 122 -63 185.5t-146 63.5q-92 0 -152 -67t-59 -182h420zM762 338l280 -47q-54 -154 -170.5 -234.5t-291.5 -80.5q-277 0 -410 181q-105 145 -105 366q0 264 138 413.5t349 149.5q237 0 374 -156q131 -150 131 -453v-27h-704q3 -125 68 -194.5t162 -69.5 q66 0 111 36t68 116zM430 1225v266h276v-266h-276z"/>
<glyph glyph-name="Eogonek" horiz-adv-x="1366" unicode="Ę" d="M149 0v1466h1087v-248h-791v-325h736v-247h-736v-399h819v-247h-1115zM1187 0q-19 -14 -34.5 -32.5t-26.5 -39.5t-17 -42.5t-6 -41.5q0 -33 17.5 -55.5t58.5 -22.5q18 0 40.5 6.5t42.5 12.5v-167q-84 -40 -151 -40q-56 0 -97 15t-68.5 41t-41 60.5t-13.5 73.5 q0 58 35 121t94 111h167z"/>
<glyph glyph-name="eogonek" horiz-adv-x="1139" unicode="ę" d="M778 622q-3 122 -63 185.5t-146 63.5q-92 0 -152 -67t-59 -182h420zM762 338l280 -47q-54 -154 -170.5 -234.5t-291.5 -80.5q-277 0 -410 181q-105 145 -105 366q0 264 138 413.5t349 149.5q237 0 374 -156q131 -150 131 -453v-27h-704q3 -125 68 -194.5t162 -69.5 q66 0 111 36t68 116zM753 0q-19 -14 -34.5 -32.5t-26.5 -39.5t-17 -42.5t-6 -41.5q0 -33 17.5 -55.5t58.5 -22.5q18 0 40.5 6.5t42.5 12.5v-167q-84 -40 -151 -40q-56 0 -97 15t-68.5 41t-41 60.5t-13.5 73.5q0 58 35 121t94 111h167z"/>
<glyph glyph-name="Ecaron" horiz-adv-x="1366" unicode="Ě" d="M149 0v1466h1087v-248h-791v-325h736v-247h-736v-399h819v-247h-1115zM338 1851h227l108 -149l116 149h226l-207 -295h-260z"/>
<glyph glyph-name="ecaron" horiz-adv-x="1139" unicode="ě" d="M778 622q-3 122 -63 185.5t-146 63.5q-92 0 -152 -67t-59 -182h420zM762 338l280 -47q-54 -154 -170.5 -234.5t-291.5 -80.5q-277 0 -410 181q-105 145 -105 366q0 264 138 413.5t349 149.5q237 0 374 -156q131 -150 131 -453v-27h-704q3 -125 68 -194.5t162 -69.5 q66 0 111 36t68 116zM222 1491h227l108 -149l116 149h226l-207 -295h-260z"/>
<glyph glyph-name="Gcircumflex" horiz-adv-x="1593" unicode="Ĝ" d="M831 539v247h638v-584q-93 -90 -269.5 -158.5t-357.5 -68.5q-230 0 -401 96.5t-257 276t-86 390.5q0 229 96 407t281 273q141 73 351 73q273 0 426.5 -114.5t197.5 -316.5l-294 -55q-31 108 -116.5 170.5t-213.5 62.5q-194 0 -308.5 -123t-114.5 -365q0 -261 116 -391.5 t304 -130.5q93 0 186.5 36.5t160.5 88.5v186h-339zM480 1598l210 295h260l207 -295h-226l-116 149l-108 -149h-227z"/>
<glyph glyph-name="gcircumflex" d="M372 553q0 -169 65.5 -247.5t161.5 -78.5q103 0 174 80.5t71 238.5q0 165 -68 245t-172 80q-101 0 -166.5 -78.5t-65.5 -239.5zM121 -70l321 -39q8 -56 37 -77q40 -30 126 -30q110 0 165 33q37 22 56 71q13 35 13 129v155q-126 -172 -318 -172q-214 0 -339 181 q-98 143 -98 356q0 267 128.5 408t319.5 141q197 0 325 -173v149h263v-953q0 -188 -31 -281t-87 -146t-149.5 -83t-236.5 -30q-270 0 -383 92.5t-113 234.5q0 14 1 34zM288 1196l210 295h260l207 -295h-226l-116 149l-108 -149h-227z" unicode="ĝ"/>
<glyph glyph-name="Gbreve" horiz-adv-x="1593" unicode="Ğ" d="M831 539v247h638v-584q-93 -90 -269.5 -158.5t-357.5 -68.5q-230 0 -401 96.5t-257 276t-86 390.5q0 229 96 407t281 273q141 73 351 73q273 0 426.5 -114.5t197.5 -316.5l-294 -55q-31 108 -116.5 170.5t-213.5 62.5q-194 0 -308.5 -123t-114.5 -365q0 -261 116 -391.5 t304 -130.5q93 0 186.5 36.5t160.5 88.5v186h-339zM1019 1836h137q-12 -136 -95.5 -213.5t-216.5 -77.5t-216.5 77.5t-95.5 213.5h137q7 -71 50 -107.5t125 -36.5t125 36.5t50 107.5z"/>
<glyph glyph-name="gbreve" d="M372 553q0 -169 65.5 -247.5t161.5 -78.5q103 0 174 80.5t71 238.5q0 165 -68 245t-172 80q-101 0 -166.5 -78.5t-65.5 -239.5zM121 -70l321 -39q8 -56 37 -77q40 -30 126 -30q110 0 165 33q37 22 56 71q13 35 13 129v155q-126 -172 -318 -172q-214 0 -339 181 q-98 143 -98 356q0 267 128.5 408t319.5 141q197 0 325 -173v149h263v-953q0 -188 -31 -281t-87 -146t-149.5 -83t-236.5 -30q-270 0 -383 92.5t-113 234.5q0 14 1 34zM774 1491h137q-12 -136 -95.5 -213.5t-216.5 -77.5t-216.5 77.5t-95.5 213.5h137q7 -71 50 -107.5 t125 -36.5t125 36.5t50 107.5z" unicode="ğ"/>
<glyph glyph-name="Gdotaccent" horiz-adv-x="1593" unicode="Ġ" d="M831 539v247h638v-584q-93 -90 -269.5 -158.5t-357.5 -68.5q-230 0 -401 96.5t-257 276t-86 390.5q0 229 96 407t281 273q141 73 351 73q273 0 426.5 -114.5t197.5 -316.5l-294 -55q-31 108 -116.5 170.5t-213.5 62.5q-194 0 -308.5 -123t-114.5 -365q0 -261 116 -391.5 t304 -130.5q93 0 186.5 36.5t160.5 88.5v186h-339zM682 1598v266h276v-266h-276z"/>
<glyph glyph-name="gdotaccent" d="M372 553q0 -169 65.5 -247.5t161.5 -78.5q103 0 174 80.5t71 238.5q0 165 -68 245t-172 80q-101 0 -166.5 -78.5t-65.5 -239.5zM121 -70l321 -39q8 -56 37 -77q40 -30 126 -30q110 0 165 33q37 22 56 71q13 35 13 129v155q-126 -172 -318 -172q-214 0 -339 181 q-98 143 -98 356q0 267 128.5 408t319.5 141q197 0 325 -173v149h263v-953q0 -188 -31 -281t-87 -146t-149.5 -83t-236.5 -30q-270 0 -383 92.5t-113 234.5q0 14 1 34zM489 1225v266h276v-266h-276z" unicode="ġ"/>
<glyph glyph-name="Gcommaaccent" horiz-adv-x="1593" unicode="Ģ" d="M884 -24q154 -44 154 -178q0 -103 -98 -160t-247 -57q-133 0 -199 16v118q99 -11 185 -11q169 0 169 94q0 33 -30.5 58.5t-97.5 25.5q-62 0 -130 -20l25 99q38 14 101 22q-304 42 -461 250t-157 505q0 218 87.5 391t250 267.5t390.5 94.5q528 0 624 -431l-294 -55 q-31 113 -120 173t-207 60q-201 0 -313.5 -125t-112.5 -363q0 -239 108 -380.5t312 -141.5q189 0 347 125v186h-339v247h638v-584q-81 -80 -248.5 -150t-336.5 -76z"/>
<glyph glyph-name="gcommaaccent" d="M372 547q0 -144 58 -232t171 -88q98 0 170.5 79.5t72.5 243.5q0 142 -61 231.5t-181 89.5q-112 0 -171 -89t-59 -235zM121 -70l321 -39q6 -107 168 -107q100 0 148.5 26.5t64.5 70t16 136.5v155q-126 -172 -321 -172q-130 0 -234 76t-152 201.5t-48 261.5 q0 262 127 404.5t322 142.5q196 0 324 -173v149h263v-953q0 -206 -44 -317t-157.5 -167t-299.5 -56q-258 0 -378.5 86.5t-120.5 239.5q0 15 1 35zM719 1189h-297v90q0 116 20.5 177.5t80.5 109t162 75.5l38 -133q-74 -20 -102 -48.5t-34 -87.5h132v-183z" unicode="ģ"/>
<glyph glyph-name="Hcircumflex" horiz-adv-x="1479" unicode="Ĥ" d="M150 0v1466h296v-577h580v577h296v-1466h-296v641h-580v-641h-296zM401 1598l210 295h260l207 -295h-226l-116 149l-108 -149h-227z"/>
<glyph glyph-name="hcircumflex" d="M427 1466v-539q136 159 325 159q97 0 175 -36t117.5 -92t54 -124t14.5 -211v-623h-281v561q0 167 -16 212t-56.5 71.5t-101.5 26.5q-70 0 -125 -34t-80.5 -102.5t-25.5 -202.5v-532h-281v1466h281zM288 1550l210 295h260l207 -295h-226l-116 149l-108 -149h-227z" unicode="ĥ"/>
<glyph glyph-name="Hbar" horiz-adv-x="1479" unicode="Ħ" d="M445 1084v-195h581v195h-581zM150 1084h-145v186h145v196h295v-196h581v196h295v-196h145v-186h-145v-1084h-295v641h-581v-641h-295v1084z"/>
<glyph glyph-name="hbar" d="M427 1362h293v-187h-293v-248q135 159 329 159q125 0 211 -56.5t116.5 -143.5t30.5 -263v-623h-282v561q0 144 -11.5 196t-53.5 83t-110 31q-112 0 -171 -74t-59 -265v-532h-281v1175h-121v187h121v104h281v-104z" unicode="ħ"/>
<glyph glyph-name="Itilde" horiz-adv-x="569" unicode="Ĩ" d="M140 0v1466h296v-1466h-296zM59 1596h-128q-1 23 -1 36q0 105 51 161.5t131 56.5q35 0 65 -7.5t109.5 -43t124.5 -35.5q32 0 53.5 20t27.5 67h130q-1 -135 -50.5 -193t-127.5 -58q-34 0 -67 7q-23 6 -115 41t-134 35q-32 0 -50 -19.5t-19 -67.5z"/>
<glyph glyph-name="itilde" horiz-adv-x="569" unicode="ĩ" d="M147 0v1062h281v-1062h-281zM60 1205h-128q-1 23 -1 36q0 105 51 161.5t131 56.5q35 0 65 -7.5t109.5 -43t124.5 -35.5q32 0 53.5 20t27.5 67h130q-1 -135 -50.5 -193t-127.5 -58q-34 0 -67 7q-23 6 -115 41t-134 35q-32 0 -50 -19.5t-19 -67.5z"/>
<glyph glyph-name="Imacron" horiz-adv-x="569" unicode="Ī" d="M140 0v1466h296v-1466h-296zM-38 1598v185h644v-185h-644z"/>
<glyph glyph-name="imacron" horiz-adv-x="569" unicode="ī" d="M147 0v1062h281v-1062h-281zM-38 1237v185h644v-185h-644z"/>
<glyph glyph-name="Ibreve" horiz-adv-x="569" unicode="Ĭ" d="M140 0v1466h296v-1466h-296zM456 1880h137q-12 -136 -95.5 -213.5t-216.5 -77.5t-216.5 77.5t-95.5 213.5h137q7 -71 50 -107.5t125 -36.5t125 36.5t50 107.5z"/>
<glyph glyph-name="ibreve" horiz-adv-x="569" unicode="ĭ" d="M147 0v1062h281v-1062h-281zM457 1491h137q-12 -136 -95.5 -213.5t-216.5 -77.5t-216.5 77.5t-95.5 213.5h137q7 -71 50 -107.5t125 -36.5t125 36.5t50 107.5z"/>
<glyph glyph-name="Iogonek" horiz-adv-x="569" unicode="Į" d="M140 0v1466h296v-1466h-296zM368 0q-19 -14 -34.5 -32.5t-26.5 -39.5t-17 -42.5t-6 -41.5q0 -33 17.5 -55.5t58.5 -22.5q18 0 40.5 6.5t42.5 12.5v-167q-84 -40 -151 -40q-56 0 -97 15t-68.5 41t-41 60.5t-13.5 73.5q0 58 35 121t94 111h167z"/>
<glyph glyph-name="iogonek" horiz-adv-x="569" unicode="į" d="M147 0v1062h281v-1062h-281zM147 1206v260h281v-260h-281zM367 0q-19 -14 -34.5 -32.5t-26.5 -39.5t-17 -42.5t-6 -41.5q0 -33 17.5 -55.5t58.5 -22.5q18 0 40.5 6.5t42.5 12.5v-167q-84 -40 -151 -40q-56 0 -97 15t-68.5 41t-41 60.5t-13.5 73.5q0 58 35 121t94 111h167 z"/>
<glyph glyph-name="Idotaccent" horiz-adv-x="569" unicode="İ" d="M140 0v1466h296v-1466h-296zM151 1550v266h276v-266h-276z"/>
<glyph glyph-name="dotlessi" horiz-adv-x="569" unicode="ı" d="M147 0v1062h281v-1062h-281z"/>
<glyph glyph-name="IJ" horiz-adv-x="1607" unicode="Ĳ" d="M140 0v1466h296v-1466h-296zM1155 1466h295v-928q0 -182 -32 -280q-43 -128 -156 -205.5t-298 -77.5q-217 0 -334 121.5t-118 356.5l279 32q5 -126 37 -178q48 -79 146 -79q99 0 140 56.5t41 234.5v947z"/>
<glyph glyph-name="ij" horiz-adv-x="1139" unicode="ĳ" d="M147 0v1062h281v-1062h-281zM147 1206v260h281v-260h-281zM978 1062v-1029q0 -203 -26.5 -286.5t-102 -130.5t-192.5 -47q-42 0 -90.5 7.5t-104.5 22.5l49 240q20 -4 37.5 -6.5t32.5 -2.5q43 0 70.5 18.5t36.5 44.5t9 156v1013h281zM697 1206v260h281v-260h-281z"/>
<glyph glyph-name="Jcircumflex" horiz-adv-x="1139" unicode="Ĵ" d="M678 1466h295v-928q0 -182 -32 -280q-43 -128 -156 -205.5t-298 -77.5q-217 0 -334 121.5t-118 356.5l279 32q5 -126 37 -178q48 -79 146 -79q99 0 140 56.5t41 234.5v947zM486 1598l210 295h260l207 -295h-226l-116 149l-108 -149h-227z"/>
<glyph glyph-name="jcircumflex" horiz-adv-x="569" unicode="ĵ" d="M422 1062v-1029q0 -185 -22 -272t-96.5 -139.5t-204.5 -52.5q-82 0 -193 30l49 240q38 -9 70 -9q47 0 76 22t34.5 56t5.5 141v1013h281zM-54 1196l210 295h260l207 -295h-225l-116 149l-108 -149h-228z"/>
<glyph glyph-name="Kcommaaccent" horiz-adv-x="1479" unicode="Ķ" d="M153 0v1466h296v-651l598 651h398l-552 -571l582 -895h-383l-403 688l-240 -245v-443h-296zM585 -27q58 7 111 7q285 0 285 -182q0 -99 -94 -159t-281 -60q-86 0 -170 16v121q81 -11 161 -11q189 0 189 85q0 67 -148 67q-23 0 -53 -3v119z"/>
<glyph glyph-name="kcommaaccent" horiz-adv-x="1139" unicode="ķ" d="M137 0v1466h281v-778l329 374h346l-363 -388l389 -674h-303l-267 477l-131 -137v-340h-281zM449 -27q58 7 111 7q285 0 285 -182q0 -99 -94 -159t-281 -60q-86 0 -170 16v121q81 -11 161 -11q189 0 189 85q0 67 -148 67q-23 0 -53 -3v119z"/>
<glyph glyph-name="kgreenlandic" horiz-adv-x="1139" unicode="ĸ" d="M141 0v1062h281v-374l329 374h346l-363 -388l389 -674h-303l-267 477l-131 -137v-340h-281z"/>
<glyph glyph-name="Lacute" d="M157 0v1454h296v-1207h736v-247h-1032zM430 1550l138 299h315l-275 -299h-178z" unicode="Ĺ"/>
<glyph glyph-name="lacute" horiz-adv-x="569" unicode="ĺ" d="M147 0v1466h281v-1466h-281zM121 1541l138 299h315l-275 -299h-178z"/>
<glyph glyph-name="Lcommaaccent" d="M157 0v1454h296v-1207h736v-247h-1032zM471 -27q58 7 111 7q285 0 285 -182q0 -99 -94 -159t-281 -60q-86 0 -170 16v121q81 -11 161 -11q189 0 189 85q0 67 -148 67q-23 0 -53 -3v119z" unicode="Ļ"/>
<glyph glyph-name="lcommaaccent" horiz-adv-x="569" unicode="ļ" d="M147 0v1466h281v-1466h-281zM130 -27q58 7 111 7q285 0 285 -182q0 -99 -94 -159t-281 -60q-86 0 -170 16v121q81 -11 161 -11q189 0 189 85q0 67 -148 67q-23 0 -53 -3v119z"/>
<glyph glyph-name="Lcaron" d="M839 1454h281v-202q0 -122 -21 -192t-79.5 -126.5t-148.5 -88.5l-55 117q84 28 120.5 77t38.5 134h-136v281zM157 0v1454h296v-1207h736v-247h-1032z" unicode="Ľ"/>
<glyph glyph-name="lcaron" horiz-adv-x="789" unicode="ľ" d="M149 0v1466h281v-1466h-281zM531 1466h253v-181q0 -112 -20 -176t-74 -114t-130 -77l-50 105q76 25 109.5 70t33.5 120h-122v253z"/>
<glyph glyph-name="Ldot" d="M157 0v1454h296v-1207h736v-247h-1032zM485 573v281h281v-281h-281z" unicode="Ŀ"/>
<glyph glyph-name="ldot" horiz-adv-x="981" unicode="ŀ" d="M147 0v1466h281v-1466h-281zM560 573v281h281v-281h-281z"/>
<glyph glyph-name="Lslash" d="M165 732v734h295v-485l329 276v-242l-329 -275v-493h737v-247h-1032v494l-155 -129v237z" unicode="Ł"/>
<glyph glyph-name="lslash" horiz-adv-x="569" unicode="ł" d="M147 720v746h281v-507l137 116v-190l-137 -116v-769h-281v530l-137 -116v190z"/>
<glyph glyph-name="Nacute" horiz-adv-x="1479" unicode="Ń" d="M152 0v1466h288l600 -979v979h275v-1466h-297l-591 956v-956h-275zM555 1550l138 299h315l-275 -299h-178z"/>
<glyph glyph-name="nacute" d="M1113 0h-281v542q0 172 -18 222.5t-58.5 78.5t-97.5 28q-73 0 -131 -40t-79.5 -106t-21.5 -244v-481h-281v1062h261v-156q139 180 350 180q93 0 170 -33.5t116.5 -85.5t55 -118t15.5 -189v-660zM475 1192l138 299h315l-275 -299h-178z" unicode="ń"/>
<glyph glyph-name="Ncommaaccent" horiz-adv-x="1479" unicode="Ņ" d="M152 0v1466h288l600 -979v979h275v-1466h-297l-591 956v-956h-275zM585 -27q58 7 111 7q285 0 285 -182q0 -99 -94 -159t-281 -60q-86 0 -170 16v121q81 -11 161 -11q189 0 189 85q0 67 -148 67q-23 0 -53 -3v119z"/>
<glyph glyph-name="ncommaaccent" d="M1113 0h-281v542q0 172 -18 222.5t-58.5 78.5t-97.5 28q-73 0 -131 -40t-79.5 -106t-21.5 -244v-481h-281v1062h261v-156q139 180 350 180q93 0 170 -33.5t116.5 -85.5t55 -118t15.5 -189v-660zM471 -27q58 7 111 7q285 0 285 -182q0 -99 -94 -159t-281 -60 q-86 0 -170 16v121q81 -11 161 -11q189 0 189 85q0 67 -148 67q-23 0 -53 -3v119z" unicode="ņ"/>
<glyph glyph-name="Ncaron" horiz-adv-x="1479" unicode="Ň" d="M152 0v1466h288l600 -979v979h275v-1466h-297l-591 956v-956h-275zM378 1851h227l108 -149l116 149h226l-207 -295h-260z"/>
<glyph glyph-name="ncaron" d="M1113 0h-281v542q0 172 -18 222.5t-58.5 78.5t-97.5 28q-73 0 -131 -40t-79.5 -106t-21.5 -244v-481h-281v1062h261v-156q139 180 350 180q93 0 170 -33.5t116.5 -85.5t55 -118t15.5 -189v-660zM290 1491h227l108 -149l116 149h226l-207 -295h-260z" unicode="ň"/>
<glyph glyph-name="napostrophe" horiz-adv-x="1451" unicode="ŉ" d="M-34 1466h281v-201q0 -122 -21 -192.5t-79.5 -126.5t-148.5 -88l-55 116q85 28 121 77t38 134h-136v281zM1301 0h-281v542q0 172 -18 222.5t-58.5 78.5t-97.5 28q-73 0 -131 -40t-79.5 -106t-21.5 -244v-481h-281v1062h261v-156q139 180 350 180q93 0 170 -33.5 t116.5 -85.5t55 -118t15.5 -189v-660z"/>
<glyph glyph-name="Eng" horiz-adv-x="1481" unicode="Ŋ" d="M156 1466h294v-209q208 234 475 234q163 0 266 -91.5t148 -247t45 -430.5q0 -331 -43 -466.5t-133 -208.5t-247 -73q-168 0 -290 69l89 219q92 -39 160 -39q84 0 120 92.5t36 352.5q0 365 -76 464t-207 99q-113 0 -201 -66t-115 -143.5t-27 -220.5v-801h-294v1466z"/>
<glyph glyph-name="eng" d="M594 -401l51 247q52 -16 86 -16q54 0 75.5 40t21.5 137l1 535q0 142 -11.5 199.5t-55 94t-109.5 36.5q-70 0 -132 -43.5t-80 -116t-18 -231.5v-481h-281v1062h261v-156q139 180 352 180q123 0 207.5 -53.5t116 -135.5t31.5 -237v-607q0 -206 -19.5 -293t-101 -141.5 t-213.5 -54.5q-80 0 -182 35z" unicode="ŋ"/>
<glyph glyph-name="Omacron" horiz-adv-x="1593" unicode="Ō" d="M394 734q0 -249 115 -377.5t292 -128.5t290.5 127.5t113.5 382.5q0 252 -110.5 376t-293.5 124t-295 -125.5t-112 -378.5zM89 724q0 224 67 376q50 112 136.5 201t189.5 132q137 58 316 58q324 0 518.5 -201t194.5 -559q0 -355 -193 -555.5t-516 -200.5 q-327 0 -520 199.5t-193 549.5zM474 1598v185h644v-185h-644z"/>
<glyph glyph-name="omacron" d="M370 531q0 -158 75 -242t185 -84t184.5 84t74.5 244q0 156 -74.5 240t-184.5 84t-185 -84t-75 -242zM82 546q0 140 69 271t195.5 200t282.5 69q241 0 395 -156.5t154 -395.5q0 -241 -155.5 -399.5t-391.5 -158.5q-146 0 -278.5 66t-201.5 193.5t-69 310.5zM303 1237v185 h644v-185h-644z" unicode="ō"/>
<glyph glyph-name="Obreve" horiz-adv-x="1593" unicode="Ŏ" d="M394 734q0 -249 115 -377.5t292 -128.5t290.5 127.5t113.5 382.5q0 252 -110.5 376t-293.5 124t-295 -125.5t-112 -378.5zM89 724q0 224 67 376q50 112 136.5 201t189.5 132q137 58 316 58q324 0 518.5 -201t194.5 -559q0 -355 -193 -555.5t-516 -200.5 q-327 0 -520 199.5t-193 549.5zM968 1880h137q-12 -136 -95.5 -213.5t-216.5 -77.5t-216.5 77.5t-95.5 213.5h137q7 -71 50 -107.5t125 -36.5t125 36.5t50 107.5z"/>
<glyph glyph-name="obreve" d="M370 531q0 -158 75 -242t185 -84t184.5 84t74.5 244q0 156 -74.5 240t-184.5 84t-185 -84t-75 -242zM82 546q0 140 69 271t195.5 200t282.5 69q241 0 395 -156.5t154 -395.5q0 -241 -155.5 -399.5t-391.5 -158.5q-146 0 -278.5 66t-201.5 193.5t-69 310.5zM798 1491h137 q-12 -136 -95.5 -213.5t-216.5 -77.5t-216.5 77.5t-95.5 213.5h137q7 -71 50 -107.5t125 -36.5t125 36.5t50 107.5z" unicode="ŏ"/>
<glyph glyph-name="Ohungarumlaut" horiz-adv-x="1593" unicode="Ő" d="M394 734q0 -249 115 -377.5t292 -128.5t290.5 127.5t113.5 382.5q0 252 -110.5 376t-293.5 124t-295 -125.5t-112 -378.5zM89 724q0 224 67 376q50 112 136.5 201t189.5 132q137 58 316 58q324 0 518.5 -201t194.5 -559q0 -355 -193 -555.5t-516 -200.5 q-327 0 -520 199.5t-193 549.5zM856 1550l141 298h286l-247 -298h-180zM480 1550l139 298h294l-257 -298h-176z"/>
<glyph glyph-name="ohungarumlaut" d="M370 531q0 -158 75 -242t185 -84t184.5 84t74.5 244q0 156 -74.5 240t-184.5 84t-185 -84t-75 -242zM82 546q0 140 69 271t195.5 200t282.5 69q241 0 395 -156.5t154 -395.5q0 -241 -155.5 -399.5t-391.5 -158.5q-146 0 -278.5 66t-201.5 193.5t-69 310.5zM661 1197 l141 298h286l-247 -298h-180zM285 1197l139 298h294l-257 -298h-176z" unicode="ő"/>
<glyph glyph-name="OE" horiz-adv-x="2048" unicode="Œ" d="M701 1238q-148 0 -236 -109t-88 -372q0 -297 99 -425q75 -97 225 -97q181 0 252.5 137.5t71.5 378.5q0 269 -87.5 378t-236.5 109zM1985 249v-249h-943v173q-115 -198 -384 -198q-261 0 -407 170q-179 208 -179 590q0 378 175 581q150 175 397 175q125 0 229.5 -51 t168.5 -136v162h915v-248h-658v-326h602v-248h-602v-395h686z"/>
<glyph glyph-name="oe" horiz-adv-x="1933" unicode="œ" d="M377 515q0 -107 63.5 -206.5t187.5 -99.5q104 0 174.5 82.5t70.5 248.5q0 151 -70.5 232t-174.5 81q-110 0 -180.5 -83t-70.5 -255zM1579 624q-8 130 -68 192.5t-150 62.5q-99 0 -157 -80q-41 -56 -51 -175h426zM1562 341l274 -44q-49 -151 -169.5 -236t-293.5 -85 q-101 0 -200 36t-174 112q-79 -74 -172 -111t-201 -37q-233 0 -385.5 155.5t-152.5 397.5q0 149 65.5 284t192.5 204t285 69q111 0 203.5 -37t167.5 -111q69 74 157.5 111t196.5 37q101 0 186.5 -34t141 -85.5t94 -128t55.5 -172.5q16 -91 16 -205v-13h-699 q10 -129 71 -193.5t153 -64.5q66 0 112.5 35t75.5 116z"/>
<glyph glyph-name="Racute" horiz-adv-x="1479" unicode="Ŕ" d="M446 846h219q213 0 266 18t83 62t30 110q0 74 -39.5 119.5t-111.5 57.5q-36 5 -216 5h-231v-372zM150 0v1466h623q235 0 341.5 -39.5t170.5 -140.5t64 -231q0 -165 -97 -272.5t-290 -135.5q96 -56 158.5 -123t168.5 -238l179 -286h-354l-214 319q-114 171 -156 215.5 t-89 61t-149 16.5h-60v-612h-296zM469 1550l138 299h315l-275 -299h-178z"/>
<glyph glyph-name="racute" horiz-adv-x="797" unicode="ŕ" d="M416 0h-281v1062h261v-151q67 107 120.5 141t121.5 34q96 0 185 -53l-87 -245q-71 46 -132 46q-59 0 -100 -32.5t-64.5 -117.5t-23.5 -356v-328zM276 1192l138 299h315l-275 -299h-178z"/>
<glyph glyph-name="Rcommaaccent" horiz-adv-x="1479" unicode="Ŗ" d="M446 846h219q213 0 266 18t83 62t30 110q0 74 -39.5 119.5t-111.5 57.5q-36 5 -216 5h-231v-372zM150 0v1466h623q235 0 341.5 -39.5t170.5 -140.5t64 -231q0 -165 -97 -272.5t-290 -135.5q96 -56 158.5 -123t168.5 -238l179 -286h-354l-214 319q-114 171 -156 215.5 t-89 61t-149 16.5h-60v-612h-296zM585 -27q58 7 111 7q285 0 285 -182q0 -99 -94 -159t-281 -60q-86 0 -170 16v121q81 -11 161 -11q189 0 189 85q0 67 -148 67q-23 0 -53 -3v119z"/>
<glyph glyph-name="rcommaaccent" horiz-adv-x="797" unicode="ŗ" d="M416 0h-281v1062h261v-151q67 107 120.5 141t121.5 34q96 0 185 -53l-87 -245q-71 46 -132 46q-59 0 -100 -32.5t-64.5 -117.5t-23.5 -356v-328zM191 -27q58 7 111 7q285 0 285 -182q0 -99 -94 -159t-281 -60q-86 0 -170 16v121q81 -11 161 -11q189 0 189 85 q0 67 -148 67q-23 0 -53 -3v119z"/>
<glyph glyph-name="Rcaron" horiz-adv-x="1479" unicode="Ř" d="M446 846h219q213 0 266 18t83 62t30 110q0 74 -39.5 119.5t-111.5 57.5q-36 5 -216 5h-231v-372zM150 0v1466h623q235 0 341.5 -39.5t170.5 -140.5t64 -231q0 -165 -97 -272.5t-290 -135.5q96 -56 158.5 -123t168.5 -238l179 -286h-354l-214 319q-114 171 -156 215.5 t-89 61t-149 16.5h-60v-612h-296zM298 1851h227l108 -149l116 149h226l-207 -295h-260z"/>
<glyph glyph-name="rcaron" horiz-adv-x="797" unicode="ř" d="M416 0h-281v1062h261v-151q67 107 120.5 141t121.5 34q96 0 185 -53l-87 -245q-71 46 -132 46q-59 0 -100 -32.5t-64.5 -117.5t-23.5 -356v-328zM80 1491h227l108 -149l116 149h226l-207 -295h-260z"/>
<glyph glyph-name="Sacute" horiz-adv-x="1366" unicode="Ś" d="M74 477l288 28q26 -145 105.5 -213t214.5 -68q143 0 215.5 60.5t72.5 141.5q0 52 -30.5 88.5t-106.5 63.5q-52 18 -237 64q-238 59 -334 145q-135 121 -135 295q0 112 63.5 209.5t183 148.5t288.5 51q276 0 415.5 -121t146.5 -323l-296 -13q-19 113 -81.5 162.5 t-187.5 49.5q-129 0 -202 -53q-47 -34 -47 -91q0 -52 44 -89q56 -47 272 -98t319.5 -105.5t162 -149t58.5 -233.5q0 -126 -70 -236t-198 -163.5t-319 -53.5q-278 0 -427 128.5t-178 374.5zM551 1550l138 299h315l-275 -299h-178z"/>
<glyph glyph-name="sacute" horiz-adv-x="1139" unicode="ś" d="M48 303l282 43q18 -82 73 -124.5t154 -42.5q109 0 164 40q37 28 37 75q0 32 -20 53q-21 20 -94 37q-340 75 -431 137q-126 86 -126 239q0 138 109 232t338 94q218 0 324 -71t146 -210l-265 -49q-17 62 -64.5 95t-135.5 33q-111 0 -159 -31q-32 -22 -32 -57q0 -30 28 -51 q38 -28 262.5 -79t313.5 -125q88 -75 88 -209q0 -146 -122 -251t-361 -105q-217 0 -343.5 88t-165.5 239zM454 1192l138 299h315l-275 -299h-178z"/>
<glyph glyph-name="Scircumflex" horiz-adv-x="1366" unicode="Ŝ" d="M74 477l288 28q26 -145 105.5 -213t214.5 -68q143 0 215.5 60.5t72.5 141.5q0 52 -30.5 88.5t-106.5 63.5q-52 18 -237 64q-238 59 -334 145q-135 121 -135 295q0 112 63.5 209.5t183 148.5t288.5 51q276 0 415.5 -121t146.5 -323l-296 -13q-19 113 -81.5 162.5 t-187.5 49.5q-129 0 -202 -53q-47 -34 -47 -91q0 -52 44 -89q56 -47 272 -98t319.5 -105.5t162 -149t58.5 -233.5q0 -126 -70 -236t-198 -163.5t-319 -53.5q-278 0 -427 128.5t-178 374.5zM345 1598l210 295h260l207 -295h-226l-116 149l-108 -149h-227z"/>
<glyph glyph-name="scircumflex" horiz-adv-x="1139" unicode="ŝ" d="M48 303l282 43q18 -82 73 -124.5t154 -42.5q109 0 164 40q37 28 37 75q0 32 -20 53q-21 20 -94 37q-340 75 -431 137q-126 86 -126 239q0 138 109 232t338 94q218 0 324 -71t146 -210l-265 -49q-17 62 -64.5 95t-135.5 33q-111 0 -159 -31q-32 -22 -32 -57q0 -30 28 -51 q38 -28 262.5 -79t313.5 -125q88 -75 88 -209q0 -146 -122 -251t-361 -105q-217 0 -343.5 88t-165.5 239zM232 1196l210 295h260l207 -295h-226l-116 149l-108 -149h-227z"/>
<glyph glyph-name="Scedilla" horiz-adv-x="1366" unicode="Ş" d="M74 477l288 28q26 -145 105.5 -213t214.5 -68q143 0 215.5 60.5t72.5 141.5q0 52 -30.5 88.5t-106.5 63.5q-52 18 -237 64q-238 59 -334 145q-135 121 -135 295q0 112 63.5 209.5t183 148.5t288.5 51q276 0 415.5 -121t146.5 -323l-296 -13q-19 113 -81.5 162.5 t-187.5 49.5q-129 0 -202 -53q-47 -34 -47 -91q0 -52 44 -89q56 -47 272 -98t319.5 -105.5t162 -149t58.5 -233.5q0 -126 -70 -236t-198 -163.5t-319 -53.5q-278 0 -427 128.5t-178 374.5zM411 -403v118q103 -11 189 -11q89 0 132 32q33 24 33 62q0 34 -31 59t-96 25 q-64 0 -131 -20l26 99q78 27 168 27q125 0 190 -55t65 -134q0 -88 -72 -143q-97 -75 -278 -75q-129 0 -195 16z"/>
<glyph glyph-name="scedilla" horiz-adv-x="1139" unicode="ş" d="M48 303l282 43q18 -82 73 -124.5t154 -42.5q109 0 164 40q37 28 37 75q0 32 -20 53q-21 20 -94 37q-340 75 -431 137q-126 86 -126 239q0 138 109 232t338 94q218 0 324 -71t146 -210l-265 -49q-17 62 -64.5 95t-135.5 33q-111 0 -159 -31q-32 -22 -32 -57q0 -30 28 -51 q38 -28 262.5 -79t313.5 -125q88 -75 88 -209q0 -146 -122 -251t-361 -105q-217 0 -343.5 88t-165.5 239zM316 -403v118q103 -11 189 -11q89 0 132 32q33 24 33 62q0 34 -31 59t-96 25q-64 0 -131 -20l26 99q78 27 168 27q125 0 190 -55t65 -134q0 -88 -72 -143 q-97 -75 -278 -75q-129 0 -195 16z"/>
<glyph glyph-name="Scaron" horiz-adv-x="1366" unicode="Š" d="M74 477l288 28q26 -145 105.5 -213t214.5 -68q143 0 215.5 60.5t72.5 141.5q0 52 -30.5 88.5t-106.5 63.5q-52 18 -237 64q-238 59 -334 145q-135 121 -135 295q0 112 63.5 209.5t183 148.5t288.5 51q276 0 415.5 -121t146.5 -323l-296 -13q-19 113 -81.5 162.5 t-187.5 49.5q-129 0 -202 -53q-47 -34 -47 -91q0 -52 44 -89q56 -47 272 -98t319.5 -105.5t162 -149t58.5 -233.5q0 -126 -70 -236t-198 -163.5t-319 -53.5q-278 0 -427 128.5t-178 374.5zM334 1851h227l108 -149l116 149h226l-207 -295h-260z"/>
<glyph glyph-name="scaron" horiz-adv-x="1139" unicode="š" d="M48 303l282 43q18 -82 73 -124.5t154 -42.5q109 0 164 40q37 28 37 75q0 32 -20 53q-21 20 -94 37q-340 75 -431 137q-126 86 -126 239q0 138 109 232t338 94q218 0 324 -71t146 -210l-265 -49q-17 62 -64.5 95t-135.5 33q-111 0 -159 -31q-32 -22 -32 -57q0 -30 28 -51 q38 -28 262.5 -79t313.5 -125q88 -75 88 -209q0 -146 -122 -251t-361 -105q-217 0 -343.5 88t-165.5 239zM205 1491h227l108 -149l116 149h226l-207 -295h-260z"/>
<glyph glyph-name="Tcommaaccent" d="M479 0v1218h-435v248h1165v-248h-434v-1218h-296zM348 -403v118q103 -11 189 -11q89 0 132 32q33 24 33 62q0 34 -31 59t-96 25q-64 0 -131 -20l26 99q78 27 168 27q125 0 190 -55t65 -134q0 -88 -72 -143q-97 -75 -278 -75q-129 0 -195 16z" unicode="Ţ"/>
<glyph glyph-name="tcommaaccent" horiz-adv-x="682" unicode="ţ" d="M634 1062v-224h-192v-428q0 -130 5.5 -151.5t25 -35.5t47.5 -14q39 0 113 27l24 -218q-98 -42 -222 -42q-76 0 -137 25.5t-89.5 66t-39.5 109.5q-9 49 -9 198v463h-129v224h129v211l282 164v-375h192zM118 -403v118q103 -11 189 -11q89 0 132 32q33 24 33 62q0 34 -31 59 t-96 25q-64 0 -131 -20l26 99q78 27 168 27q125 0 190 -55t65 -134q0 -88 -72 -143q-97 -75 -278 -75q-129 0 -195 16z"/>
<glyph glyph-name="Tcaron" d="M479 0v1218h-435v248h1165v-248h-434v-1218h-296zM273 1851h227l108 -149l116 149h226l-207 -295h-260z" unicode="Ť"/>
<glyph glyph-name="tcaron" horiz-adv-x="981" unicode="ť" d="M633 1062v-224h-192v-428q0 -130 5.5 -151.5t25 -35.5t47.5 -14q39 0 113 27l24 -218q-98 -42 -222 -42q-76 0 -137 25.5t-89.5 66t-39.5 109.5q-9 49 -9 198v463h-129v224h129v211l282 164v-375h192zM730 1466h253v-181q0 -112 -20 -176t-74 -114t-130 -77l-50 105 q76 25 109.5 70t33.5 120h-122v253z"/>
<glyph glyph-name="Tbar" d="M479 552h-314v187h314v479h-435v248h1165v-248h-434v-479h314v-187h-314v-552h-296v552z" unicode="Ŧ"/>
<glyph glyph-name="tbar" horiz-adv-x="682" unicode="ŧ" d="M428 606h176v-174h-176v-24q0 -110 2.5 -135.5t22 -44.5t53.5 -19q39 0 113 27l24 -218q-98 -42 -222 -42q-108 0 -172.5 43t-83 111t-18.5 245v57h-140v174h140v232h-130v224h130v211l281 164v-375h192v-224h-192v-232z"/>
<glyph glyph-name="Utilde" horiz-adv-x="1479" unicode="Ũ" d="M147 1466h296v-794q0 -189 11 -245q19 -90 90.5 -144.5t195.5 -54.5q126 0 190 51.5t77 126.5t13 249v811h296v-770q0 -264 -24 -373t-88.5 -184t-172.5 -119.5t-282 -44.5q-210 0 -318.5 48.5t-171.5 126t-83 162.5q-29 126 -29 372v782zM515 1596h-128q-1 23 -1 36 q0 105 51 161.5t131 56.5q35 0 65 -7.5t109.5 -43t124.5 -35.5q32 0 53.5 20t27.5 67h130q-1 -135 -50.5 -193t-127.5 -58q-34 0 -67 7q-23 6 -115 41t-134 35q-32 0 -50 -19.5t-19 -67.5z"/>
<glyph glyph-name="utilde" d="M846 0v159q-58 -85 -152.5 -134t-199.5 -49q-107 0 -192 47t-123 132t-38 235v672h281v-488q0 -224 15.5 -274.5t56.5 -80t104 -29.5q72 0 129 39.5t78 98t21 286.5v448h281v-1062h-261zM401 1205h-128q-1 23 -1 36q0 105 51 161.5t131 56.5q35 0 65 -7.5t109.5 -43 t124.5 -35.5q32 0 53.5 20t27.5 67h130q-1 -135 -50.5 -193t-127.5 -58q-34 0 -67 7q-23 6 -115 41t-134 35q-32 0 -50 -19.5t-19 -67.5z" unicode="ũ"/>
<glyph glyph-name="Umacron" horiz-adv-x="1479" unicode="Ū" d="M147 1466h296v-794q0 -189 11 -245q19 -90 90.5 -144.5t195.5 -54.5q126 0 190 51.5t77 126.5t13 249v811h296v-770q0 -264 -24 -373t-88.5 -184t-172.5 -119.5t-282 -44.5q-210 0 -318.5 48.5t-171.5 126t-83 162.5q-29 126 -29 372v782zM417 1598v185h644v-185h-644z "/>
<glyph glyph-name="umacron" d="M846 0v159q-58 -85 -152.5 -134t-199.5 -49q-107 0 -192 47t-123 132t-38 235v672h281v-488q0 -224 15.5 -274.5t56.5 -80t104 -29.5q72 0 129 39.5t78 98t21 286.5v448h281v-1062h-261zM303 1237v185h644v-185h-644z" unicode="ū"/>
<glyph glyph-name="Ubreve" horiz-adv-x="1479" unicode="Ŭ" d="M147 1466h296v-794q0 -189 11 -245q19 -90 90.5 -144.5t195.5 -54.5q126 0 190 51.5t77 126.5t13 249v811h296v-770q0 -264 -24 -373t-88.5 -184t-172.5 -119.5t-282 -44.5q-210 0 -318.5 48.5t-171.5 126t-83 162.5q-29 126 -29 372v782zM912 1880h137 q-12 -136 -95.5 -213.5t-216.5 -77.5t-216.5 77.5t-95.5 213.5h137q7 -71 50 -107.5t125 -36.5t125 36.5t50 107.5z"/>
<glyph glyph-name="ubreve" d="M846 0v159q-58 -85 -152.5 -134t-199.5 -49q-107 0 -192 47t-123 132t-38 235v672h281v-488q0 -224 15.5 -274.5t56.5 -80t104 -29.5q72 0 129 39.5t78 98t21 286.5v448h281v-1062h-261zM798 1491h137q-12 -136 -95.5 -213.5t-216.5 -77.5t-216.5 77.5t-95.5 213.5h137 q7 -71 50 -107.5t125 -36.5t125 36.5t50 107.5z" unicode="ŭ"/>
<glyph glyph-name="Uring" horiz-adv-x="1479" unicode="Ů" d="M147 1466h296v-794q0 -189 11 -245q19 -90 90.5 -144.5t195.5 -54.5q126 0 190 51.5t77 126.5t13 249v811h296v-770q0 -264 -24 -373t-88.5 -184t-172.5 -119.5t-282 -44.5q-210 0 -318.5 48.5t-171.5 126t-83 162.5q-29 126 -29 372v782zM821 1687q0 37 -26 63t-63 26 t-63 -26t-26 -63t26 -63t63 -26t63 26t26 63zM928 1687q0 -81 -57.5 -138.5t-138.5 -57.5t-138.5 57.5t-57.5 138.5t57.5 138.5t138.5 57.5t138.5 -57t57.5 -139z"/>
<glyph glyph-name="uring" d="M846 0v159q-58 -85 -152.5 -134t-199.5 -49q-107 0 -192 47t-123 132t-38 235v672h281v-488q0 -224 15.5 -274.5t56.5 -80t104 -29.5q72 0 129 39.5t78 98t21 286.5v448h281v-1062h-261zM713 1342q0 37 -26 63t-63 26t-63 -26t-26 -63t26 -63t63 -26t63 26t26 63z M820 1342q0 -81 -57.5 -138.5t-138.5 -57.5t-138.5 57.5t-57.5 138.5t57.5 138.5t138.5 57.5t138.5 -57t57.5 -139z" unicode="ů"/>
<glyph glyph-name="Uhungarumlaut" horiz-adv-x="1479" unicode="Ű" d="M147 1466h296v-794q0 -189 11 -245q19 -90 90.5 -144.5t195.5 -54.5q126 0 190 51.5t77 126.5t13 249v811h296v-770q0 -264 -24 -373t-88.5 -184t-172.5 -119.5t-282 -44.5q-210 0 -318.5 48.5t-171.5 126t-83 162.5q-29 126 -29 372v782zM798 1550l141 298h286 l-247 -298h-180zM422 1550l139 298h294l-257 -298h-176z"/>
<glyph glyph-name="uhungarumlaut" d="M846 0v159q-58 -85 -152.5 -134t-199.5 -49q-107 0 -192 47t-123 132t-38 235v672h281v-488q0 -224 15.5 -274.5t56.5 -80t104 -29.5q72 0 129 39.5t78 98t21 286.5v448h281v-1062h-261zM695 1197l141 298h286l-247 -298h-180zM319 1197l139 298h294l-257 -298h-176z" unicode="ű"/>
<glyph glyph-name="Uogonek" horiz-adv-x="1479" unicode="Ų" d="M147 1466h296v-794q0 -189 11 -245q19 -90 90.5 -144.5t195.5 -54.5q126 0 190 51.5t77 126.5t13 249v811h296v-770q0 -264 -24 -373t-88.5 -184t-172.5 -119.5t-282 -44.5q-210 0 -318.5 48.5t-171.5 126t-83 162.5q-29 126 -29 372v782zM919 0q-19 -14 -34.5 -32.5 t-26.5 -39.5t-17 -42.5t-6 -41.5q0 -33 17.5 -55.5t58.5 -22.5q18 0 40.5 6.5t42.5 12.5v-167q-84 -40 -151 -40q-56 0 -97 15t-68.5 41t-41 60.5t-13.5 73.5q0 58 35 121t94 111h167z"/>
<glyph glyph-name="uogonek" d="M846 0v159q-58 -85 -152.5 -134t-199.5 -49q-107 0 -192 47t-123 132t-38 235v672h281v-488q0 -224 15.5 -274.5t56.5 -80t104 -29.5q72 0 129 39.5t78 98t21 286.5v448h281v-1062h-261zM1055 0q-19 -14 -34.5 -32.5t-26.5 -39.5t-17 -42.5t-6 -41.5q0 -33 17.5 -55.5 t58.5 -22.5q18 0 40.5 6.5t42.5 12.5v-167q-84 -40 -151 -40q-56 0 -97 15t-68.5 41t-41 60.5t-13.5 73.5q0 58 35 121t94 111h167z" unicode="ų"/>
<glyph glyph-name="Wcircumflex" horiz-adv-x="1933" unicode="Ŵ" d="M357 0l-350 1466h303l221 -1007l268 1007h352l257 -1024l225 1024h298l-356 -1466h-314l-292 1096l-291 -1096h-321zM628 1598l210 295h260l207 -295h-226l-116 149l-108 -149h-227z"/>
<glyph glyph-name="wcircumflex" horiz-adv-x="1593" unicode="ŵ" d="M345 0l-336 1062h273l199 -696l183 696h271l177 -696l203 696h277l-341 -1062h-270l-183 683l-180 -683h-273zM459 1196l210 295h260l207 -295h-226l-116 149l-108 -149h-227z"/>
<glyph glyph-name="Ycircumflex" horiz-adv-x="1366" unicode="Ŷ" d="M534 0v617l-537 849h347l345 -580l338 580h341l-539 -851v-615h-295zM354 1598l210 295h260l207 -295h-226l-116 149l-108 -149h-227z"/>
<glyph glyph-name="ycircumflex" horiz-adv-x="1139" unicode="ŷ" d="M14 1062h299l254 -754l248 754h291l-375 -1022l-67 -185q-37 -93 -70.5 -142t-77 -79.5t-107 -47.5t-143.5 -17q-81 0 -159 17l-25 220q66 -13 119 -13q98 0 145 57.5t72 146.5zM231 1196l210 295h260l207 -295h-226l-116 149l-108 -149h-227z"/>
<glyph glyph-name="Ydieresis" horiz-adv-x="1366" unicode="Ÿ" d="M534 0v617l-537 849h347l345 -580l338 580h341l-539 -851v-615h-295zM780 1550v241h242v-241h-242zM350 1550v241h241v-241h-241z"/>
<glyph glyph-name="Zacute" d="M22 0v267l770 951h-683v248h1073v-230l-803 -989h834v-247h-1191zM435 1550l138 299h315l-275 -299h-178z" unicode="Ź"/>
<glyph glyph-name="zacute" horiz-adv-x="1024" unicode="ź" d="M34 0v219l398 457q98 112 145 159q-49 -3 -129 -4l-375 -2v233h878v-199l-406 -468l-143 -155q117 7 145 7h435v-247h-948zM318 1192l138 299h315l-275 -299h-178z"/>
<glyph glyph-name="Zdotaccent" d="M22 0v267l770 951h-683v248h1073v-230l-803 -989h834v-247h-1191zM505 1557v266h276v-266h-276z" unicode="Ż"/>
<glyph glyph-name="zdotaccent" horiz-adv-x="1024" unicode="ż" d="M34 0v219l398 457q98 112 145 159q-49 -3 -129 -4l-375 -2v233h878v-199l-406 -468l-143 -155q117 7 145 7h435v-247h-948zM360 1225v266h276v-266h-276z"/>
<glyph glyph-name="Zcaron" d="M22 0v267l770 951h-683v248h1073v-230l-803 -989h834v-247h-1191zM271 1851h227l108 -149l116 149h226l-207 -295h-260z" unicode="Ž"/>
<glyph glyph-name="zcaron" horiz-adv-x="1024" unicode="ž" d="M34 0v219l398 457q98 112 145 159q-49 -3 -129 -4l-375 -2v233h878v-199l-406 -468l-143 -155q117 7 145 7h435v-247h-948zM170 1491h227l108 -149l116 149h226l-207 -295h-260z"/>
<glyph glyph-name="longs" horiz-adv-x="569" unicode="ſ" d="M703 1455l-38 -196q-67 16 -131 16q-62 0 -87 -30t-25 -108v-1137h-281v1142q0 134 30 203t109.5 107.5t185.5 38.5q122 0 237 -36z"/>
<glyph glyph-name="uni0180" d="M884 528q0 343 -235 343q-123 0 -185 -102q-50 -83 -50 -215q0 -165 52 -244q73 -112 194 -112q120 0 179 111q45 87 45 219zM1172 542q0 -231 -104 -386q-120 -180 -340 -180q-203 0 -332 180v-156h-261v1175h-108v187h108v104h281v-104h306v-187h-306v-237 q130 148 308 148q222 0 342 -166q106 -147 106 -378z" unicode="ƀ"/>
<glyph glyph-name="uni0181" horiz-adv-x="1713" unicode="Ɓ" d="M1306 439q0 136 -124 179q-61 21 -263 21h-239v-392h274q156 0 203 9q149 29 149 183zM1252 1055q0 144 -149 162q-42 5 -253 5h-170v-339h194q173 0 215 5q163 19 163 167zM1612 425q0 -224 -173 -345q-81 -57 -199 -70q-91 -10 -357 -10h-499v1222q-70 0 -100 -20 q-38 -25 -38 -94q0 -62 16 -129l-196 -38q-36 115 -36 235q0 290 354 290h586q155 0 214 -7q121 -15 199 -68q157 -107 157 -294q0 -105 -55.5 -190t-150.5 -128q129 -38 202 -128q76 -94 76 -226z"/>
<glyph glyph-name="uni0182" horiz-adv-x="1472" unicode="Ƃ" d="M451 246h288q138 0 194 13.5t97.5 61.5t41.5 118q0 102 -72.5 148.5t-247.5 46.5h-301v-388zM155 1466h1096v-246h-800v-340h396q164 0 272 -40t184.5 -148t76.5 -253q0 -149 -77 -255t-175.5 -145t-280.5 -39h-692v1466z"/>
<glyph glyph-name="uni0183" d="M884 528q0 343 -235 343q-123 0 -185 -102q-50 -83 -50 -215q0 -165 52 -244q73 -112 194 -112q120 0 179 111q45 87 45 219zM1172 542q0 -231 -104 -386q-120 -180 -340 -180q-203 0 -332 180v-156h-261v1466h749v-227h-468v-301q130 148 308 148q222 0 342 -166 q106 -147 106 -378z" unicode="ƃ"/>
<glyph glyph-name="uni0184" horiz-adv-x="1472" unicode="Ƅ" d="M1072 439q0 121 -107 166q-70 29 -213 29h-301v-388h288q117 0 156 6q87 15 135 69q42 47 42 118zM1378 435q0 -129 -64 -237q-69 -115 -185 -160q-99 -38 -282 -38h-692v996l-145 165v33l386 272h55v-586h396q234 0 373 -103q158 -117 158 -342z"/>
<glyph glyph-name="uni0185" d="M884 528q0 343 -235 343q-123 0 -185 -102q-50 -83 -50 -215q0 -165 52 -244q73 -112 194 -112q120 0 179 111q45 87 45 219zM1172 542q0 -231 -104 -386q-120 -180 -340 -180q-203 0 -332 180v-156h-261v1086l-125 155v33l351 192h55v-528q130 148 308 148 q222 0 342 -166q106 -147 106 -378z" unicode="ƅ"/>
<glyph glyph-name="uni0186" horiz-adv-x="1479" unicode="Ɔ" d="M1382 720q0 -322 -171 -526q-182 -219 -497 -219q-479 0 -609 473l287 91q71 -311 325 -311q360 0 360 514q0 496 -366 496q-117 0 -200 -66t-109 -180l-293 70q50 175 150 270q168 159 437 159q333 0 516 -223q170 -207 170 -548z"/>
<glyph glyph-name="uni0187" horiz-adv-x="1479" unicode="Ƈ" d="M1651 1671l-38 -196q-67 16 -129 16q-69 0 -94 -38q-20 -30 -20 -100v-291l-293 -70q-26 115 -108.5 180.5t-200.5 65.5q-366 0 -366 -496q0 -514 360 -514q254 0 325 311l287 -91q-130 -473 -609 -473q-316 0 -498 219q-170 204 -170 526q0 340 170 547q183 224 516 224 q172 0 310 -68q0 284 323 284q120 0 235 -36z"/>
<glyph glyph-name="uni0188" horiz-adv-x="1139" unicode="ƈ" d="M1354 1266l-38 -196q-67 16 -129 16q-69 0 -94 -38q-20 -30 -20 -100v-200l-277 -50q-28 167 -192 167q-230 0 -230 -315q0 -345 234 -345q165 0 203 202l276 -47q-87 -384 -492 -384q-245 0 -381 157q-129 148 -129 397q0 252 130 400q137 156 385 156q130 0 199 -49 q0 112 81 186q88 79 239 79q120 0 235 -36z"/>
<glyph glyph-name="uni0189" horiz-adv-x="1479" unicode="Ɖ" d="M444 1218v-392h314v-186h-314v-393h222q147 0 212 24q86 30 131 110q63 113 63 345q0 165 -26.5 254.5t-78 144.5t-134.5 77q-64 16 -255 16h-134zM149 1466h540q186 0 282 -29q130 -39 222 -137.5t138.5 -238.5t46.5 -346q0 -181 -51.5 -326.5t-151.5 -242.5 q-77 -73 -207 -115q-98 -31 -263 -31h-556v640h-152v186h152v640z"/>
<glyph glyph-name="uni018A" horiz-adv-x="1715" unicode="Ɗ" d="M1307 732q0 295 -114 403q-54 51 -137 69q-63 14 -243 14h-133v-971h221q123 0 179 14q87 22 133 74q94 107 94 397zM1613 719q0 -375 -202 -571q-78 -75 -208 -117q-97 -31 -262 -31h-557v1218q-71 0 -99 -17q-39 -24 -39 -93q0 -62 16 -129l-196 -38q-36 115 -36 235 q0 290 354 290h541q184 0 279 -28q260 -76 361 -372q48 -141 48 -347z"/>
<glyph glyph-name="uni018B" horiz-adv-x="1472" unicode="Ƌ" d="M1021 246v388h-301q-143 0 -213 -29q-107 -44 -107 -166q0 -64 38.5 -114t100.5 -65q58 -14 194 -14h288zM1317 0h-692q-166 0 -255 30q-119 41 -201 154q-77 106 -77 255q0 131 69 241q72 116 192 160q108 40 272 40h396v340h-800v246h1096v-1466z"/>
<glyph glyph-name="uni018C" d="M841 527q0 344 -235 344q-121 0 -184 -103q-51 -84 -51 -214q0 -170 47 -246q68 -110 190 -110q121 0 183 110q50 89 50 219zM1121 0h-261v156q-129 -180 -332 -180q-214 0 -337 179q-107 156 -107 380q0 235 104 382q119 169 344 169q178 0 308 -148v301h-468v227h749 v-1466z" unicode="ƌ"/>
<glyph glyph-name="uni018D" horiz-adv-x="1242" unicode="ƍ" d="M894 560q0 134 -67 218q-73 93 -203 93t-206 -98q-69 -89 -69 -223q0 -132 66 -222q74 -99 202 -99q135 0 210 101q67 91 67 230zM1165 528q0 -187 -104 -330q-111 -152 -290 -182q103 -73 151 -110l144 -112v-198h-897v233h501q-83 77 -287 214q-112 75 -164 128 q-72 74 -108 175q-33 93 -33 193q0 247 147.5 397t393.5 150q321 0 472 -263q74 -129 74 -295z"/>
<glyph glyph-name="uni018E" horiz-adv-x="1366" unicode="Ǝ" d="M1217 0h-1115v247h819v399h-736v247h736v325h-791v248h1087v-1466z"/>
<glyph glyph-name="uni0190" horiz-adv-x="1283" unicode="Ɛ" d="M1239 338q-66 -207 -208 -290q-124 -73 -355 -73q-239 0 -387 94q-178 112 -178 337q0 267 292 367q-240 128 -240 338q0 192 173 295q143 85 348 85q436 0 529 -358l-288 -67q-52 184 -238 184q-95 0 -157 -47q-69 -51 -69 -143q0 -114 86 -173q74 -50 194 -50h34v-221 h-67q-119 0 -194 -40q-97 -52 -97 -160q0 -102 87 -155q73 -44 181 -44q120 0 183 47t100 163z"/>
<glyph glyph-name="uni0191" d="M1156 1218h-709v-347h612v-248h-612v-590q0 -228 -54 -328q-75 -136 -282 -136q-83 0 -195 30l49 240q45 -9 70 -9q88 0 109 74q7 26 7 145v1417h1005v-248z" unicode="Ƒ"/>
<glyph glyph-name="florin" horiz-adv-x="1139" unicode="ƒ" d="M276 851l36 211h202l16 89q28 153 48 196q32 66 88 100q74 44 209 44t267 -41l-54 -226q-94 28 -158 28q-54 0 -80 -24t-43 -110l-11 -56h208l-37 -211h-205l-173 -978q-20 -119 -52.5 -177t-97.5 -92.5t-179 -34.5q-156 0 -280 40l57 221q109 -23 167 -23q62 0 87 38 q20 29 37 133l150 873h-202z"/>
<glyph glyph-name="uni0193" horiz-adv-x="1593" unicode="Ɠ" d="M1731 1671l-38 -196q-67 16 -129 16q-69 0 -94 -38q-20 -30 -20 -100v-293l-294 -55q-67 233 -330 233q-214 0 -324 -141q-99 -127 -99 -347q0 -227 94 -363q110 -159 326 -159q186 0 347 125v186h-339v247h638v-584q-107 -104 -293 -168q-173 -59 -334 -59 q-347 0 -549 213q-195 207 -195 550t197.5 548t530.5 205q210 0 347 -68q0 284 323 284q120 0 235 -36z"/>
<glyph glyph-name="uni0194" horiz-adv-x="1304" unicode="Ɣ" d="M703 -153q0 53 -46 143q-48 -94 -48 -143q0 -47 48 -47q46 0 46 47zM1302 1466l-492 -1189l112 -265q45 -106 45 -180q0 -263 -312 -263q-310 0 -310 263q0 75 45 180l114 265l-502 1189h329l326 -804l326 804h319z"/>
<glyph glyph-name="uni0195" horiz-adv-x="1906" unicode="ƕ" d="M1788 563q0 -587 -474 -587q-482 0 -482 567v59q0 121 -17 168q-36 101 -157 101q-138 0 -193 -110q-38 -77 -38 -229v-532h-281v1466h281v-539q136 159 325 159q361 0 361 -423v-165q0 -131 30 -195q45 -98 167 -98t167 102q30 69 30 211v544h281v-499z"/>
<glyph glyph-name="uni0196" horiz-adv-x="569" unicode="Ɩ" d="M428 0h-281v1466h281v-1466z"/>
<glyph glyph-name="uni0197" horiz-adv-x="569" unicode="Ɨ" d="M569 640h-133v-640h-296v640h-133v186h133v640h296v-640h133v-186z"/>
<glyph glyph-name="uni0198" horiz-adv-x="1479" unicode="Ƙ" d="M1475 0h-383l-403 688l-240 -245v-443h-296v1142q0 183 73 263q78 86 269 86q120 0 235 -36l-38 -196q-67 16 -129 16q-70 0 -95 -39q-19 -29 -19 -100v-321l598 651h398l-552 -571z"/>
<glyph glyph-name="uni0199" horiz-adv-x="1139" unicode="ƙ" d="M1119 0h-303l-267 477l-131 -137v-340h-281v1142q0 117 21 177q29 85 113 131q76 41 193 41q120 0 235 -36l-38 -196q-67 16 -129 16q-68 0 -93 -36q-21 -30 -21 -102v-449l329 374h346l-363 -388z"/>
<glyph glyph-name="uni019A" horiz-adv-x="569" unicode="ƚ" d="M547 640h-119v-640h-281v640h-120v187h120v639h281v-639h119v-187z"/>
<glyph glyph-name="uni019B" horiz-adv-x="1139" unicode="ƛ" d="M1118 0h-290l-183 482q-38 101 -81 240q-39 -128 -79 -235l-182 -487h-288l408 1061l-20 53l-291 -126l-65 177l289 122l-68 179h277l30 -78l184 78l66 -169l-183 -79l62 -157z"/>
<glyph glyph-name="uni019C" horiz-adv-x="2031" unicode="Ɯ" d="M1881 0h-273v145q-139 -169 -361 -169q-246 0 -326 174q-58 -82 -169 -130q-103 -44 -210 -44q-199 0 -300 116q-92 105 -92 291v1083h295v-1011q0 -264 179 -264q133 0 196 127q48 95 48 234v914h295v-986q0 -289 179 -289q244 0 244 355v920h295v-1466z"/>
<glyph glyph-name="uni019D" horiz-adv-x="1479" unicode="Ɲ" d="M1315 0h-297l-591 956v-925q0 -234 -46 -327q-69 -135 -274 -135q-78 0 -190 30l49 240q45 -9 70 -9q88 0 109 74q7 26 7 145v1417h288l600 -979v979h275v-1466z"/>
<glyph glyph-name="uni019E" d="M1110 -404h-281v946q0 127 -4 156q-11 95 -61 137q-43 36 -109 36q-77 0 -135 -43q-61 -44 -79 -117t-18 -230v-481h-281v1062h261v-156q139 180 351 180q108 0 193 -45q96 -50 132 -143q31 -81 31 -238v-1064z" unicode="ƞ"/>
<glyph glyph-name="uni019F" horiz-adv-x="1593" unicode="Ɵ" d="M1194 609h-795q23 -164 110 -256q118 -125 289 -125q170 0 287 124q86 91 109 257zM1195 857q-50 381 -397 381q-173 0 -278 -107q-98 -99 -121 -274h796zM1508 731q0 -332 -175 -537q-187 -219 -513 -219q-461 0 -643 344q-91 172 -91 405q0 350 177 553 q187 214 532 214q340 0 530 -213q183 -203 183 -547z"/>
<glyph glyph-name="Ohorn" horiz-adv-x="1747" unicode="Ơ" d="M1466 1466h281v-201q0 -124 -21.5 -194t-78.5 -124.5t-143 -86.5q7 -62 7 -129q0 -352 -192 -554t-517 -202q-328 0 -520.5 200.5t-192.5 548.5q0 368 204 577q184 190 505 190q324 0 519 -201q117 -122 164 -301q117 53 121 196h-136v281zM394 734q0 -242 115 -378 q109 -128 292 -128t291 128q113 134 113 382q0 246 -110 376q-106 124 -294 124t-295 -126q-112 -131 -112 -378z"/>
<glyph glyph-name="ohorn" horiz-adv-x="1456" unicode="ơ" d="M1175 1062h281v-201q0 -124 -21.5 -194t-79.5 -125q-67 -65 -183 -102q-25 -179 -149 -305q-156 -159 -392 -159q-151 0 -278 66q-135 70 -203 195.5t-68 308.5q0 144 69 271q72 133 197 201t281 68q241 0 395 -156q139 -142 153 -351q130 53 134 202h-136v281zM370 531 q0 -153 75 -242q71 -84 185 -84t184 84q75 89 75 244q0 152 -75 240q-70 84 -184 84t-185 -84q-75 -89 -75 -242z"/>
<glyph glyph-name="uni01A2" horiz-adv-x="1816" unicode="Ƣ" d="M910 241v985q-49 12 -109 12q-210 0 -316 -152q-91 -132 -91 -352q0 -215 94 -350q108 -156 313 -156q59 0 109 13zM1666 -404h-296v1630h-164v-1143q-166 -108 -404 -108q-338 0 -528 207q-185 201 -185 542q0 354 182 557q187 210 527 210q193 0 408 -130l404 105h56 v-1870z"/>
<glyph glyph-name="uni01A3" horiz-adv-x="1523" unicode="ƣ" d="M677 215v639q-33 11 -73 11q-230 0 -230 -315q0 -345 234 -345q38 0 69 10zM1379 -404h-281v1258h-140v-814q-166 -64 -363 -64q-244 0 -381 157q-129 149 -129 397q0 253 130 400q136 156 385 156q195 0 358 -103l360 79h61v-1466z"/>
<glyph glyph-name="uni01A4" horiz-adv-x="1601" unicode="Ƥ" d="M1202 1011q0 77 -45 130t-121 67q-54 10 -213 10h-143v-416h162q130 0 178 9q103 19 149 86q33 48 33 114zM1507 1015q0 -251 -173 -371q-78 -54 -154 -70q-102 -21 -307 -21h-193v-553h-296v1218q-71 0 -99 -17q-39 -24 -39 -93q0 -62 16 -129l-196 -38q-36 115 -36 235 q0 290 354 290h475q269 0 352 -22q144 -38 223 -160q73 -113 73 -269z"/>
<glyph glyph-name="uni01A5" d="M889 535q0 133 -49 220q-61 109 -184 109t-186 -100q-53 -85 -53 -215q0 -141 51 -233q64 -117 193 -117q228 0 228 336zM1175 537q0 -227 -106 -383q-122 -178 -339 -178q-198 0 -310 155v-535h-281v1546q0 182 75.5 265.5t251.5 83.5q120 0 235 -36l-38 -196 q-67 16 -129 16q-69 0 -94 -38q-20 -30 -20 -100v-231q45 80 131 130t181 50q215 0 336 -173q107 -152 107 -376z" unicode="ƥ"/>
<glyph glyph-name="uni01A6" horiz-adv-x="1366" unicode="Ʀ" d="M967 840q0 148 -130 188q-57 17 -249 17h-143v-417h162q176 0 242 25q118 44 118 187zM1375 -319h-383l-406 698h-141v-379h-296v1466h296v-173h179q317 0 453 -70q195 -100 195 -382q0 -373 -364 -442z"/>
<glyph glyph-name="uni01A7" horiz-adv-x="1366" unicode="Ƨ" d="M1292 477q-59 -503 -605 -503q-379 0 -517 217q-70 110 -70 236q0 267 221 383q71 37 317 101q221 57 274 102q44 37 44 89q0 57 -47 91q-73 53 -202 53q-121 0 -183 -46q-66 -50 -86 -166l-296 13q8 230 175 344q146 100 387 100q342 0 472 -199q63 -97 63 -210 q0 -174 -135 -295q-96 -86 -334 -145q-187 -46 -237 -64q-137 -48 -137 -152q0 -103 98 -157q79 -45 190 -45q270 0 320 281z"/>
<glyph glyph-name="uni01A8" horiz-adv-x="1139" unicode="ƨ" d="M1091 303q-84 -327 -509 -327q-193 0 -325 79q-158 96 -158 277q0 156 129 239q82 52 273 95q224 51 262 79q28 21 28 51q0 88 -191 88q-165 0 -200 -128l-265 49q46 161 177 228q106 53 293 53q184 0 302 -69q145 -85 145 -257q0 -153 -126 -239q-89 -61 -431 -137 q-114 -25 -114 -90q0 -115 201 -115q190 0 227 167z"/>
<glyph glyph-name="uni01A9" horiz-adv-x="1229" unicode="Ʃ" d="M109 1466h1015v-248h-650l379 -452l-418 -519h720v-247h-1065v274l393 492l-374 436v264z"/>
<glyph glyph-name="uni01AA" horiz-adv-x="737" unicode="ƪ" d="M315 1342q0 37 -26 63t-63 26t-63 -26t-26 -63t26 -63t63 -26t63 26t26 63zM831 -401q-112 -30 -195 -30q-238 0 -294 178q-27 85 -27 286v1135q-37 -22 -89 -22q-82 0 -139 57t-57 139q0 89 66 144q61 52 150 52q350 0 350 -392v-1097v-111q6 -62 46 -89q28 -19 70 -19 q25 0 70 9z"/>
<glyph glyph-name="uni01AB" horiz-adv-x="682" unicode="ƫ" d="M657 18q0 -225 -49 -318q-70 -131 -272 -131q-83 0 -195 30l49 240q45 -9 70 -9q116 0 117 149q-146 17 -191 136q-26 71 -26 260v463h-129v224h129v211l282 164v-375h192v-224h-192v-428q0 -95 6 -126q16 -75 72 -75q64 0 137 27v-218z"/>
<glyph glyph-name="uni01AC" d="M1209 1218h-434v-1218h-296v1218h-101q-71 0 -99 -17q-39 -24 -39 -93q0 -62 16 -129l-196 -38q-36 115 -36 235q0 290 354 290h831v-248z" unicode="Ƭ"/>
<glyph glyph-name="uni01AD" horiz-adv-x="682" unicode="ƭ" d="M723 1455l-38 -196q-67 16 -129 16q-68 0 -94 -37q-20 -29 -20 -99v-77h192v-224h-192v-428v-105q3 -62 31 -82q20 -14 47 -14q39 0 113 27l24 -218q-98 -42 -222 -42q-161 0 -226 92q-28 40 -40 109q-9 53 -9 198v463h-129v224h129v80q0 178 69 259q76 90 259 90 q120 0 235 -36z"/>
<glyph glyph-name="uni01AE" d="M1209 1218h-434v-1172q0 -117 8 -144q21 -72 108 -72q25 0 70 9l49 -240q-112 -30 -195 -30q-225 0 -294 143q-42 86 -42 321v1185h-434v248h1164v-248z" unicode="Ʈ"/>
<glyph glyph-name="Uhorn" horiz-adv-x="1699" unicode="Ư" d="M1418 1466h281v-201q0 -124 -21.5 -194t-78.5 -125q-92 -88 -283 -117v-133q0 -259 -24 -373q-23 -107 -88 -184q-142 -164 -455 -164q-348 0 -490 175q-63 77 -83 162q-29 125 -29 372v782h296v-794q0 -191 11 -245q41 -199 286 -199q236 0 267 178q13 75 13 249v811 h296v-523q145 27 202 105q34 46 36 137h-136v281z"/>
<glyph glyph-name="uhorn" horiz-adv-x="1483" unicode="ư" d="M1202 1062h281v-201q0 -124 -21.5 -194t-79.5 -125q-89 -86 -275 -116v-426h-261v159q-125 -183 -352 -183q-235 0 -315 179q-38 85 -38 235v672h281v-488q0 -210 16 -274q11 -48 56 -80q41 -30 104 -30q71 0 128.5 39t78.5 98t21 287v448h281v-522q139 28 195 104 q34 46 36 137h-136v281z"/>
<glyph glyph-name="uni01B1" horiz-adv-x="1642" unicode="Ʊ" d="M1544 1219h-285q261 -274 261 -590q0 -299 -202 -480q-194 -174 -497 -174t-498 174q-202 180 -202 480q0 316 261 590h-284v247h671v-236q-168 -63 -258 -207q-84 -136 -84 -322q0 -198 96 -328q107 -145 298 -145t298 145q96 130 96 328q0 186 -84 322 q-89 144 -258 207v236h671v-247z"/>
<glyph glyph-name="uni01B2" horiz-adv-x="1479" unicode="Ʋ" d="M1316 1137q0 -503 -101 -773q-147 -389 -516 -389q-327 0 -451 189q-101 155 -101 520v782h296v-794q0 -227 33 -312q52 -132 214 -132q330 0 330 868q0 179 -114 179q-62 0 -129 -16l-38 196q115 36 235 36q157 0 249.5 -95.5t92.5 -258.5z"/>
<glyph glyph-name="uni01B3" horiz-adv-x="1577" unicode="Ƴ" d="M1579 1270l-139 -144q-102 107 -166 109h-1q-48 0 -100 -81l-339 -537v-617h-295v615l-539 851h341l338 -580l250 428q103 177 274 177h4q99 -1 195 -63q100 -65 177 -158z"/>
<glyph glyph-name="uni01B4" horiz-adv-x="1139" unicode="ƴ" d="M1464 1369l-128 -209q-69 42 -111 42q-58 0 -93 -63q-6 -10 -43 -113l-425 -1171q-31 -85 -70 -142q-65 -95 -184 -127q-64 -17 -144 -17q-81 0 -159 17l-25 220q66 -13 119 -13q160 0 217 204l-404 1065h299l254 -754l283 825q64 186 98 240q74 118 202 118 q140 0 314 -122z"/>
<glyph glyph-name="uni01B5" d="M1213 0h-1191v267l302 373h-302v186h453l317 392h-683v248h1073v-230l-333 -410h333v-186h-484l-319 -393h834v-247z" unicode="Ƶ"/>
<glyph glyph-name="uni01B6" horiz-adv-x="1024" unicode="ƶ" d="M982 0h-948v219l199 226h-199v187h364l179 203q-79 -6 -129 -6h-375v233h878v-199l-204 -231h204v-187h-368l-181 -205l145 7h435v-247z"/>
<glyph glyph-name="uni01B7" d="M1162 163q0 -248 -149 -417q-156 -177 -401 -177q-209 0 -354 94q-157 102 -200 290l276 47q17 -88 92 -145t173 -57q136 0 211 132q63 109 63 253q0 138 -70 237q-85 118 -240 118h-199v221l417 459h-723v248h1073v-230l-430 -477q154 -24 262 -109q199 -157 199 -487z " unicode="Ʒ"/>
<glyph glyph-name="uni01B8" d="M1193 -47q-43 -188 -200 -290q-145 -94 -354 -94q-245 0 -401 177q-149 169 -149 417q0 330 199 487q108 85 262 109l-430 477v230h1073v-248h-723l417 -459v-221h-199q-155 0 -240 -118q-70 -99 -70 -237q0 -144 63 -253q75 -132 211 -132q98 0 173 57t92 145z" unicode="Ƹ"/>
<glyph glyph-name="uni01B9" horiz-adv-x="1078" unicode="ƹ" d="M1044 -47q-87 -384 -492 -384q-246 0 -381 146q-129 140 -129 378q0 216 125 335q90 86 218 105l-312 330v199h878v-233h-415q-50 0 -129 6l293 -302v-165h-99q-133 0 -205 -77q-65 -70 -65 -185q0 -308 234 -308q165 0 203 202z"/>
<glyph glyph-name="uni01BA" horiz-adv-x="1078" unicode="ƺ" d="M1054 -104q-84 -327 -512 -327q-485 0 -485 339q0 204 258 278q118 27 235 53q148 40 148 95q0 104 -211 104h-99v165l263 232q-79 -6 -129 -6h-395v233h878v-199l-292 -260q124 -18 201 -102q73 -80 73 -183q0 -232 -331 -310q-96 -21 -191 -42q-112 -33 -112 -84 q0 -46 49 -76q54 -34 143 -34q188 0 227 167z"/>
<glyph glyph-name="uni01BB" horiz-adv-x="1139" unicode="ƻ" d="M1036 0h-985q16 149 96 281q69 115 261 299h-324v186h518q71 72 94 106q58 86 58 172q0 195 -190 195q-185 0 -200 -229l-280 28q47 434 487 434q197 0 326 -103q139 -112 139 -305q0 -153 -92 -298h92v-186h-248q-31 -31 -84 -79q-105 -96 -121 -112q-73 -73 -105 -128 h558v-261z"/>
<glyph glyph-name="uni01BC" horiz-adv-x="1139" unicode="Ƽ" d="M1077 492q0 -219 -140 -367q-143 -150 -362 -150q-196 0 -325 103q-133 108 -159 299l280 29q11 -87 65 -144q57 -62 142 -62q109 0 164 94q46 77 46 193q0 118 -49 190q-57 83 -169 83h-331v458h-148v248h908v-248h-464v-237h95q201 0 327 -146q120 -139 120 -343z"/>
<glyph glyph-name="uni01BD" horiz-adv-x="1018" unicode="ƽ" d="M945 309q0 -173 -152 -262q-122 -71 -298 -71q-380 0 -465 297l257 47q62 -156 205 -156q69 0 118 36q56 41 56 113q0 163 -179 163h-310v359h-147v227h848v-227h-420v-179h92q167 0 268 -70q127 -89 127 -277z"/>
<glyph glyph-name="uni01BE" horiz-adv-x="1186" unicode="ƾ" d="M1113 332q0 -181 -158 -277q-132 -79 -325 -79q-425 0 -509 327l282 43q37 -167 227 -167q201 0 201 115q0 65 -114 90q-342 76 -431 137q-126 86 -126 240v77h-129v224h129v211l282 164v-375h192v-224h-192v-42q0 -54 115 -92q23 -8 155 -38q190 -43 272 -96 q129 -82 129 -238z"/>
<glyph glyph-name="uni01BF" d="M889 595q0 269 -233 269q-114 0 -180 -106q-56 -91 -56 -209v-549q260 172 323 237q146 148 146 358zM1175 597q0 -218 -129 -387q-100 -130 -297 -252q-165 -94 -329 -187v-175h-281v1466h262v-156q46 77 139.5 128.5t191.5 51.5q219 0 336 -143q107 -130 107 -346z" unicode="ƿ"/>
<glyph glyph-name="uni01C0" horiz-adv-x="573" unicode="ǀ" d="M399 0h-223v1491h223v-1491z"/>
<glyph glyph-name="uni01C2" horiz-adv-x="1197" unicode="ǂ" d="M1111 372h-401v-372h-223v372h-401v259h401v185h-401v258h401v417h223v-417h401v-258h-401v-185h401v-259z"/>
<glyph glyph-name="uni01C3" horiz-adv-x="682" unicode="ǃ" d="M196 0v281h281v-281h-281zM257 378l-73 744v344h304v-344l-72 -744h-159z"/>
<glyph glyph-name="uni01C4" horiz-adv-x="2730" unicode="Ǆ" d="M444 1218v-971h221q124 0 179 14q72 18 119.5 61t77.5 141.5t30 268.5t-30 261t-84 142t-137 69q-62 14 -243 14h-133zM148 1466h541q183 0 279 -28q129 -38 221 -135t140 -237.5t48 -346.5q0 -181 -45 -312q-55 -160 -157 -259q-77 -75 -208 -117q-98 -31 -262 -31h-557 v1466zM1501 0v267l770 951h-683v248h1073v-230l-803 -989h834v-247h-1191zM1782 1847h227l108 -149l116 149h226l-207 -295h-260z"/>
<glyph glyph-name="uni01C5" horiz-adv-x="2503" unicode="ǅ" d="M444 1218v-971h221q124 0 179 14q72 18 119.5 61t77.5 141.5t30 268.5t-30 261t-84 142t-137 69q-62 14 -243 14h-133zM148 1466h541q183 0 279 -28q129 -38 221 -135t140 -237.5t48 -346.5q0 -181 -45 -312q-55 -160 -157 -259q-77 -75 -208 -117q-98 -31 -262 -31h-557 v1466zM1513 0v219l398 457q98 112 145 159q-49 -3 -129 -4l-375 -2v233h878v-199l-406 -468l-143 -155q117 7 145 7h435v-247h-948zM1671 1491h227l108 -149l116 149h226l-207 -295h-260z"/>
<glyph glyph-name="uni01C6" horiz-adv-x="2275" unicode="ǆ" d="M371 554q0 -170 47 -246q68 -110 190 -110q97 0 165 82.5t68 246.5q0 183 -66 263.5t-169 80.5q-100 0 -167.5 -79.5t-67.5 -237.5zM1121 0h-261v156q-65 -91 -153.5 -135.5t-178.5 -44.5q-183 0 -313.5 147.5t-130.5 411.5q0 270 127 410.5t321 140.5q178 0 308 -148 v528h281v-1466zM1285 0v219l398 457q98 112 145 159q-49 -3 -129 -4l-375 -2v233h878v-199l-406 -468l-143 -155q117 7 145 7h435v-247h-948zM1436 1491h227l108 -149l116 149h226l-207 -295h-260z"/>
<glyph glyph-name="uni01C7" horiz-adv-x="2390" unicode="Ǉ" d="M157 0v1454h296v-1207h736v-247h-1032zM1929 1466h295v-928q0 -182 -32 -280q-43 -128 -156 -205.5t-298 -77.5q-217 0 -334 121.5t-118 356.5l279 32q5 -126 37 -178q48 -79 146 -79q99 0 140 56.5t41 234.5v947z"/>
<glyph glyph-name="uni01C8" horiz-adv-x="1820" unicode="ǈ" d="M157 0v1454h296v-1207h736v-247h-1032zM1673 1062v-1029q0 -203 -26.5 -286.5t-102 -130.5t-192.5 -47q-42 0 -90.5 7.5t-104.5 22.5l49 240q20 -4 37.5 -6.5t32.5 -2.5q43 0 70.5 18.5t36.5 44.5t9 156v1013h281zM1392 1206v260h281v-260h-281z"/>
<glyph glyph-name="uni01C9" horiz-adv-x="1138" unicode="ǉ" d="M147 0v1466h281v-1466h-281zM991 1062v-1029q0 -203 -26.5 -286.5t-102 -130.5t-192.5 -47q-42 0 -90.5 7.5t-104.5 22.5l49 240q20 -4 37.5 -6.5t32.5 -2.5q43 0 70.5 18.5t36.5 44.5t9 156v1013h281zM710 1206v260h281v-260h-281z"/>
<glyph glyph-name="uni01CA" horiz-adv-x="2618" unicode="Ǌ" d="M152 0v1466h288l600 -979v979h275v-1466h-297l-591 956v-956h-275zM2157 1466h295v-928q0 -182 -32 -280q-43 -128 -156 -205.5t-298 -77.5q-217 0 -334 121.5t-118 356.5l279 32q5 -126 37 -178q48 -79 146 -79q99 0 140 56.5t41 234.5v947z"/>
<glyph glyph-name="uni01CB" horiz-adv-x="2048" unicode="ǋ" d="M152 0v1466h288l600 -979v979h275v-1466h-297l-591 956v-956h-275zM1901 1062v-1029q0 -203 -26.5 -286.5t-102 -130.5t-192.5 -47q-42 0 -90.5 7.5t-104.5 22.5l49 240q20 -4 37.5 -6.5t32.5 -2.5q43 0 70.5 18.5t36.5 44.5t9 156v1013h281zM1620 1206v260h281v-260 h-281z"/>
<glyph glyph-name="uni01CC" horiz-adv-x="1820" unicode="ǌ" d="M1113 0h-281v542q0 172 -18 222.5t-58.5 78.5t-97.5 28q-73 0 -131 -40t-79.5 -106t-21.5 -244v-481h-281v1062h261v-156q139 180 350 180q93 0 170 -33.5t116.5 -85.5t55 -118t15.5 -189v-660zM1673 1062v-1029q0 -203 -26.5 -286.5t-102 -130.5t-192.5 -47 q-42 0 -90.5 7.5t-104.5 22.5l49 240q20 -4 37.5 -6.5t32.5 -2.5q43 0 70.5 18.5t36.5 44.5t9 156v1013h281zM1392 1206v260h281v-260h-281z"/>
<glyph glyph-name="uni01CD" horiz-adv-x="1479" unicode="Ǎ" d="M926 580l-202 544l-198 -544h400zM1471 0h-322l-128 333h-586l-121 -333h-314l571 1466h313zM389 1852h227l108 -149l116 149h226l-207 -295h-260z"/>
<glyph glyph-name="uni01CE" horiz-adv-x="1139" unicode="ǎ" d="M733 510q-54 -18 -171 -43t-153 -49q-55 -39 -55 -99q0 -59 44 -102t112 -43q76 0 145 50q51 38 67 93q11 36 11 137v56zM357 738l-255 46q43 154 148 228t312 74q188 0 280 -44.5t129.5 -113t37.5 -251.5l-3 -328q0 -140 13.5 -206.5t50.5 -142.5h-278q-11 28 -27 83 q-7 25 -10 33q-72 -70 -154 -105t-175 -35q-164 0 -258.5 89t-94.5 225q0 90 43 160.5t120.5 108t223.5 65.5q197 37 273 69v28q0 81 -40 115.5t-151 34.5q-75 0 -117 -29.5t-68 -103.5zM231 1491h227l108 -149l116 149h226l-207 -295h-260z"/>
<glyph glyph-name="uni01CF" horiz-adv-x="569" unicode="Ǐ" d="M140 0v1466h296v-1466h-296zM-54 1852h227l108 -149l116 149h226l-207 -295h-260z"/>
<glyph glyph-name="uni01D0" horiz-adv-x="569" unicode="ǐ" d="M147 0v1062h281v-1062h-281zM-54 1491h227l108 -149l116 149h226l-207 -295h-260z"/>
<glyph glyph-name="uni01D1" horiz-adv-x="1593" unicode="Ǒ" d="M394 734q0 -249 115 -377.5t292 -128.5t290.5 127.5t113.5 382.5q0 252 -110.5 376t-293.5 124t-295 -125.5t-112 -378.5zM89 724q0 224 67 376q50 112 136.5 201t189.5 132q137 58 316 58q324 0 518.5 -201t194.5 -559q0 -355 -193 -555.5t-516 -200.5 q-327 0 -520 199.5t-193 549.5zM458 1852h227l108 -149l116 149h226l-207 -295h-260z"/>
<glyph glyph-name="uni01D2" d="M370 531q0 -158 75 -242t185 -84t184.5 84t74.5 244q0 156 -74.5 240t-184.5 84t-185 -84t-75 -242zM82 546q0 140 69 271t195.5 200t282.5 69q241 0 395 -156.5t154 -395.5q0 -241 -155.5 -399.5t-391.5 -158.5q-146 0 -278.5 66t-201.5 193.5t-69 310.5zM287 1491h227 l108 -149l116 149h226l-207 -295h-260z" unicode="ǒ"/>
<glyph glyph-name="uni01D3" horiz-adv-x="1479" unicode="Ǔ" d="M147 1466h296v-794q0 -189 11 -245q19 -90 90.5 -144.5t195.5 -54.5q126 0 190 51.5t77 126.5t13 249v811h296v-770q0 -264 -24 -373t-88.5 -184t-172.5 -119.5t-282 -44.5q-210 0 -318.5 48.5t-171.5 126t-83 162.5q-29 126 -29 372v782zM401 1852h227l108 -149l116 149 h226l-207 -295h-260z"/>
<glyph glyph-name="uni01D4" d="M846 0v159q-58 -85 -152.5 -134t-199.5 -49q-107 0 -192 47t-123 132t-38 235v672h281v-488q0 -224 15.5 -274.5t56.5 -80t104 -29.5q72 0 129 39.5t78 98t21 286.5v448h281v-1062h-261zM287 1491h227l108 -149l116 149h226l-207 -295h-260z" unicode="ǔ"/>
<glyph glyph-name="uni01D5" horiz-adv-x="1479" unicode="Ǖ" d="M147 1466h296v-794q0 -189 11 -245q19 -90 90.5 -144.5t195.5 -54.5q126 0 190 51.5t77 126.5t13 249v811h296v-770q0 -264 -24 -373t-88.5 -184t-172.5 -119.5t-282 -44.5q-210 0 -318.5 48.5t-171.5 126t-83 162.5q-29 126 -29 372v782zM607 1496h-140v152h140v-152z M993 1496h-140v152h140v-152zM988 1721h-516v122h516v-122z"/>
<glyph glyph-name="uni01D6" d="M846 0v159q-58 -85 -152.5 -134t-199.5 -49q-107 0 -192 47t-123 132t-38 235v672h281v-488q0 -224 15.5 -274.5t56.5 -80t104 -29.5q72 0 129 39.5t78 98t21 286.5v448h281v-1062h-261zM718 1250v241h242v-241h-242zM288 1250v241h241v-241h-241zM303 1659v185h644v-185 h-644z" unicode="ǖ"/>
<glyph glyph-name="uni01D7" horiz-adv-x="1479" unicode="Ǘ" d="M147 1466h296v-794q0 -189 11 -245q19 -90 90.5 -144.5t195.5 -54.5q126 0 190 51.5t77 126.5t13 249v811h296v-770q0 -264 -24 -373t-88.5 -184t-172.5 -119.5t-282 -44.5q-210 0 -318.5 48.5t-171.5 126t-83 162.5q-29 126 -29 372v782zM607 1496h-140v152h140v-152z M993 1496h-140v152h140v-152zM1003 1844l-231 -178h-150l135 178h246z"/>
<glyph glyph-name="uni01D8" d="M846 0v159q-58 -85 -152.5 -134t-199.5 -49q-107 0 -192 47t-123 132t-38 235v672h281v-488q0 -224 15.5 -274.5t56.5 -80t104 -29.5q72 0 129 39.5t78 98t21 286.5v448h281v-1062h-261zM718 1250v241h242v-241h-242zM288 1250v241h241v-241h-241zM482 1545l138 299h315 l-275 -299h-178z" unicode="ǘ"/>
<glyph glyph-name="uni01D9" horiz-adv-x="1479" unicode="Ǚ" d="M147 1466h296v-794q0 -189 11 -245q19 -90 90.5 -144.5t195.5 -54.5q126 0 190 51.5t77 126.5t13 249v811h296v-770q0 -264 -24 -373t-88.5 -184t-172.5 -119.5t-282 -44.5q-210 0 -318.5 48.5t-171.5 126t-83 162.5q-29 126 -29 372v782zM607 1496h-140v152h140v-152z M998 1844l-162 -177h-218l-156 177h189l81 -98l79 98h187zM993 1496h-140v152h140v-152z"/>
<glyph glyph-name="uni01DA" d="M846 0v159q-58 -85 -152.5 -134t-199.5 -49q-107 0 -192 47t-123 132t-38 235v672h281v-488q0 -224 15.5 -274.5t56.5 -80t104 -29.5q72 0 129 39.5t78 98t21 286.5v448h281v-1062h-261zM718 1250v241h242v-241h-242zM288 1250v241h241v-241h-241zM287 1844h227l108 -149 l116 149h226l-207 -295h-260z" unicode="ǚ"/>
<glyph glyph-name="uni01DB" horiz-adv-x="1479" unicode="Ǜ" d="M147 1466h296v-794q0 -189 11 -245q19 -90 90.5 -144.5t195.5 -54.5q126 0 190 51.5t77 126.5t13 249v811h296v-770q0 -264 -24 -373t-88.5 -184t-172.5 -119.5t-282 -44.5q-210 0 -318.5 48.5t-171.5 126t-83 162.5q-29 126 -29 372v782zM607 1496h-140v152h140v-152z M838 1666h-150l-231 178h246zM993 1496h-140v152h140v-152z"/>
<glyph glyph-name="uni01DC" d="M846 0v159q-58 -85 -152.5 -134t-199.5 -49q-107 0 -192 47t-123 132t-38 235v672h281v-488q0 -224 15.5 -274.5t56.5 -80t104 -29.5q72 0 129 39.5t78 98t21 286.5v448h281v-1062h-261zM718 1250v241h242v-241h-242zM288 1250v241h241v-241h-241zM766 1545h-177 l-276 299h315z" unicode="ǜ"/>
<glyph glyph-name="uni01DD" horiz-adv-x="1139" unicode="ǝ" d="M780 440h-420q3 -105 52 -172q56 -77 157 -77t159 76q53 69 52 173zM1073 539q0 -241 -121 -394q-132 -169 -366 -169q-271 0 -400 191q-105 156 -105 421v24h704q-3 114 -58 185q-62 79 -172 79q-135 0 -179 -152l-280 47q110 315 462 315q278 0 410 -181 q105 -144 105 -366z"/>
<glyph glyph-name="uni01DE" horiz-adv-x="1479" unicode="Ǟ" d="M926 580l-202 544l-198 -544h400zM1471 0h-322l-128 333h-586l-121 -333h-314l571 1466h313zM607 1496h-140v152h140v-152zM993 1496h-140v152h140v-152zM988 1721h-516v122h516v-122z"/>
<glyph glyph-name="uni01DF" horiz-adv-x="1139" unicode="ǟ" d="M733 510q-54 -18 -171 -43t-153 -49q-55 -39 -55 -99q0 -59 44 -102t112 -43q76 0 145 50q51 38 67 93q11 36 11 137v56zM357 738l-255 46q43 154 148 228t312 74q188 0 280 -44.5t129.5 -113t37.5 -251.5l-3 -328q0 -140 13.5 -206.5t50.5 -142.5h-278q-11 28 -27 83 q-7 25 -10 33q-72 -70 -154 -105t-175 -35q-164 0 -258.5 89t-94.5 225q0 90 43 160.5t120.5 108t223.5 65.5q197 37 273 69v28q0 81 -40 115.5t-151 34.5q-75 0 -117 -29.5t-68 -103.5zM657 1250v241h242v-241h-242zM227 1250v241h241v-241h-241zM241 1590v185h644v-185 h-644z"/>
<glyph glyph-name="uni01E0" horiz-adv-x="1479" unicode="Ǡ" d="M926 580l-202 544l-198 -544h400zM1471 0h-322l-128 333h-586l-121 -333h-314l571 1466h313zM809 1526h-140v152h140v-152zM998 1721h-516v122h516v-122z"/>
<glyph glyph-name="uni01E1" horiz-adv-x="1139" unicode="ǡ" d="M733 510q-54 -18 -171 -43t-153 -49q-55 -39 -55 -99q0 -59 44 -102t112 -43q76 0 145 50q51 38 67 93q11 36 11 137v56zM357 738l-255 46q43 154 148 228t312 74q188 0 280 -44.5t129.5 -113t37.5 -251.5l-3 -328q0 -140 13.5 -206.5t50.5 -142.5h-278q-11 28 -27 83 q-7 25 -10 33q-72 -70 -154 -105t-175 -35q-164 0 -258.5 89t-94.5 225q0 90 43 160.5t120.5 108t223.5 65.5q197 37 273 69v28q0 81 -40 115.5t-151 34.5q-75 0 -117 -29.5t-68 -103.5zM427 1225v266h276v-266h-276zM241 1590v185h644v-185h-644z"/>
<glyph glyph-name="uni01E2" horiz-adv-x="2048" unicode="Ǣ" d="M501 601h402v643h-115zM-86 0l684 1466h1324v-248h-726v-326h669v-248h-669v-397h753v-247h-1049v345h-508l-150 -345h-328zM959 1598v185h644v-185h-644z"/>
<glyph glyph-name="uni01E3" horiz-adv-x="1821" unicode="ǣ" d="M740 508q-231 -61 -251 -68q-67 -22 -93.5 -53t-26.5 -73q0 -58 43.5 -99t113.5 -41q74 0 139 47q48 35 61.5 87.5t13.5 199.5zM1447 624q-6 88 -24 127q-25 56 -75.5 88t-118.5 32q-59 0 -103.5 -27.5t-70.5 -82.5q-32 -67 -32 -127v-10h424zM1436 339l275 -49 q-57 -157 -173 -235.5t-296 -78.5q-112 0 -207 36.5t-172 109.5q-71 -61 -183.5 -103.5t-231.5 -42.5q-170 0 -265 88.5t-95 223.5q0 81 33.5 144t81 98.5t132.5 61.5q40 13 238 54q99 21 169 44v28q0 77 -42 115t-133 38q-80 0 -127 -32.5t-67 -100.5l-255 49 q50 154 157.5 226.5t327.5 72.5q104 0 185.5 -24.5t139.5 -73.5q61 49 133.5 73.5t155.5 24.5q160 0 271 -68q110 -66 174 -198q63 -129 62 -365v-7h-706q17 -136 76 -197t145 -61q71 0 121 36.5t76 112.5zM589 1237v185h644v-185h-644z"/>
<glyph glyph-name="uni01E4" horiz-adv-x="1593" unicode="Ǥ" d="M1581 353h-112v-151q-107 -104 -293 -168q-173 -59 -334 -59q-347 0 -549 213q-195 207 -195 550t197 548t531 205q530 0 624 -431l-294 -55q-67 233 -330 233q-214 0 -324 -141q-99 -127 -99 -347q0 -227 94 -363q110 -159 326 -159q186 0 347 125h-339v137h339v119 h-339v247h638v-366h112v-137z"/>
<glyph glyph-name="uni01E5" d="M844 566q0 305 -240 305q-232 0 -232 -298q0 -296 227 -296q126 0 190 87q55 75 55 202zM1212 -92h-107q-32 -182 -145 -260.5t-344 -78.5q-496 0 -496 282h322q12 -67 163 -67q191 0 223 124h-792v92h803v222q-126 -172 -318 -172q-213 0 -331 154q-106 138 -106 353 q0 228 106 370q119 159 342 159q197 0 325 -173v149h263v-953q0 -55 -4 -109h96v-92z" unicode="ǥ"/>
<glyph glyph-name="uni01E6" horiz-adv-x="1593" unicode="Ǧ" d="M831 539v247h638v-584q-93 -90 -269.5 -158.5t-357.5 -68.5q-230 0 -401 96.5t-257 276t-86 390.5q0 229 96 407t281 273q141 73 351 73q273 0 426.5 -114.5t197.5 -316.5l-294 -55q-31 108 -116.5 170.5t-213.5 62.5q-194 0 -308.5 -123t-114.5 -365q0 -261 116 -391.5 t304 -130.5q93 0 186.5 36.5t160.5 88.5v186h-339zM486 1893h227l108 -149l116 149h226l-207 -295h-260z"/>
<glyph glyph-name="uni01E7" d="M372 553q0 -169 65.5 -247.5t161.5 -78.5q103 0 174 80.5t71 238.5q0 165 -68 245t-172 80q-101 0 -166.5 -78.5t-65.5 -239.5zM121 -70l321 -39q8 -56 37 -77q40 -30 126 -30q110 0 165 33q37 22 56 71q13 35 13 129v155q-126 -172 -318 -172q-214 0 -339 181 q-98 143 -98 356q0 267 128.5 408t319.5 141q197 0 325 -173v149h263v-953q0 -188 -31 -281t-87 -146t-149.5 -83t-236.5 -30q-270 0 -383 92.5t-113 234.5q0 14 1 34zM223 1491h227l108 -149l116 149h226l-207 -295h-260z" unicode="ǧ"/>
<glyph glyph-name="uni01E8" horiz-adv-x="1479" unicode="Ǩ" d="M153 0v1466h296v-651l598 651h398l-552 -571l582 -895h-383l-403 688l-240 -245v-443h-296zM353 1893h227l108 -149l116 149h226l-207 -295h-260z"/>
<glyph glyph-name="uni01E9" horiz-adv-x="1139" unicode="ǩ" d="M137 0v1466h281v-778l329 374h346l-363 -388l389 -674h-303l-267 477l-131 -137v-340h-281zM173 1893h227l108 -149l116 149h226l-207 -295h-260z"/>
<glyph glyph-name="uni01EA" horiz-adv-x="1593" unicode="Ǫ" d="M394 734q0 -249 115 -377.5t292 -128.5t290.5 127.5t113.5 382.5q0 252 -110.5 376t-293.5 124t-295 -125.5t-112 -378.5zM89 724q0 224 67 376q50 112 136.5 201t189.5 132q137 58 316 58q324 0 518.5 -201t194.5 -559q0 -355 -193 -555.5t-516 -200.5 q-327 0 -520 199.5t-193 549.5zM983 0q-19 -14 -34.5 -32.5t-26.5 -39.5t-17 -42.5t-6 -41.5q0 -33 17.5 -55.5t58.5 -22.5q18 0 40.5 6.5t42.5 12.5v-167q-84 -40 -151 -40q-56 0 -97 15t-68.5 41t-41 60.5t-13.5 73.5q0 58 35 121t94 111h167z"/>
<glyph glyph-name="uni01EB" d="M370 531q0 -158 75 -242t185 -84t184.5 84t74.5 244q0 156 -74.5 240t-184.5 84t-185 -84t-75 -242zM82 546q0 140 69 271t195.5 200t282.5 69q241 0 395 -156.5t154 -395.5q0 -241 -155.5 -399.5t-391.5 -158.5q-146 0 -278.5 66t-201.5 193.5t-69 310.5zM783 0 q-19 -14 -34.5 -32.5t-26.5 -39.5t-17 -42.5t-6 -41.5q0 -33 17.5 -55.5t58.5 -22.5q18 0 40.5 6.5t42.5 12.5v-167q-84 -40 -151 -40q-56 0 -97 15t-68.5 41t-41 60.5t-13.5 73.5q0 58 35 121t94 111h167z" unicode="ǫ"/>
<glyph glyph-name="uni01EC" horiz-adv-x="1593" unicode="Ǭ" d="M394 734q0 -249 115 -377.5t292 -128.5t290.5 127.5t113.5 382.5q0 252 -110.5 376t-293.5 124t-295 -125.5t-112 -378.5zM89 724q0 224 67 376q50 112 136.5 201t189.5 132q137 58 316 58q324 0 518.5 -201t194.5 -559q0 -355 -193 -555.5t-516 -200.5 q-327 0 -520 199.5t-193 549.5zM983 0q-19 -14 -34.5 -32.5t-26.5 -39.5t-17 -42.5t-6 -41.5q0 -33 17.5 -55.5t58.5 -22.5q18 0 40.5 6.5t42.5 12.5v-167q-84 -40 -151 -40q-56 0 -97 15t-68.5 41t-41 60.5t-13.5 73.5q0 58 35 121t94 111h167zM479 1639v185h644v-185h-644 z"/>
<glyph glyph-name="uni01ED" d="M370 531q0 -158 75 -242t185 -84t184.5 84t74.5 244q0 156 -74.5 240t-184.5 84t-185 -84t-75 -242zM82 546q0 140 69 271t195.5 200t282.5 69q241 0 395 -156.5t154 -395.5q0 -241 -155.5 -399.5t-391.5 -158.5q-146 0 -278.5 66t-201.5 193.5t-69 310.5zM783 0 q-19 -14 -34.5 -32.5t-26.5 -39.5t-17 -42.5t-6 -41.5q0 -33 17.5 -55.5t58.5 -22.5q18 0 40.5 6.5t42.5 12.5v-167q-84 -40 -151 -40q-56 0 -97 15t-68.5 41t-41 60.5t-13.5 73.5q0 58 35 121t94 111h167zM309 1237v185h644v-185h-644z" unicode="ǭ"/>
<glyph glyph-name="uni01EE" d="M1162 163q0 -248 -149 -417q-156 -177 -401 -177q-209 0 -354 94q-157 102 -200 290l276 47q17 -88 92 -145t173 -57q136 0 211 132q63 109 63 253q0 138 -70 237q-85 118 -240 118h-199v221l417 459h-723v248h1073v-230l-430 -477q154 -24 262 -109q199 -157 199 -487z M253 1893h227l108 -149l116 149h226l-207 -295h-260z" unicode="Ǯ"/>
<glyph glyph-name="uni01EF" horiz-adv-x="1078" unicode="ǯ" d="M1036 93q0 -238 -129 -378q-135 -146 -381 -146q-405 0 -492 384l276 47q38 -202 203 -202q234 0 234 308q0 115 -65 185q-72 77 -205 77h-99v165l293 302q-79 -6 -129 -6h-415v233h878v-199l-312 -330q128 -19 218 -105q125 -119 125 -335zM243 1491h227l108 -149 l116 149h226l-207 -295h-260z"/>
<glyph glyph-name="uni01F0" horiz-adv-x="569" unicode="ǰ" d="M422 33q0 -168 -12 -230q-25 -131 -116 -187q-75 -47 -193 -47q-83 0 -195 30l49 240q45 -9 70 -9q85 0 107 63q9 26 9 156v1013h281v-1029zM-56 1491h227l108 -149l116 149h226l-207 -295h-260z"/>
<glyph glyph-name="uni01F1" horiz-adv-x="2730" unicode="Ǳ" d="M444 1218v-971h221q124 0 179 14q72 18 119.5 61t77.5 141.5t30 268.5t-30 261t-84 142t-137 69q-62 14 -243 14h-133zM148 1466h541q183 0 279 -28q129 -38 221 -135t140 -237.5t48 -346.5q0 -181 -45 -312q-55 -160 -157 -259q-77 -75 -208 -117q-98 -31 -262 -31h-557 v1466zM1501 0v267l770 951h-683v248h1073v-230l-803 -989h834v-247h-1191z"/>
<glyph glyph-name="uni01F2" horiz-adv-x="2503" unicode="ǲ" d="M444 1218v-971h221q124 0 179 14q72 18 119.5 61t77.5 141.5t30 268.5t-30 261t-84 142t-137 69q-62 14 -243 14h-133zM148 1466h541q183 0 279 -28q129 -38 221 -135t140 -237.5t48 -346.5q0 -181 -45 -312q-55 -160 -157 -259q-77 -75 -208 -117q-98 -31 -262 -31h-557 v1466zM1513 0v219l398 457q98 112 145 159q-49 -3 -129 -4l-375 -2v233h878v-199l-406 -468l-143 -155q117 7 145 7h435v-247h-948z"/>
<glyph glyph-name="uni01F3" horiz-adv-x="2275" unicode="ǳ" d="M371 554q0 -170 47 -246q68 -110 190 -110q97 0 165 82.5t68 246.5q0 183 -66 263.5t-169 80.5q-100 0 -167.5 -79.5t-67.5 -237.5zM1121 0h-261v156q-65 -91 -153.5 -135.5t-178.5 -44.5q-183 0 -313.5 147.5t-130.5 411.5q0 270 127 410.5t321 140.5q178 0 308 -148 v528h281v-1466zM1285 0v219l398 457q98 112 145 159q-49 -3 -129 -4l-375 -2v233h878v-199l-406 -468l-143 -155q117 7 145 7h435v-247h-948z"/>
<glyph glyph-name="uni01F4" horiz-adv-x="1593" unicode="Ǵ" d="M831 539v247h638v-584q-93 -90 -269.5 -158.5t-357.5 -68.5q-230 0 -401 96.5t-257 276t-86 390.5q0 229 96 407t281 273q141 73 351 73q273 0 426.5 -114.5t197.5 -316.5l-294 -55q-31 108 -116.5 170.5t-213.5 62.5q-194 0 -308.5 -123t-114.5 -365q0 -261 116 -391.5 t304 -130.5q93 0 186.5 36.5t160.5 88.5v186h-339zM657 1594l138 299h315l-275 -299h-178z"/>
<glyph glyph-name="uni01F5" d="M372 553q0 -169 65.5 -247.5t161.5 -78.5q103 0 174 80.5t71 238.5q0 165 -68 245t-172 80q-101 0 -166.5 -78.5t-65.5 -239.5zM121 -70l321 -39q8 -56 37 -77q40 -30 126 -30q110 0 165 33q37 22 56 71q13 35 13 129v155q-126 -172 -318 -172q-214 0 -339 181 q-98 143 -98 356q0 267 128.5 408t319.5 141q197 0 325 -173v149h263v-953q0 -188 -31 -281t-87 -146t-149.5 -83t-236.5 -30q-270 0 -383 92.5t-113 234.5q0 14 1 34zM437 1192l138 299h315l-275 -299h-178z" unicode="ǵ"/>
<glyph glyph-name="uni01F6" horiz-adv-x="2115" unicode="Ƕ" d="M1997 563q0 -587 -474 -587q-303 0 -414 172q-83 127 -83 415v78h-580v-641h-296v1466h296v-577h580v577h296v-946q0 -152 24 -212q41 -103 173 -103q122 0 167 102q30 69 30 211v544h281v-499z"/>
<glyph glyph-name="uni01F7" horiz-adv-x="1362" unicode="Ƿ" d="M959 919q0 145 -63 230q-66 89 -185 89q-136 0 -210 -111q-61 -91 -61 -214v-913q221 146 370 406.5t149 512.5zM1268 951q0 -385 -270 -735q-228 -296 -558 -469v-151h-291v1870h272v-156q132 181 361 181q213 0 346 -141q140 -147 140 -399z"/>
<glyph glyph-name="uni01F8" horiz-adv-x="1479" unicode="Ǹ" d="M152 0v1466h288l600 -979v979h275v-1466h-297l-591 956v-956h-275zM861 1550h-177l-276 299h315z"/>
<glyph glyph-name="uni01F9" d="M1113 0h-281v542q0 172 -18 222.5t-58.5 78.5t-97.5 28q-73 0 -131 -40t-79.5 -106t-21.5 -244v-481h-281v1062h261v-156q139 180 350 180q93 0 170 -33.5t116.5 -85.5t55 -118t15.5 -189v-660zM755 1192h-177l-276 299h315z" unicode="ǹ"/>
<glyph glyph-name="Aringacute" horiz-adv-x="1479" unicode="Ǻ" d="M926 580l-202 544l-198 -544h400zM1471 0h-322l-128 333h-586l-121 -333h-314l571 1466h313zM814 1562q0 37 -26 63t-63 26t-63 -26t-26 -63t26 -63t63 -26t63 26t26 63zM921 1562q0 -81 -57.5 -138.5t-138.5 -57.5t-138.5 57.5t-57.5 138.5t57.5 138.5t138.5 57.5 t138.5 -57t57.5 -139zM586 1758l138 299h315l-275 -299h-178z"/>
<glyph glyph-name="aringacute" horiz-adv-x="1139" unicode="ǻ" d="M733 510q-54 -18 -171 -43t-153 -49q-55 -39 -55 -99q0 -59 44 -102t112 -43q76 0 145 50q51 38 67 93q11 36 11 137v56zM357 738l-255 46q43 154 148 228t312 74q188 0 280 -44.5t129.5 -113t37.5 -251.5l-3 -328q0 -140 13.5 -206.5t50.5 -142.5h-278q-11 28 -27 83 q-7 25 -10 33q-72 -70 -154 -105t-175 -35q-164 0 -258.5 89t-94.5 225q0 90 43 160.5t120.5 108t223.5 65.5q197 37 273 69v28q0 81 -40 115.5t-151 34.5q-75 0 -117 -29.5t-68 -103.5zM660 1342q0 37 -26 63t-63 26t-63 -26t-26 -63t26 -63t63 -26t63 26t26 63zM767 1342 q0 -81 -57.5 -138.5t-138.5 -57.5t-138.5 57.5t-57.5 138.5t57.5 138.5t138.5 57.5t138.5 -57t57.5 -139zM415 1598l138 299h315l-275 -299h-178z"/>
<glyph glyph-name="AEacute" horiz-adv-x="2048" unicode="Ǽ" d="M501 601h402v643h-115zM-86 0l684 1466h1324v-248h-726v-326h669v-248h-669v-397h753v-247h-1049v345h-508l-150 -345h-328zM870 1598l138 299h315l-275 -299h-178z"/>
<glyph glyph-name="aeacute" horiz-adv-x="1821" unicode="ǽ" d="M740 508q-231 -61 -251 -68q-67 -22 -93.5 -53t-26.5 -73q0 -58 43.5 -99t113.5 -41q74 0 139 47q48 35 61.5 87.5t13.5 199.5zM1447 624q-6 88 -24 127q-25 56 -75.5 88t-118.5 32q-59 0 -103.5 -27.5t-70.5 -82.5q-32 -67 -32 -127v-10h424zM1436 339l275 -49 q-57 -157 -173 -235.5t-296 -78.5q-112 0 -207 36.5t-172 109.5q-71 -61 -183.5 -103.5t-231.5 -42.5q-170 0 -265 88.5t-95 223.5q0 81 33.5 144t81 98.5t132.5 61.5q40 13 238 54q99 21 169 44v28q0 77 -42 115t-133 38q-80 0 -127 -32.5t-67 -100.5l-255 49 q50 154 157.5 226.5t327.5 72.5q104 0 185.5 -24.5t139.5 -73.5q61 49 133.5 73.5t155.5 24.5q160 0 271 -68q110 -66 174 -198q63 -129 62 -365v-7h-706q17 -136 76 -197t145 -61q71 0 121 36.5t76 112.5zM756 1192l138 299h315l-275 -299h-178z"/>
<glyph glyph-name="Oslashacute" horiz-adv-x="1593" unicode="Ǿ" d="M1164 996l-615 -691q103 -90 248 -90q178 0 292.5 129t114.5 385q0 162 -40 267zM1055 1153q-101 86 -256 86q-182 0 -294 -125.5t-112 -378.5q0 -159 46 -272zM1239 1359l158 177l139 -122l-167 -188q67 -90 104 -221.5t37 -279.5q0 -349 -193 -549.5t-510 -200.5 q-275 0 -440 125l-162 -182l-142 124l171 192q-146 195 -146 508q0 347 193 548t515 201q267 0 443 -132zM643 1598l138 299h315l-275 -299h-178z"/>
<glyph glyph-name="oslashacute" d="M874 695l-392 -453q66 -48 151 -48q115 0 193 86.5t78 242.5q0 94 -30 172zM788 817q-67 54 -152 54q-113 0 -191.5 -87t-78.5 -244q0 -99 28 -178zM946 999l104 120l112 -92l-108 -124q60 -71 94.5 -168.5t34.5 -204.5q0 -238 -157 -396t-394 -158q-172 0 -307 84 l-115 -133l-110 95l116 134q-60 73 -94.5 174t-34.5 207q0 240 153.5 394.5t393.5 154.5q178 0 312 -87zM471 1192l138 299h315l-275 -299h-178z" unicode="ǿ"/>
<glyph glyph-name="uni0200" horiz-adv-x="1479" unicode="Ȁ" d="M926 580l-202 544l-198 -544h400zM1471 0h-322l-128 333h-586l-121 -333h-314l571 1466h313zM646 1599h-180l-247 298h286zM1022 1599h-176l-257 298h294z"/>
<glyph glyph-name="uni0201" horiz-adv-x="1139" unicode="ȁ" d="M733 510q-54 -18 -171 -43t-153 -49q-55 -39 -55 -99q0 -59 44 -102t112 -43q76 0 145 50q51 38 67 93q11 36 11 137v56zM357 738l-255 46q43 154 148 228t312 74q188 0 280 -44.5t129.5 -113t37.5 -251.5l-3 -328q0 -140 13.5 -206.5t50.5 -142.5h-278q-11 28 -27 83 q-7 25 -10 33q-72 -70 -154 -105t-175 -35q-164 0 -258.5 89t-94.5 225q0 90 43 160.5t120.5 108t223.5 65.5q197 37 273 69v28q0 81 -40 115.5t-151 34.5q-75 0 -117 -29.5t-68 -103.5zM526 1197h-180l-247 298h286zM902 1197h-176l-257 298h294z"/>
<glyph glyph-name="uni0202" horiz-adv-x="1479" unicode="Ȃ" d="M926 580l-202 544l-198 -544h400zM1471 0h-322l-128 333h-586l-121 -333h-314l571 1466h313zM1042 1602h-137q-14 144 -175 144t-175 -144h-137q12 135 94.5 213t217.5 78q136 0 218 -77.5t94 -213.5z"/>
<glyph glyph-name="uni0203" horiz-adv-x="1139" unicode="ȃ" d="M733 510q-54 -18 -171 -43t-153 -49q-55 -39 -55 -99q0 -59 44 -102t112 -43q76 0 145 50q51 38 67 93q11 36 11 137v56zM357 738l-255 46q43 154 148 228t312 74q188 0 280 -44.5t129.5 -113t37.5 -251.5l-3 -328q0 -140 13.5 -206.5t50.5 -142.5h-278q-11 28 -27 83 q-7 25 -10 33q-72 -70 -154 -105t-175 -35q-164 0 -258.5 89t-94.5 225q0 90 43 160.5t120.5 108t223.5 65.5q197 37 273 69v28q0 81 -40 115.5t-151 34.5q-75 0 -117 -29.5t-68 -103.5zM892 1200h-137q-14 144 -175 144t-175 -144h-137q12 135 94.5 213t217.5 78 q136 0 218 -77.5t94 -213.5z"/>
<glyph glyph-name="uni0204" horiz-adv-x="1366" unicode="Ȅ" d="M149 0v1466h1087v-248h-791v-325h736v-247h-736v-399h819v-247h-1115zM626 1599h-180l-247 298h286zM1002 1599h-176l-257 298h294z"/>
<glyph glyph-name="uni0205" horiz-adv-x="1139" unicode="ȅ" d="M778 622q-3 122 -63 185.5t-146 63.5q-92 0 -152 -67t-59 -182h420zM762 338l280 -47q-54 -154 -170.5 -234.5t-291.5 -80.5q-277 0 -410 181q-105 145 -105 366q0 264 138 413.5t349 149.5q237 0 374 -156q131 -150 131 -453v-27h-704q3 -125 68 -194.5t162 -69.5 q66 0 111 36t68 116zM526 1197h-180l-247 298h286zM902 1197h-176l-257 298h294z"/>
<glyph glyph-name="uni0206" horiz-adv-x="1366" unicode="Ȇ" d="M149 0v1466h1087v-248h-791v-325h736v-247h-736v-399h819v-247h-1115zM1012 1602h-137q-14 144 -175 144t-175 -144h-137q12 135 94.5 213t217.5 78q136 0 218 -77.5t94 -213.5z"/>
<glyph glyph-name="uni0207" horiz-adv-x="1139" unicode="ȇ" d="M778 622q-3 122 -63 185.5t-146 63.5q-92 0 -152 -67t-59 -182h420zM762 338l280 -47q-54 -154 -170.5 -234.5t-291.5 -80.5q-277 0 -410 181q-105 145 -105 366q0 264 138 413.5t349 149.5q237 0 374 -156q131 -150 131 -453v-27h-704q3 -125 68 -194.5t162 -69.5 q66 0 111 36t68 116zM882 1200h-137q-14 144 -175 144t-175 -144h-137q12 135 94.5 213t217.5 78q136 0 218 -77.5t94 -213.5z"/>
<glyph glyph-name="uni0208" horiz-adv-x="569" unicode="Ȉ" d="M140 0v1466h296v-1466h-296zM226 1599h-180l-247 298h286zM602 1599h-176l-257 298h294z"/>
<glyph glyph-name="uni0209" horiz-adv-x="569" unicode="ȉ" d="M147 0v1062h281v-1062h-281zM216 1197h-180l-247 298h286zM592 1197h-176l-257 298h294z"/>
<glyph glyph-name="uni020A" horiz-adv-x="569" unicode="Ȋ" d="M140 0v1466h296v-1466h-296zM612 1602h-137q-14 144 -175 144t-175 -144h-137q12 135 94.5 213t217.5 78q136 0 218 -77.5t94 -213.5z"/>
<glyph glyph-name="uni020B" horiz-adv-x="569" unicode="ȋ" d="M147 0v1062h281v-1062h-281zM598 1200h-137q-14 144 -175 144t-175 -144h-137q12 135 94.5 213t217.5 78q136 0 218 -77.5t94 -213.5z"/>
<glyph glyph-name="uni020C" horiz-adv-x="1593" unicode="Ȍ" d="M394 734q0 -249 115 -377.5t292 -128.5t290.5 127.5t113.5 382.5q0 252 -110.5 376t-293.5 124t-295 -125.5t-112 -378.5zM89 724q0 224 67 376q50 112 136.5 201t189.5 132q137 58 316 58q324 0 518.5 -201t194.5 -559q0 -355 -193 -555.5t-516 -200.5 q-327 0 -520 199.5t-193 549.5zM726 1599h-180l-247 298h286zM1102 1599h-176l-257 298h294z"/>
<glyph glyph-name="uni020D" d="M370 531q0 -158 75 -242t185 -84t184.5 84t74.5 244q0 156 -74.5 240t-184.5 84t-185 -84t-75 -242zM82 546q0 140 69 271t195.5 200t282.5 69q241 0 395 -156.5t154 -395.5q0 -241 -155.5 -399.5t-391.5 -158.5q-146 0 -278.5 66t-201.5 193.5t-69 310.5zM546 1197h-180 l-247 298h286zM922 1197h-176l-257 298h294z" unicode="ȍ"/>
<glyph glyph-name="uni020E" horiz-adv-x="1593" unicode="Ȏ" d="M394 734q0 -249 115 -377.5t292 -128.5t290.5 127.5t113.5 382.5q0 252 -110.5 376t-293.5 124t-295 -125.5t-112 -378.5zM89 724q0 224 67 376q50 112 136.5 201t189.5 132q137 58 316 58q324 0 518.5 -201t194.5 -559q0 -355 -193 -555.5t-516 -200.5 q-327 0 -520 199.5t-193 549.5zM1112 1602h-137q-14 144 -175 144t-175 -144h-137q12 135 94.5 213t217.5 78q136 0 218 -77.5t94 -213.5z"/>
<glyph glyph-name="uni020F" d="M370 531q0 -158 75 -242t185 -84t184.5 84t74.5 244q0 156 -74.5 240t-184.5 84t-185 -84t-75 -242zM82 546q0 140 69 271t195.5 200t282.5 69q241 0 395 -156.5t154 -395.5q0 -241 -155.5 -399.5t-391.5 -158.5q-146 0 -278.5 66t-201.5 193.5t-69 310.5zM932 1200h-137 q-14 144 -175 144t-175 -144h-137q12 135 94.5 213t217.5 78q136 0 218 -77.5t94 -213.5z" unicode="ȏ"/>
<glyph glyph-name="uni0210" horiz-adv-x="1479" unicode="Ȑ" d="M446 846h219q213 0 266 18t83 62t30 110q0 74 -39.5 119.5t-111.5 57.5q-36 5 -216 5h-231v-372zM150 0v1466h623q235 0 341.5 -39.5t170.5 -140.5t64 -231q0 -165 -97 -272.5t-290 -135.5q96 -56 158.5 -123t168.5 -238l179 -286h-354l-214 319q-114 171 -156 215.5 t-89 61t-149 16.5h-60v-612h-296zM626 1599h-180l-247 298h286zM1002 1599h-176l-257 298h294z"/>
<glyph glyph-name="uni0211" horiz-adv-x="797" unicode="ȑ" d="M416 0h-281v1062h261v-151q67 107 120.5 141t121.5 34q96 0 185 -53l-87 -245q-71 46 -132 46q-59 0 -100 -32.5t-64.5 -117.5t-23.5 -356v-328zM376 1197h-180l-247 298h286zM752 1197h-176l-257 298h294z"/>
<glyph glyph-name="uni0212" horiz-adv-x="1479" unicode="Ȓ" d="M446 846h219q213 0 266 18t83 62t30 110q0 74 -39.5 119.5t-111.5 57.5q-36 5 -216 5h-231v-372zM150 0v1466h623q235 0 341.5 -39.5t170.5 -140.5t64 -231q0 -165 -97 -272.5t-290 -135.5q96 -56 158.5 -123t168.5 -238l179 -286h-354l-214 319q-114 171 -156 215.5 t-89 61t-149 16.5h-60v-612h-296zM1012 1602h-137q-14 144 -175 144t-175 -144h-137q12 135 94.5 213t217.5 78q136 0 218 -77.5t94 -213.5z"/>
<glyph glyph-name="uni0213" horiz-adv-x="797" unicode="ȓ" d="M416 0h-281v1062h261v-151q67 107 120.5 141t121.5 34q96 0 185 -53l-87 -245q-71 46 -132 46q-59 0 -100 -32.5t-64.5 -117.5t-23.5 -356v-328zM752 1200h-137q-14 144 -175 144t-175 -144h-137q12 135 94.5 213t217.5 78q136 0 218 -77.5t94 -213.5z"/>
<glyph glyph-name="uni0214" horiz-adv-x="1479" unicode="Ȕ" d="M147 1466h296v-794q0 -189 11 -245q19 -90 90.5 -144.5t195.5 -54.5q126 0 190 51.5t77 126.5t13 249v811h296v-770q0 -264 -24 -373t-88.5 -184t-172.5 -119.5t-282 -44.5q-210 0 -318.5 48.5t-171.5 126t-83 162.5q-29 126 -29 372v782zM686 1599h-180l-247 298h286z M1062 1599h-176l-257 298h294z"/>
<glyph glyph-name="uni0215" d="M846 0v159q-58 -85 -152.5 -134t-199.5 -49q-107 0 -192 47t-123 132t-38 235v672h281v-488q0 -224 15.5 -274.5t56.5 -80t104 -29.5q72 0 129 39.5t78 98t21 286.5v448h281v-1062h-261zM530 1197h-180l-247 298h286zM906 1197h-176l-257 298h294z" unicode="ȕ"/>
<glyph glyph-name="uni0216" horiz-adv-x="1479" unicode="Ȗ" d="M147 1466h296v-794q0 -189 11 -245q19 -90 90.5 -144.5t195.5 -54.5q126 0 190 51.5t77 126.5t13 249v811h296v-770q0 -264 -24 -373t-88.5 -184t-172.5 -119.5t-282 -44.5q-210 0 -318.5 48.5t-171.5 126t-83 162.5q-29 126 -29 372v782zM1044 1602h-137 q-14 144 -175 144t-175 -144h-137q12 135 94.5 213t217.5 78q136 0 218 -77.5t94 -213.5z"/>
<glyph glyph-name="uni0217" d="M846 0v159q-58 -85 -152.5 -134t-199.5 -49q-107 0 -192 47t-123 132t-38 235v672h281v-488q0 -224 15.5 -274.5t56.5 -80t104 -29.5q72 0 129 39.5t78 98t21 286.5v448h281v-1062h-261zM932 1200h-137q-14 144 -175 144t-175 -144h-137q12 135 94.5 213t217.5 78 q136 0 218 -77.5t94 -213.5z" unicode="ȗ"/>
<glyph glyph-name="Scommaaccent" horiz-adv-x="1366" unicode="Ș" d="M74 477l288 28q26 -145 105.5 -213t214.5 -68q143 0 215.5 60.5t72.5 141.5q0 52 -30.5 88.5t-106.5 63.5q-52 18 -237 64q-238 59 -334 145q-135 121 -135 295q0 112 63.5 209.5t183 148.5t288.5 51q276 0 415.5 -121t146.5 -323l-296 -13q-19 113 -81.5 162.5 t-187.5 49.5q-129 0 -202 -53q-47 -34 -47 -91q0 -52 44 -89q56 -47 272 -98t319.5 -105.5t162 -149t58.5 -233.5q0 -126 -70 -236t-198 -163.5t-319 -53.5q-278 0 -427 128.5t-178 374.5zM531 -113h298v-90q0 -117 -21 -178t-80.5 -109t-162.5 -76l-37 133q135 37 135 137 h-132v183z"/>
<glyph glyph-name="scommaaccent" horiz-adv-x="1139" unicode="ș" d="M48 303l282 43q18 -82 73 -124.5t154 -42.5q109 0 164 40q37 28 37 75q0 32 -20 53q-21 20 -94 37q-340 75 -431 137q-126 86 -126 239q0 138 109 232t338 94q218 0 324 -71t146 -210l-265 -49q-17 62 -64.5 95t-135.5 33q-111 0 -159 -31q-32 -22 -32 -57q0 -30 28 -51 q38 -28 262.5 -79t313.5 -125q88 -75 88 -209q0 -146 -122 -251t-361 -105q-217 0 -343.5 88t-165.5 239zM401 -113h298v-90q0 -117 -21 -178t-80.5 -109t-162.5 -76l-37 133q135 37 135 137h-132v183z"/>
<glyph glyph-name="uni021A" d="M479 0v1218h-435v248h1165v-248h-434v-1218h-296zM481 -113h298v-90q0 -117 -21 -178t-80.5 -109t-162.5 -76l-37 133q135 37 135 137h-132v183z" unicode="Ț"/>
<glyph glyph-name="uni021B" horiz-adv-x="682" unicode="ț" d="M634 1062v-224h-192v-428q0 -130 5.5 -151.5t25 -35.5t47.5 -14q39 0 113 27l24 -218q-98 -42 -222 -42q-76 0 -137 25.5t-89.5 66t-39.5 109.5q-9 49 -9 198v463h-129v224h129v211l282 164v-375h192zM261 -113h298v-90q0 -117 -21 -178t-80.5 -109t-162.5 -76l-37 133 q135 37 135 137h-132v183z"/>
<glyph glyph-name="uni021C" horiz-adv-x="1182" unicode="Ȝ" d="M1086 308q0 -231 -173 -390q-134 -124 -394 -218q-16 -6 -429 -131v253q292 88 425 158q262 140 262 328q0 117 -63 189q-169 -103 -624 -233v260q312 94 416 146q271 136 271 334q0 234 -246 234q-163 0 -311 -168l-174 213q77 93 203 149q130 59 274 59q563 0 563 -487 q0 -199 -136 -352q136 -117 136 -344z"/>
<glyph glyph-name="uni021D" horiz-adv-x="1065" unicode="ȝ" d="M992 155q0 -208 -162 -339q-126 -102 -366 -167q-65 -17 -390 -80v229q271 42 396 91q231 91 231 256q0 99 -89 146q-168 -67 -538 -130v235q277 46 376 78q251 82 251 225q0 158 -181 158q-134 0 -253 -163l-194 160q78 100 198 163q130 69 266 69q176 0 297 -76 q158 -100 158 -301q0 -196 -157 -295q157 -81 157 -259z"/>
<glyph glyph-name="uni021E" horiz-adv-x="1479" unicode="Ȟ" d="M150 0v1466h296v-577h580v577h296v-1466h-296v641h-580v-641h-296zM398 1893h227l108 -149l116 149h226l-207 -295h-260z"/>
<glyph glyph-name="uni021F" d="M427 1466v-539q136 159 325 159q97 0 175 -36t117.5 -92t54 -124t14.5 -211v-623h-281v561q0 167 -16 212t-56.5 71.5t-101.5 26.5q-70 0 -125 -34t-80.5 -102.5t-25.5 -202.5v-532h-281v1466h281zM203 1893h227l108 -149l116 149h226l-207 -295h-260z" unicode="ȟ"/>
<glyph glyph-name="uni0220" horiz-adv-x="1439" unicode="Ƞ" d="M1314 -404h-296v1288q0 179 -48 260q-62 103 -221 103q-163 0 -297 -81v-1166h-296v1466h296v-56q173 81 348 81q514 0 514 -482v-1413z"/>
<glyph glyph-name="uni0221" horiz-adv-x="1715" unicode="ȡ" d="M841 527q0 344 -235 344q-121 0 -184 -103q-51 -84 -51 -214q0 -170 47 -246q68 -110 190 -110q121 0 183 110q50 89 50 219zM1465 -115q0 83 -91 83q-51 0 -150 -112q65 -58 131 -58q110 0 110 87zM1705 -115q0 -134 -86 -220q-98 -96 -277 -96q-163 0 -298 97 q-26 -34 -69 -97l-195 145q44 63 109 140q-49 103 -49 266v26q-121 -170 -312 -170q-214 0 -337 179q-107 156 -107 380q0 235 104 382q119 169 344 169q178 0 308 -148v528h281v-1385q125 130 260 130q155 0 243 -97q81 -89 81 -229z"/>
<glyph glyph-name="uni0222" horiz-adv-x="1292" unicode="Ȣ" d="M905 450q0 220 -259 220t-259 -220q0 -222 259 -222t259 222zM1210 444q0 -244 -164 -363q-144 -106 -400 -106t-400 106q-164 119 -164 363q0 144 78 243q72 92 183 113v15q-218 80 -218 292q0 153 162 236q132 67 310 67v-251q-70 0 -117 -29q-51 -32 -51 -84 q0 -130 217 -130q220 0 220 170q0 74 -52 116q-48 38 -126 38v251q249 0 373 -100q109 -89 109 -244q0 -235 -221 -332v-15q111 -21 183 -113q78 -99 78 -243z"/>
<glyph glyph-name="uni0223" horiz-adv-x="1292" unicode="ȣ" d="M905 450q0 220 -259 220t-259 -220q0 -222 259 -222t259 222zM1210 444q0 -244 -164 -363q-144 -106 -400 -106t-400 106q-164 119 -164 363q0 144 78 243q72 92 183 113v15q-221 97 -221 332q0 115 109 216q81 76 203 128l106 -154q-114 -83 -114 -211q0 -210 220 -210 t220 210q0 128 -114 211l106 154q122 -52 203 -128q109 -101 109 -216q0 -235 -221 -332v-15q111 -21 183 -113q78 -99 78 -243z"/>
<glyph glyph-name="uni0224" d="M1213 -42q0 -120 -36 -235l-196 38q16 67 16 129q0 69 -39 93q-29 17 -100 17h-836v267l770 951h-683v248h1073v-230l-803 -989h482q352 0 352 -289z" unicode="Ȥ"/>
<glyph glyph-name="uni0225" horiz-adv-x="1024" unicode="ȥ" d="M992 -46q0 -120 -36 -235l-196 38q16 67 16 129q0 70 -38 95q-29 19 -100 19h-604v219l543 616q-38 -2 -129 -6h-375v233h878v-199l-549 -623l145 7h95q181 0 265.5 -69t84.5 -224z"/>
<glyph glyph-name="uni0226" horiz-adv-x="1479" unicode="Ȧ" d="M926 580l-202 544l-198 -544h400zM1471 0h-322l-128 333h-586l-121 -333h-314l571 1466h313zM593 1627v266h276v-266h-276z"/>
<glyph glyph-name="uni0227" horiz-adv-x="1139" unicode="ȧ" d="M733 510q-54 -18 -171 -43t-153 -49q-55 -39 -55 -99q0 -59 44 -102t112 -43q76 0 145 50q51 38 67 93q11 36 11 137v56zM357 738l-255 46q43 154 148 228t312 74q188 0 280 -44.5t129.5 -113t37.5 -251.5l-3 -328q0 -140 13.5 -206.5t50.5 -142.5h-278q-11 28 -27 83 q-7 25 -10 33q-72 -70 -154 -105t-175 -35q-164 0 -258.5 89t-94.5 225q0 90 43 160.5t120.5 108t223.5 65.5q197 37 273 69v28q0 81 -40 115.5t-151 34.5q-75 0 -117 -29.5t-68 -103.5zM445 1225v266h276v-266h-276z"/>
<glyph glyph-name="uni0228" horiz-adv-x="1366" unicode="Ȩ" d="M149 0v1466h1087v-248h-791v-325h736v-247h-736v-399h819v-247h-1115zM434 -403v118q103 -11 189 -11q89 0 132 32q33 24 33 62q0 34 -31 59t-96 25q-64 0 -131 -20l26 99q78 27 168 27q125 0 190 -55t65 -134q0 -88 -72 -143q-97 -75 -278 -75q-129 0 -195 16z"/>
<glyph glyph-name="uni0229" horiz-adv-x="1139" unicode="ȩ" d="M778 622q-3 122 -63 185.5t-146 63.5q-92 0 -152 -67t-59 -182h420zM762 338l280 -47q-54 -154 -170.5 -234.5t-291.5 -80.5q-277 0 -410 181q-105 145 -105 366q0 264 138 413.5t349 149.5q237 0 374 -156q131 -150 131 -453v-27h-704q3 -125 68 -194.5t162 -69.5 q66 0 111 36t68 116zM298 -403v118q103 -11 189 -11q89 0 132 32q33 24 33 62q0 34 -31 59t-96 25q-64 0 -131 -20l26 99q78 27 168 27q125 0 190 -55t65 -134q0 -88 -72 -143q-97 -75 -278 -75q-129 0 -195 16z"/>
<glyph glyph-name="uni022A" horiz-adv-x="1593" unicode="Ȫ" d="M394 734q0 -249 115 -377.5t292 -128.5t290.5 127.5t113.5 382.5q0 252 -110.5 376t-293.5 124t-295 -125.5t-112 -378.5zM89 724q0 224 67 376q50 112 136.5 201t189.5 132q137 58 316 58q324 0 518.5 -201t194.5 -559q0 -355 -193 -555.5t-516 -200.5 q-327 0 -520 199.5t-193 549.5zM677 1496h-140v152h140v-152zM1063 1496h-140v152h140v-152zM1058 1721h-516v122h516v-122z"/>
<glyph glyph-name="uni022B" d="M370 531q0 -158 75 -242t185 -84t184.5 84t74.5 244q0 156 -74.5 240t-184.5 84t-185 -84t-75 -242zM82 546q0 140 69 271t195.5 200t282.5 69q241 0 395 -156.5t154 -395.5q0 -241 -155.5 -399.5t-391.5 -158.5q-146 0 -278.5 66t-201.5 193.5t-69 310.5zM727 1250v241 h242v-241h-242zM297 1250v241h241v-241h-241zM311 1590v185h644v-185h-644z" unicode="ȫ"/>
<glyph glyph-name="uni022C" horiz-adv-x="1593" unicode="Ȭ" d="M394 734q0 -249 115 -377.5t292 -128.5t290.5 127.5t113.5 382.5q0 252 -110.5 376t-293.5 124t-295 -125.5t-112 -378.5zM89 724q0 224 67 376q50 112 136.5 201t189.5 132q137 58 316 58q324 0 518.5 -201t194.5 -559q0 -355 -193 -555.5t-516 -200.5 q-327 0 -520 199.5t-193 549.5zM1068 1691q-4 -172 -151 -172q-38 0 -112.5 36.5t-106.5 36.5q-46 0 -56 -76h-90q-1 75 42 124t116 49q37 0 107.5 -36.5t107.5 -36.5q45 0 53 75h90zM1068 1721h-516v122h516v-122z"/>
<glyph glyph-name="uni022D" d="M370 531q0 -158 75 -242t185 -84t184.5 84t74.5 244q0 156 -74.5 240t-184.5 84t-185 -84t-75 -242zM82 546q0 140 69 271t195.5 200t282.5 69q241 0 395 -156.5t154 -395.5q0 -241 -155.5 -399.5t-391.5 -158.5q-146 0 -278.5 66t-201.5 193.5t-69 310.5zM408 1205h-128 q-1 23 -1 36q0 105 51 161.5t131 56.5q35 0 65 -7.5t109.5 -43t124.5 -35.5q32 0 53.5 20t27.5 67h130q-1 -135 -50.5 -193t-127.5 -58q-34 0 -67 7q-23 6 -115 41t-134 35q-32 0 -50 -19.5t-19 -67.5zM311 1590v185h644v-185h-644z" unicode="ȭ"/>
<glyph glyph-name="uni022E" horiz-adv-x="1593" unicode="Ȯ" d="M394 734q0 -249 115 -377.5t292 -128.5t290.5 127.5t113.5 382.5q0 252 -110.5 376t-293.5 124t-295 -125.5t-112 -378.5zM89 724q0 224 67 376q50 112 136.5 201t189.5 132q137 58 316 58q324 0 518.5 -201t194.5 -559q0 -355 -193 -555.5t-516 -200.5 q-327 0 -520 199.5t-193 549.5zM665 1627v266h276v-266h-276z"/>
<glyph glyph-name="uni022F" d="M370 531q0 -158 75 -242t185 -84t184.5 84t74.5 244q0 156 -74.5 240t-184.5 84t-185 -84t-75 -242zM82 546q0 140 69 271t195.5 200t282.5 69q241 0 395 -156.5t154 -395.5q0 -241 -155.5 -399.5t-391.5 -158.5q-146 0 -278.5 66t-201.5 193.5t-69 310.5zM491 1225v266 h276v-266h-276z" unicode="ȯ"/>
<glyph glyph-name="uni0230" horiz-adv-x="1593" unicode="Ȱ" d="M394 734q0 -249 115 -377.5t292 -128.5t290.5 127.5t113.5 382.5q0 252 -110.5 376t-293.5 124t-295 -125.5t-112 -378.5zM89 724q0 224 67 376q50 112 136.5 201t189.5 132q137 58 316 58q324 0 518.5 -201t194.5 -559q0 -355 -193 -555.5t-516 -200.5 q-327 0 -520 199.5t-193 549.5zM869 1526h-140v152h140v-152zM1058 1721h-516v122h516v-122z"/>
<glyph glyph-name="uni0231" d="M370 531q0 -158 75 -242t185 -84t184.5 84t74.5 244q0 156 -74.5 240t-184.5 84t-185 -84t-75 -242zM82 546q0 140 69 271t195.5 200t282.5 69q241 0 395 -156.5t154 -395.5q0 -241 -155.5 -399.5t-391.5 -158.5q-146 0 -278.5 66t-201.5 193.5t-69 310.5zM497 1225v266 h276v-266h-276zM311 1590v185h644v-185h-644z" unicode="ȱ"/>
<glyph glyph-name="uni0232" horiz-adv-x="1366" unicode="Ȳ" d="M534 0v617l-537 849h347l345 -580l338 580h341l-539 -851v-615h-295zM379 1639v185h644v-185h-644z"/>
<glyph glyph-name="uni0233" horiz-adv-x="1139" unicode="ȳ" d="M14 1062h299l254 -754l248 754h291l-375 -1022l-67 -185q-37 -93 -70.5 -142t-77 -79.5t-107 -47.5t-143.5 -17q-81 0 -159 17l-25 220q66 -13 119 -13q98 0 145 57.5t72 146.5zM239 1237v185h644v-185h-644z"/>
<glyph glyph-name="uni0234" horiz-adv-x="1022" unicode="ȴ" d="M772 -115q0 83 -91 83q-51 0 -150 -112q65 -58 131 -58q110 0 110 87zM1012 -115q0 -134 -86 -220q-98 -96 -277 -96q-163 0 -298 97q-26 -34 -69 -97l-195 145q44 63 109 140q-49 103 -49 266v1346h281v-1385q125 130 260 130q155 0 243 -97q81 -89 81 -229z"/>
<glyph glyph-name="uni0235" horiz-adv-x="1707" unicode="ȵ" d="M1457 -115q0 83 -91 83q-51 0 -150 -112q65 -58 131 -58q110 0 110 87zM1697 -115q0 -134 -86 -220q-98 -96 -277 -96q-163 0 -298 97q-26 -34 -69 -97l-195 145q44 63 109 140q-49 103 -49 266v422q0 128 -5 162q-14 100 -71 139q-41 28 -98 28q-72 0 -130 -39t-80 -107 t-22 -244v-481h-281v1062h261v-156q139 180 350 180q197 0 287 -119q70 -92 70 -307v-579q125 130 260 130q155 0 243 -97q81 -89 81 -229z"/>
<glyph glyph-name="uni0236" horiz-adv-x="1036" unicode="ȶ" d="M786 292q0 83 -91 83q-51 0 -150 -112q65 -58 131 -58q110 0 110 87zM1026 292q0 -134 -86 -219q-98 -97 -277 -97q-163 0 -298 97q-26 -34 -69 -97l-195 145q44 63 109 140q-50 105 -50 264v313h-129v224h129v211l282 164v-375h192v-224h-192v-350q125 130 260 130 q155 0 243 -97q81 -89 81 -229z"/>
<glyph glyph-name="j.dotless" horiz-adv-x="569" unicode="ȷ" d="M422 33q0 -168 -12 -230q-25 -131 -116 -187q-75 -47 -193 -47q-83 0 -195 30l49 240q45 -9 70 -9q85 0 107 63q9 26 9 156v1013h281v-1029z"/>
<glyph glyph-name="uni0238" horiz-adv-x="1953" unicode="ȸ" d="M1877 542q0 -231 -104 -386q-120 -180 -340 -180q-203 0 -332 180v-156h-241v156q-129 -180 -332 -180q-214 0 -337 179q-107 156 -107 380q0 235 104 382q119 169 344 169q178 0 308 -148v528h281v-528q130 148 308 148q222 0 342 -166q106 -147 106 -378zM1589 528 q0 343 -235 343q-123 0 -185 -102q-50 -83 -50 -215q0 -165 52 -244q73 -112 194 -112q120 0 179 111q45 87 45 219zM841 527q0 344 -235 344q-121 0 -184 -103q-51 -84 -51 -214q0 -170 47 -246q68 -110 190 -110q121 0 183 110q50 89 50 219z"/>
<glyph glyph-name="uni0239" horiz-adv-x="1953" unicode="ȹ" d="M1877 537q0 -227 -106 -382q-122 -179 -339 -179q-166 0 -310 155v-535h-281v534q-119 -154 -314 -154q-180 0 -298 136q-138 160 -138 431q0 226 110 376q123 167 341 167q202 0 321 -181v157h240v-156q115 180 331 180q215 0 336 -173q107 -152 107 -376zM1591 535 q0 133 -49 220q-61 109 -184 109t-186 -100q-53 -84 -53 -215q0 -140 51 -233q64 -117 193 -117q228 0 228 336zM850 544q0 133 -49 218q-60 104 -184 104q-128 0 -190 -111q-49 -88 -49 -227q0 -136 46 -221q59 -109 183 -109t190 117q53 95 53 229z"/>
<glyph glyph-name="uni023A" horiz-adv-x="1479" unicode="Ⱥ" d="M1471 0h-322l-128 333h-365l-219 -387h-159l31 54h-309l571 1466h313l105 -262l158 280h159l-251 -445zM811 889l-87 235l-198 -544h110zM926 580l-52 140l-79 -140h131zM497 333h-62l-111 -306z"/>
<glyph glyph-name="uni023B" horiz-adv-x="1479" unicode="Ȼ" d="M1374 448q-130 -473 -609 -473q-165 0 -297 64l-52 -93h-159l94 167q-32 26 -66 62q-188 200 -188 545q0 341 170 548q183 223 516 223q176 0 309 -68l34 61h159l-79 -139q112 -99 164 -283l-293 -70q-9 40 -27 77l-453 -802q72 -39 165 -39q254 0 325 311zM955 1182 q-79 56 -187 56q-366 0 -366 -496q0 -262 89 -382z"/>
<glyph glyph-name="uni023C" horiz-adv-x="1139" unicode="ȼ" d="M1119 1484l-232 -467q131 -81 186 -269l-277 -50q-8 47 -28 82l-272 -547q49 -28 112 -28q165 0 203 202l276 -47q-87 -384 -492 -384q-115 0 -209 37l-207 -416h-159l243 488q-178 149 -178 445q0 253 130 400q136 156 385 156q84 0 154 -16l206 414h159zM650 861 q-22 4 -46 4q-230 0 -230 -315q0 -117 25 -193z"/>
<glyph glyph-name="uni023D" d="M1189 0h-1032v640h-140v186h140v628h296v-628h345v-186h-345v-393h736v-247z" unicode="Ƚ"/>
<glyph glyph-name="uni023E" d="M1209 1218h-193l-241 -377v-841h-296v378l-276 -432h-159l435 681v591h-434v248h970l35 54h159l-35 -54h35v-248zM857 1218h-82v-128z" unicode="Ⱦ"/>
<glyph glyph-name="uni023F" horiz-adv-x="1139" unicode="ȿ" d="M1040 332q0 -171 -149 -268q-135 -88 -343 -88l94 -122q51 -66 109 -66q87 0 142 88l81 -194q-88 -113 -235 -113q-87 0 -151 42q-54 36 -118 120l-155 205q-44 58 -117 112q-71 47 -141 94l145 199q58 -57 149 -104q104 -53 186 -53q221 0 221 110q0 65 -114 90 q-342 76 -431 137q-126 86 -126 239q0 172 145 257q118 69 302 69q187 0 293 -53q131 -67 177 -228l-265 -49q-35 128 -200 128q-191 0 -191 -88q0 -30 28 -51q43 -32 269 -82q221 -50 308 -123t87 -208z"/>
<glyph glyph-name="uni0240" horiz-adv-x="1024" unicode="ɀ" d="M1024 -298q-103 -133 -235 -133q-86 0 -150 43q-51 34 -119 119l-120 150q-95 119 -223 119h-143v219l543 616q-98 -6 -129 -6h-375v233h878v-199l-577 -650q90 -17 211 -164l124 -150q59 -71 107 -71q63 0 122 88z"/>
<glyph glyph-name="uni0241" horiz-adv-x="1321" unicode="Ɂ" d="M1224 915q0 -230 -121 -381q-123 -155 -341 -189v-345h-281v576q54 -16 135 -16q143 0 227 84q92 93 92 271q0 173 -94 267q-87 88 -236 88q-95 0 -177.5 -56t-109.5 -136l-252 99q66 144 214.5 229t334.5 85q292 0 452 -153q157 -151 157 -423z"/>
<glyph glyph-name="uni0242" horiz-adv-x="991" unicode="ɂ" d="M918 703q0 -113 -68.5 -212.5t-170.5 -139.5v-351h-281v449q83 0 165 69q93 78 93 185q0 89 -46 141q-44 49 -116 49q-153 0 -208 -138l-238 51q35 138 173 214q121 66 278 66q175 0 291 -94q128 -105 128 -289z"/>
<glyph glyph-name="uni0243" horiz-adv-x="1479" unicode="Ƀ" d="M1072 439q0 136 -124 179q-61 21 -263 21h-239v-103h312v-186h-312v-103h274q156 0 203 9q149 29 149 183zM1018 1055q0 144 -149 162q-42 5 -253 5h-170v-339h194q173 0 215 5q163 19 163 167zM1378 425q0 -224 -173 -345q-81 -57 -199 -70q-91 -10 -357 -10h-499v350 h-153v186h153v930h586q155 0 214 -7q121 -15 199 -68q157 -107 157 -294q0 -105 -55.5 -190t-150.5 -128q129 -38 202 -128q76 -94 76 -226z"/>
<glyph glyph-name="uni0244" horiz-adv-x="1479" unicode="Ʉ" d="M1020 655v45h-577v-28q0 -191 11 -245q41 -199 286 -199q236 0 267 178q13 75 13 249zM1436 700h-120v-24q0 -192 -10 -271q-22 -173 -102 -266q-141 -164 -455 -164q-348 0 -490 175q-64 78 -83 162q-29 125 -29 372v16h-125v186h125v580h296v-580h577v580h296v-580h120 v-186z"/>
<glyph glyph-name="uni0245" horiz-adv-x="1366" unicode="Ʌ" d="M841 1466l524 -1466h-321l-371 1084l-359 -1084h-314l525 1466h316z"/>
<glyph glyph-name="uni0246" horiz-adv-x="1366" unicode="Ɇ" d="M641 646h-196v-399h8zM921 1218h-476v-325h317zM1264 0h-783l-52 -107h-157l52 107h-175v1466h893l37 75h157l-37 -75h37v-248h-158l-159 -325h262v-247h-383l-196 -399h662v-247z"/>
<glyph glyph-name="uni0247" horiz-adv-x="1139" unicode="ɇ" d="M451 450h-98q2 -86 34 -146zM630 862q-29 9 -61 9q-100 0 -158 -74q-53 -68 -53 -175h167zM778 622q-2 85 -32 142l-62 -142h94zM1059 1484l-210 -484q208 -148 208 -550h-447l-109 -249q39 -15 82 -15q135 0 179 152l280 -47q-110 -315 -462 -315q-91 0 -168 20 l-173 -399h-159l198 457q-62 41 -108 103q-105 144 -105 366q0 240 121 395q132 168 366 168q91 0 165 -22l183 420h159z"/>
<glyph glyph-name="uni0248" horiz-adv-x="1139" unicode="Ɉ" d="M1109 700h-136v-162q0 -184 -32 -280q-94 -283 -454 -283q-224 0 -340 128q-111 123 -112 350l279 32q5 -126 37 -178q48 -79 146 -79q120 0 158 92q23 55 23 199v181h-171v186h171v580h295v-580h136v-186z"/>
<glyph glyph-name="uni0249" horiz-adv-x="569" unicode="ɉ" d="M547 465h-125v-432q0 -168 -12 -230q-25 -131 -116 -187q-75 -47 -193 -47q-83 0 -195 30l49 240q45 -9 70 -9q85 0 107 63q9 26 9 156v416h-114v187h114v410h281v-410h125v-187zM422 1206h-281v260h281v-260z"/>
<glyph glyph-name="uni024A" horiz-adv-x="1587" unicode="Ɋ" d="M1110 260v931q-143 47 -289 47q-213 0 -327 -152q-100 -135 -100 -352q0 -212 101 -350q114 -156 321 -156q162 0 294 32zM1641 -401q-112 -30 -195 -30q-225 0 -294 143q-42 87 -42 288q-149 -25 -298 -25q-340 0 -534 207q-189 202 -189 542q0 347 187 553 q195 214 542 214q235 0 403 -61l129 61h56v-1445q0 -117 8 -144q21 -72 108 -72q25 0 70 9z"/>
<glyph glyph-name="uni024B" d="M850 544q0 133 -49 218q-60 104 -184 104q-128 0 -190 -111q-49 -88 -49 -227q0 -136 46 -221q59 -109 183 -109t190 117q53 95 53 229zM1357 -401q-112 -30 -195 -30q-238 0 -294 178q-27 86 -27 281v102q-119 -154 -314 -154q-180 0 -298 136q-138 160 -138 431 q0 226 110 376q123 167 341 167q202 0 321 -181v157h259v-1012q0 -131 9 -157q22 -63 107 -63q25 0 70 9z" unicode="ɋ"/>
<glyph glyph-name="uni024C" horiz-adv-x="1479" unicode="Ɍ" d="M1064 1036q0 153 -151 177q-32 5 -216 5h-161v-372h149q213 0 266 18q113 38 113 172zM1488 0h-354l-214 319q-118 175 -156 216q-73 77 -208 77h-20v-612h-296v612h-240v234h240v620h553q237 0 342 -39q112 -41 175 -148q59 -99 59 -224q0 -352 -387 -408 q111 -65 188 -157q45 -54 139 -204z"/>
<glyph glyph-name="uni024D" horiz-adv-x="797" unicode="ɍ" d="M823 1033l-87 -245q-71 46 -132 46q-167 0 -188 -272h151v-187h-151v-375h-281v375h-108v187h108v500h261v-151q55 87 98 123q61 52 144 52q96 0 185 -53z"/>
<glyph glyph-name="uni024E" horiz-adv-x="1366" unicode="Ɏ" d="M821 1075h-266l134 -249zM1368 1075h-234l-305 -510v-565h-295v567l-303 508h-234v186h122l-122 205h347l111 -205h464l108 205h341l-123 -205h123v-186z"/>
<glyph glyph-name="uni024F" horiz-adv-x="1139" unicode="ɏ" d="M658 585h-184l93 -277zM1106 585h-175l-267 -730q-57 -155 -147.5 -220.5t-250.5 -65.5q-81 0 -159 17l-25 220q66 -13 119 -13q160 0 217 204l-223 588h-181v187h110l-110 290h299l98 -290h309l95 290h291l-106 -290h106v-187z"/>
<glyph glyph-name="uni0250" horiz-adv-x="1139" unicode="ɐ" d="M785 743q0 63 -46 104t-110 41q-77 0 -145 -50q-50 -37 -67 -93q-11 -37 -11 -137v-56q19 6 171 41q120 28 153 51q55 38 55 99zM1066 772q0 -189 -163 -268q-80 -39 -224 -66q-198 -38 -273 -69v-28q0 -90 52 -124q42 -26 139 -26q138 0 185 133l255 -46 q-47 -169 -168 -240q-105 -62 -292 -62q-323 0 -409 158q-38 69 -38 234v17l3 328v13q0 205 -64 336h278q12 -30 27 -83q8 -27 10 -33q144 140 329 140q152 0 249 -80q104 -85 104 -234z"/>
<glyph glyph-name="uni0251" d="M841 527q0 344 -235 344q-121 0 -184 -103q-51 -84 -51 -214q0 -170 47 -246q68 -110 190 -110q121 0 183 110q50 89 50 219zM1121 0h-261v156q-129 -180 -332 -180q-214 0 -337 179q-107 156 -107 380q0 235 104 382q119 169 344 169q178 0 308 -148v124h281v-1062z" unicode="ɑ"/>
<glyph glyph-name="uni0252" d="M880 554q0 131 -51 215q-62 102 -184 102q-235 0 -235 -344q0 -130 50 -219q62 -110 183 -110q122 0 190 110q47 76 47 246zM1167 535q0 -225 -107 -381q-122 -178 -337 -178q-203 0 -332 180v-156h-261v1062h281v-124q130 148 308 148q225 0 344 -169q104 -147 104 -382 z" unicode="ɒ"/>
<glyph glyph-name="uni0253" d="M884 528q0 343 -235 343q-123 0 -185 -102q-50 -83 -50 -215q0 -165 52 -244q73 -112 194 -112q120 0 179 111q45 87 45 219zM1172 542q0 -231 -104 -386q-120 -180 -340 -180q-203 0 -332 180v-156h-261v1144q0 131 29 198q64 149 298 149q120 0 235 -36l-38 -196 q-67 16 -129 16q-68 0 -93 -36q-21 -30 -21 -102v-199q130 148 308 148q222 0 342 -166q106 -147 106 -378z" unicode="ɓ"/>
<glyph glyph-name="uni0254" horiz-adv-x="1139" unicode="ɔ" d="M1054 530q0 -249 -129 -397q-136 -157 -381 -157q-405 0 -492 384l276 47q38 -202 203 -202q234 0 234 345q0 315 -230 315q-164 0 -192 -167l-277 50q99 338 473 338q249 0 385 -156q130 -147 130 -400z"/>
<glyph glyph-name="uni0255" horiz-adv-x="1139" unicode="ɕ" d="M828 304q0 71 -121 71q-99 0 -230 -112q65 -58 161 -58q68 0 129 30t61 69zM1078 332q0 -178 -131 -271q-120 -85 -322 -85q-193 0 -328 97q-61 -76 -120 -163l-157 192q59 85 122 159q-57 120 -57 269q0 252 130 400q137 156 385 156q374 0 473 -338l-277 -50 q-28 167 -192 167q-230 0 -230 -315q0 -34 3 -62q177 130 347 130q163 0 258.5 -77t95.5 -209z"/>
<glyph glyph-name="uni0256" d="M841 527q0 344 -235 344q-121 0 -184 -103q-51 -84 -51 -214q0 -356 237 -356q121 0 183 110q50 88 50 219zM1356 -401q-112 -30 -195 -30q-238 0 -294 178q-27 85 -27 286v123q-129 -180 -312 -180q-215 0 -337 178q-107 156 -107 381q0 234 104 382q120 169 344 169 q178 0 308 -148v528h281v-1416q0 -131 9 -157q22 -63 107 -63q25 0 70 9z" unicode="ɖ"/>
<glyph glyph-name="uni0257" d="M841 527q0 344 -235 344q-121 0 -184 -103q-51 -84 -51 -214q0 -170 47 -246q68 -110 190 -110q121 0 183 110q50 89 50 219zM1402 1455l-38 -196q-67 16 -129 16q-68 0 -93 -36q-21 -30 -21 -102v-1137h-261v156q-129 -180 -332 -180q-214 0 -337 179q-107 156 -107 380 q0 235 104 382q119 169 344 169q178 0 308 -148v201q0 136 29 203q64 149 298 149q120 0 235 -36z" unicode="ɗ"/>
<glyph glyph-name="uni0258" horiz-adv-x="1139" unicode="ɘ" d="M780 622q1 105 -52 173q-57 76 -159 76q-101 0 -157 -76q-49 -68 -52 -173h420zM1073 523q0 -222 -105 -366q-132 -181 -410 -181q-352 0 -462 315l280 47q44 -152 179 -152q108 0 171 80q56 72 59 184h-704v24q0 266 106 422q128 190 399 190q234 0 366 -168 q121 -155 121 -395z"/>
<glyph glyph-name="uni025A" horiz-adv-x="1601" unicode="ɚ" d="M787 551l-427 -76q0 -284 209 -284q126 0 177 106q41 83 41 254zM1601 434q-128 -64 -264 -64q-221 0 -265 216q1 -19 1 -47q0 -241 -121 -394q-132 -169 -366 -169q-271 0 -400 191q-105 156 -105 421v24l677 126q-52 138 -203 138q-135 0 -179 -152l-280 47 q110 315 462 315q360 0 473 -297l184 33l23 -134q21 -123 130 -123q86 0 198 66z"/>
<glyph glyph-name="uni025B" horiz-adv-x="1018" unicode="ɛ" d="M994 273q-85 -297 -465 -297q-170 0 -294 65q-156 82 -156 238q0 195 235 259q-189 91 -189 239q0 155 129 238q110 71 274 71q153 0 264 -66q123 -74 159 -214l-238 -51q-29 73 -65 103q-42 35 -115 35q-62 0 -104 -37t-42 -98q0 -40 27 -79t65 -50q35 -10 106 -10v-183 h-48q-73 0 -121 -30q-58 -35 -58 -103q0 -59 57 -99q50 -35 117 -35q143 0 205 156z"/>
<glyph glyph-name="uni025C" horiz-adv-x="1018" unicode="ɜ" d="M939 279q0 -156 -156 -238q-124 -65 -294 -65q-380 0 -465 297l257 52q62 -156 205 -156q68 0 118 35q56 39 56 99q0 133 -179 133h-48v183q124 0 169 56q29 36 29 83q0 62 -41.5 98.5t-104.5 36.5q-73 0 -115 -35q-36 -30 -65 -103l-238 51q36 140 159 214 q111 66 264 66q164 0 274 -71q129 -82 129 -238q0 -148 -189 -239q235 -64 235 -259z"/>
<glyph glyph-name="uni025D" horiz-adv-x="1415" unicode="ɝ" d="M1415 574q-128 -64 -264 -64q-218 0 -264 211q-25 -107 -183 -183q235 -64 235 -259q0 -156 -156 -238q-123 -65 -294 -65q-380 0 -465 297l257 52q62 -156 205 -156q68 0 118 35q56 39 56 99q0 68 -58 103q-49 30 -121 30h-48v183q198 0 198 139q0 61 -42 98t-104 37 q-73 0 -115 -35q-36 -30 -65 -103l-238 51q36 140 159 214q111 66 264 66q261 0 361 -156l178 32l23 -134q21 -123 130 -123q86 0 198 66z"/>
<glyph glyph-name="uni025E" horiz-adv-x="1162" unicode="ɞ" d="M804 303q0 68 -58 103q-49 30 -121 30h-48v183q198 0 198 139q0 58 -42 96.5t-104 38.5q-138 0 -206 -122q-53 -97 -53 -240q0 -144 52 -239q66 -123 207 -123q68 0 118 35q57 39 57 99zM1083 279q0 -156 -158 -238q-125 -65 -296 -65q-259 0 -406 160q-141 154 -141 410 q0 238 156 389t391 151q165 0 276 -71q132 -83 132 -238q0 -148 -189 -239q235 -64 235 -259z"/>
<glyph glyph-name="uni025F" horiz-adv-x="682" unicode="ɟ" d="M658 0h-156v-80q0 -119 -20 -177q-28 -84 -113 -130q-77 -42 -194 -42q-120 0 -235 36l38 196q67 -16 129 -16q68 0 93 36q21 30 21 102v75h-210v221h210v841h281v-841h156v-221z"/>
<glyph glyph-name="uni0260" d="M844 546q0 135 -51 221q-63 104 -189 104q-123 0 -183 -103q-49 -83 -49 -215q0 -133 46 -218q59 -108 181 -108q124 0 190 102q55 86 55 217zM1401 1455l-38 -196q-67 16 -129 16q-61 0 -87.5 -28.5t-26.5 -113.5v-1024q0 -315 -118.5 -427.5t-385.5 -112.5 q-496 0 -496 327q0 14 1 34l321 -39q8 -56 37 -77q41 -30 126 -30q110 0 165 33q37 22 56 71q13 34 13 129v155q-126 -172 -318 -172q-211 0 -331 169q-106 149 -106 368q0 231 106 380q120 169 342 169q204 0 307 -163v219q0 117 21 177q29 85 113 131q76 41 193 41 q120 0 235 -36z" unicode="ɠ"/>
<glyph glyph-name="uni0261" d="M372 553q0 -169 65.5 -247.5t161.5 -78.5q103 0 174 80.5t71 238.5q0 165 -68 245t-172 80q-101 0 -166.5 -78.5t-65.5 -239.5zM121 -70l321 -39q8 -56 37 -77q40 -30 126 -30q110 0 165 33q37 22 56 71q13 35 13 129v155q-126 -172 -318 -172q-214 0 -339 181 q-98 143 -98 356q0 267 128.5 408t319.5 141q197 0 325 -173v149h263v-953q0 -188 -31 -281t-87 -146t-149.5 -83t-236.5 -30q-270 0 -383 92.5t-113 234.5q0 14 1 34z" unicode="ɡ"/>
<glyph glyph-name="uni0262" horiz-adv-x="1200" unicode="ɢ" d="M1127 141q-71 -70 -191 -115q-133 -50 -281 -50q-271 0 -425 155q-148 149 -148 398q0 248 154.5 402.5t406.5 154.5q363 0 484 -309l-278 -56q-16 47 -59 84q-60 50 -147 50q-126 0 -199.5 -85t-73.5 -233q0 -151 69 -239q72 -91 202 -91q114 0 205 43v110h-189v227h470 v-446z"/>
<glyph glyph-name="uni0263" horiz-adv-x="1139" unicode="ɣ" d="M614 -164q0 46 -46 124q-43 -73 -43 -124q0 -52 43 -52q46 0 46 52zM1124 1062l-388 -819l97 -231q45 -107 45 -180q0 -263 -307 -263q-310 0 -310 263q0 73 45 180l97 231l-388 819h298l255 -563l258 563h298z"/>
<glyph glyph-name="uni0264" horiz-adv-x="1230" unicode="ɤ" d="M661 252q0 41 -46 119q-43 -73 -43 -119q0 -47 43 -47q46 0 46 47zM1215 980l-62 -194q-101 71 -162 71q-83 0 -119 -59l-108 -178l108 -212q50 -98 50 -180q0 -252 -307 -252t-307 252q0 82 50 180l108 212l-108 178q-36 59 -119 59q-61 0 -162 -71l-62 194 q184 106 323 106q162 0 235 -124l42 -71l42 71q73 124 235 124q139 0 323 -106z"/>
<glyph glyph-name="uni0265" d="M1105 -404h-281v539q-136 -159 -325 -159q-202 0 -292 128q-69 98 -69 335v623h281v-561q0 -130 3 -154q13 -92 70 -129q41 -27 101 -27q155 0 206 137q25 67 25 202v532h281v-1466z" unicode="ɥ"/>
<glyph glyph-name="uni0266" d="M1113 0h-281v561q0 127 -4 154q-13 94 -68 130q-40 26 -102 26q-154 0 -205 -136q-26 -70 -26 -203v-532h-281v1139q0 136 29 203q64 149 298 149q120 0 235 -36l-38 -196q-67 16 -129 16q-68 0 -93 -36q-21 -30 -21 -102v-210q136 159 325 159q203 0 293 -128 q68 -96 68 -335v-623z" unicode="ɦ"/>
<glyph glyph-name="uni0267" d="M1113 33q0 -168 -12 -230q-26 -131 -116 -187q-75 -47 -193 -47q-83 0 -195 30l49 240q45 -9 70 -9q85 0 107 63q9 26 9 157v511q0 127 -4 154q-13 94 -68 130q-40 26 -102 26q-154 0 -205 -136q-26 -70 -26 -203v-532h-281v1139q0 119 20 179q29 86 114 132 q76 41 193 41q120 0 235 -36l-38 -196q-67 16 -129 16q-68 0 -93 -36q-21 -30 -21 -102v-210q136 159 325 159q203 0 293 -128q68 -96 68 -335v-590z" unicode="ɧ"/>
<glyph glyph-name="uni0268" horiz-adv-x="569" unicode="ɨ" d="M547 465h-119v-465h-281v465h-120v187h120v410h281v-410h119v-187zM428 1206h-281v260h281v-260z"/>
<glyph glyph-name="uni0269" horiz-adv-x="569" unicode="ɩ" d="M569 0q-76 -24 -161 -24q-198 0 -262 145q-39 89 -39 316v625h281v-605q0 -131 9 -157q22 -63 91 -63q33 0 81 6v-243z"/>
<glyph glyph-name="uni026A" horiz-adv-x="830" unicode="ɪ" d="M762 0h-694v227h206v608h-206v227h694v-227h-207v-608h207v-227z"/>
<glyph glyph-name="uni026B" horiz-adv-x="680" unicode="ɫ" d="M680 882q-2 -251 -166 -251q-14 0 -34 2v-633h-281v717q-68 0 -70 -90h-128q-1 23 -1 36q0 94 43 152q48 66 139 66h17v585h281v-671q59 0 70 87h130z"/>
<glyph glyph-name="uni026C" horiz-adv-x="729" unicode="ɬ" d="M307 664v164q-116 -1 -116 -82q0 -82 116 -82zM707 477h-119v-477h-281v478q-133 0 -208 67q-79 70 -79 201q0 132 79 202q75 66 208 66v452h281v-802h119v-187z"/>
<glyph glyph-name="uni026D" horiz-adv-x="569" unicode="ɭ" d="M663 -401q-112 -30 -195 -30q-238 0 -294 178q-27 85 -27 283v1436h281v-1416q0 -131 9 -157q22 -63 107 -63q25 0 70 9z"/>
<glyph glyph-name="uni026E" horiz-adv-x="1236" unicode="ɮ" d="M1194 93q0 -237 -134 -378q-139 -146 -386 -146q-200 0 -312 53q-142 67 -215 241l281 47q39 -112 233 -112q244 0 244 308q0 115 -65 185q-72 77 -205 77h-99v165l293 302q-79 -6 -129 -6h-272v-829h-281v1466h281v-404h735v-199l-312 -330q128 -19 218 -105 q125 -119 125 -335z"/>
<glyph glyph-name="uni026F" horiz-adv-x="1821" unicode="ɯ" d="M1695 0h-259v145q-139 -169 -331 -169q-205 0 -300 169q-139 -169 -324 -169q-238 0 -319 187q-29 67 -29 220v679h281v-607q0 -159 29 -204q38 -60 120 -60q139 0 186 142q23 70 23 219v510h281v-582q0 -113 4 -143q11 -91 58 -124q32 -22 85 -22q146 0 192 136 q22 65 22 219v516h281v-1062z"/>
<glyph glyph-name="uni0270" horiz-adv-x="1821" unicode="ɰ" d="M1695 -404h-281v539q-131 -159 -309 -159q-205 0 -300 169q-139 -169 -324 -169q-238 0 -319 187q-29 67 -29 220v679h281v-607q0 -159 29 -204q38 -60 120 -60q139 0 186 142q23 70 23 219v510h281v-582q0 -113 4 -143q11 -91 58 -124q32 -22 85 -22q146 0 192 136 q22 65 22 219v516h281v-1466z"/>
<glyph glyph-name="uni0271" horiz-adv-x="1821" unicode="ɱ" d="M1688 30q0 -201 -26 -283q-56 -178 -295 -178q-83 0 -195 30l49 240q45 -9 70 -9q85 0 107 63q9 26 9 157v557q0 159 -29 204q-38 60 -120 60q-139 0 -186 -141q-23 -70 -23 -220v-510h-281v582q0 112 -4 142q-11 93 -57 125q-32 22 -86 22q-145 0 -191 -136 q-23 -67 -23 -219v-516h-281v1062h259v-145q139 169 331 169q205 0 300 -169q139 169 324 169q238 0 319 -187q29 -67 29 -220v-649z"/>
<glyph glyph-name="uni0272" d="M1113 0h-281v542q0 128 -5 162q-14 100 -71 139q-41 28 -98 28q-72 0 -130 -39t-80 -107t-22 -244v-451q0 -201 -26 -283q-56 -178 -295 -178q-83 0 -195 30l49 240q45 -9 70 -9q85 0 107 63q9 26 9 157v1012h261v-156q139 180 350 180q197 0 287 -119q70 -92 70 -307 v-660z" unicode="ɲ"/>
<glyph glyph-name="uni0273" d="M1348 -401q-112 -30 -195 -30q-238 0 -294 178q-27 85 -27 283v512q0 128 -5 162q-14 100 -71 139q-41 28 -98 28q-72 0 -130 -39t-80 -107t-22 -244v-481h-281v1062h261v-156q139 180 350 180q197 0 287 -119q70 -92 70 -307v-610q0 -131 9 -157q22 -63 107 -63 q25 0 70 9z" unicode="ɳ"/>
<glyph glyph-name="uni0274" horiz-adv-x="1259" unicode="ɴ" d="M1118 0h-270l-438 679v-679h-270v1062h276l432 -667v667h270v-1062z"/>
<glyph glyph-name="uni0275" d="M883 450h-507q16 -107 80 -173q69 -72 174 -72t174 71q63 66 79 174zM882 622q-18 105 -81 167q-68 68 -171 68q-110 0 -185 -84q-52 -58 -68 -151h505zM1178 534q0 -241 -152 -399q-155 -159 -395 -159q-152 0 -277 65q-134 69 -203 196.5t-69 308.5q0 147 69 273 q72 130 197.5 198.5t280.5 68.5q244 0 396.5 -154t152.5 -398z" unicode="ɵ"/>
<glyph glyph-name="uni0276" horiz-adv-x="1707" unicode="ɶ" d="M889 533q0 134 -61 223q-70 101 -198 101q-129 0 -199 -102q-61 -89 -61 -224t61 -224q70 -102 199 -102q130 0 199 103q60 89 60 225zM1634 0h-733v81q-100 -105 -270 -105q-259 0 -407 160q-142 154 -142 410q0 238 156 389t391 151q165 0 272 -93v69h713v-227h-444 v-166h403v-227h-403v-215h464v-227z"/>
<glyph glyph-name="uni0277" horiz-adv-x="1730" unicode="ɷ" d="M1366 482q0 375 -500 375t-500 -375q0 -284 197 -284q101 0 138 92q24 59 24 179v131h281v-131q0 -121 22 -178q37 -93 140 -93q198 0 198 284zM1654 482q0 -218 -112 -356q-123 -150 -339 -150q-242 0 -337 223q-96 -223 -338 -223q-216 0 -338 150q-112 138 -112 356 q0 266 193 428q210 176 595 176t595 -176q193 -162 193 -428z"/>
<glyph glyph-name="uni0278" horiz-adv-x="1535" unicode="ɸ" d="M627 205v652q-127 0 -197 -103q-60 -89 -60 -223t60 -223q70 -103 197 -103zM1165 531q0 134 -60 223q-70 103 -197 103v-652q127 0 197 103q60 89 60 223zM1453 546q0 -370 -270 -504q-132 -66 -275 -66v-380h-281v380q-141 0 -274 66q-271 135 -271 504q0 145 69 272 q72 131 197 199.5t279 68.5v380h281v-380q334 0 476 -269q69 -131 69 -271z"/>
<glyph glyph-name="uni0279" horiz-adv-x="797" unicode="ɹ" d="M662 0h-261v151q-55 -88 -98 -124q-60 -51 -144 -51q-96 0 -185 53l87 245q71 -46 132 -46q124 0 165 150q23 83 23 356v328h281v-1062z"/>
<glyph glyph-name="uni027A" horiz-adv-x="797" unicode="ɺ" d="M662 0h-261v151q-55 -88 -98 -124q-60 -51 -144 -51q-96 0 -185 53l87 245q71 -46 132 -46q124 0 165 150q23 83 23 356v732h281v-1466z"/>
<glyph glyph-name="uni027B" horiz-adv-x="797" unicode="ɻ" d="M897 -401q-112 -30 -195 -30q-238 0 -294 178q-27 85 -27 283v101q-46 -85 -86 -116q-50 -39 -136 -39q-96 0 -185 53l87 245q71 -46 132 -46q124 0 165 150q23 83 23 356v328h281v-1012q0 -131 9 -157q22 -63 107 -63q25 0 70 9z"/>
<glyph glyph-name="uni027C" horiz-adv-x="797" unicode="ɼ" d="M823 1033l-87 -245q-71 46 -132 46q-123 0 -164 -150q-24 -87 -24 -356v-732h-281v1466h261v-151q54 87 98 123q61 52 144 52q96 0 185 -53z"/>
<glyph glyph-name="uni027D" horiz-adv-x="797" unicode="ɽ" d="M823 1033l-87 -245q-71 46 -132 46q-123 0 -164 -150q-24 -87 -24 -356v-278q0 -131 9 -157q22 -63 107 -63q25 0 70 9l49 -240q-112 -30 -195 -30q-238 0 -294 178q-27 85 -27 283v1032h261v-151q54 87 98 123q61 52 144 52q96 0 185 -53z"/>
<glyph glyph-name="uni027E" horiz-adv-x="797" unicode="ɾ" d="M823 1033l-87 -245q-71 46 -132 46q-188 0 -188 -296v-538h-281v538q0 548 463 548q128 0 225 -53z"/>
<glyph glyph-name="uni027F" horiz-adv-x="797" unicode="ɿ" d="M662 -404h-281v942q0 296 -188 296q-61 0 -132 -46l-87 245q97 53 225 53q463 0 463 -548v-942z"/>
<glyph glyph-name="uni0280" horiz-adv-x="1195" unicode="ʀ" d="M819 745q0 84 -62 114q-44 22 -139 22h-201v-273h184q218 0 218 137zM1200 0h-327l-202 318q-47 73 -93.5 98t-134.5 25h-26v-441h-279v1062h553q195 0 288 -50q129 -70 129 -252q0 -124 -70 -207q-73 -86 -195 -93q70 -20 156 -152z"/>
<glyph glyph-name="uni0281" horiz-adv-x="1195" unicode="ʁ" d="M819 317q0 137 -218 137h-184v-273h201q95 0 139 22q62 30 62 114zM1200 1062l-201 -308q-86 -132 -156 -152q122 -7 195 -93q70 -83 70 -207q0 -182 -129 -252q-93 -50 -288 -50h-553v1062h279v-441h26q88 0 134.5 25t93.5 98q-2 -9 202 318h327z"/>
<glyph glyph-name="uni0282" horiz-adv-x="1139" unicode="ʂ" d="M1040 332q0 -181 -158 -277q-132 -79 -325 -79q-129 0 -228 32q1 -77 3 -88q8 -47 43 -71q28 -19 70 -19q25 0 70 9l49 -240q-112 -30 -195 -30q-238 0 -294 178q-27 85 -27 283v273l282 43q37 -167 227 -167q201 0 201 115q0 65 -114 90q-342 76 -431 137 q-126 86 -126 239q0 172 145 257q118 69 302 69q187 0 293 -53q131 -67 177 -228l-265 -49q-35 128 -200 128q-191 0 -191 -88q0 -30 28 -51q43 -32 269 -82q221 -50 308 -123t87 -208z"/>
<glyph glyph-name="uni0283" horiz-adv-x="682" unicode="ʃ" d="M783 1455l-38 -196q-67 16 -129 16q-61 0 -87.5 -28.5t-26.5 -110.5v-1216q0 -119 -20 -177q-28 -84 -113 -130q-77 -42 -194 -42q-120 0 -235 36l38 196q67 -16 129 -16q68 0 93 36q21 30 21 102v1215q0 119 20 178q29 86 114 132q76 41 193 41q120 0 235 -36z"/>
<glyph glyph-name="uni0284" horiz-adv-x="682" unicode="ʄ" d="M783 1455l-38 -196q-67 16 -129 16q-61 0 -87.5 -28.5t-26.5 -110.5v-915h156v-221h-156v-80q0 -119 -20 -177q-28 -84 -113 -130q-77 -42 -194 -42q-120 0 -235 36l38 196q67 -16 129 -16q68 0 93 36q21 30 21 102v75h-210v221h210v919q0 119 20 178q29 86 114 132 q76 41 193 41q120 0 235 -36z"/>
<glyph glyph-name="uni0285" horiz-adv-x="682" unicode="ʅ" d="M742 -395q-115 -36 -235 -36q-235 0 -299 149q-28 65 -28 200v813q0 82 -26.5 110.5t-87.5 28.5q-62 0 -129 -16l-38 196q115 36 235 36q234 0 298 -149q29 -67 29 -202v-812q0 -72 21 -102q25 -36 93 -36q62 0 129 16z"/>
<glyph glyph-name="uni0286" horiz-adv-x="1105" unicode="ʆ" d="M541 -144q-52 59 -65 70q-48 42 -95 42q-101 0 -101 -83q0 -39 35 -63t85 -24q76 0 141 58zM1206 1455l-38 -196q-67 16 -129 16q-61 0 -87.5 -28.5t-26.5 -110.5v-1016q0 -163 -49 -266q65 -77 109 -140l-195 -145q-20 30 -69 97q-135 -97 -308 -97q-181 0 -287 96 q-96 88 -96 220q0 137 91 229q96 97 253 97q145 0 270 -130v1059q0 119 20 178q29 86 114 132q76 41 193 41q120 0 235 -36z"/>
<glyph glyph-name="uni0287" horiz-adv-x="682" unicode="ʇ" d="M651 351h-129v-211l-282 -164v375h-192v224h192v428v99q-2 68 -30 88q-19 14 -48 14q-39 0 -113 -27l-24 218q98 42 222 42q163 0 227 -91q27 -38 39 -110q9 -53 9 -198v-463h129v-224z"/>
<glyph glyph-name="uni0288" horiz-adv-x="682" unicode="ʈ" d="M657 -389q-98 -42 -222 -42q-161 0 -226 92q-28 40 -40 109q-9 53 -9 198v870h-129v224h129v211l282 164v-375h192v-224h-192v-835v-98q3 -69 31 -89q20 -14 47 -14q39 0 113 27z"/>
<glyph glyph-name="uni0289" d="M823 465h-400q3 -126 15 -165q34 -110 160 -110q68 0 126.5 38t80.5 100q13 36 18 137zM1227 465h-120v-465h-261v159q-125 -183 -352 -183q-235 0 -315 179q-38 85 -38 235v75h-114v187h114v410h281v-410h404v410h281v-410h120v-187z" unicode="ʉ"/>
<glyph glyph-name="uni028A" horiz-adv-x="1272" unicode="ʊ" d="M1197 835h-72q-66 0 -66 -47q0 -11 61.5 -125.5t61.5 -226.5q0 -222 -165 -347q-150 -113 -382 -113q-231 0 -381 113q-164 125 -164 347q0 112 61.5 226.5t61.5 125.5q0 47 -66 47h-72v226h186q90 0 153.5 -58t63.5 -151q0 -64 -53 -168t-53 -186q0 -125 67 -206 q72 -87 198 -87t197 87q66 80 66 206q0 82 -53 186t-53 168q0 93 65 152q62 57 152 57h186v-226z"/>
<glyph glyph-name="uni028B" horiz-adv-x="1192" unicode="ʋ" d="M1101 732q0 -756 -518 -756q-438 0 -438 512v574h281v-619q0 -238 157 -238q155 0 208 200q29 109 29 326q0 139 -114 139q-62 0 -129 -16l-38 196q115 36 235 36q327 0 327 -354z"/>
<glyph glyph-name="uni028C" horiz-adv-x="1139" unicode="ʌ" d="M1121 0h-289l-202 542q-16 42 -30 90q-11 38 -29 91l-58 -181l-200 -542h-295l428 1062h253z"/>
<glyph glyph-name="uni028D" horiz-adv-x="1593" unicode="ʍ" d="M1592 0h-277l-203 696l-177 -696h-271l-183 696l-199 -696h-273l336 1062h273l180 -683l183 683h270z"/>
<glyph glyph-name="uni028E" horiz-adv-x="1139" unicode="ʎ" d="M1118 0h-288l-182 487q-40 107 -79 235q-43 -139 -81 -240l-183 -482h-290l573 1466h277l-155 -405z"/>
<glyph glyph-name="uni028F" horiz-adv-x="1169" unicode="ʏ" d="M1154 1062l-430 -615v-447h-280v447l-429 615h340l234 -380l225 380h340z"/>
<glyph glyph-name="uni0290" horiz-adv-x="1024" unicode="ʐ" d="M1217 -401q-112 -30 -195 -30q-238 0 -294 178q-25 79 -27 253h-667v219l543 616q-79 -6 -129 -6h-375v233h878v-199l-549 -623l145 7h435v-197q0 -131 9 -157q22 -63 107 -63q25 0 70 9z"/>
<glyph glyph-name="uni0291" horiz-adv-x="1392" unicode="ʑ" d="M1112 334q0 83 -81 83q-78 0 -202 -170h171q112 0 112 87zM1362 334q0 -137 -86 -228q-98 -106 -276 -106h-325q-62 -113 -114 -223l-212 128q8 19 46 95h-361v219l543 616q-38 -2 -129 -4l-375 -2v233h878v-199l-549 -623l134 7q268 413 502 413q155 0 243 -97 q81 -89 81 -229z"/>
<glyph glyph-name="uni0292" horiz-adv-x="1078" unicode="ʒ" d="M1036 93q0 -238 -129 -378q-135 -146 -381 -146q-405 0 -492 384l276 47q38 -202 203 -202q234 0 234 308q0 115 -65 185q-72 77 -205 77h-99v165l293 302q-79 -6 -129 -6h-415v233h878v-199l-312 -330q128 -19 218 -105q125 -119 125 -335z"/>
<glyph glyph-name="uni0293" horiz-adv-x="1078" unicode="ʓ" d="M644 -144q-131 112 -230 112q-130 0 -130 -71q0 -39 65.5 -69t133.5 -30q96 0 161 58zM1081 -279l-187 -152q-20 30 -70 97q-135 -97 -328 -97q-211 0 -331 85q-131 93 -131 271q0 132 95.5 209t267.5 77q170 0 347 -130q3 23 3 42q0 245 -270 245h-99v165l293 302 q-79 -6 -129 -6h-415v233h878v-199l-312 -330q131 -19 218 -97q125 -113 125 -328q0 -134 -57 -254q52 -62 102 -133z"/>
<glyph glyph-name="uni0294" horiz-adv-x="1139" unicode="ʔ" d="M1054 935q0 -212 -93 -352q-98 -148 -279 -188v-395h-281v634q60 -24 130 -24q234 0 234 345q0 315 -230 315q-164 0 -192 -167l-277 50q99 338 473 338q248 0 385 -156q130 -148 130 -400z"/>
<glyph glyph-name="uni0295" horiz-adv-x="1139" unicode="ʕ" d="M1073 1153l-277 -50q-28 167 -192 167q-230 0 -230 -315q0 -345 234 -345q70 0 130 24v-634h-281v395q-181 40 -279 188q-93 140 -93 352q0 252 130 400q137 156 385 156q374 0 473 -338z"/>
<glyph glyph-name="uni0296" horiz-adv-x="1139" unicode="ʖ" d="M1054 531q0 -252 -130 -400q-137 -156 -385 -156q-374 0 -473 338l277 50q28 -167 192 -167q230 0 230 315q0 345 -234 345q-70 0 -130 -24v634h281v-395q181 -40 279 -188q93 -140 93 -352z"/>
<glyph glyph-name="uni0297" horiz-adv-x="1139" unicode="ʗ" d="M1087 -47q-87 -384 -492 -384q-245 0 -381 157q-129 148 -129 397v407q0 252 130 400q137 156 385 156q374 0 473 -338l-277 -50q-28 167 -192 167q-238 0 -238 -315v-407q0 -345 242 -345q165 0 203 202z"/>
<glyph glyph-name="uni0298" horiz-adv-x="1593" unicode="ʘ" d="M938 590h-281v281h281v-281zM1205 738q0 220 -90 350q-104 150 -314 150q-211 0 -316 -152q-91 -131 -91 -352q0 -214 94 -350q108 -156 313 -156q207 0 313 157q91 135 91 353zM1511 731q0 -341 -182 -544q-190 -212 -527 -212t-528 208q-185 201 -185 541q0 225 67 376 q107 241 326 333q138 58 316 58q340 0 530 -212q183 -204 183 -548z"/>
<glyph glyph-name="uni0299" horiz-adv-x="1259" unicode="ʙ" d="M433 180h222q120 0 175 29t55 104q0 78 -63 107.5t-245 29.5h-144v-270zM433 621h181q131 0 189.5 33t58.5 104q0 67 -54.5 95.5t-193.5 28.5h-181v-261zM150 1062h615q189 0 283 -69t94 -208q0 -89 -51.5 -155t-129.5 -88q110 -27 164 -101t54 -162q0 -124 -91 -201.5 t-269 -77.5h-669v1062z"/>
<glyph glyph-name="uni029A" horiz-adv-x="1162" unicode="ʚ" d="M792 531q0 147 -53 244q-68 122 -206 122q-62 0 -104 -38.5t-42 -100.5q0 -139 198 -139v-183h-48q-72 0 -121 -30q-58 -35 -58 -103q0 -65 57 -104q50 -35 118 -35q141 0 208 123q51 95 51 244zM1080 546q0 -256 -141 -410q-147 -160 -406 -160q-171 0 -296 65 q-158 82 -158 238q0 195 235 259q-189 91 -189 239q0 155 132 238q111 71 276 71q235 0 391 -151t156 -389z"/>
<glyph glyph-name="uni029B" horiz-adv-x="1200" unicode="ʛ" d="M1408 1266l-38 -196q-67 16 -129 16q-69 0 -94 -38q-20 -30 -20 -100v-171l-278 -56q-16 47 -59 84q-60 50 -147 50q-126 0 -199.5 -85t-73.5 -233q0 -151 69 -239q72 -91 202 -91q114 0 205 43v110h-189v227h470v-446q-71 -70 -191 -115q-133 -50 -281 -50 q-271 0 -425 155q-148 149 -148 398q0 248 154.5 402.5t406.5 154.5q121 0 211 -31q7 106 87 174q88 73 232 73q120 0 235 -36z"/>
<glyph glyph-name="uni029C" horiz-adv-x="1237" unicode="ʜ" d="M136 1062h281v-389h402v389h282v-1062h-282v446h-402v-446h-281v1062z"/>
<glyph glyph-name="uni029D" horiz-adv-x="939" unicode="ʝ" d="M511 -32h-130q-101 0 -101 -91q0 -87 110 -87q75 0 103 54q18 36 18 124zM948 -32h-158q-26 -399 -387 -399q-180 0 -282 96q-91 87 -91 220q0 134 96 219t256 85h129v873h281v-873h156v-221zM792 1206h-281v260h281v-260z"/>
<glyph glyph-name="uni029E" horiz-adv-x="1139" unicode="ʞ" d="M1002 -404h-281v778l-329 -374h-346l363 388l-389 674h303l267 -477l131 137v340h281v-1466z"/>
<glyph glyph-name="uni029F" horiz-adv-x="926" unicode="ʟ" d="M853 0h-717v1062h281v-835h436v-227z"/>
<glyph glyph-name="uni02A0" d="M850 544q0 132 -49 217q-61 105 -184 105q-128 0 -190 -111q-49 -88 -49 -227q0 -330 229 -330q124 0 190 117q53 95 53 229zM1403 1455l-38 -196q-67 16 -129 16q-61 0 -87.5 -28.5t-26.5 -111.5v-1539h-281v534q-119 -154 -314 -154q-215 0 -334 183q-102 157 -102 384 q0 226 110 376q123 167 341 167q201 0 299 -151v204q0 136 29 203q64 149 298 149q120 0 235 -36z" unicode="ʠ"/>
<glyph glyph-name="uni02A1" horiz-adv-x="1139" unicode="ʡ" d="M1054 935q0 -212 -93 -352q-98 -148 -279 -188v-73h336v-187h-336v-135h-281v135h-335v187h335v312q60 -24 130 -24q234 0 234 345q0 315 -230 315q-164 0 -192 -167l-277 50q99 338 473 338q248 0 385 -156q130 -148 130 -400z"/>
<glyph glyph-name="uni02A2" horiz-adv-x="1139" unicode="ʢ" d="M1073 135h-335v-135h-281v135h-336v187h336v73q-181 40 -279 188q-93 140 -93 352q0 252 130 400q137 156 385 156q374 0 473 -338l-277 -50q-28 167 -192 167q-230 0 -230 -315q0 -345 234 -345q70 0 130 24v-312h335v-187z"/>
<glyph glyph-name="uni02A3" horiz-adv-x="2111" unicode="ʣ" d="M841 527q0 344 -235 344q-121 0 -184 -103q-51 -84 -51 -214q0 -170 47 -246q68 -110 190 -110q121 0 183 110q50 89 50 219zM1664 835q-79 -6 -129 -6h-414v-610zM2069 0h-1209v156q-129 -180 -332 -180q-214 0 -337 179q-107 156 -107 380q0 235 104 382 q119 169 344 169q178 0 308 -148v528h281v-404h917v-199l-549 -623l145 7h435v-247z"/>
<glyph glyph-name="uni02A4" horiz-adv-x="1929" unicode="ʤ" d="M841 527q0 344 -235 344q-121 0 -184 -103q-51 -84 -51 -214q0 -170 47 -246q68 -110 190 -110q121 0 183 110q50 89 50 219zM1887 93q0 -237 -134 -378q-139 -146 -386 -146q-200 0 -312 53q-142 67 -215 241l281 47q39 -112 233 -112q244 0 244 308q0 115 -65 185 q-72 77 -205 77h-99v165l293 302q-79 -6 -129 -6h-272v-829h-261v156q-129 -180 -332 -180q-214 0 -337 179q-107 156 -107 380q0 235 104 382q119 169 344 169q178 0 308 -148v528h281v-404h735v-199l-312 -330q128 -19 218 -105q125 -119 125 -335z"/>
<glyph glyph-name="uni02A5" horiz-adv-x="2479" unicode="ʥ" d="M841 527q0 344 -235 344q-121 0 -184 -103q-51 -84 -51 -214q0 -170 47 -246q68 -110 190 -110q121 0 183 110q50 89 50 219zM1664 835q-79 -6 -129 -6h-414v-610zM2199 334q0 83 -81 83q-78 0 -202 -170h171q112 0 112 87zM2449 334q0 -137 -86 -228q-98 -106 -276 -106 h-325q-62 -113 -114 -223l-212 128q8 19 46 95h-622v156q-129 -180 -332 -180q-214 0 -337 179q-107 156 -107 380q0 235 104 382q119 169 344 169q178 0 308 -148v528h281v-404h917v-199l-549 -623l134 7q268 413 502 413q155 0 243 -97q81 -89 81 -229z"/>
<glyph glyph-name="uni02A6" horiz-adv-x="1666" unicode="ʦ" d="M1285 294q0 65 -114 90q-342 76 -431 137q-126 86 -126 239q0 39 10 78h-182v-434v-90q1 -75 31 -97q20 -14 47 -14h565q96 0 128 8q72 19 72 83zM1567 332q0 -179 -158 -265q-126 -67 -325 -67h-649q-161 0 -226 92q-28 40 -40 109q-9 53 -9 198v439h-129v224h129v211 l282 164v-375h418q85 24 201 24q187 0 293 -53q131 -67 177 -228l-265 -49q-35 128 -200 128q-191 0 -191 -88q0 -30 28 -51q43 -32 269 -82q221 -50 308 -123t87 -208z"/>
<glyph glyph-name="uni02A7" horiz-adv-x="1094" unicode="ʧ" d="M633 236v602h-191v-428v-98q3 -69 31 -89q20 -14 47 -14q39 0 113 27zM1195 1455l-38 -196q-67 16 -129 16q-61 0 -87.5 -28.5t-26.5 -110.5v-1216q0 -119 -20 -177q-28 -84 -113 -130q-77 -42 -194 -42q-120 0 -235 36l38 196q67 -16 129 -16q68 0 93 36q21 30 21 102 v83q-88 -32 -198 -32q-161 0 -226 92q-28 40 -40 109q-9 53 -9 198v463h-129v224h129v211l282 164v-375h191v78q0 119 20 178q29 86 114 132q76 41 193 41q120 0 235 -36z"/>
<glyph glyph-name="uni02A8" horiz-adv-x="1688" unicode="ʨ" d="M1377 304q0 71 -121 71q-108 0 -233 -107q63 -63 164 -63q68 0 129 30t61 69zM1627 332q0 -178 -131 -271q-120 -85 -322 -85q-231 0 -378 141q-179 -141 -351 -141q-186 0 -247 122q-38 78 -38 277v463h-129v224h129v211l282 164v-375h192v-224h-192v-468 q0 -161 68 -161q49 0 163 97q-39 104 -39 224q0 252 130 400q137 156 385 156q374 0 473 -338l-277 -50q-28 167 -192 167q-230 0 -230 -315q0 -34 3 -62q177 130 347 130q163 0 258.5 -77t95.5 -209z"/>
<glyph glyph-name="uni02A9" horiz-adv-x="1780" unicode="ʩ" d="M1639 53q0 -190 -8 -238q-22 -136 -112 -196q-82 -55 -214 -55q-80 0 -182 35l51 247q52 -16 86 -16q65 0 86 61q12 35 12 116v535q0 128 -4 157q-11 95 -62 137q-43 36 -110 36q-74 0 -134 -44t-78 -116t-18 -231v-481h-281v841h-210v-841h-281v841h-156v221h156v80 q0 117 21 177q29 85 113 131q76 41 193 41q120 0 235 -36l-38 -196q-67 16 -129 16q-68 0 -93 -36q-21 -30 -21 -102v-75h471v-156q139 180 352 180q109 0 193 -44q95 -50 131 -145q31 -81 31 -237v-607z"/>
<glyph glyph-name="uni02AA" horiz-adv-x="1589" unicode="ʪ" d="M1490 332q0 -195 -196 -285q-154 -71 -407 -71q-267 0 -459 84v-60h-281v1466h281v-1156q248 -131 459 -131q321 0 321 115q0 65 -114 90q-342 76 -431 137q-126 86 -126 239q0 172 145 257q118 69 302 69q187 0 293 -53q131 -67 177 -228l-265 -49q-35 128 -200 128 q-191 0 -191 -88q0 -30 28 -51q43 -32 269 -82q221 -50 308 -123t87 -208z"/>
<glyph glyph-name="uni02AB" horiz-adv-x="1418" unicode="ʫ" d="M971 835q-79 -6 -129 -6h-414v-610zM1376 0h-1229v1466h281v-404h917v-199l-549 -623l145 7h435v-247z"/>
<glyph glyph-name="uni02AC" horiz-adv-x="1093" unicode="ʬ" d="M1063 692l-223 -692h-176l-119 445l-118 -445h-177l-220 692h179l129 -453l120 453h176l115 -453l133 453h181zM1063 1466l-223 -692h-176l-119 445l-118 -445h-177l-220 692h179l129 -453l120 453h176l115 -453l133 453h181z"/>
<glyph glyph-name="uni02AD" horiz-adv-x="1154" unicode="ʭ" d="M1018 0h-248v225h-386v-225h-248v487h882v-487zM1018 979h-248v225h-386v-225h-248v487h882v-487z"/>
<glyph glyph-name="uni02AE" horiz-adv-x="1494" unicode="ʮ" d="M1348 -404h-281v539q-136 -159 -325 -159q-202 0 -292 128q-69 98 -69 335v99q0 296 -188 296q-61 0 -132 -46l-87 245q97 53 225 53q463 0 463 -545v-40q0 -130 3 -154q13 -92 70 -129q41 -27 101 -27q155 0 206 137q25 67 25 202v532h281v-1466z"/>
<glyph glyph-name="uni02AF" horiz-adv-x="1494" unicode="ʯ" d="M1755 -378q-97 -53 -225 -53q-196 0 -303 82q-160 123 -160 435v49q-136 -159 -325 -159q-202 0 -292 128q-69 98 -69 335v99q0 296 -188 296q-61 0 -132 -46l-87 245q97 53 225 53q463 0 463 -545v-40q0 -130 3 -154q13 -92 70 -129q41 -27 101 -27q155 0 206 137 q25 67 25 202v532h281v-985q0 -130 40 -189q44 -67 148 -67q61 0 132 46z"/>
<glyph glyph-name="uni02B0" horiz-adv-x="753" unicode="ʰ" d="M703 474h-190v380q0 91 -2 104q-8 61 -47 87q-28 18 -68 18q-105 0 -139 -92q-17 -46 -17 -137v-360h-190v992h190v-365q92 108 219 108q137 0 198 -87q46 -65 46 -226v-422z"/>
<glyph glyph-name="uni02B1" horiz-adv-x="753" unicode="ʱ" d="M703 474h-190v379q0 89 -2 104q-8 63 -46 88q-26 17 -69 17q-105 0 -139 -92q-17 -46 -17 -137v-359h-190v770q0 81 13 121q19 58 77 89q50 27 131 27q82 0 159 -24l-26 -132q-42 10 -87 10q-42 0 -59.5 -18.5t-17.5 -74.5v-142q92 108 219 108q137 0 198 -87 q46 -65 46 -226v-421z"/>
<glyph glyph-name="uni02B2" horiz-adv-x="398" unicode="ʲ" d="M318 496q0 -112 -8 -155q-17 -89 -78 -127q-51 -32 -131 -32q-53 0 -131 21l33 162q30 -6 47 -6q57 0 72 42q6 17 6 106v685h190v-696zM318 1289h-190v176h190v-176z"/>
<glyph glyph-name="uni02B3" horiz-adv-x="516" unicode="ʳ" d="M516 1172l-59 -165q-48 31 -90 31q-83 0 -111 -102q-16 -58 -16 -240v-222h-190v718h177v-102q74 118 163 118q66 0 126 -36z"/>
<glyph glyph-name="uni02B4" horiz-adv-x="516" unicode="ʴ" d="M466 474h-177v102q-74 -118 -163 -118q-66 0 -126 36l59 165q48 -31 90 -31q83 0 111 102q16 58 16 240v222h190v-718z"/>
<glyph glyph-name="uni02B5" horiz-adv-x="516" unicode="ʵ" d="M624 203l-5 -1q-72 -19 -126 -19q-161 0 -199 120q-18 57 -18 192v68q-31 -58 -58 -79q-34 -26 -93 -26q-65 0 -125 36l58 165q48 -31 90 -31q84 0 112 102q16 58 16 240v222h190v-684v-74q4 -44 31 -62q19 -13 47 -13q17 0 47 6z"/>
<glyph glyph-name="uni02B6" horiz-adv-x="768" unicode="ʶ" d="M510 688q0 93 -147 93h-124v-185h136q135 0 135 92zM768 1192l-136 -208q-59 -90 -105 -103q83 -5 131 -62t48 -141q0 -123 -87 -170q-63 -34 -195 -34h-374v718h189v-298h17q59 0 91 17t63 66q-1 -6 137 215h221z"/>
<glyph glyph-name="uni02B7" horiz-adv-x="1071" unicode="ʷ" d="M1071 1192l-231 -718h-182l-124 462l-122 -462h-184l-228 718h185l135 -471l123 471h183l120 -471l137 471h188z"/>
<glyph glyph-name="uni02B8" horiz-adv-x="738" unicode="ʸ" d="M738 1192l-299 -816q-40 -109 -100 -151t-169 -42q-57 0 -107 11l-17 149q46 -9 80 -9q108 0 147 138l-273 720h202l172 -510l167 510h197z"/>
<glyph glyph-name="uni02B9" horiz-adv-x="487" unicode="ʹ" d="M145 945l-53 273v248h306v-248l-46 -273h-207z"/>
<glyph glyph-name="uni02BA" horiz-adv-x="971" unicode="ʺ" d="M616 945l-53 273v248h306v-248l-46 -273h-207zM165 945l-53 273v248h306v-248l-46 -273h-207z"/>
<glyph glyph-name="uni02BB" horiz-adv-x="569" unicode="ʻ" d="M456 1364q-155 -52 -159 -211h136v-281h-281v201q0 221 101 319q58 56 148 88z"/>
<glyph glyph-name="uni02BC" horiz-adv-x="569" unicode="ʼ" d="M421 1264q0 -111 -15 -172q-22 -85 -86 -146q-59 -57 -148 -89l-55 117q156 52 158 211h-135v281h281v-202z"/>
<glyph glyph-name="uni02BD" horiz-adv-x="569" unicode="ʽ" d="M452 974l-55 -117q-181 65 -227 215q-22 72 -22 192v202h281v-281h-135q2 -159 158 -211z"/>
<glyph glyph-name="uni02BE" horiz-adv-x="682" unicode="ʾ" d="M439 1342q0 -82 -57 -139t-139 -57v107q37 0 63 26t26 63t-26 63t-63 26v107q82 0 139 -57t57 -139z"/>
<glyph glyph-name="uni02BF" horiz-adv-x="682" unicode="ʿ" d="M439 1146q-82 0 -139 57t-57 139t57 139t139 57v-107q-37 0 -63 -26t-26 -63t26 -63t63 -26v-107z"/>
<glyph glyph-name="uni02C0" horiz-adv-x="768" unicode="ˀ" d="M718 1106q0 -143 -63 -238q-66 -100 -189 -127v-267h-189v428q40 -16 87 -16q159 0 159 233q0 213 -156 213q-111 0 -130 -113l-187 34q67 228 320 228q168 0 260 -105q88 -100 88 -270z"/>
<glyph glyph-name="uni02C1" horiz-adv-x="768" unicode="ˁ" d="M718 1253l-187 -34q-19 113 -130 113q-156 0 -156 -213q0 -233 159 -233q47 0 87 16v-428h-189v267q-123 27 -189 127q-63 95 -63 238q0 170 88 270q92 105 260 105q253 0 320 -228z"/>
<glyph glyph-name="uni02C2" horiz-adv-x="1196" unicode="˂" d="M1100 167l-1005 437v242l1005 435v-285l-701 -268l701 -278v-283z"/>
<glyph glyph-name="uni02C3" horiz-adv-x="1196" unicode="˃" d="M95 166v283l702 276l-702 273v281l1006 -435v-240z"/>
<glyph glyph-name="uni02C4" horiz-adv-x="1196" unicode="˄" d="M1155 220h-281l-273 702l-276 -702h-283l438 1006h240z"/>
<glyph glyph-name="uni02C5" horiz-adv-x="1196" unicode="˅" d="M1155 1226l-435 -1006h-240l-438 1006h283l276 -702l273 702h281z"/>
<glyph glyph-name="circumflex" horiz-adv-x="682" unicode="ˆ" d="M3 1196l210 295h260l207 -295h-226l-116 149l-108 -149h-227z"/>
<glyph glyph-name="caron" horiz-adv-x="682" unicode="ˇ" d="M3 1491h227l108 -149l116 149h226l-207 -295h-260z"/>
<glyph glyph-name="uni02C8" horiz-adv-x="682" unicode="ˈ" d="M392 1134h-103v332h103v-332z"/>
<glyph glyph-name="macron" horiz-adv-x="682" unicode="ˉ" d="M19 1237v185h644v-185h-644z"/>
<glyph glyph-name="uni02CA" horiz-adv-x="682" unicode="ˊ" d="M640 1491l-275 -299h-178l138 299h315z"/>
<glyph glyph-name="uni02CB" horiz-adv-x="682" unicode="ˋ" d="M495 1192h-177l-276 299h315z"/>
<glyph glyph-name="uni02CC" horiz-adv-x="682" unicode="ˌ" d="M392 -407h-103v332h103v-332z"/>
<glyph glyph-name="uni02CD" horiz-adv-x="682" unicode="ˍ" d="M663 -298h-644v185h644v-185z"/>
<glyph glyph-name="uni02CE" horiz-adv-x="682" unicode="ˎ" d="M495 -404h-177l-276 299h315z"/>
<glyph glyph-name="uni02CF" horiz-adv-x="682" unicode="ˏ" d="M640 -105l-275 -299h-178l138 299h315z"/>
<glyph glyph-name="uni02D0" horiz-adv-x="682" unicode="ː" d="M487 0h-285l90 283h105zM487 1062l-90 -283h-105l-90 283h285z"/>
<glyph glyph-name="uni02D1" horiz-adv-x="682" unicode="ˑ" d="M487 1062l-90 -283h-105l-90 283h285z"/>
<glyph glyph-name="uni02D2" horiz-adv-x="682" unicode="˒" d="M439 296q0 -82 -57 -139t-139 -57v107q37 0 63 26t26 63t-26 63t-63 26v107q82 0 139 -57t57 -139z"/>
<glyph glyph-name="uni02D3" horiz-adv-x="682" unicode="˓" d="M439 100q-82 0 -139 57t-57 139t57 139t139 57v-107q-37 0 -63 -26t-26 -63t26 -63t63 -26v-107z"/>
<glyph glyph-name="uni02D4" horiz-adv-x="682" unicode="˔" d="M515 178h-349v103h123v229h103v-229h123v-103z"/>
<glyph glyph-name="uni02D5" horiz-adv-x="682" unicode="˕" d="M515 407h-123v-229h-103v229h-123v103h349v-103z"/>
<glyph glyph-name="uni02D6" horiz-adv-x="682" unicode="˖" d="M515 293h-123v-115h-103v115h-123v103h123v114h103v-114h123v-103z"/>
<glyph glyph-name="uni02D7" horiz-adv-x="682" unicode="˗" d="M663 269h-644v185h644v-185z"/>
<glyph glyph-name="breve" horiz-adv-x="682" unicode="˘" d="M513 1491h137q-12 -136 -95.5 -213.5t-216.5 -77.5t-216.5 77.5t-95.5 213.5h137q7 -71 50 -107.5t125 -36.5t125 36.5t50 107.5z"/>
<glyph glyph-name="dotaccent" horiz-adv-x="682" unicode="˙" d="M205 1225v266h276v-266h-276z"/>
<glyph glyph-name="ring" horiz-adv-x="682" unicode="˚" d="M430 1342q0 37 -26 63t-63 26t-63 -26t-26 -63t26 -63t63 -26t63 26t26 63zM537 1342q0 -81 -57.5 -138.5t-138.5 -57.5t-138.5 57.5t-57.5 138.5t57.5 138.5t138.5 57.5t138.5 -57t57.5 -139z"/>
<glyph glyph-name="ogonek" horiz-adv-x="682" unicode="˛" d="M353 0q-19 -14 -34.5 -32.5t-26.5 -39.5t-17 -42.5t-6 -41.5q0 -33 17.5 -55.5t58.5 -22.5q18 0 40.5 6.5t42.5 12.5v-167q-84 -40 -151 -40q-56 0 -97 15t-68.5 41t-41 60.5t-13.5 73.5q0 58 35 121t94 111h167z"/>
<glyph glyph-name="tilde" horiz-adv-x="682" unicode="˜" d="M116 1205h-128q-1 23 -1 36q0 105 51 161.5t131 56.5q35 0 65 -7.5t109.5 -43t124.5 -35.5q32 0 53.5 20t27.5 67h130q-1 -135 -50.5 -193t-127.5 -58q-34 0 -67 7q-23 6 -115 41t-134 35q-32 0 -50 -19.5t-19 -67.5z"/>
<glyph glyph-name="hungarumlaut" horiz-adv-x="682" unicode="˝" d="M472 1197l141 298h286l-247 -298h-180zM96 1197l139 298h294l-257 -298h-176z"/>
<glyph glyph-name="uni02DE" horiz-adv-x="682" unicode="˞" d="M598 434q-128 -64 -264 -64q-218 0 -265 217l-69 -14l-31 202l243 47l23 -134q21 -123 130 -123q86 0 198 66z"/>
<glyph glyph-name="uni02DF" horiz-adv-x="682" unicode="˟" d="M687 870l-96 -96l-250 251l-250 -251l-96 96l251 250l-251 250l96 96l250 -251l250 251l96 -96l-251 -250z"/>
<glyph glyph-name="uni02E0" horiz-adv-x="749" unicode="ˠ" d="M405 363q0 30 -32 84q-29 -49 -29 -84t29 -35q32 0 32 35zM749 1192l-262 -554l66 -156q30 -71 30 -121q0 -178 -207 -178q-210 0 -210 178q0 50 30 121l66 156l-262 554h201l172 -380l175 380h201z"/>
<glyph glyph-name="uni02E1" horiz-adv-x="289" unicode="ˡ" d="M239 474h-189v992h189v-992z"/>
</font>
</defs>
</svg>
